<svg width="34" height="34" viewBox="0 0 34 34" fill="none" xmlns="http://www.w3.org/2000/svg">
<path d="M1.71662 0L0 1.71544L3.02452 6.94346L4.98638 6.65756L16.9619 18.6248L15.9401 19.6051C15.4189 20.1258 15.4189 20.9223 15.9401 21.4431L16.4714 21.974C16.9925 22.4948 17.7946 22.4948 18.188 21.974L19.7411 23.5261C19.6083 24.3123 19.7411 25.2415 20.3951 25.895L27.4659 32.9202C28.9067 34.3599 31.2568 34.3599 32.6975 32.9202C34.3988 31.3528 34.3835 29.0094 32.9428 27.5696L25.9128 20.5036C25.2589 19.8501 24.329 19.5898 23.5422 19.8501L21.8256 18.2981C22.219 17.7773 22.219 16.9757 21.8256 16.5826L21.3351 16.0925C20.814 15.5717 20.017 15.5717 19.4959 16.0925L18.6376 16.9502L6.66212 4.98296L6.94823 3.02245L1.71662 0ZM27.2207 0.0408439C24.6407 -0.173587 21.2227 1.53675 19.6185 3.02245C17.6516 4.98806 17.9683 7.56633 19.5368 10.0476L16.7575 12.825L18.7193 15.0306C19.7667 14.1167 21.3096 14.1167 22.3569 15.0306L23.0109 15.6841L24.1553 14.5404C26.5208 15.9291 28.9833 16.1282 30.8583 14.2545C32.6873 12.5544 34.6747 8.36279 33.7602 5.88152L30.0817 9.68001C29.5606 10.2008 28.7636 10.2008 28.2425 9.68001L24.4414 5.88152C23.9203 5.36076 23.9203 4.56431 24.4414 4.04355L28.2425 0.245063C27.9155 0.132743 27.5886 0.0714768 27.2207 0.0408439ZM12.8338 16.3376L8.09264 21.0755C7.60218 20.958 7.07084 20.9121 6.53951 20.9121C2.87636 20.9121 0 23.7865 0 27.4471C0 31.1077 2.87636 33.9821 6.53951 33.9821C10.2027 33.9821 13.079 31.1077 13.079 27.4471C13.079 26.7783 12.9717 26.1299 12.7929 25.5274L15.5722 22.7501L15.1635 22.2191C14.1161 21.1725 14.1264 19.5898 15.0409 18.5431L12.8338 16.3376ZM22.97 22.3008C23.1335 22.3008 23.2868 22.3314 23.4196 22.4641L31.1444 30.1836C31.405 30.444 31.405 30.8627 31.1444 31.1231C30.8839 31.3834 30.4649 31.3834 30.2044 31.1231L22.4796 23.4036C22.219 23.1432 22.219 22.7245 22.4796 22.4641C22.6124 22.3314 22.8065 22.3008 22.97 22.3008ZM7.43869 24.0571L9.93188 26.5485L9.0327 29.9386L5.64033 30.8372L3.14714 28.3457L4.04632 24.9556L7.43869 24.0571Z" fill="#E53F4D"/>
</svg>
