<svg width="47" height="55" viewBox="0 0 47 55" fill="none" xmlns="http://www.w3.org/2000/svg">
<path d="M5.875 0C2.64865 0 0 2.6567 0 5.89286V41.25C0 44.4862 2.64865 47.1429 5.875 47.1429H7.83333V49.1071C7.83333 52.3433 10.482 55 13.7083 55H41.125C44.3514 55 47 52.3433 47 49.1071V13.75C47 10.5138 44.3514 7.85714 41.125 7.85714H39.1667V5.89286C39.1667 2.6567 36.518 0 33.2917 0H5.875ZM5.875 3.92857H33.2917C34.3932 3.92857 35.25 4.78795 35.25 5.89286V41.25C35.25 42.3549 34.3932 43.2143 33.2917 43.2143H5.875C4.77344 43.2143 3.91667 42.3549 3.91667 41.25V5.89286C3.91667 4.78795 4.77344 3.92857 5.875 3.92857ZM39.1667 11.7857H41.125C42.2266 11.7857 43.0833 12.6451 43.0833 13.75V49.1071C43.0833 50.2121 42.2266 51.0714 41.125 51.0714H13.7083C12.6068 51.0714 11.75 50.2121 11.75 49.1071V47.1429H33.2917C36.518 47.1429 39.1667 44.4862 39.1667 41.25V11.7857ZM17.4879 15.7143L22.795 21.0571L16.7389 26.3018L13.7867 23.3259L7.99979 28.4821L10.6044 31.4286L13.63 28.7277L16.5528 31.6446L25.5807 23.8317L31.3333 29.6018V15.7143H17.4879Z" fill="#1975A9"/>
</svg>
