<svg width="40" height="40" viewBox="0 0 40 40" fill="none" xmlns="http://www.w3.org/2000/svg">
<path d="M19.8793 0.000196268C15.1183 -0.0209386 10.5074 1.66547 6.88347 4.75338C3.25954 7.84129 0.8627 12.1261 0.12793 16.8301L3.71112 17.4006C4.36548 13.3362 6.52672 9.66747 9.76443 7.12493C13.0021 4.5824 17.0787 3.35266 21.1823 3.68063C25.286 4.0086 29.1155 5.87022 31.9082 8.89473C34.701 11.9192 36.2521 15.8847 36.2526 20.0014C36.2529 21.091 36.1454 22.1779 35.9315 23.2462L39.489 23.9602C40.0723 21.0565 40.0039 18.0595 39.2889 15.1854C38.5739 12.3113 37.23 9.63163 35.3542 7.33967C33.4784 5.04771 31.1173 3.20054 28.4413 1.93136C25.7653 0.662175 22.841 0.00260211 19.8793 0.000196268Z" fill="#1975A9"/>
<path d="M23.4212 32.2627C21.0428 33.3641 18.3933 33.7426 15.8016 33.3512C14.4292 33.1492 13.0956 32.7393 11.8467 32.1357C10.5299 31.5253 9.31761 30.711 8.25463 29.7228C7.13835 28.7157 6.17838 27.5478 5.40635 26.2577C4.62011 24.9114 4.01903 23.4651 3.61935 21.9581L1.8551 22.1709L0 22.1762L0.012843 22.3932C0.477443 26.2409 2.04969 29.8708 4.53849 32.8417C7.0273 35.8126 10.3255 37.9966 14.0322 39.1282C17.7389 40.2599 21.6945 40.2905 25.4183 39.2163C29.1421 38.1421 32.4736 36.0093 35.0081 33.0773V26.6845L28.6279 27.5549C27.3944 29.6031 25.5829 31.241 23.4212 32.2627Z" fill="#1975A9"/>
<path d="M16.2354 15.6849C16.0649 15.685 15.9015 15.7527 15.7809 15.8732C15.6604 15.9937 15.5927 16.1572 15.5927 16.3276V19.5247C15.5854 19.7436 15.6231 19.9618 15.7036 20.1655C15.7841 20.3693 15.9055 20.5544 16.0604 20.7093C16.2153 20.8642 16.4004 20.9857 16.6042 21.0661C16.808 21.1466 17.0261 21.1843 17.245 21.177H18.9582V23.6725C18.9582 23.7569 18.9749 23.8404 19.0072 23.9184C19.0395 23.9964 19.0868 24.0672 19.1465 24.1269C19.2061 24.1866 19.277 24.2339 19.355 24.2662C19.4329 24.2985 19.5165 24.3151 19.6009 24.3151C19.6853 24.3151 19.7688 24.2985 19.8468 24.2662C19.9248 24.2339 19.9956 24.1866 20.0553 24.1269C20.115 24.0672 20.1623 23.9964 20.1946 23.9184C20.2269 23.8404 20.2435 23.7569 20.2435 23.6725V16.3276C20.2435 16.2432 20.2269 16.1596 20.1946 16.0817C20.1623 16.0037 20.115 15.9329 20.0553 15.8732C19.9956 15.8135 19.9248 15.7662 19.8468 15.7339C19.7688 15.7016 19.6853 15.685 19.6009 15.685C19.5165 15.685 19.4329 15.7016 19.355 15.7339C19.277 15.7662 19.2061 15.8135 19.1465 15.8732C19.0868 15.9329 19.0395 16.0037 19.0072 16.0817C18.9749 16.1596 18.9582 16.2432 18.9582 16.3276V19.8918H17.245C17.1952 19.8989 17.1443 19.8943 17.0965 19.8784C17.0487 19.8625 17.0053 19.8356 16.9697 19.8C16.9341 19.7644 16.9072 19.721 16.8913 19.6732C16.8754 19.6254 16.8708 19.5746 16.8779 19.5247V16.3276C16.8779 16.1572 16.8102 15.9937 16.6897 15.8732C16.5692 15.7527 16.4058 15.685 16.2354 15.6849Z" fill="#1975A9"/>
<path d="M9.29858 23.2182C9.20871 23.3081 9.1475 23.4226 9.1227 23.5472C9.0979 23.6719 9.11063 23.8011 9.15926 23.9185C9.2079 24.0359 9.29026 24.1363 9.39594 24.2069C9.50162 24.2775 9.62586 24.3152 9.75296 24.3152H14.1854C14.3558 24.3152 14.5193 24.2475 14.6398 24.127C14.7603 24.0065 14.828 23.843 14.828 23.6726C14.828 23.5022 14.7603 23.3387 14.6398 23.2182C14.5193 23.0977 14.3558 23.0299 14.1854 23.0299H11.3043L14.0367 20.2976C14.5421 19.7906 14.8257 19.1037 14.8252 18.3878C14.8247 17.6719 14.54 16.9855 14.0338 16.4793C13.5276 15.973 12.8411 15.6884 12.1252 15.6879C11.4093 15.6873 10.7225 15.9709 10.2155 16.4764L9.75862 16.9333C9.63812 17.0538 9.57042 17.2172 9.57042 17.3876C9.57042 17.558 9.63812 17.7215 9.75862 17.842C9.87912 17.9625 10.0426 18.0302 10.213 18.0302C10.3834 18.0302 10.5468 17.9625 10.6673 17.842L11.1242 17.3851C11.39 17.1196 11.7503 16.9705 12.1259 16.9706C12.5016 16.9707 12.8618 17.12 13.1275 17.3856C13.3931 17.6513 13.5424 18.0115 13.5425 18.3872C13.5426 18.7628 13.3935 19.1231 13.128 19.3889L9.29858 23.2182Z" fill="#1975A9"/>
<path d="M26.6737 24.5022C26.751 24.5343 26.8339 24.5508 26.9175 24.5508C27.045 24.5508 27.1696 24.5128 27.2755 24.4418C27.3813 24.3708 27.4637 24.2699 27.5121 24.152L30.7234 16.3361C30.7635 16.2385 30.7789 16.1325 30.7683 16.0276C30.7577 15.9226 30.7215 15.8218 30.6627 15.7342C30.604 15.6466 30.5246 15.5747 30.4315 15.5251C30.3384 15.4754 30.2345 15.4494 30.129 15.4494H25.444C25.3593 15.4488 25.2752 15.4649 25.1967 15.497C25.1182 15.529 25.0469 15.5762 24.9867 15.636C24.9266 15.6957 24.8788 15.7667 24.8462 15.845C24.8136 15.9233 24.7969 16.0072 24.7969 16.092C24.7969 16.1767 24.8136 16.2607 24.8462 16.3389C24.8788 16.4172 24.9266 16.4883 24.9867 16.548C25.0469 16.6077 25.1182 16.655 25.1967 16.687C25.2752 16.719 25.3593 16.7352 25.444 16.7346H29.1701L26.3236 23.6637C26.2915 23.7418 26.2751 23.8254 26.2753 23.9098C26.2755 23.9941 26.2924 24.0777 26.3249 24.1555C26.3574 24.2334 26.405 24.3041 26.4648 24.3636C26.5247 24.423 26.5957 24.4701 26.6737 24.5022Z" fill="#1975A9"/>
<path d="M21.654 25.7492C21.8056 25.749 21.9523 25.6952 22.0681 25.5973C22.1839 25.4995 22.2614 25.3638 22.2868 25.2143L24.024 15.0017C24.0522 14.8338 24.0127 14.6615 23.9141 14.5228C23.8154 14.384 23.6658 14.29 23.4979 14.2615C23.3301 14.233 23.1578 14.2723 23.0188 14.3707C22.8799 14.4691 22.7857 14.6186 22.7569 14.7864L21.0198 24.999C21.0042 25.0912 21.0088 25.1858 21.0335 25.276C21.0581 25.3662 21.1022 25.45 21.1626 25.5214C21.223 25.5929 21.2982 25.6503 21.3831 25.6896C21.468 25.729 21.5604 25.7493 21.654 25.7492H21.654Z" fill="#1975A9"/>
</svg>
