<svg width="794" height="369" viewBox="0 0 794 369" fill="none" xmlns="http://www.w3.org/2000/svg">
<g opacity="0.1">
<path opacity="0.8516" d="M786.951 369H788.063L779.051 363.756V243.143L793.037 234.993V234.35L778.637 242.739L778.502 242.819V364.075L786.951 369Z" fill="#333333"/>
<path opacity="0.9669" d="M778.777 227.542L792.025 235.263V250.699L778.777 258.42L765.523 250.699V235.263L778.777 227.542ZM791.472 235.587L778.772 228.185L766.071 235.587V250.38L778.772 257.777L791.472 250.375V235.587Z" fill="#333333"/>
<path opacity="0.716" d="M770.597 369L778.776 364.235L786.951 369H788.062L778.776 363.592L769.49 369H770.597Z" fill="#333333"/>
<path opacity="0.8412" d="M778.777 364.235L793.037 355.926V355.288L778.777 363.592L727.153 333.521V273.374L778.777 243.307L793.037 251.611V250.968L778.916 242.739L778.777 242.659L726.739 272.975L726.6 273.055V333.845L778.777 364.235Z" fill="#333333"/>
<path opacity="0.994" d="M674.981 182.193L727.153 212.588V273.374L674.976 303.764L622.804 273.374V212.588L674.981 182.193ZM726.6 212.912L674.976 182.836L623.352 212.912V273.055L674.976 303.126L726.6 273.055V212.912Z" fill="#333333"/>
<path opacity="0.9394" d="M674.981 182.193L727.153 212.588V273.374L674.976 303.764L622.804 273.374V212.588L674.981 182.193ZM726.6 212.912L674.976 182.836L623.352 212.912V273.055L674.976 303.126L726.6 273.055V212.912Z" fill="#333333"/>
<path opacity="0.9775" d="M666.797 369L674.981 364.235L683.156 369H684.262L674.981 363.592L665.695 369H666.797Z" fill="#333333"/>
<path opacity="0.7716" d="M674.981 242.659L675.115 242.739L727.158 273.055V333.845L674.981 364.235L622.809 333.845V273.055L622.943 272.975L674.981 242.659ZM726.599 273.374L674.976 243.302L623.352 273.374V333.521L674.981 363.592L726.599 333.521V273.374Z" fill="#333333"/>
<path opacity="0.6343" d="M666.797 369L674.981 364.235L683.156 369H684.262L674.981 363.592L665.695 369H666.797Z" fill="#333333"/>
<path opacity="0.6715" d="M545.505 369V348.958L571.18 334.004L596.854 348.958V369H597.408V348.634L571.18 333.356L544.951 348.634V369H545.505Z" fill="#333333"/>
<path opacity="0.9459" d="M519.556 369V333.845L571.18 303.769L622.804 333.845V369H623.352V333.521L571.18 303.126L519.008 333.521V369H519.556Z" fill="#333333"/>
<path opacity="0.5261" d="M571.18 227.542L584.433 235.263V250.699L571.18 258.42L557.936 250.699V235.263L571.18 227.542ZM583.875 235.587L571.175 228.185L558.479 235.587V250.38L571.175 257.777L583.875 250.38V235.587Z" fill="#333333"/>
<path opacity="0.5223" d="M674.981 242.659L675.115 242.739L727.158 273.055V333.845L674.981 364.235L622.809 333.845V273.055L622.943 272.975L674.981 242.659ZM726.599 273.374L674.976 243.302L623.352 273.374V333.521L674.981 363.592L726.599 333.521V273.374Z" fill="#333333"/>
<path opacity="0.8962" d="M454.683 369V356.514L467.383 349.117L480.079 356.514V369H480.632V356.195L467.383 348.469L454.13 356.195V369H454.683Z" fill="#333333"/>
<path opacity="0.5211" d="M467.384 227.542L480.637 235.263V250.699L467.384 258.42L454.13 250.699V235.263L467.384 227.542ZM480.079 235.587L467.379 228.185L454.683 235.587V250.38L467.379 257.777L480.079 250.38V235.587Z" fill="#333333"/>
<path opacity="0.6374" d="M571.18 61.2608L571.319 61.3406L675.255 121.887V243.143L675.115 243.223L571.18 303.769L571.045 303.689L467.11 243.143V121.892L467.244 121.807L571.18 61.2608ZM674.702 122.211L571.18 61.9088L467.663 122.211V242.819L571.18 303.126L674.702 242.819V122.211Z" fill="#333333"/>
<path opacity="0.5189" d="M571.18 242.659L571.32 242.739L623.357 273.055V333.845L571.18 364.235L519.013 333.845V273.055L519.148 272.975L571.18 242.659ZM622.804 273.374L571.175 243.302L519.552 273.374V333.521L571.18 363.592L622.804 333.521V273.374Z" fill="#333333"/>
<path opacity="0.5082" d="M467.384 212.429L493.607 227.706V258.256L467.384 273.533L441.161 258.256V227.706L467.384 212.429ZM493.059 228.025L467.379 213.072L441.709 228.025V257.937L467.379 272.885L493.059 257.937V228.025Z" fill="#333333"/>
<path opacity="0.5792" d="M311.964 369V333.845L363.588 303.769L415.206 333.845V369H415.76V333.521L363.588 303.126L311.545 333.436L311.411 333.521V369H311.964Z" fill="#333333"/>
<path opacity="0.9861" d="M467.383 242.659L467.523 242.739L519.555 273.055V333.845L467.383 364.235L415.211 333.845V273.055L415.35 272.975L467.383 242.659ZM519.002 273.374L467.378 243.302L415.754 273.374V333.521L467.383 363.592L519.002 333.521V273.374Z" fill="#333333"/>
<path opacity="0.9808" d="M558.479 369V356.514L571.18 349.117L583.875 356.514V369H584.428V356.195L571.18 348.469L557.931 356.195V369H558.479Z" fill="#333333"/>
<path opacity="0.9699" d="M311.964 369V333.845L363.588 303.769L415.206 333.845V369H415.76V333.521L363.588 303.126L311.545 333.436L311.411 333.521V369H311.964Z" fill="#333333"/>
<path opacity="0.9622" d="M571.18 182.193L623.352 212.588V273.374L571.18 303.764L519.013 273.374V212.588L571.18 182.193ZM622.804 212.912L571.175 182.836L519.551 212.912V273.055L571.18 303.126L622.809 273.055V212.912H622.804Z" fill="#333333"/>
<path opacity="0.6304" d="M571.18 182.193L623.352 212.588V273.374L571.18 303.764L519.013 273.374V212.588L571.18 182.193ZM622.804 212.912L571.175 182.836L519.551 212.912V273.055L571.18 303.126L622.809 273.055V212.912H622.804Z" fill="#333333"/>
<path opacity="0.8387" d="M467.384 31.0302L493.607 46.3075V76.8671L467.384 92.1394L441.161 76.8671V46.3075L467.384 31.0302ZM493.059 46.6315L467.379 31.6732L441.709 46.6315V76.5431L467.379 91.5014L493.059 76.5431V46.6315Z" fill="#333333"/>
<path opacity="0.9051" d="M467.383 0.794594L519.555 31.1847V91.9749L467.383 122.37L415.211 91.9749V31.1847L467.383 0.794594ZM519.002 31.5087L467.378 1.43761L415.754 31.5087V91.6559L467.383 121.722L519.007 91.6559V31.5087H519.002Z" fill="#333333"/>
<path opacity="0.6545" d="M415.759 369V333.845L467.383 303.769L519.002 333.845V369H519.555V333.521L467.383 303.126L415.206 333.521V369H415.759Z" fill="#333333"/>
<path opacity="0.9574" d="M355.403 369L363.587 364.235L371.762 369H372.868L363.587 363.592L354.301 369H355.403Z" fill="#333333"/>
<path opacity="0.9474" d="M363.588 61.2608L363.727 61.3406L467.663 121.887V243.143L467.523 243.223L363.588 303.769L363.448 303.689L259.512 243.143V121.892L259.652 121.807L363.588 61.2608ZM467.109 122.211L363.588 61.9088L260.066 122.211V242.819L363.588 303.126L467.109 242.819V122.211Z" fill="#333333"/>
<path opacity="0.8086" d="M259.792 212.429L286.015 227.706V258.256L259.792 273.533L233.564 258.256V227.706L259.792 212.429ZM285.462 228.025L259.792 213.072L234.117 228.025V257.937L259.792 272.885L285.462 257.937V228.025Z" fill="#333333"/>
<path opacity="0.5531" d="M363.588 31.0302L389.811 46.3075V76.8671L363.588 92.1394L337.365 76.8671V46.3075L363.588 31.0302ZM389.258 46.6315L363.588 31.6732L337.918 46.6315V76.5431L363.588 91.5014L389.258 76.5431V46.6315Z" fill="#333333"/>
<path opacity="0.9538" d="M251.607 369L259.792 364.235L267.966 369H269.073L259.792 363.592L250.506 369H251.607Z" fill="#333333"/>
<path opacity="0.8754" d="M104.367 369V333.845L155.991 303.769L207.61 333.845V369H208.163V333.521L155.991 303.126L103.814 333.521V369H104.367Z" fill="#333333"/>
<path opacity="0.5051" d="M311.964 369V333.845L363.588 303.769L415.206 333.845V369H415.76V333.521L363.588 303.126L311.545 333.436L311.411 333.521V369H311.964Z" fill="#333333"/>
<path opacity="0.8517" d="M165.272 369L156.27 363.756V243.143L259.792 182.836L363.314 243.143V363.756L354.302 369H355.404L363.728 364.155L363.862 364.075V242.819L259.927 182.273L259.792 182.193L155.857 242.739L155.717 242.819V364.075L164.171 369H165.272Z" fill="#333333"/>
<path opacity="0.61" d="M155.991 227.542L169.245 235.263V250.699L155.991 258.42L142.742 250.699V235.263L155.991 227.542ZM168.686 235.587L155.991 228.185L143.291 235.587V250.38L155.991 257.777L168.686 250.38V235.587Z" fill="#333333"/>
<path opacity="0.6181" d="M363.588 182.193L415.76 212.588V273.374L363.588 303.764L363.448 303.684L311.416 273.369V212.588L311.55 212.504L363.588 182.193ZM415.206 212.912L363.583 182.836L311.959 212.912V273.055L363.583 303.126L415.206 273.055V212.912Z" fill="#333333"/>
<path opacity="0.876" d="M259.792 61.2608L259.927 61.3406L363.862 121.887V243.143L363.728 243.223L259.792 303.769L259.653 303.689L155.717 243.143V121.892L155.857 121.807L259.792 61.2608ZM363.314 122.211L259.792 61.9088L156.27 122.211V242.819L259.792 303.126L363.314 242.819V122.211Z" fill="#333333"/>
<path opacity="0.5845" d="M259.792 31.0302L286.015 46.3075V76.8671L259.792 92.1394L233.564 76.8671V46.3075L259.792 31.0302ZM285.462 46.6315L259.792 31.6732L234.117 46.6315V76.5431L259.792 91.5014L285.462 76.5431V46.6315Z" fill="#333333"/>
<path opacity="0.5432" d="M363.588 61.2607L363.727 61.3405L415.76 91.6558V152.446L363.588 182.836L363.448 182.756L311.416 152.441V91.6509L311.55 91.5711L363.588 61.2607ZM415.206 91.9748L363.583 61.9087L311.959 91.9748V152.122L363.583 182.193L415.206 152.122V91.9748Z" fill="#333333"/>
<path opacity="0.8471" d="M0.566223 369V333.845L52.195 303.769L103.814 333.845V369H104.367V333.521L52.195 303.126L0.017952 333.521V369H0.566223Z" fill="#333333"/>
<path opacity="0.7774" d="M155.991 272.89L182.214 288.177V318.727L155.991 334.004L129.768 318.727V288.177L155.991 272.89ZM181.666 288.496L155.991 273.533L130.321 288.496V318.403L155.991 333.356L181.666 318.403V288.496Z" fill="#333333"/>
<path opacity="0.6187" d="M147.811 369L155.99 364.235L164.17 369H165.271L155.99 363.592L146.704 369H147.811Z" fill="#333333"/>
<path opacity="0.6525" d="M26.52 369V348.958L52.1948 334.004L77.8646 348.958V369H78.418V348.634L52.1948 333.356L25.9617 348.634V369H26.52Z" fill="#333333"/>
<path opacity="0.6134" d="M0.566223 369V333.845L52.195 303.769L103.814 333.845V369H104.367V333.521L52.195 303.126L0.017952 333.521V369H0.566223Z" fill="#333333"/>
<path opacity="0.951" d="M259.793 182.193L311.965 212.588V273.374L259.793 303.764L259.653 303.684L207.616 273.369V212.588L207.75 212.504L259.793 182.193ZM311.412 212.912L259.788 182.836L208.159 212.912V273.055L259.788 303.126L311.412 273.055V212.912Z" fill="#333333"/>
<path opacity="0.6256" d="M52.195 61.2607L52.3346 61.3405L104.367 91.6558V152.446L52.195 182.836L0.017952 152.446V91.6558L0.152542 91.5761L52.195 61.2607ZM103.814 91.9748L52.195 61.9087L0.566223 91.9748V152.122L52.195 182.193L103.814 152.122V91.9748Z" fill="#333333"/>
<path opacity="0.6699" d="M259.793 61.2607L259.927 61.3405L311.965 91.6558V152.446L259.793 182.836L259.653 182.756L207.616 152.441V91.6509L207.75 91.5711L259.793 61.2607ZM311.412 91.9748L259.788 61.9087L208.159 91.9748V152.122L259.788 182.193L311.412 152.122V91.9748Z" fill="#333333"/>
<path opacity="0.6867" d="M775.467 227.866C775.467 226.021 776.947 224.526 778.776 224.526C780.606 224.526 782.086 226.021 782.086 227.866C782.086 229.71 780.606 231.21 778.776 231.21C776.942 231.21 775.467 229.71 775.467 227.866Z" fill="#333333"/>
<path opacity="0.975" d="M723.564 273.209C723.564 271.365 725.049 269.87 726.873 269.87C728.708 269.87 730.188 271.365 730.188 273.209C730.188 275.058 728.703 276.554 726.873 276.554C725.049 276.559 723.564 275.063 723.564 273.209Z" fill="#333333"/>
<path opacity="0.9056" d="M671.666 363.916C671.666 362.072 673.151 360.576 674.98 360.576C676.805 360.576 678.29 362.072 678.29 363.916C678.29 365.76 676.805 367.255 674.98 367.255C673.146 367.255 671.666 365.755 671.666 363.916Z" fill="#333333"/>
<path opacity="0.862" d="M671.666 242.983C671.666 241.134 673.151 239.644 674.98 239.644C676.805 239.644 678.29 241.134 678.29 242.983C678.29 244.828 676.805 246.323 674.98 246.323C673.146 246.323 671.666 244.828 671.666 242.983Z" fill="#333333"/>
<path opacity="0.7249" d="M593.819 348.793C593.819 346.949 595.304 345.454 597.129 345.454C598.963 345.454 600.443 346.949 600.443 348.793C600.443 350.642 598.958 352.143 597.129 352.143C595.304 352.138 593.819 350.642 593.819 348.793Z" fill="#333333"/>
<path opacity="0.5437" d="M541.916 348.793C541.916 346.949 543.401 345.454 545.23 345.454C547.055 345.454 548.54 346.949 548.54 348.793C548.54 350.642 547.055 352.143 545.23 352.143C543.401 352.138 541.916 350.642 541.916 348.793Z" fill="#333333"/>
<path opacity="0.8559" d="M619.768 333.68C619.768 331.836 621.249 330.341 623.078 330.341C624.912 330.341 626.388 331.836 626.388 333.68C626.388 335.529 624.907 337.02 623.078 337.02C621.249 337.02 619.768 335.529 619.768 333.68Z" fill="#333333"/>
<path opacity="0.691" d="M567.87 227.866C567.87 226.021 569.356 224.526 571.18 224.526C573.014 224.526 574.495 226.021 574.495 227.866C574.495 229.71 573.009 231.21 571.18 231.21C569.351 231.21 567.87 229.71 567.87 227.866Z" fill="#333333"/>
<path opacity="0.6169" d="M671.666 242.983C671.666 241.134 673.151 239.644 674.98 239.644C676.805 239.644 678.29 241.134 678.29 242.983C678.29 244.828 676.805 246.323 674.98 246.323C673.146 246.323 671.666 244.828 671.666 242.983Z" fill="#333333"/>
<path opacity="0.5121" d="M619.768 273.209C619.768 271.365 621.254 269.87 623.078 269.87C624.912 269.87 626.393 271.365 626.393 273.209C626.393 275.058 624.907 276.554 623.078 276.554C621.254 276.559 619.768 275.063 619.768 273.209Z" fill="#333333"/>
<path opacity="0.8706" d="M464.074 348.793C464.074 346.949 465.559 345.454 467.384 345.454C469.213 345.454 470.698 346.949 470.698 348.793C470.698 350.642 469.213 352.143 467.384 352.143C465.554 352.138 464.074 350.642 464.074 348.793Z" fill="#333333"/>
<path opacity="0.6625" d="M451.094 250.54C451.094 248.696 452.58 247.2 454.409 247.2C456.233 247.2 457.719 248.696 457.719 250.54C457.719 252.384 456.233 253.879 454.409 253.879C452.58 253.879 451.094 252.384 451.094 250.54Z" fill="#333333"/>
<path opacity="0.6645" d="M567.87 61.5847C567.87 59.7405 569.356 58.2452 571.18 58.2452C573.014 58.2452 574.495 59.7405 574.495 61.5847C574.495 63.429 573.009 64.9243 571.18 64.9243C569.351 64.9243 567.87 63.429 567.87 61.5847Z" fill="#333333"/>
<path opacity="0.9538" d="M464.074 122.046C464.074 120.202 465.559 118.706 467.384 118.706C469.213 118.706 470.698 120.202 470.698 122.046C470.698 123.895 469.213 125.385 467.384 125.385C465.554 125.39 464.074 123.9 464.074 122.046Z" fill="#333333"/>
<path opacity="0.6405" d="M671.666 242.983C671.666 241.134 673.151 239.644 674.98 239.644C676.805 239.644 678.29 241.134 678.29 242.983C678.29 244.828 676.805 246.323 674.98 246.323C673.146 246.323 671.666 244.828 671.666 242.983Z" fill="#333333"/>
<path opacity="0.5246" d="M567.87 242.983C567.87 241.134 569.356 239.644 571.18 239.644C573.014 239.644 574.495 241.134 574.495 242.983C574.495 244.828 573.009 246.323 571.18 246.323C569.351 246.323 567.87 244.828 567.87 242.983Z" fill="#333333"/>
<path opacity="0.7605" d="M515.967 273.209C515.967 271.365 517.452 269.87 519.281 269.87C521.11 269.87 522.591 271.365 522.591 273.209C522.591 275.058 521.11 276.554 519.281 276.554C517.452 276.559 515.967 275.063 515.967 273.209Z" fill="#333333"/>
<path opacity="0.6166" d="M515.967 333.68C515.967 331.836 517.452 330.341 519.281 330.341C521.11 330.341 522.591 331.836 522.591 333.68C522.591 335.529 521.11 337.02 519.281 337.02C517.452 337.02 515.967 335.529 515.967 333.68Z" fill="#333333"/>
<path opacity="0.5032" d="M438.12 258.096C438.12 256.252 439.606 254.757 441.43 254.757C443.259 254.757 444.745 256.252 444.745 258.096C444.745 259.946 443.259 261.436 441.43 261.436C439.606 261.441 438.12 259.946 438.12 258.096Z" fill="#333333"/>
<path opacity="0.9074" d="M308.375 333.68C308.375 331.836 309.86 330.341 311.684 330.341C313.514 330.341 314.994 331.836 314.994 333.68C314.994 335.529 313.514 337.02 311.684 337.02C309.86 337.02 308.375 335.529 308.375 333.68Z" fill="#333333"/>
<path opacity="0.6002" d="M586.367 369C585.784 368.462 585.011 368.128 584.159 368.128C583.302 368.128 582.534 368.462 581.946 369H586.367Z" fill="#333333"/>
<path opacity="0.6002" d="M360.278 303.445C360.278 301.6 361.758 300.105 363.588 300.105C365.417 300.105 366.897 301.6 366.897 303.445C366.897 305.294 365.417 306.789 363.588 306.789C361.758 306.789 360.278 305.294 360.278 303.445Z" fill="#333333"/>
<path opacity="0.6607" d="M515.967 273.209C515.967 271.365 517.452 269.87 519.281 269.87C521.11 269.87 522.591 271.365 522.591 273.209C522.591 275.058 521.11 276.554 519.281 276.554C517.452 276.559 515.967 275.063 515.967 273.209Z" fill="#333333"/>
<path opacity="0.5786" d="M438.12 46.4669C438.12 44.6227 439.606 43.1273 441.43 43.1273C443.259 43.1273 444.745 44.6227 444.745 46.4669C444.745 48.3162 443.259 49.8065 441.43 49.8065C439.606 49.8065 438.12 48.3162 438.12 46.4669Z" fill="#333333"/>
<path opacity="0.9283" d="M464.074 91.8203C464.074 89.9711 465.559 88.4758 467.384 88.4758C469.213 88.4758 470.698 89.9711 470.698 91.8203C470.698 93.6646 469.213 95.1599 467.384 95.1599C465.554 95.1599 464.074 93.6646 464.074 91.8203Z" fill="#333333"/>
<path opacity="0.6334" d="M490.023 76.7026C490.023 74.8583 491.504 73.363 493.333 73.363C495.162 73.363 496.643 74.8583 496.643 76.7026C496.643 78.5468 495.162 80.0471 493.333 80.0471C491.504 80.0471 490.023 78.5418 490.023 76.7026Z" fill="#333333"/>
<path opacity="0.6939" d="M515.967 31.3491C515.967 29.5049 517.452 28.0095 519.281 28.0095C521.105 28.0095 522.591 29.5099 522.591 31.3491C522.591 33.1934 521.105 34.6887 519.281 34.6887C517.452 34.6937 515.967 33.1934 515.967 31.3491Z" fill="#333333"/>
<path opacity="0.7705" d="M464.074 303.445C464.074 301.6 465.559 300.105 467.384 300.105C469.213 300.105 470.698 301.6 470.698 303.445C470.698 305.294 469.213 306.789 467.384 306.789C465.554 306.789 464.074 305.294 464.074 303.445Z" fill="#333333"/>
<path opacity="0.8428" d="M412.172 333.68C412.172 331.836 413.657 330.341 415.491 330.341C417.315 330.341 418.801 331.836 418.801 333.68C418.801 335.529 417.315 337.02 415.491 337.02C413.657 337.02 412.172 335.529 412.172 333.68Z" fill="#333333"/>
<path opacity="0.9917" d="M230.523 227.866C230.523 226.021 232.008 224.526 233.838 224.526C235.662 224.526 237.147 226.021 237.147 227.866C237.147 229.71 235.662 231.21 233.838 231.21C232.008 231.21 230.523 229.71 230.523 227.866Z" fill="#333333"/>
<path opacity="0.9612" d="M230.523 258.096C230.523 256.252 232.008 254.757 233.838 254.757C235.662 254.757 237.147 256.252 237.147 258.096C237.147 259.946 235.662 261.436 233.838 261.436C232.008 261.441 230.523 259.946 230.523 258.096Z" fill="#333333"/>
<path opacity="0.6836" d="M100.779 333.68C100.779 331.836 102.264 330.341 104.093 330.341C105.918 330.341 107.403 331.836 107.403 333.68C107.403 335.529 105.918 337.02 104.093 337.02C102.264 337.02 100.779 335.529 100.779 333.68Z" fill="#333333"/>
<path opacity="0.9087" d="M412.171 333.68C412.171 331.836 413.656 330.341 415.481 330.341C417.31 330.341 418.795 331.836 418.795 333.68C418.795 335.529 417.31 337.02 415.481 337.02C413.656 337.02 412.171 335.529 412.171 333.68Z" fill="#333333"/>
<path opacity="0.7254" d="M308.375 333.68C308.375 331.836 309.86 330.341 311.684 330.341C313.514 330.341 314.994 331.836 314.994 333.68C314.994 335.529 313.514 337.02 311.684 337.02C309.86 337.02 308.375 335.529 308.375 333.68Z" fill="#333333"/>
<path opacity="0.5217" d="M360.278 242.983C360.278 241.134 361.758 239.644 363.588 239.644C365.417 239.644 366.897 241.134 366.897 242.983C366.897 244.828 365.417 246.323 363.588 246.323C361.758 246.323 360.278 244.828 360.278 242.983Z" fill="#333333"/>
<path opacity="0.758" d="M360.278 363.916C360.278 362.072 361.758 360.576 363.588 360.576C365.417 360.576 366.897 362.072 366.897 363.916C366.897 365.76 365.417 367.255 363.588 367.255C361.758 367.255 360.278 365.755 360.278 363.916Z" fill="#333333"/>
<path opacity="0.5672" d="M165.651 235.422C165.651 233.578 167.136 232.082 168.97 232.082C170.794 232.082 172.28 233.578 172.28 235.422C172.28 237.271 170.794 238.767 168.97 238.767C167.136 238.767 165.651 237.271 165.651 235.422Z" fill="#333333"/>
<path opacity="0.6639" d="M139.702 250.54C139.702 248.696 141.187 247.2 143.016 247.2C144.841 247.2 146.326 248.696 146.326 250.54C146.326 252.384 144.841 253.879 143.016 253.879C141.182 253.879 139.702 252.384 139.702 250.54Z" fill="#333333"/>
<path opacity="0.7845" d="M152.676 258.096C152.676 256.252 154.162 254.757 155.986 254.757C157.816 254.757 159.296 256.252 159.296 258.096C159.296 259.946 157.816 261.436 155.986 261.436C154.162 261.441 152.676 259.946 152.676 258.096Z" fill="#333333"/>
<path opacity="0.8686" d="M256.472 31.3491C256.472 29.5049 257.957 28.0095 259.787 28.0095C261.611 28.0095 263.096 29.5099 263.096 31.3491C263.096 33.1934 261.611 34.6887 259.787 34.6887C257.957 34.6937 256.472 33.1934 256.472 31.3491Z" fill="#333333"/>
<path opacity="0.9438" d="M308.375 152.282C308.375 150.437 309.86 148.942 311.684 148.942C313.514 148.942 314.994 150.437 314.994 152.282C314.994 154.126 313.514 155.626 311.684 155.626C309.86 155.626 308.375 154.126 308.375 152.282Z" fill="#333333"/>
<path opacity="0.8488" d="M360.278 182.517C360.278 180.673 361.758 179.178 363.588 179.178C365.417 179.178 366.897 180.673 366.897 182.517C366.897 184.361 365.417 185.857 363.588 185.857C361.758 185.857 360.278 184.361 360.278 182.517Z" fill="#333333"/>
<path opacity="0.5604" d="M100.779 333.68C100.779 331.836 102.264 330.341 104.088 330.341C105.923 330.341 107.403 331.836 107.403 333.68C107.403 335.529 105.918 337.02 104.088 337.02C102.264 337.02 100.779 335.529 100.779 333.68Z" fill="#333333"/>
<path opacity="0.8646" d="M48.8797 303.445C48.8797 301.6 50.3601 300.105 52.1894 300.105C54.0187 300.105 55.499 301.6 55.499 303.445C55.499 305.294 54.0187 306.789 52.1894 306.789C50.3601 306.789 48.8797 305.294 48.8797 303.445Z" fill="#333333"/>
<path opacity="0.5312" d="M152.676 273.209C152.676 271.365 154.162 269.87 155.986 269.87C157.816 269.87 159.296 271.365 159.296 273.209C159.296 275.058 157.816 276.554 155.986 276.554C154.162 276.559 152.676 275.063 152.676 273.209Z" fill="#333333"/>
<path opacity="0.7235" d="M74.8292 348.793C74.8292 346.949 76.3146 345.454 78.1439 345.454C79.9682 345.454 81.4536 346.949 81.4536 348.793C81.4536 350.642 79.9682 352.143 78.1439 352.143C76.3096 352.138 74.8292 350.642 74.8292 348.793Z" fill="#333333"/>
<path opacity="0.5885" d="M22.932 348.793C22.932 346.949 24.4173 345.454 26.2416 345.454C28.0659 345.454 29.5513 346.949 29.5513 348.793C29.5513 350.642 28.0659 352.143 26.2416 352.143C24.4173 352.138 22.932 350.642 22.932 348.793Z" fill="#333333"/>
<path opacity="0.8858" d="M308.375 212.748C308.375 210.904 309.86 209.408 311.684 209.408C313.514 209.408 314.994 210.904 314.994 212.748C314.994 214.592 313.514 216.087 311.684 216.087C309.86 216.092 308.375 214.592 308.375 212.748Z" fill="#333333"/>
<path opacity="0.5875" d="M204.579 212.748C204.579 210.904 206.054 209.408 207.889 209.408C209.718 209.408 211.198 210.904 211.198 212.748C211.198 214.592 209.718 216.087 207.889 216.087C206.059 216.092 204.579 214.592 204.579 212.748Z" fill="#333333"/>
<path opacity="0.9745" d="M48.8797 182.517C48.8797 180.673 50.3601 179.178 52.1894 179.178C54.0187 179.178 55.499 180.673 55.499 182.517C55.499 184.361 54.0187 185.857 52.1894 185.857C50.3601 185.857 48.8797 184.361 48.8797 182.517Z" fill="#333333"/>
<path opacity="0.6677" d="M256.472 61.5847C256.472 59.7405 257.957 58.2452 259.787 58.2452C261.611 58.2452 263.096 59.7405 263.096 61.5847C263.096 63.429 261.611 64.9243 259.787 64.9243C257.957 64.9243 256.472 63.429 256.472 61.5847Z" fill="#333333"/>
<path opacity="0.779" d="M256.472 182.517C256.472 180.673 257.957 179.178 259.787 179.178C261.611 179.178 263.096 180.673 263.096 182.517C263.096 184.361 261.611 185.857 259.787 185.857C257.957 185.857 256.472 184.361 256.472 182.517Z" fill="#333333"/>
</g>
</svg>
