<svg width="430" height="200" viewBox="0 0 430 200" fill="none" xmlns="http://www.w3.org/2000/svg">
<g opacity="0.3">
<path opacity="0.8516" d="M3.29263 0H2.69127L7.56685 2.83689V68.0908L0 72.4999V72.8478L7.79067 68.3093L7.86348 68.2661V2.66431L3.29263 0Z" fill="#1975A9"/>
<path opacity="0.9669" d="M7.7151 76.5313L0.547363 72.3542V64.0026L7.7151 59.8254L14.8855 64.0026V72.3542L7.7151 76.5313ZM0.846693 72.1789L7.7178 76.1834L14.5889 72.1789V64.1752L7.7178 60.1733L0.846693 64.1779V72.1789Z" fill="#1975A9"/>
<path opacity="0.716" d="M12.1405 0L7.7153 2.57801L3.29276 0H2.69141L7.7153 2.92588L12.7392 0H12.1405Z" fill="#1975A9"/>
<path opacity="0.8412" d="M7.71516 2.57812L0 7.07347V7.41864L7.71516 2.92599L35.6445 19.195V51.7357L7.71516 68.0019L0 63.5093V63.8572L7.63966 68.3094L7.71516 68.3525L35.8684 51.9514L35.9439 51.9082V19.0197L7.71516 2.57812Z" fill="#1975A9"/>
<path opacity="0.994" d="M63.8705 101.066L35.6445 84.6214V51.7355L63.8732 35.2939L92.0992 51.7355V84.6214L63.8705 101.066ZM35.9439 84.4461L63.8732 100.718L91.8026 84.4461V51.9081L63.8732 35.6391L35.9439 51.9081V84.4461Z" fill="#1975A9"/>
<path opacity="0.9394" d="M63.8705 101.066L35.6445 84.6214V51.7355L63.8732 35.2939L92.0992 51.7355V84.6214L63.8705 101.066ZM35.9439 84.4461L63.8732 100.718L91.8026 84.4461V51.9081L63.8732 35.6391L35.9439 51.9081V84.4461Z" fill="#1975A9"/>
<path opacity="0.9775" d="M68.2982 0L63.8703 2.57801L59.4478 0H58.8491L63.8703 2.92588L68.8942 0H68.2982Z" fill="#1975A9"/>
<path opacity="0.7716" d="M63.8708 68.3525L63.798 68.3094L35.6421 51.9082V19.0197L63.8708 2.57812L92.0968 19.0197V51.9082L92.024 51.9514L63.8708 68.3525ZM35.9441 51.7357L63.8735 68.0046L91.8029 51.7357V19.195L63.8708 2.92599L35.9441 19.195V51.7357Z" fill="#1975A9"/>
<path opacity="0.6343" d="M68.2982 0L63.8703 2.57801L59.4478 0H58.8491L63.8703 2.92588L68.8942 0H68.2982Z" fill="#1975A9"/>
<path opacity="0.6715" d="M133.919 0V10.8433L120.029 18.9333L106.138 10.8433V0H105.839V11.0186L120.029 19.2839L134.219 11.0186V0H133.919Z" fill="#1975A9"/>
<path opacity="0.9459" d="M147.958 0V19.0196L120.029 35.2913L92.0994 19.0196V0H91.8027V19.1949L120.029 35.6391L148.255 19.1949V0H147.958Z" fill="#1975A9"/>
<path opacity="0.5261" d="M120.029 76.5313L112.858 72.3542V64.0026L120.029 59.8254L127.194 64.0026V72.3542L120.029 76.5313ZM113.16 72.1789L120.032 76.1834L126.9 72.1789V64.1752L120.032 60.1733L113.16 64.1752V72.1789Z" fill="#1975A9"/>
<path opacity="0.5223" d="M63.8708 68.3525L63.798 68.3094L35.6421 51.9082V19.0197L63.8708 2.57812L92.0968 19.0197V51.9082L92.024 51.9514L63.8708 68.3525ZM35.9441 51.7357L63.8735 68.0046L91.8029 51.7357V19.195L63.8708 2.92599L35.9441 19.195V51.7357Z" fill="#1975A9"/>
<path opacity="0.8962" d="M183.055 0V6.75515L176.184 10.757L169.316 6.75515V0H169.017V6.92774L176.184 11.1076L183.355 6.92774V0H183.055Z" fill="#1975A9"/>
<path opacity="0.5211" d="M176.184 76.5313L169.014 72.3542V64.0026L176.184 59.8254L183.355 64.0026V72.3542L176.184 76.5313ZM169.316 72.1789L176.187 76.1834L183.055 72.1789V64.1752L176.187 60.1733L169.316 64.1752V72.1789Z" fill="#1975A9"/>
<path opacity="0.6374" d="M120.029 166.492L119.953 166.449L63.7222 133.693V68.0908L63.7977 68.0477L120.029 35.2913L120.101 35.3344L176.332 68.0908V133.69L176.259 133.736L120.029 166.492ZM64.0215 133.517L120.029 166.142L176.033 133.517V68.2661L120.029 35.6391L64.0215 68.2661V133.517Z" fill="#1975A9"/>
<path opacity="0.5189" d="M120.029 68.3525L119.953 68.3094L91.7998 51.9082V19.0197L120.029 2.57812L148.252 19.0197V51.9082L148.179 51.9514L120.029 68.3525ZM92.0991 51.7357L120.031 68.0046L147.961 51.7357V19.195L120.029 2.92599L92.0991 19.195V51.7357Z" fill="#1975A9"/>
<path opacity="0.5082" d="M176.184 84.7076L161.997 76.4423V59.9145L176.184 51.6492L190.371 59.9145V76.4423L176.184 84.7076ZM162.293 76.2697L176.186 84.3597L190.074 76.2697V60.087L176.186 51.9997L162.293 60.087V76.2697Z" fill="#1975A9"/>
<path opacity="0.5792" d="M260.269 0V19.0196L232.339 35.2913L204.413 19.0196V0H204.113V19.1949L232.339 35.6391L260.495 19.2407L260.568 19.1949V0H260.269Z" fill="#1975A9"/>
<path opacity="0.9861" d="M176.184 68.3525L176.109 68.3094L147.958 51.9082V19.0197L176.184 2.57812L204.41 19.0197V51.9082L204.335 51.9514L176.184 68.3525ZM148.257 51.7357L176.187 68.0046L204.116 51.7357V19.195L176.184 2.92599L148.257 19.195V51.7357Z" fill="#1975A9"/>
<path opacity="0.9808" d="M126.9 0V6.75515L120.029 10.757L113.16 6.75515V0H112.861V6.92774L120.029 11.1076L127.196 6.92774V0H126.9Z" fill="#1975A9"/>
<path opacity="0.9699" d="M260.269 0V19.0196L232.339 35.2913L204.413 19.0196V0H204.113V19.1949L232.339 35.6391L260.495 19.2407L260.568 19.1949V0H260.269Z" fill="#1975A9"/>
<path opacity="0.9622" d="M120.029 101.066L91.8027 84.6214V51.7355L120.029 35.2939L148.252 51.7355V84.6214L120.029 101.066ZM92.0994 84.4461L120.031 100.718L147.961 84.4461V51.9081L120.029 35.6391L92.0967 51.9081V84.4461H92.0994Z" fill="#1975A9"/>
<path opacity="0.6304" d="M120.029 101.066L91.8027 84.6214V51.7355L120.029 35.2939L148.252 51.7355V84.6214L120.029 101.066ZM92.0994 84.4461L120.031 100.718L147.961 84.4461V51.9081L120.029 35.6391L92.0967 51.9081V84.4461H92.0994Z" fill="#1975A9"/>
<path opacity="0.8387" d="M176.184 182.848L161.997 174.582V158.049L176.184 149.786L190.371 158.049V174.582L176.184 182.848ZM162.293 174.407L176.186 182.5L190.074 174.407V158.224L176.186 150.132L162.293 158.224V174.407Z" fill="#1975A9"/>
<path opacity="0.9051" d="M176.184 199.206L147.958 182.764V149.875L176.184 133.431L204.41 149.875V182.764L176.184 199.206ZM148.257 182.589L176.187 198.858L204.116 182.589V150.048L176.184 133.782L148.255 150.048V182.589H148.257Z" fill="#1975A9"/>
<path opacity="0.6545" d="M204.113 0V19.0196L176.184 35.2913L148.257 19.0196V0H147.958V19.1949L176.184 35.6391L204.413 19.1949V0H204.113Z" fill="#1975A9"/>
<path opacity="0.9574" d="M236.768 0L232.34 2.57801L227.917 0H227.318L232.34 2.92588L237.363 0H236.768Z" fill="#1975A9"/>
<path opacity="0.9474" d="M232.34 166.492L232.264 166.449L176.033 133.693V68.0908L176.109 68.0477L232.34 35.2913L232.415 35.3344L288.646 68.0908V133.69L288.57 133.736L232.34 166.492ZM176.333 133.517L232.34 166.142L288.347 133.517V68.2661L232.34 35.6391L176.333 68.2661V133.517Z" fill="#1975A9"/>
<path opacity="0.8086" d="M288.495 84.7076L274.308 76.4423V59.9145L288.495 51.6492L302.685 59.9145V76.4423L288.495 84.7076ZM274.607 76.2697L288.495 84.3597L302.385 76.2697V60.087L288.495 51.9997L274.607 60.087V76.2697Z" fill="#1975A9"/>
<path opacity="0.5531" d="M232.34 182.848L218.152 174.582V158.049L232.34 149.786L246.527 158.049V174.582L232.34 182.848ZM218.452 174.407L232.34 182.5L246.227 174.407V158.224L232.34 150.132L218.452 158.224V174.407Z" fill="#1975A9"/>
<path opacity="0.9538" d="M292.923 0L288.495 2.57801L284.072 0H283.474L288.495 2.92588L293.519 0H292.923Z" fill="#1975A9"/>
<path opacity="0.8754" d="M372.582 0V19.0196L344.653 35.2913L316.726 19.0196V0H316.427V19.1949L344.653 35.6391L372.881 19.1949V0H372.582Z" fill="#1975A9"/>
<path opacity="0.5051" d="M260.269 0V19.0196L232.339 35.2913L204.413 19.0196V0H204.113V19.1949L232.339 35.6391L260.495 19.2407L260.568 19.1949V0H260.269Z" fill="#1975A9"/>
<path opacity="0.8517" d="M339.632 0L344.502 2.83689V68.0908L288.495 100.718L232.488 68.0908V2.83689L237.363 0H236.767L232.264 2.62116L232.191 2.66431V68.2661L288.422 101.023L288.495 101.066L344.726 68.3093L344.801 68.2661V2.66431L340.227 0H339.632Z" fill="#1975A9"/>
<path opacity="0.61" d="M344.653 76.5313L337.482 72.3542V64.0026L344.653 59.8254L351.821 64.0026V72.3542L344.653 76.5313ZM337.784 72.1789L344.653 76.1834L351.524 72.1789V64.1752L344.653 60.1733L337.784 64.1752V72.1789Z" fill="#1975A9"/>
<path opacity="0.6181" d="M232.339 101.066L204.113 84.6214V51.7355L232.339 35.2939L232.415 35.3371L260.565 51.7382V84.6214L260.492 84.6672L232.339 101.066ZM204.413 84.4461L232.342 100.718L260.271 84.4461V51.9081L232.342 35.6391L204.413 51.9081V84.4461Z" fill="#1975A9"/>
<path opacity="0.876" d="M288.495 166.492L288.422 166.449L232.191 133.693V68.0908L232.264 68.0477L288.495 35.2913L288.57 35.3344L344.801 68.0908V133.69L344.726 133.736L288.495 166.492ZM232.488 133.517L288.495 166.142L344.502 133.517V68.2661L288.495 35.6391L232.488 68.2661V133.517Z" fill="#1975A9"/>
<path opacity="0.5845" d="M288.495 182.848L274.308 174.582V158.049L288.495 149.786L302.685 158.049V174.582L288.495 182.848ZM274.607 174.407L288.495 182.5L302.385 174.407V158.224L288.495 150.132L274.607 158.224V174.407Z" fill="#1975A9"/>
<path opacity="0.5432" d="M232.339 166.492L232.264 166.449L204.113 150.048V117.159L232.339 100.718L232.415 100.761L260.565 117.162V150.051L260.492 150.094L232.339 166.492ZM204.413 149.875L232.342 166.142L260.271 149.875V117.335L232.342 101.066L204.413 117.335V149.875Z" fill="#1975A9"/>
<path opacity="0.8471" d="M428.74 0V19.0196L400.808 35.2913L372.881 19.0196V0H372.582V19.1949L400.808 35.6391L429.037 19.1949V0H428.74Z" fill="#1975A9"/>
<path opacity="0.7774" d="M344.653 51.9972L330.466 43.7265V27.1986L344.653 18.9333L358.84 27.1986V43.7265L344.653 51.9972ZM330.762 43.5539L344.653 51.6493L358.541 43.5539V27.3739L344.653 19.2839L330.762 27.3739V43.5539Z" fill="#1975A9"/>
<path opacity="0.6187" d="M349.078 0L344.653 2.57801L340.228 0H339.632L344.653 2.92588L349.677 0H349.078Z" fill="#1975A9"/>
<path opacity="0.6525" d="M414.699 0V10.8433L400.808 18.9333L386.92 10.8433V0H386.621V11.0186L400.808 19.2839L415.001 11.0186V0H414.699Z" fill="#1975A9"/>
<path opacity="0.6134" d="M428.74 0V19.0196L400.808 35.2913L372.881 19.0196V0H372.582V19.1949L400.808 35.6391L429.037 19.1949V0H428.74Z" fill="#1975A9"/>
<path opacity="0.951" d="M288.495 101.066L260.269 84.6214V51.7355L288.495 35.2939L288.57 35.3371L316.723 51.7382V84.6214L316.65 84.6672L288.495 101.066ZM260.568 84.4461L288.497 100.718L316.429 84.4461V51.9081L288.497 35.6391L260.568 51.9081V84.4461Z" fill="#1975A9"/>
<path opacity="0.6256" d="M400.808 166.492L400.733 166.449L372.582 150.048V117.159L400.808 100.718L429.037 117.159V150.048L428.964 150.091L400.808 166.492ZM372.881 149.875L400.808 166.142L428.74 149.875V117.335L400.808 101.066L372.881 117.335V149.875Z" fill="#1975A9"/>
<path opacity="0.6699" d="M288.495 166.492L288.422 166.449L260.269 150.048V117.159L288.495 100.718L288.57 100.761L316.723 117.162V150.051L316.65 150.094L288.495 166.492ZM260.568 149.875L288.497 166.142L316.429 149.875V117.335L288.497 101.066L260.568 117.335V149.875Z" fill="#1975A9"/>
<path opacity="0.6867" d="M9.50598 76.3561C9.50598 77.3539 8.70507 78.1629 7.71539 78.1629C6.72572 78.1629 5.9248 77.3539 5.9248 76.3561C5.9248 75.3583 6.72572 74.5466 7.71539 74.5466C8.70777 74.5466 9.50598 75.3583 9.50598 76.3561Z" fill="#1975A9"/>
<path opacity="0.975" d="M37.5863 51.8246C37.5863 52.8224 36.7827 53.6314 35.7957 53.6314C34.8034 53.6314 34.0024 52.8224 34.0024 51.8246C34.0024 50.8241 34.8061 50.0151 35.7957 50.0151C36.7827 50.0124 37.5863 50.8214 37.5863 51.8246Z" fill="#1975A9"/>
<path opacity="0.9056" d="M65.6639 2.75061C65.6639 3.74838 64.8603 4.55738 63.8707 4.55738C62.8837 4.55738 62.0801 3.74838 62.0801 2.75061C62.0801 1.75285 62.8837 0.943848 63.8707 0.943848C64.863 0.943848 65.6639 1.75554 65.6639 2.75061Z" fill="#1975A9"/>
<path opacity="0.862" d="M65.6639 68.1771C65.6639 69.1776 64.8603 69.9839 63.8707 69.9839C62.8837 69.9839 62.0801 69.1776 62.0801 68.1771C62.0801 67.1794 62.8837 66.3704 63.8707 66.3704C64.863 66.3704 65.6639 67.1794 65.6639 68.1771Z" fill="#1975A9"/>
<path opacity="0.7249" d="M107.781 10.9323C107.781 11.93 106.977 12.739 105.99 12.739C104.998 12.739 104.197 11.93 104.197 10.9323C104.197 9.93181 105 9.12012 105.99 9.12012C106.977 9.12281 107.781 9.93181 107.781 10.9323Z" fill="#1975A9"/>
<path opacity="0.5437" d="M135.861 10.9323C135.861 11.93 135.057 12.739 134.067 12.739C133.08 12.739 132.277 11.93 132.277 10.9323C132.277 9.93181 133.08 9.12012 134.067 9.12012C135.057 9.12281 135.861 9.93181 135.861 10.9323Z" fill="#1975A9"/>
<path opacity="0.8559" d="M93.7413 19.1085C93.7413 20.1063 92.9404 20.9153 91.9507 20.9153C90.9584 20.9153 90.1602 20.1063 90.1602 19.1085C90.1602 18.1081 90.9611 17.3018 91.9507 17.3018C92.9404 17.3018 93.7413 18.1081 93.7413 19.1085Z" fill="#1975A9"/>
<path opacity="0.691" d="M121.819 76.3561C121.819 77.3539 121.016 78.1629 120.029 78.1629C119.036 78.1629 118.235 77.3539 118.235 76.3561C118.235 75.3583 119.039 74.5466 120.029 74.5466C121.018 74.5466 121.819 75.3583 121.819 76.3561Z" fill="#1975A9"/>
<path opacity="0.6169" d="M65.6639 68.1771C65.6639 69.1776 64.8603 69.9839 63.8707 69.9839C62.8837 69.9839 62.0801 69.1776 62.0801 68.1771C62.0801 67.1794 62.8837 66.3704 63.8707 66.3704C64.863 66.3704 65.6639 67.1794 65.6639 68.1771Z" fill="#1975A9"/>
<path opacity="0.5121" d="M93.7416 51.8246C93.7416 52.8224 92.938 53.6314 91.951 53.6314C90.9586 53.6314 90.1577 52.8224 90.1577 51.8246C90.1577 50.8241 90.9613 50.0151 91.951 50.0151C92.938 50.0124 93.7416 50.8214 93.7416 51.8246Z" fill="#1975A9"/>
<path opacity="0.8706" d="M177.974 10.9323C177.974 11.93 177.171 12.739 176.184 12.739C175.194 12.739 174.391 11.93 174.391 10.9323C174.391 9.93181 175.194 9.12012 176.184 9.12012C177.174 9.12281 177.974 9.93181 177.974 10.9323Z" fill="#1975A9"/>
<path opacity="0.6625" d="M184.997 64.089C184.997 65.0868 184.193 65.8958 183.204 65.8958C182.217 65.8958 181.413 65.0868 181.413 64.089C181.413 63.0912 182.217 62.2822 183.204 62.2822C184.193 62.2822 184.997 63.0912 184.997 64.089Z" fill="#1975A9"/>
<path opacity="0.6645" d="M121.819 166.317C121.819 167.315 121.016 168.124 120.029 168.124C119.036 168.124 118.235 167.315 118.235 166.317C118.235 165.319 119.039 164.51 120.029 164.51C121.018 164.51 121.819 165.319 121.819 166.317Z" fill="#1975A9"/>
<path opacity="0.9538" d="M177.974 133.606C177.974 134.604 177.171 135.413 176.184 135.413C175.194 135.413 174.391 134.604 174.391 133.606C174.391 132.606 175.194 131.8 176.184 131.8C177.174 131.797 177.974 132.603 177.974 133.606Z" fill="#1975A9"/>
<path opacity="0.6405" d="M65.6639 68.1771C65.6639 69.1776 64.8603 69.9839 63.8707 69.9839C62.8837 69.9839 62.0801 69.1776 62.0801 68.1771C62.0801 67.1794 62.8837 66.3704 63.8707 66.3704C64.863 66.3704 65.6639 67.1794 65.6639 68.1771Z" fill="#1975A9"/>
<path opacity="0.5246" d="M121.819 68.1771C121.819 69.1776 121.016 69.9839 120.029 69.9839C119.036 69.9839 118.235 69.1776 118.235 68.1771C118.235 67.1794 119.039 66.3704 120.029 66.3704C121.018 66.3704 121.819 67.1794 121.819 68.1771Z" fill="#1975A9"/>
<path opacity="0.7605" d="M149.9 51.8246C149.9 52.8224 149.096 53.6314 148.106 53.6314C147.117 53.6314 146.316 52.8224 146.316 51.8246C146.316 50.8241 147.117 50.0151 148.106 50.0151C149.096 50.0124 149.9 50.8214 149.9 51.8246Z" fill="#1975A9"/>
<path opacity="0.6166" d="M149.9 19.1085C149.9 20.1063 149.096 20.9153 148.106 20.9153C147.117 20.9153 146.316 20.1063 146.316 19.1085C146.316 18.1081 147.117 17.3018 148.106 17.3018C149.096 17.3018 149.9 18.1081 149.9 19.1085Z" fill="#1975A9"/>
<path opacity="0.5032" d="M192.016 60.0009C192.016 60.9986 191.212 61.8076 190.225 61.8076C189.236 61.8076 188.432 60.9986 188.432 60.0009C188.432 59.0004 189.236 58.1941 190.225 58.1941C191.212 58.1914 192.016 59.0004 192.016 60.0009Z" fill="#1975A9"/>
<path opacity="0.9074" d="M262.211 19.1085C262.211 20.1063 261.407 20.9153 260.42 20.9153C259.43 20.9153 258.629 20.1063 258.629 19.1085C258.629 18.1081 259.43 17.3018 260.42 17.3018C261.407 17.3018 262.211 18.1081 262.211 19.1085Z" fill="#1975A9"/>
<path opacity="0.6002" d="M111.812 0C112.128 0.29124 112.545 0.471917 113.007 0.471917C113.47 0.471917 113.886 0.29124 114.204 0H111.812Z" fill="#1975A9"/>
<path opacity="0.6002" d="M234.13 35.4664C234.13 36.4642 233.329 37.2732 232.339 37.2732C231.35 37.2732 230.549 36.4642 230.549 35.4664C230.549 34.466 231.35 33.657 232.339 33.657C233.329 33.657 234.13 34.466 234.13 35.4664Z" fill="#1975A9"/>
<path opacity="0.6607" d="M149.9 51.8246C149.9 52.8224 149.096 53.6314 148.106 53.6314C147.117 53.6314 146.316 52.8224 146.316 51.8246C146.316 50.8241 147.117 50.0151 148.106 50.0151C149.096 50.0124 149.9 50.8214 149.9 51.8246Z" fill="#1975A9"/>
<path opacity="0.5786" d="M192.016 174.496C192.016 175.494 191.212 176.303 190.225 176.303C189.236 176.303 188.432 175.494 188.432 174.496C188.432 173.496 189.236 172.689 190.225 172.689C191.212 172.689 192.016 173.496 192.016 174.496Z" fill="#1975A9"/>
<path opacity="0.9283" d="M177.974 149.959C177.974 150.959 177.171 151.768 176.184 151.768C175.194 151.768 174.391 150.959 174.391 149.959C174.391 148.961 175.194 148.152 176.184 148.152C177.174 148.152 177.974 148.961 177.974 149.959Z" fill="#1975A9"/>
<path opacity="0.6334" d="M163.936 158.138C163.936 159.136 163.135 159.945 162.145 159.945C161.155 159.945 160.354 159.136 160.354 158.138C160.354 157.14 161.155 156.328 162.145 156.328C163.135 156.328 163.936 157.143 163.936 158.138Z" fill="#1975A9"/>
<path opacity="0.6939" d="M149.9 182.675C149.9 183.673 149.096 184.482 148.106 184.482C147.12 184.482 146.316 183.67 146.316 182.675C146.316 181.677 147.12 180.868 148.106 180.868C149.096 180.865 149.9 181.677 149.9 182.675Z" fill="#1975A9"/>
<path opacity="0.7705" d="M177.974 35.4664C177.974 36.4642 177.171 37.2732 176.184 37.2732C175.194 37.2732 174.391 36.4642 174.391 35.4664C174.391 34.466 175.194 33.657 176.184 33.657C177.174 33.657 177.974 34.466 177.974 35.4664Z" fill="#1975A9"/>
<path opacity="0.8428" d="M206.055 19.1085C206.055 20.1063 205.251 20.9153 204.259 20.9153C203.272 20.9153 202.468 20.1063 202.468 19.1085C202.468 18.1081 203.272 17.3018 204.259 17.3018C205.251 17.3018 206.055 18.1081 206.055 19.1085Z" fill="#1975A9"/>
<path opacity="0.9917" d="M304.33 76.3561C304.33 77.3539 303.526 78.1629 302.536 78.1629C301.549 78.1629 300.746 77.3539 300.746 76.3561C300.746 75.3583 301.549 74.5466 302.536 74.5466C303.526 74.5466 304.33 75.3583 304.33 76.3561Z" fill="#1975A9"/>
<path opacity="0.9612" d="M304.33 60.0009C304.33 60.9986 303.526 61.8076 302.536 61.8076C301.549 61.8076 300.746 60.9986 300.746 60.0009C300.746 59.0004 301.549 58.1941 302.536 58.1941C303.526 58.1914 304.33 59.0004 304.33 60.0009Z" fill="#1975A9"/>
<path opacity="0.6836" d="M374.524 19.1085C374.524 20.1063 373.72 20.9153 372.73 20.9153C371.744 20.9153 370.94 20.1063 370.94 19.1085C370.94 18.1081 371.744 17.3018 372.73 17.3018C373.72 17.3018 374.524 18.1081 374.524 19.1085Z" fill="#1975A9"/>
<path opacity="0.9087" d="M206.055 19.1085C206.055 20.1063 205.251 20.9153 204.264 20.9153C203.275 20.9153 202.471 20.1063 202.471 19.1085C202.471 18.1081 203.275 17.3018 204.264 17.3018C205.251 17.3018 206.055 18.1081 206.055 19.1085Z" fill="#1975A9"/>
<path opacity="0.7254" d="M262.211 19.1085C262.211 20.1063 261.407 20.9153 260.42 20.9153C259.43 20.9153 258.629 20.1063 258.629 19.1085C258.629 18.1081 259.43 17.3018 260.42 17.3018C261.407 17.3018 262.211 18.1081 262.211 19.1085Z" fill="#1975A9"/>
<path opacity="0.5217" d="M234.13 68.1771C234.13 69.1776 233.329 69.9839 232.339 69.9839C231.35 69.9839 230.549 69.1776 230.549 68.1771C230.549 67.1794 231.35 66.3704 232.339 66.3704C233.329 66.3704 234.13 67.1794 234.13 68.1771Z" fill="#1975A9"/>
<path opacity="0.758" d="M234.13 2.75061C234.13 3.74838 233.329 4.55738 232.339 4.55738C231.35 4.55738 230.549 3.74838 230.549 2.75061C230.549 1.75285 231.35 0.943848 232.339 0.943848C233.329 0.943848 234.13 1.75554 234.13 2.75061Z" fill="#1975A9"/>
<path opacity="0.5672" d="M339.427 72.268C339.427 73.2657 338.623 74.0747 337.631 74.0747C336.644 74.0747 335.84 73.2657 335.84 72.268C335.84 71.2675 336.644 70.4585 337.631 70.4585C338.623 70.4585 339.427 71.2675 339.427 72.268Z" fill="#1975A9"/>
<path opacity="0.6639" d="M353.466 64.089C353.466 65.0868 352.662 65.8958 351.672 65.8958C350.685 65.8958 349.882 65.0868 349.882 64.089C349.882 63.0912 350.685 62.2822 351.672 62.2822C352.665 62.2822 353.466 63.0912 353.466 64.089Z" fill="#1975A9"/>
<path opacity="0.7845" d="M346.446 60.0009C346.446 60.9986 345.642 61.8076 344.655 61.8076C343.666 61.8076 342.865 60.9986 342.865 60.0009C342.865 59.0004 343.666 58.1941 344.655 58.1941C345.642 58.1914 346.446 59.0004 346.446 60.0009Z" fill="#1975A9"/>
<path opacity="0.8686" d="M290.291 182.675C290.291 183.673 289.487 184.482 288.498 184.482C287.511 184.482 286.707 183.67 286.707 182.675C286.707 181.677 287.511 180.868 288.498 180.868C289.487 180.865 290.291 181.677 290.291 182.675Z" fill="#1975A9"/>
<path opacity="0.9438" d="M262.211 117.248C262.211 118.246 261.407 119.055 260.42 119.055C259.43 119.055 258.629 118.246 258.629 117.248C258.629 116.251 259.43 115.439 260.42 115.439C261.407 115.439 262.211 116.251 262.211 117.248Z" fill="#1975A9"/>
<path opacity="0.8488" d="M234.13 100.89C234.13 101.888 233.329 102.697 232.339 102.697C231.35 102.697 230.549 101.888 230.549 100.89C230.549 99.8927 231.35 99.0837 232.339 99.0837C233.329 99.0837 234.13 99.8927 234.13 100.89Z" fill="#1975A9"/>
<path opacity="0.5604" d="M374.524 19.1085C374.524 20.1063 373.72 20.9153 372.733 20.9153C371.741 20.9153 370.94 20.1063 370.94 19.1085C370.94 18.1081 371.744 17.3018 372.733 17.3018C373.72 17.3018 374.524 18.1081 374.524 19.1085Z" fill="#1975A9"/>
<path opacity="0.8646" d="M402.602 35.4664C402.602 36.4642 401.801 37.2732 400.811 37.2732C399.821 37.2732 399.021 36.4642 399.021 35.4664C399.021 34.466 399.821 33.657 400.811 33.657C401.801 33.657 402.602 34.466 402.602 35.4664Z" fill="#1975A9"/>
<path opacity="0.5312" d="M346.446 51.8246C346.446 52.8224 345.642 53.6314 344.655 53.6314C343.666 53.6314 342.865 52.8224 342.865 51.8246C342.865 50.8241 343.666 50.0151 344.655 50.0151C345.642 50.0124 346.446 50.8214 346.446 51.8246Z" fill="#1975A9"/>
<path opacity="0.7235" d="M388.563 10.9323C388.563 11.93 387.759 12.739 386.77 12.739C385.783 12.739 384.979 11.93 384.979 10.9323C384.979 9.93181 385.783 9.12012 386.77 9.12012C387.762 9.12281 388.563 9.93181 388.563 10.9323Z" fill="#1975A9"/>
<path opacity="0.5885" d="M416.64 10.9323C416.64 11.93 415.837 12.739 414.85 12.739C413.863 12.739 413.059 11.93 413.059 10.9323C413.059 9.93181 413.863 9.12012 414.85 9.12012C415.837 9.12281 416.64 9.93181 416.64 10.9323Z" fill="#1975A9"/>
<path opacity="0.8858" d="M262.211 84.535C262.211 85.5328 261.407 86.3418 260.42 86.3418C259.43 86.3418 258.629 85.5328 258.629 84.535C258.629 83.5373 259.43 82.7283 260.42 82.7283C261.407 82.7256 262.211 83.5373 262.211 84.535Z" fill="#1975A9"/>
<path opacity="0.5875" d="M318.366 84.535C318.366 85.5328 317.568 86.3418 316.575 86.3418C315.586 86.3418 314.785 85.5328 314.785 84.535C314.785 83.5373 315.586 82.7283 316.575 82.7283C317.565 82.7256 318.366 83.5373 318.366 84.535Z" fill="#1975A9"/>
<path opacity="0.9745" d="M402.602 100.89C402.602 101.888 401.801 102.697 400.811 102.697C399.821 102.697 399.021 101.888 399.021 100.89C399.021 99.8927 399.821 99.0837 400.811 99.0837C401.801 99.0837 402.602 99.8927 402.602 100.89Z" fill="#1975A9"/>
<path opacity="0.6677" d="M290.291 166.317C290.291 167.315 289.487 168.124 288.498 168.124C287.511 168.124 286.707 167.315 286.707 166.317C286.707 165.319 287.511 164.51 288.498 164.51C289.487 164.51 290.291 165.319 290.291 166.317Z" fill="#1975A9"/>
<path opacity="0.779" d="M290.291 100.89C290.291 101.888 289.487 102.697 288.498 102.697C287.511 102.697 286.707 101.888 286.707 100.89C286.707 99.8927 287.511 99.0837 288.498 99.0837C289.487 99.0837 290.291 99.8927 290.291 100.89Z" fill="#1975A9"/>
</g>
</svg>
