<svg width="52" height="37" viewBox="0 0 52 37" fill="none" xmlns="http://www.w3.org/2000/svg">
<path d="M5.57143 0C2.5173 0 0 2.50762 0 5.55V31.45C0 34.4924 2.5173 37 5.57143 37H46.4286C49.4827 37 52 34.4924 52 31.45V5.55C52 2.50762 49.4827 0 46.4286 0H5.57143ZM5.57143 3.7H16.7143V9.25H20.4286V3.7H46.4286C47.4805 3.7 48.2857 4.50215 48.2857 5.55V16.65H33.4286V20.35H48.2857V31.45C48.2857 32.4979 47.4805 33.3 46.4286 33.3H20.4286V24.05H16.7143V33.3H5.57143C4.51953 33.3 3.71429 32.4979 3.71429 31.45V5.55C3.71429 4.50215 4.51953 3.7 5.57143 3.7ZM11.1429 9.25C8.08873 9.25 5.57143 11.7576 5.57143 14.8C5.57143 17.8424 8.08873 20.35 11.1429 20.35H12.0352C10.7874 21.6508 9.72098 23.349 9.31473 25.5676L12.971 26.2324C13.6239 22.6625 17.3092 20.9715 18.5424 20.4945C19.7612 21.0076 23.5335 22.8287 24.1719 26.2469L27.8281 25.5531C27.4074 23.3563 26.3192 21.6508 25.0424 20.35H26C29.0541 20.35 31.5714 17.8424 31.5714 14.8C31.5714 11.7576 29.0541 9.25 26 9.25C22.75 9.25 20.5592 11.6854 19.1155 13.7377C18.9124 14.0268 18.7455 14.2941 18.5714 14.576C18.3973 14.2941 18.2305 14.0268 18.0273 13.7377C16.5837 11.6854 14.3929 9.25 11.1429 9.25ZM11.1429 12.95C12.3036 12.95 13.827 14.2146 14.995 15.8623C15.2634 16.2525 15.2126 16.2814 15.4302 16.65H11.1429C10.091 16.65 9.28571 15.8479 9.28571 14.8C9.28571 13.7521 10.091 12.95 11.1429 12.95ZM26 12.95C27.0519 12.95 27.8571 13.7521 27.8571 14.8C27.8571 15.8479 27.0519 16.65 26 16.65H21.7126C21.9302 16.2814 21.8795 16.2525 22.1479 15.8623C23.3158 14.2146 24.8393 12.95 26 12.95Z" fill="#1975A9"/>
</svg>
