<svg width="20" height="18" viewBox="0 0 20 18" fill="none" xmlns="http://www.w3.org/2000/svg">
<path d="M7.85714 0C6.68036 0 5.71429 0.936346 5.71429 2.07692V2.76923H2.14286C0.966071 2.76923 0 3.70558 0 4.84615V15.9231C0 17.0637 0.966071 18 2.14286 18H17.8571C19.0339 18 20 17.0637 20 15.9231V4.84615C20 3.70558 19.0339 2.76923 17.8571 2.76923H14.2857V2.07692C14.2857 0.936346 13.3196 0 12.1429 0H7.85714ZM7.85714 1.38462H12.1429C12.5446 1.38462 12.8571 1.6875 12.8571 2.07692V2.76923H7.14286V2.07692C7.14286 1.6875 7.45536 1.38462 7.85714 1.38462ZM2.14286 4.15385H17.8571C18.2589 4.15385 18.5714 4.45673 18.5714 4.84615V9.69231H15.7143V8.30769H12.8571V9.69231H7.14286V8.30769H4.28571V9.69231H1.42857V4.84615C1.42857 4.45673 1.74107 4.15385 2.14286 4.15385ZM1.42857 11.0769H18.5714V15.9231C18.5714 16.3125 18.2589 16.6154 17.8571 16.6154H2.14286C1.74107 16.6154 1.42857 16.3125 1.42857 15.9231V11.0769Z" fill="#1975A9"/>
</svg>
