<svg width="44" height="28" viewBox="0 0 44 28" fill="none" xmlns="http://www.w3.org/2000/svg">
<path d="M22 0C17.8382 0 14.2227 1.92622 11.6384 4.76389C11.4235 4.73958 11.2333 4.66667 11 4.66667C7.54409 4.66667 4.71429 7.46788 4.71429 10.8889C1.99498 12.5295 0 15.3003 0 18.6667C0 23.8012 4.24163 28 9.42857 28H34.5714C39.7584 28 44 23.8012 44 18.6667C44 13.7569 40.0898 9.82552 35.2098 9.47917C33.2885 4.00434 28.1691 0 22 0ZM22 3.11111C27.1501 3.11111 31.447 6.61719 32.6562 11.3264L32.9509 12.5417L34.2768 12.4931C34.6083 12.4748 34.6819 12.4444 34.5714 12.4444C38.058 12.4444 40.8571 15.2153 40.8571 18.6667C40.8571 22.1181 38.058 24.8889 34.5714 24.8889H9.42857C5.94196 24.8889 3.14286 22.1181 3.14286 18.6667C3.14286 16.0842 4.72656 13.8785 6.97321 12.9306L8.05357 12.4931L7.90625 11.3264C7.87556 11.0712 7.85714 10.9253 7.85714 10.8889C7.85714 9.15104 9.24442 7.77778 11 7.77778C11.221 7.77778 11.4665 7.80816 11.7366 7.875L12.7188 8.11806L13.308 7.34028C15.3214 4.78212 18.4643 3.11111 22 3.11111Z" fill="#E53F4D"/>
</svg>
