<svg width="47" height="41" viewBox="0 0 47 41" fill="none" xmlns="http://www.w3.org/2000/svg">
<path d="M23.5688 0.959473C19.1642 0.959473 15.3377 3.01888 12.6026 6.05278C12.3753 6.02679 12.1739 5.94883 11.927 5.94883C8.26943 5.94883 5.27451 8.94374 5.27451 12.6013C2.39654 14.3554 0.285156 17.3178 0.285156 20.9169C0.285156 26.4065 4.77428 30.8956 10.2639 30.8956H18.5795V27.5694H10.2639C6.57383 27.5694 3.61139 24.6069 3.61139 20.9169C3.61139 18.1559 5.28751 15.7976 7.66525 14.7842L8.80864 14.3164L8.65272 13.0691C8.62024 12.7962 8.60075 12.6403 8.60075 12.6013C8.60075 10.7433 10.069 9.27507 11.927 9.27507C12.1609 9.27507 12.4207 9.30755 12.7066 9.37901L13.746 9.63888L14.3697 8.80732C16.5006 6.07227 19.8268 4.28571 23.5688 4.28571C29.0194 4.28571 33.567 8.03423 34.8469 13.0691L35.1587 14.3684L36.5619 14.3164C36.9128 14.2969 36.9907 14.2644 36.8738 14.2644C40.5638 14.2644 43.5263 17.2269 43.5263 20.9169C43.5263 24.6069 40.5638 27.5694 36.8738 27.5694H28.5582V30.8956H36.8738C42.3634 30.8956 46.8525 26.4065 46.8525 20.9169C46.8525 15.6677 42.7142 11.4644 37.5494 11.0941C35.516 5.24071 30.0979 0.959473 23.5688 0.959473ZM21.9057 20.9169V34.2219H16.9163L23.5688 40.8743L30.2213 34.2219H25.2319V20.9169H21.9057Z" fill="#1975A9"/>
</svg>
