<svg width="195" height="32" viewBox="0 0 195 32" fill="none" xmlns="http://www.w3.org/2000/svg">
<path d="M21.6634 19.5686C16.7127 25.4503 9.59338 29.5795 6.04468 27.6189C6.16516 27.838 6.29659 28.0351 6.44993 28.2104C6.93185 28.5609 7.43568 28.8785 7.93951 29.1633C11.2363 30.16 17.7532 26.9946 22.6601 21.1568C27.5669 15.319 29.2098 8.78014 27.6545 5.71336C27.2821 5.2643 26.8878 4.82619 26.4607 4.40998C26.2526 4.2895 26.0335 4.19093 25.8035 4.11426C27.9174 6.52387 26.614 13.687 21.6634 19.5686Z" fill="#002840"/>
<path d="M8.02703 16.5019C5.7379 9.4483 8.50895 3.5557 10.7762 1.16799C10.4585 1.08037 10.1519 1.04751 9.8671 1.08037C9.56042 1.20085 9.2647 1.33228 8.96897 1.47467C6.83318 3.17235 3.85402 9.8645 6.30744 17.4219C8.76087 24.9903 15.7706 30.7843 18.4979 30.9048C18.8155 30.8391 19.1332 30.7734 19.4508 30.6858C19.7027 30.5543 19.9327 30.3572 20.1299 30.0943C16.8988 29.4919 10.3052 23.5664 8.02703 16.5019Z" fill="#002840"/>
<path d="M30.1407 21.1895C29.7355 19.2399 25.1682 14.7164 18.706 10.6967C12.2439 6.67702 6.04459 4.51932 4.12785 5.02315C3.9088 5.26411 3.68974 5.51603 3.48164 5.76794C3.48164 5.88842 3.51449 6.03081 3.55831 6.18415C3.29544 6.65512 2.87923 7.38895 2.62732 7.81611C2.96686 7.44372 3.63498 7.12609 4.02928 7.12609C6.94272 6.99465 12.441 8.65948 17.8736 12.0329C23.3062 15.4064 27.1397 19.5356 28.3116 22.2081C28.5088 22.9091 27.9173 23.4786 27.9173 23.4786L29.2207 22.4162L29.2426 22.23C29.4507 22.2081 29.6259 22.1643 29.7683 22.0985C29.8998 21.7919 30.0312 21.4961 30.1407 21.1895Z" fill="#002840"/>
<path d="M2.62735 7.81616C2.53973 7.90378 2.47401 7.99141 2.4302 8.07903C2.37544 8.22142 2.47401 8.07903 2.62735 7.81616Z" fill="#9B1D52"/>
<path d="M22.9667 3.34751C30.0422 7.59719 32.4627 16.5347 28.3992 23.2925L28.9578 23.6321C33.3937 16.2608 31.017 6.67716 23.6457 2.24128C16.2526 -2.20555 6.67986 0.171203 2.23303 7.54243L2.79162 7.87101C6.86606 1.1241 15.8912 -0.913122 22.9667 3.34751Z" fill="#127DC2"/>
<path d="M7.55608 28.9442C14.9383 33.3911 24.511 31.0033 28.9578 23.6321L28.3992 23.2926C24.3248 30.0505 15.5078 31.8577 8.44325 27.597C1.37871 23.3364 -1.27187 14.6399 2.80257 7.88202L2.23302 7.54248C-2.20286 14.9247 0.1739 24.5083 7.55608 28.9442Z" fill="#127DC2"/>
<path d="M25.6282 3.6543C25.4639 3.51191 25.2996 3.38048 25.1244 3.24904C24.752 2.96427 24.3686 2.69045 23.9853 2.44949C20.2942 0.642279 13.0763 3.24904 7.97232 9.30593C2.86833 15.3738 1.67447 22.7779 4.08408 26.1075C4.39076 26.447 4.7303 26.7756 5.06984 27.0933C5.23413 27.2356 5.38747 27.378 5.55176 27.5204C5.84748 27.7614 6.14321 27.9914 6.44989 28.2214C6.29655 28.0352 6.16511 27.838 6.04463 27.619C4.42362 24.5741 6.99753 17.9148 11.9372 12.0222C16.8879 6.14058 22.5286 3.04094 25.8035 4.11431C26.0335 4.19098 26.2525 4.28956 26.4606 4.41004C26.1978 4.15812 25.913 3.89526 25.6282 3.6543Z" fill="#127DC2"/>
<path d="M25.1901 12.6575C22.7695 5.18769 16.2855 0.280838 12.9558 0.226074C12.5287 0.302744 12.1015 0.390366 11.6634 0.499894C11.3677 0.576563 11.0829 0.664186 10.7762 0.751808C10.4696 0.850383 10.1629 0.959911 9.8562 1.08039C10.141 1.04753 10.4367 1.06944 10.7543 1.16801C13.4378 1.95661 19.0346 6.8306 21.3128 13.8952C23.6019 20.9487 21.8276 27.8819 20.119 30.0943C19.9218 30.3572 19.6918 30.5543 19.4399 30.6858C19.7575 30.6091 20.0642 30.5215 20.3709 30.412C20.6666 30.3134 20.9514 30.2148 21.2361 30.1053C21.6524 29.941 22.0467 29.7657 22.441 29.5795C25.1244 27.5861 27.6107 20.1273 25.1901 12.6575Z" fill="#127DC2"/>
<path d="M2.03587 7.88195C1.9592 8.02434 1.87158 8.17768 1.79491 8.33102C0.995354 10.6968 4.50025 17.3999 11.4991 21.7482C18.4979 26.0964 26.4496 26.5017 28.213 24.7492C28.3116 24.6069 28.4102 24.4645 28.5088 24.3221C28.6183 24.1578 28.7278 23.9935 28.8373 23.8183C29.1878 23.2597 29.4945 22.6792 29.7683 22.0987C26.5811 23.3582 19.7137 20.7515 14.2811 17.378C8.8485 14.0046 3.1421 8.27625 3.48164 5.76807C3.07638 6.27189 2.69304 6.80858 2.34255 7.36717C2.24397 7.53147 2.13444 7.70671 2.03587 7.88195Z" fill="#127DC2"/>
<path d="M43.1088 15.6256V15.5818C43.1088 11.4307 46.2851 8.16675 50.6005 8.16675C53.5139 8.16675 55.3868 9.38251 56.6464 11.124L53.6672 13.435C52.8567 12.4383 51.9148 11.7593 50.5567 11.7593C48.5633 11.7593 47.1503 13.4679 47.1503 15.5489V15.5927C47.1503 17.7285 48.5523 19.3934 50.5567 19.3934C52.0462 19.3934 52.9225 18.7033 53.7768 17.6628L56.745 19.7767C55.3978 21.6387 53.5906 22.9968 50.4581 22.9968C46.3836 22.9968 43.1088 19.8862 43.1088 15.6256Z" fill="#002840"/>
<path d="M60.5018 8.4624H64.6748L68.0702 13.9826L71.4765 8.4624H75.6495V22.712H71.7175V14.5302L68.0702 20.1052H67.9935L64.3682 14.5522V22.712H60.5018V8.4624Z" fill="#002840"/>
<path d="M80.1949 8.4624H84.368L87.7633 13.9826L91.1696 8.4624H95.3427V22.712H91.4106V14.5302L87.7633 20.1052H87.6866L84.0613 14.5522V22.712H80.1949V8.4624Z" fill="#002840"/>
<path d="M103.952 8.4624H100.009V22.712H103.952V8.4624Z" fill="#002840"/>
<path d="M109.351 8.4624H114.302C118.782 8.4624 121.87 11.5401 121.87 15.5489V15.5927C121.87 19.6014 118.782 22.712 114.302 22.712H109.351V8.4624ZM110.95 9.95198V21.2334H114.291C117.894 21.2334 120.194 18.7909 120.194 15.6365V15.5927C120.194 12.4383 117.894 9.95198 114.291 9.95198H110.95Z" fill="#002840"/>
<path d="M127.303 8.4624H137.609V9.93008H128.913V14.7931H136.689V16.2608H128.913V21.2443H137.708V22.712H127.303V8.4624Z" fill="#002840"/>
<path d="M141.75 8.4624H143.546L148.617 20.7405L153.699 8.4624H155.43L149.307 22.8106H147.883L141.75 8.4624Z" fill="#002840"/>
<path d="M172.023 20.4776L174.531 17.9913C175.55 19.0318 176.601 19.6233 177.927 19.6233C179.044 19.6233 179.734 19.0537 179.734 18.1775V18.1337C179.734 17.2137 178.912 16.666 177.412 16.666H175.736L175.189 14.6069L178.442 11.6606H173.009V8.4624H183.283V11.2663L179.887 14.2017C181.925 14.6507 183.567 15.7679 183.567 18.2104V18.2542C183.567 21.1457 181.245 22.9967 178.069 22.9967C175.342 22.9967 173.425 22 172.023 20.4776Z" fill="#002840"/>
<path d="M186.711 11.2444L187.017 10.872C187.401 11.1896 187.817 11.3758 188.31 11.3758C188.792 11.3758 189.12 11.1349 189.12 10.7953C189.12 10.4777 188.901 10.3244 188.168 10.1601C187.346 9.98482 186.886 9.73291 186.886 9.09764C186.886 8.49524 187.423 8.05713 188.189 8.05713C188.715 8.05713 189.153 8.21047 189.537 8.51715L189.241 8.90049C188.923 8.64858 188.562 8.50619 188.168 8.50619C187.697 8.50619 187.412 8.74715 187.412 9.05383C187.412 9.36051 187.609 9.54671 188.376 9.711C189.186 9.88624 189.646 10.1601 189.646 10.7515C189.646 11.4196 189.055 11.8358 188.31 11.8358C187.708 11.8358 187.149 11.6168 186.711 11.2444ZM190.522 8.12285H191.081L192.373 10.1272L193.677 8.12285H194.224V11.7811H193.699V8.97716L192.395 10.9596H192.33L191.026 8.97716V11.7811H190.522V8.12285Z" fill="#939598"/>
<path d="M168.321 8.4624L161.18 22.712H162.626L169.767 8.4624H168.321Z" fill="#002840"/>
<path d="M43.2074 27.0166H46.1318V27.4328H43.6565V28.8238H45.8689V29.24H43.6565V30.6529H46.1647V31.0691H43.2074V27.0166Z" fill="#6E6F72"/>
<path d="M48.1689 29.2508L49.0561 28.0789H49.56L48.4209 29.5465L49.6038 31.069H49.089L48.1689 29.8423L47.238 31.069H46.7341L47.9061 29.5465L46.7779 28.0789H47.2927L48.1689 29.2508Z" fill="#6E6F72"/>
<path d="M50.3268 28.0789H50.7758V28.6813C51.0168 28.3199 51.3673 28.0132 51.9259 28.0132C52.6488 28.0132 53.3607 28.5827 53.3607 29.5685V29.5794C53.3607 30.5542 52.6488 31.1347 51.9259 31.1347C51.3673 31.1347 51.0059 30.839 50.7758 30.4995V32H50.3268V28.0789ZM52.8897 29.5794C52.8897 28.8675 52.4078 28.4075 51.8383 28.4075C51.2797 28.4075 50.7539 28.8785 50.7539 29.5575V29.5685C50.7539 30.2585 51.2797 30.7295 51.8383 30.7295C52.4188 30.7295 52.8897 30.3023 52.8897 29.5794Z" fill="#6E6F72"/>
<path d="M54.6092 30.4666H54.0725V31.069H54.6092V30.4666Z" fill="#6E6F72"/>
<path d="M57.3584 27.0166H57.8184L59.297 29.2291L60.7757 27.0166H61.2357V31.0691H60.7757V27.7942L59.308 29.9629H59.2861L57.8075 27.7942V31.0691H57.3584V27.0166Z" fill="#6E6F72"/>
<path d="M62.09 30.2038V30.1929C62.09 29.5576 62.6047 29.229 63.3714 29.229C63.7548 29.229 64.0286 29.2838 64.2915 29.3605V29.2509C64.2915 28.7143 63.9629 28.4404 63.4043 28.4404C63.0538 28.4404 62.769 28.5281 62.4952 28.6595L62.3638 28.2981C62.6924 28.1447 63.021 28.0461 63.4481 28.0461C63.8643 28.0461 64.1929 28.1557 64.412 28.3747C64.6091 28.5828 64.7186 28.8676 64.7186 29.2509V31.0801H64.2915V30.631C64.0834 30.9048 63.7329 31.1458 63.2072 31.1458C62.6486 31.1348 62.09 30.8172 62.09 30.2038ZM64.2915 29.9738V29.6781C64.0724 29.6124 63.7767 29.5467 63.4153 29.5467C62.8567 29.5467 62.539 29.7876 62.539 30.171V30.1819C62.539 30.5543 62.8895 30.7734 63.2948 30.7734C63.8424 30.7843 64.2915 30.4448 64.2915 29.9738Z" fill="#6E6F72"/>
<path d="M65.6606 28.0789H66.1097V28.8566C66.3288 28.3527 66.7669 28.0023 67.3255 28.0242V28.5061H67.2926C66.6354 28.5061 66.1097 28.9771 66.1097 29.8752V31.069H65.6606V28.0789Z" fill="#6E6F72"/>
<path d="M69.527 30.7185L70.9947 29.426C71.619 28.8675 71.838 28.5608 71.838 28.1555C71.838 27.6846 71.4656 27.3779 71.0275 27.3779C70.5675 27.3779 70.2608 27.6188 69.9432 28.0679L69.6036 27.8269C69.9651 27.2793 70.3484 26.9617 71.0604 26.9617C71.7942 26.9617 72.3199 27.4436 72.3199 28.1117V28.1227C72.3199 28.7141 72.0023 29.0756 71.3013 29.6999L70.217 30.6637H72.3637V31.0799H69.5379V30.7185H69.527Z" fill="#6E6F72"/>
<path d="M73.0099 30.412L73.3494 30.1162C73.6561 30.4996 74.0285 30.7186 74.5323 30.7186C75.0252 30.7186 75.4195 30.401 75.4195 29.93V29.9191C75.4195 29.4153 74.9485 29.1414 74.2914 29.1414H74.0285L73.9409 28.8676L75.2223 27.4219H73.2399V27.0166H75.8248V27.3561L74.5542 28.769C75.2552 28.8238 75.8905 29.1743 75.8905 29.9081V29.9191C75.8905 30.642 75.2881 31.1348 74.5323 31.1348C73.8423 31.1348 73.3385 30.8391 73.0099 30.412Z" fill="#6E6F72"/>
<path d="M76.5367 31.5728C76.8215 31.4742 76.953 31.3209 76.9201 31.069H76.712V30.4666H77.2487V30.9923C77.2487 31.4633 77.0515 31.6823 76.6025 31.7809L76.5367 31.5728Z" fill="#6E6F72"/>
<path d="M79.7021 30.7185L81.1698 29.426C81.7941 28.8675 82.0132 28.5608 82.0132 28.1555C82.0132 27.6846 81.6408 27.3779 81.2027 27.3779C80.7427 27.3779 80.436 27.6188 80.1184 28.0679L79.7788 27.8269C80.1403 27.2793 80.5236 26.9617 81.2355 26.9617C81.9694 26.9617 82.4951 27.4436 82.4951 28.1117V28.1227C82.4951 28.7141 82.1775 29.0756 81.4765 29.6999L80.3922 30.6637H82.5389V31.0799H79.7131V30.7185H79.7021Z" fill="#6E6F72"/>
<path d="M83.2509 29.0536C83.2509 27.9036 83.9299 26.9507 84.9704 26.9507C86.011 26.9507 86.6681 27.9036 86.6681 29.0317V29.0427C86.6681 30.1818 86 31.1346 84.9595 31.1346C83.908 31.1346 83.2509 30.1927 83.2509 29.0536ZM86.1971 29.0536C86.1971 28.1555 85.7152 27.3669 84.9595 27.3669C84.2037 27.3669 83.7218 28.1445 83.7218 29.0317V29.0427C83.7218 29.9298 84.2037 30.7184 84.9704 30.7184C85.7371 30.7184 86.1971 29.9408 86.1971 29.0536Z" fill="#6E6F72"/>
<path d="M88.0481 27.4656L87.2814 27.7066L87.1719 27.3342L88.1576 26.9946H88.4972V31.0691H88.0481V27.4656Z" fill="#6E6F72"/>
<path d="M92.002 29.0317V28.955C91.7501 29.3493 91.3777 29.6013 90.852 29.6013C90.0196 29.6013 89.4391 29.0755 89.4391 28.3417V28.3307C89.4391 27.564 90.0305 26.9507 90.8958 26.9507C91.3558 26.9507 91.6954 27.104 91.9582 27.3669C92.2649 27.6736 92.462 28.1226 92.462 28.9331V28.9441C92.462 30.2256 91.783 31.1346 90.7753 31.1346C90.2496 31.1346 89.8662 30.9265 89.5267 30.6418L89.7896 30.2913C90.1182 30.5761 90.4248 30.7294 90.7863 30.7294C91.5858 30.7184 92.002 29.9079 92.002 29.0317ZM91.9144 28.2869C91.9144 27.7612 91.4873 27.3559 90.8849 27.3559C90.2715 27.3559 89.91 27.805 89.91 28.3088V28.3198C89.91 28.8346 90.3153 29.207 90.9068 29.207C91.5311 29.196 91.9144 28.7469 91.9144 28.2869Z" fill="#6E6F72"/>
<path d="M104.313 26.458H103.941V31.8139H104.313V26.458Z" fill="#6E6F72"/>
<path d="M117.5 26.9946H117.927L119.767 31.0691H119.274L118.803 29.9957H116.602L116.12 31.0691H115.649L117.5 26.9946ZM118.628 29.5795L117.708 27.5204L116.777 29.5795H118.628Z" fill="#6E6F72"/>
<path d="M120.501 28.0789H120.95V28.6813C121.191 28.3199 121.542 28.0132 122.1 28.0132C122.823 28.0132 123.535 28.5827 123.535 29.5685V29.5794C123.535 30.5542 122.823 31.1347 122.1 31.1347C121.542 31.1347 121.18 30.839 120.95 30.4995V32H120.501V28.0789ZM123.064 29.5794C123.064 28.8675 122.582 28.4075 122.013 28.4075C121.454 28.4075 120.928 28.8785 120.928 29.5575V29.5685C120.928 30.2585 121.454 30.7295 122.013 30.7295C122.582 30.7295 123.064 30.3023 123.064 29.5794Z" fill="#6E6F72"/>
<path d="M124.346 28.0789H124.795V28.6813C125.036 28.3199 125.386 28.0132 125.945 28.0132C126.668 28.0132 127.38 28.5827 127.38 29.5685V29.5794C127.38 30.5542 126.668 31.1347 125.945 31.1347C125.386 31.1347 125.025 30.839 124.795 30.4995V32H124.346V28.0789ZM126.909 29.5794C126.909 28.8675 126.427 28.4075 125.857 28.4075C125.299 28.4075 124.773 28.8785 124.773 29.5575V29.5685C124.773 30.2585 125.299 30.7295 125.857 30.7295C126.438 30.7295 126.909 30.3023 126.909 29.5794Z" fill="#6E6F72"/>
<path d="M128.19 28.0789H128.639V28.8566C128.858 28.3527 129.296 28.0023 129.855 28.0242V28.5061H129.822C129.165 28.5061 128.639 28.9771 128.639 29.8752V31.069H128.19V28.0789Z" fill="#6E6F72"/>
<path d="M130.162 30.2038V30.1929C130.162 29.5576 130.687 29.229 131.443 29.229C131.826 29.229 132.1 29.2838 132.363 29.3605V29.2509C132.363 28.7143 132.035 28.4404 131.476 28.4404C131.125 28.4404 130.841 28.5281 130.567 28.6595L130.435 28.2981C130.764 28.1447 131.093 28.0461 131.52 28.0461C131.936 28.0461 132.265 28.1557 132.484 28.3747C132.681 28.5828 132.79 28.8676 132.79 29.2509V31.0801H132.363V30.631C132.155 30.9048 131.805 31.1458 131.279 31.1458C130.72 31.1348 130.162 30.8172 130.162 30.2038ZM132.363 29.9738V29.6781C132.144 29.6124 131.848 29.5467 131.487 29.5467C130.928 29.5467 130.611 29.7876 130.611 30.171V30.1819C130.611 30.5543 130.961 30.7734 131.366 30.7734C131.914 30.7843 132.363 30.4448 132.363 29.9738Z" fill="#6E6F72"/>
<path d="M133.754 26.929H134.258V27.4218H133.754V26.929ZM133.787 28.079H134.236V31.0691H133.787V28.079Z" fill="#6E6F72"/>
<path d="M135.014 30.6857L135.244 30.3681C135.572 30.6091 135.923 30.7514 136.284 30.7514C136.646 30.7514 136.909 30.5652 136.909 30.2805V30.2695C136.909 29.9628 136.558 29.8533 136.164 29.7438C135.693 29.6124 135.178 29.4481 135.178 28.9004V28.8895C135.178 28.3747 135.605 28.0352 136.197 28.0352C136.558 28.0352 136.963 28.1666 137.27 28.3637L137.062 28.7033C136.788 28.528 136.47 28.4185 136.175 28.4185C135.824 28.4185 135.594 28.6047 135.594 28.8566V28.8676C135.594 29.1523 135.967 29.2619 136.361 29.3823C136.821 29.5247 137.325 29.7 137.325 30.2367V30.2476C137.325 30.8172 136.854 31.1457 136.262 31.1457C135.824 31.1238 135.353 30.9596 135.014 30.6857Z" fill="#6E6F72"/>
<path d="M137.927 30.2038V30.1929C137.927 29.5576 138.453 29.229 139.209 29.229C139.592 29.229 139.866 29.2838 140.129 29.3605V29.2509C140.129 28.7143 139.8 28.4404 139.241 28.4404C138.891 28.4404 138.606 28.5281 138.332 28.6595L138.201 28.2981C138.53 28.1447 138.858 28.0461 139.285 28.0461C139.701 28.0461 140.03 28.1557 140.249 28.3747C140.446 28.5828 140.556 28.8676 140.556 29.2509V31.0801H140.129V30.631C139.921 30.9048 139.57 31.1458 139.044 31.1458C138.486 31.1348 137.927 30.8172 137.927 30.2038ZM140.129 29.9738V29.6781C139.91 29.6124 139.614 29.5467 139.252 29.5467C138.694 29.5467 138.376 29.7876 138.376 30.171V30.1819C138.376 30.5543 138.727 30.7734 139.132 30.7734C139.68 30.7843 140.129 30.4448 140.129 29.9738Z" fill="#6E6F72"/>
<path d="M141.991 26.8413H141.542V31.0691H141.991V26.8413Z" fill="#6E6F72"/>
<path d="M147.818 30.0503H147.062L146.887 31.069H146.481L146.657 30.0503H145.55L145.375 31.069H144.97L145.145 30.0503H144.51V29.656H145.211L145.419 28.4293H144.74V28.035H145.496L145.671 27.0383H146.076L145.901 28.035H147.007L147.182 27.0383H147.587L147.412 28.035H148.037V28.4293H147.336L147.127 29.656H147.807V30.0503H147.818ZM145.627 29.656H146.733L146.941 28.4184H145.846L145.627 29.656Z" fill="#6E6F72"/>
<path d="M149.351 27.4656L148.584 27.7066L148.475 27.3342L149.471 26.9946H149.8V31.0691H149.351V27.4656Z" fill="#6E6F72"/>
<path d="M150.665 30.7185L152.133 29.426C152.757 28.8675 152.976 28.5608 152.976 28.1555C152.976 27.6846 152.604 27.3779 152.166 27.3779C151.706 27.3779 151.399 27.6188 151.081 28.0679L150.742 27.8269C151.103 27.2793 151.487 26.9617 152.199 26.9617C152.932 26.9617 153.458 27.4436 153.458 28.1117V28.1227C153.458 28.7141 153.14 29.0756 152.44 29.6999L151.355 30.6637H153.502V31.0799H150.676V30.7185H150.665Z" fill="#6E6F72"/>
<path d="M154.148 30.412L154.488 30.1162C154.794 30.4996 155.167 30.7186 155.671 30.7186C156.164 30.7186 156.558 30.401 156.558 29.93V29.9191C156.558 29.4153 156.087 29.1414 155.43 29.1414H155.167L155.079 28.8676L156.361 27.4219H154.378V27.0166H156.963V27.3561L155.693 28.769C156.394 28.8238 157.029 29.1743 157.029 29.9081V29.9191C157.029 30.642 156.426 31.1348 155.671 31.1348C154.981 31.1348 154.477 30.8391 154.148 30.412Z" fill="#6E6F72"/>
<path d="M159.909 30.1052H157.774L157.653 29.7657L159.942 26.9836H160.347V29.7218H160.972V30.1052H160.347V31.069H159.909V30.1052ZM159.909 29.7328V27.6408L158.212 29.7328H159.909Z" fill="#6E6F72"/>
<path d="M161.596 30.4994L161.892 30.1708C162.242 30.5103 162.637 30.7294 163.042 30.7294C163.622 30.7294 164.017 30.3351 164.017 29.8313V29.8203C164.017 29.3165 163.6 28.966 163.009 28.966C162.669 28.966 162.396 29.0755 162.155 29.196L161.848 28.9988L161.968 27.0273H164.301V27.4545H162.374L162.286 28.7469C162.527 28.6374 162.746 28.5717 163.086 28.5717C163.874 28.5717 164.488 29.0317 164.488 29.8094V29.8203C164.488 30.6089 163.885 31.1565 163.042 31.1565C162.472 31.1346 161.968 30.8608 161.596 30.4994Z" fill="#6E6F72"/>
<path d="M165.703 30.7294C165.375 30.4008 165.189 29.9846 165.189 29.1631V29.1522C165.189 27.9255 165.813 26.9507 166.875 26.9507C167.357 26.9507 167.719 27.1259 168.069 27.4107L167.806 27.7612C167.511 27.5093 167.226 27.3559 166.853 27.3559C166.076 27.3559 165.66 28.1774 165.66 29.0974V29.1522C165.922 28.7688 166.295 28.5279 166.821 28.5279C167.576 28.5279 168.223 29.0098 168.223 29.7765V29.7875C168.223 30.5651 167.587 31.1346 166.766 31.1346C166.317 31.1346 165.955 30.9813 165.703 30.7294ZM167.752 29.8094C167.752 29.3055 167.346 28.9331 166.766 28.9331C166.163 28.9331 165.758 29.3712 165.758 29.8203V29.8313C165.758 30.346 166.185 30.7403 166.777 30.7403C167.368 30.7403 167.752 30.3241 167.752 29.8094Z" fill="#6E6F72"/>
<path d="M171.081 27.4328H168.858V27.0166H171.607V27.3671L169.767 31.0691H169.252L171.081 27.4328Z" fill="#6E6F72"/>
<path d="M172.155 29.9846V29.9737C172.155 29.4918 172.505 29.1522 172.987 28.977C172.615 28.8017 172.297 28.517 172.297 28.046V28.035C172.297 27.4107 172.943 26.9617 173.677 26.9617C174.422 26.9617 175.057 27.4107 175.057 28.035V28.046C175.057 28.517 174.739 28.8017 174.367 28.977C174.849 29.1522 175.199 29.4808 175.199 29.9627V29.9737C175.199 30.6637 174.542 31.1237 173.677 31.1237C172.812 31.1237 172.155 30.6637 172.155 29.9846ZM174.739 29.9737C174.739 29.5137 174.268 29.196 173.677 29.196C173.086 29.196 172.615 29.5137 172.615 29.9627V29.9737C172.615 30.3789 173.009 30.7294 173.677 30.7294C174.345 30.7294 174.739 30.3789 174.739 29.9737ZM174.597 28.0679C174.597 27.6517 174.203 27.356 173.666 27.356C173.14 27.356 172.746 27.6517 172.746 28.0569V28.0679C172.746 28.506 173.162 28.8127 173.666 28.8127C174.192 28.8127 174.597 28.517 174.597 28.0679Z" fill="#6E6F72"/>
</svg>
