<svg width="31" height="41" viewBox="0 0 31 41" fill="none" xmlns="http://www.w3.org/2000/svg">
<path d="M26.5956 6.48043C26.2226 6.11339 25.8375 5.73431 25.4584 5.35523C25.0733 4.97615 24.7002 4.59106 24.3272 4.21198C21.6917 1.52233 20.1212 0 18.4846 0H6.16152C2.76787 0 0 2.76787 0 6.16152V33.8884C0 37.282 2.76787 40.0499 6.16152 40.0499H24.6461C28.0397 40.0499 30.8076 37.282 30.8076 33.8884V12.323C30.8076 10.6864 29.2853 9.11593 26.5956 6.48043ZM27.7269 33.8884C27.7269 35.5912 26.3489 36.9691 24.6461 36.9691H6.16152C4.45868 36.9691 3.08076 35.5912 3.08076 33.8884V6.16152C3.08076 4.45868 4.45868 3.08076 6.16152 3.08076L17.3895 3.07475C18.5026 3.35755 18.4846 4.72343 18.4846 6.08932V10.7827C18.4846 11.6311 19.1765 12.323 20.025 12.323H24.6461C26.1805 12.323 27.7269 12.3291 27.7269 13.8634V33.8884Z" fill="#1975A9"/>
<path fill-rule="evenodd" clip-rule="evenodd" d="M13.2874 14.1308C13.8047 13.6135 14.5063 13.3229 15.2378 13.3229C15.9694 13.3229 16.671 13.6135 17.1883 14.1308C17.7056 14.6481 17.9962 15.3497 17.9962 16.0812V18.0878H12.4795V16.0812C12.4795 15.3497 12.7701 14.6481 13.2874 14.1308ZM11.4683 20.0878C11.472 20.0879 11.4757 20.0879 11.4795 20.0879C11.4832 20.0879 11.4869 20.0879 11.4906 20.0878H18.985C18.9887 20.0879 18.9924 20.0879 18.9962 20.0879C18.9999 20.0879 19.0036 20.0879 19.0073 20.0878H20.4994C20.7774 20.0878 21.0027 20.3132 21.0027 20.5912V25.8529C21.0027 26.1309 20.7774 26.3562 20.4994 26.3562H9.976C9.69801 26.3562 9.47266 26.1309 9.47266 25.8529V20.5912C9.47266 20.3132 9.69801 20.0878 9.976 20.0878H11.4683ZM10.4795 18.0878V16.0812C10.4795 14.8192 10.9808 13.6089 11.8732 12.7166C12.7655 11.8242 13.9758 11.3229 15.2378 11.3229C16.4998 11.3229 17.7101 11.8242 18.6025 12.7166C19.4948 13.6089 19.9962 14.8192 19.9962 16.0812V18.0878H20.4994C21.8819 18.0878 23.0027 19.2086 23.0027 20.5912V25.8529C23.0027 27.2354 21.8819 28.3562 20.4994 28.3562H9.976C8.59344 28.3562 7.47266 27.2354 7.47266 25.8529V20.5912C7.47266 19.2086 8.59344 18.0878 9.976 18.0878H10.4795Z" fill="#1975A9"/>
</svg>
