<svg width="41" height="42" viewBox="0 0 41 42" fill="none" xmlns="http://www.w3.org/2000/svg">
<path d="M0 0V33.4953H6.69907V42L17.3364 33.4953H40.1944V0H0ZM3.34953 3.34953H36.8449V30.1458H16.1589L10.0486 35.0327V30.1458H3.34953V3.34953ZM11.7234 6.69907L10.0486 8.37383L11.7234 11.7234L14.2355 12.5607L16.3486 14.6738L18.0299 13.0056L15.9103 10.886L15.0729 8.37383L11.7234 6.69907ZM25.1215 6.69907C22.3477 6.69907 20.0972 8.94953 20.0972 11.7234C20.0972 12.2075 20.1888 12.6654 20.3131 13.1103L10.7813 22.5047C9.8 23.4925 9.8 25.0822 10.7813 26.0636C11.7692 27.0449 13.3589 27.0449 14.3402 26.0636L23.7607 16.5383C24.1925 16.6561 24.6439 16.7477 25.1215 16.7477C27.8953 16.7477 30.1458 14.4972 30.1458 11.7234C30.1458 10.9514 29.9561 10.2252 29.6421 9.57103L26.1028 13.1103L23.7346 10.7421L27.2738 7.2028C26.6196 6.88878 25.8935 6.69907 25.1215 6.69907ZM24.3103 18.3701L21.2879 21.4187L25.8542 26.0636C26.8421 27.0449 28.4318 27.0449 29.4131 26.0636C30.3944 25.0757 30.3944 23.486 29.4131 22.5047L25.2327 18.4093C25.1935 18.4093 25.1607 18.4224 25.1215 18.4224C24.8533 18.4224 24.585 18.4028 24.3103 18.3701Z" fill="#E53F4D"/>
</svg>
