<svg width="63" height="60" viewBox="0 0 63 60" fill="none" xmlns="http://www.w3.org/2000/svg">
<path fill-rule="evenodd" clip-rule="evenodd" d="M47.4204 53.535V47.391C47.6445 47.1488 47.847 46.8876 48.0257 46.6103L51.4275 41.3211V53.535C51.4261 55.0723 50.8148 56.5463 49.7277 57.6333C48.6407 58.7204 47.1667 59.3317 45.6294 59.3332H5.79817C4.26097 59.3313 2.78727 58.7198 1.7003 57.6329C0.613332 56.5459 0.00185778 55.0722 3.76264e-07 53.535V15.5987C-0.000203057 15.2666 0.0820885 14.9397 0.239481 14.6474C0.396874 14.355 0.624437 14.1063 0.901723 13.9237L4.00709 10.8035L10.4575 4.32349L13.8617 0.904374C14.2393 0.528862 14.7498 0.31756 15.2823 0.316406H45.6294C47.1668 0.317425 48.641 0.92863 49.7282 2.01578C50.8153 3.10293 51.4265 4.57712 51.4275 6.11458V21.5574L47.4205 27.7879V6.11458C47.4201 5.63966 47.2313 5.18429 46.8955 4.84847C46.5597 4.51265 46.1043 4.32384 45.6294 4.3235H17.2858V11.804C17.2839 13.3412 16.6725 14.8149 15.5855 15.9019C14.4985 16.9889 13.0248 17.6003 11.4876 17.6022H4.00709V53.535C4.00795 54.0095 4.197 54.4644 4.53278 54.7997C4.86856 55.135 5.32364 55.3234 5.79817 55.3236H45.6294C46.1039 55.3234 46.559 55.135 46.8947 54.7997C47.2305 54.4644 47.4196 54.0095 47.4204 53.535ZM22.571 26.3037H12.137C11.8292 26.3037 11.534 26.426 11.3164 26.6436C11.0988 26.8612 10.9766 27.1563 10.9766 27.4641C10.9766 27.7719 11.0988 28.067 11.3164 28.2846C11.534 28.5022 11.8292 28.6245 12.137 28.6245H22.571C22.8788 28.6245 23.1739 28.5022 23.3915 28.2846C23.6091 28.067 23.7314 27.7719 23.7314 27.4641C23.7314 27.1563 23.6091 26.8612 23.3915 26.6436C23.1739 26.426 22.8788 26.3037 22.571 26.3037ZM39.1215 28.6245C39.4292 28.6245 39.7244 28.5022 39.942 28.2846C40.1596 28.067 40.2819 27.7719 40.2819 27.4641C40.2819 27.1563 40.1596 26.8612 39.942 26.6436C39.7244 26.426 39.4292 26.3037 39.1215 26.3037H28.2034C28.0511 26.3037 27.9002 26.3337 27.7594 26.392C27.6186 26.4503 27.4907 26.5358 27.3829 26.6435C27.2751 26.7513 27.1897 26.8792 27.1313 27.02C27.073 27.1607 27.043 27.3116 27.043 27.464C27.043 27.6164 27.073 27.7673 27.1313 27.9081C27.1896 28.0489 27.275 28.1768 27.3828 28.2846C27.4905 28.3923 27.6184 28.4778 27.7592 28.5361C27.9 28.5945 28.0509 28.6245 28.2033 28.6245H39.1215ZM12.1369 44.3647H22.571C22.8787 44.3647 23.1738 44.487 23.3914 44.7046C23.6091 44.9222 23.7313 45.2173 23.7313 45.5251C23.7313 45.8328 23.6091 46.128 23.3914 46.3456C23.1738 46.5632 22.8787 46.6854 22.571 46.6854H12.1369C11.8292 46.6854 11.534 46.5632 11.3164 46.3456C11.0988 46.128 10.9766 45.8328 10.9766 45.5251C10.9766 45.2173 11.0988 44.9222 11.3164 44.7046C11.534 44.487 11.8292 44.3647 12.1369 44.3647ZM27.043 45.5258C27.0431 45.6782 27.0733 45.829 27.1317 45.9696C27.1901 46.1103 27.2757 46.2381 27.3835 46.3457C27.4914 46.4533 27.6193 46.5386 27.7601 46.5967C27.9009 46.6548 28.0518 46.6847 28.2041 46.6845H38.1946L38.1551 44.3647H28.2041C27.8963 44.3652 27.6012 44.4877 27.3836 44.7054C27.1659 44.923 27.0435 45.2181 27.043 45.5258ZM12.137 35.3345H22.571C22.8788 35.3345 23.174 35.4567 23.3916 35.6744C23.6092 35.892 23.7315 36.1871 23.7315 36.4949C23.7315 36.8027 23.6092 37.0978 23.3916 37.3154C23.174 37.5331 22.8788 37.6553 22.571 37.6553H12.137C11.8292 37.6553 11.5341 37.5331 11.3164 37.3154C11.0988 37.0978 10.9766 36.8027 10.9766 36.4949C10.9766 36.1871 11.0988 35.892 11.3164 35.6744C11.5341 35.4567 11.8292 35.3345 12.137 35.3345ZM40.2819 36.4949C40.2815 36.1873 40.1592 35.8923 39.9416 35.6748C39.7241 35.4572 39.4292 35.3348 39.1215 35.3345H28.2035C27.8957 35.3344 27.6005 35.4567 27.3829 35.6743C27.1653 35.8919 27.043 36.187 27.043 36.4948C27.0429 36.8026 27.1652 37.0977 27.3828 37.3154C27.6004 37.533 27.8955 37.6553 28.2033 37.6553H39.1215C39.4292 37.655 39.7241 37.5326 39.9416 37.315C40.1592 37.0975 40.2815 36.8025 40.2819 36.4949ZM40.3678 43.9014L40.4302 47.5713L39.9382 48.3362C39.9012 48.3937 39.8759 48.4578 39.8638 48.5251C39.8516 48.5924 39.8528 48.6614 39.8673 48.7281C39.8818 48.7949 39.9093 48.8582 39.9483 48.9144C39.9872 48.9705 40.0369 49.0185 40.0943 49.0554C40.1518 49.0924 40.216 49.1177 40.2833 49.1299C40.3505 49.142 40.4195 49.1408 40.4863 49.1263C40.5531 49.1118 40.6164 49.0843 40.6725 49.0454C40.7287 49.0064 40.7766 48.9568 40.8136 48.8993L41.3056 48.1344L44.6709 46.6693C45.2791 46.4045 45.7952 45.9655 46.154 45.4076L60.5166 23.0784C60.9637 22.3818 61.116 21.5362 60.94 20.7274C60.7639 19.9186 60.274 19.2128 59.5779 18.765C58.8817 18.3172 58.0363 18.1641 57.2273 18.3393C56.4184 18.5146 55.7121 19.0038 55.2636 19.6995L40.9009 42.0287C40.5421 42.5866 40.3566 43.2382 40.3678 43.9014ZM62.0534 24.0017C62.2557 23.9577 62.4672 23.996 62.6413 24.108C62.8155 24.22 62.938 24.3966 62.9819 24.5989C63.0258 24.8013 62.9876 25.0128 62.8756 25.1869L55.8357 36.1316C55.7237 36.3057 55.5471 36.4282 55.3448 36.4722C55.1424 36.5161 54.9309 36.4778 54.7568 36.3658C54.5827 36.2538 54.4601 36.0772 54.4162 35.8749C54.3723 35.6726 54.4105 35.4611 54.5225 35.2869L61.5624 24.3422C61.6744 24.1681 61.851 24.0456 62.0534 24.0017Z" fill="#1975A9"/>
</svg>
