<svg width="26" height="28" viewBox="0 0 26 28" fill="none" xmlns="http://www.w3.org/2000/svg">
<path d="M13 0C9.45378 0 6.56771 2.85868 6.56771 6.37126C6.56771 8.45868 7.54948 9.93832 8.36198 11.0659C9.17448 12.1934 9.75 12.9689 9.75 14.0838V17.5042L0.846354 19.4491L0 19.6168V24.7808H1.08333V25.8539C1.08333 26.4701 1.3584 27.0527 1.79427 27.4299C2.23014 27.8072 2.78874 28 3.35156 28H22.6484C23.2113 28 23.7699 27.8072 24.2057 27.4299C24.6416 27.0527 24.9167 26.4701 24.9167 25.8539V24.7808H26V19.6168L25.1536 19.4491L16.25 17.5042V14.0838C16.25 12.9689 16.8255 12.1934 17.638 11.0659C18.4505 9.93832 19.4323 8.45868 19.4323 6.37126C19.4323 2.85868 16.5462 0 13 0ZM13 2.14611C15.3783 2.14611 17.2656 4.01557 17.2656 6.37126C17.2656 7.82156 16.6647 8.73114 15.8776 9.82515C15.0905 10.9192 14.0833 12.2102 14.0833 14.0838V17.2695H11.9167V14.0838C11.9167 12.2102 10.9095 10.9192 10.1224 9.82515C9.33529 8.73114 8.73438 7.82156 8.73438 6.37126C8.73438 4.01557 10.6217 2.14611 13 2.14611ZM10.8333 19.4156H15.1667L23.8333 21.3269V22.6347H2.16667V21.3269L10.8333 19.4156ZM3.25 24.7808H22.75V25.8204C22.7373 25.8287 22.7204 25.8539 22.6484 25.8539H3.35156C3.27962 25.8539 3.2627 25.8287 3.25 25.8204V24.7808Z" fill="#1975A9"/>
</svg>
