<svg width="54" height="58" viewBox="0 0 54 58" fill="none" xmlns="http://www.w3.org/2000/svg">
<path d="M27.1982 0C21.1906 0 15.7042 1.725 11.6013 4.6599C8.07943 7.1875 5.55182 10.7214 4.90495 14.7583L4.45573 15.9023C2.13177 21.8859 0.832031 28.7081 0.832031 35.9375C0.832031 43.1669 2.13177 49.9891 4.45573 55.9727L5.05469 57.5H49.3177L49.9167 55.9727C52.2406 49.9891 53.5404 43.1669 53.5404 35.9375C53.5404 28.7081 52.2406 21.8859 49.9167 15.9023L49.4854 14.8122C48.8565 10.7573 46.3169 7.19948 42.7771 4.6599C38.6802 1.725 33.1997 0 27.1982 0ZM27.1982 4.79167C32.2714 4.79167 36.8294 6.28906 39.9859 8.55312C42.3099 10.2182 43.8253 12.2188 44.4781 14.375H9.90026C10.5591 12.2188 12.0745 10.2182 14.3924 8.55312C17.5549 6.28906 22.119 4.79167 27.1982 4.79167ZM8.65443 19.1667H45.718C47.5029 24.2458 48.7487 29.8401 48.7487 35.9375C48.7487 42.0349 47.5029 47.6292 45.718 52.7083H8.65443C6.86953 47.6292 5.6237 42.0349 5.6237 35.9375C5.6237 29.8401 6.86953 24.2458 8.65443 19.1667ZM24.7904 23.9583V33.5417H15.207V38.3333H24.7904V47.9167H29.582V38.3333H39.1654V33.5417H29.582V23.9583H24.7904Z" fill="#1975A9"/>
</svg>
