<svg width="44" height="44" viewBox="0 0 44 44" fill="none" xmlns="http://www.w3.org/2000/svg">
<path d="M12.2222 0C10.9427 0 9.63455 0.448785 8.70833 1.375C7.78212 2.30122 7.33333 3.60938 7.33333 4.88889V24.4444C7.33333 24.5686 7.32379 24.7023 7.33333 24.8264C3.1224 25.9149 0 29.6675 0 34.2222C0 39.6267 4.37326 44 9.77778 44H44V39.1111H9.77778C6.86545 39.1111 4.88889 37.1345 4.88889 34.2222C4.88889 31.3099 6.86545 29.3333 9.77778 29.3333H44V4.88889C44 3.60938 43.5512 2.30122 42.625 1.375C41.6988 0.448785 40.3906 0 39.1111 0H12.2222ZM12.2222 4.88889H39.1111V24.4444H12.2222V4.88889ZM19.5556 9.77778V14.6667H31.7778V9.77778H19.5556ZM9.77778 31.7778C8.43142 31.7778 7.33333 32.8759 7.33333 34.2222C7.33333 35.5686 8.43142 36.6667 9.77778 36.6667C11.1241 36.6667 12.2222 35.5686 12.2222 34.2222C12.2222 32.8759 11.1241 31.7778 9.77778 31.7778ZM19.5556 31.7778C18.2092 31.7778 17.1111 32.8759 17.1111 34.2222C17.1111 35.5686 18.2092 36.6667 19.5556 36.6667C20.9019 36.6667 22 35.5686 22 34.2222C22 32.8759 20.9019 31.7778 19.5556 31.7778ZM29.3333 31.7778C27.987 31.7778 26.8889 32.8759 26.8889 34.2222C26.8889 35.5686 27.987 36.6667 29.3333 36.6667C30.6797 36.6667 31.7778 35.5686 31.7778 34.2222C31.7778 32.8759 30.6797 31.7778 29.3333 31.7778ZM39.1111 31.7778C37.7648 31.7778 36.6667 32.8759 36.6667 34.2222C36.6667 35.5686 37.7648 36.6667 39.1111 36.6667C40.4575 36.6667 41.5556 35.5686 41.5556 34.2222C41.5556 32.8759 40.4575 31.7778 39.1111 31.7778Z" fill="#1975A9"/>
</svg>
