<svg width="41" height="38" viewBox="0 0 41 38" fill="none" xmlns="http://www.w3.org/2000/svg">
<path d="M0 0V38H41V0H0ZM3.41667 3.45455H37.5833V6.90909H3.41667V3.45455ZM3.41667 10.3636H37.5833V34.5455H3.41667V10.3636ZM20.5 13.8182L17.0833 31.0909H20.5L23.9167 13.8182H20.5ZM12.2786 14.5199L7.15365 21.429L6.40625 22.4545L7.15365 23.4801L12.2786 30.3892L15.0547 28.3381L10.6771 22.4545L15.0547 16.571L12.2786 14.5199ZM28.7214 14.5199L25.9453 16.571L30.3229 22.4545L25.9453 28.3381L28.7214 30.3892L33.8464 23.4801L34.5938 22.4545L33.8464 21.429L28.7214 14.5199Z" fill="#E53F4D"/>
</svg>
