<svg width="49" height="24" viewBox="0 0 49 24" fill="none" xmlns="http://www.w3.org/2000/svg">
<path d="M36.228 0.287842C31.7469 0.287842 27.6815 3.37385 25.9352 4.90762C26.1015 5.17557 27.9032 7.90123 28.5869 8.88986C29.7973 7.71644 33.2714 4.94458 36.1541 5.02773C39.6097 5.07393 43.3148 7.3099 43.2871 12.1052C43.2593 16.494 39.582 19.2104 36.1911 19.2104C31.8947 19.2104 29.4739 15.5423 27.3488 12.3085C26.9792 11.7541 25.6488 9.79534 25.3069 9.26869C22.96 5.69298 19.4213 0.287842 12.5378 0.287842C6.88322 0.287842 0.757404 4.80598 0.711205 12.096C0.665008 19.7556 6.60604 23.8487 12.5009 23.9411C12.5471 23.9411 12.5933 23.9411 12.6487 23.9411C17.056 23.9411 21.0752 20.8551 22.8122 19.3213C22.5997 19.0072 20.798 16.2907 20.1512 15.3391C18.8854 16.5587 15.5314 19.2104 12.6487 19.2104C12.621 19.2104 12.6025 19.2104 12.5748 19.2104C9.1192 19.155 5.41414 16.919 5.44186 12.1329C5.46957 7.73492 9.14692 5.01849 12.5378 5.01849C16.8712 5.01849 19.2457 8.64964 21.3431 11.8558C21.7219 12.4286 23.0617 14.3966 23.3943 14.9141C25.7596 18.5082 29.3446 23.9411 36.1911 23.9411C41.8457 23.9411 47.9715 19.4322 48.0177 12.1329C48.0639 4.47336 42.1229 0.380237 36.228 0.287842Z" fill="#1975A9"/>
</svg>
