<svg width="56" height="56" viewBox="0 0 56 56" fill="none" xmlns="http://www.w3.org/2000/svg">
<path d="M28 0C24.9113 0 22.4 2.51125 22.4 5.6C22.4 8.68875 24.9113 11.2 28 11.2C31.0888 11.2 33.6 8.68875 33.6 5.6C33.6 2.51125 31.0888 0 28 0ZM22.855 11.48L15.47 22.82C14.8356 22.5706 14.1619 22.4 13.44 22.4C10.3513 22.4 7.84 24.9113 7.84 28C7.84 31.0888 10.3513 33.6 13.44 33.6C16.5288 33.6 19.04 31.0888 19.04 28C19.04 26.4381 18.3925 25.025 17.36 24.01L24.71 12.705C24.0231 12.3856 23.415 11.97 22.855 11.48ZM33.145 11.48C32.585 11.97 31.9769 12.3856 31.29 12.705L38.64 24.01C37.6075 25.025 36.96 26.4381 36.96 28C36.96 31.0888 39.4713 33.6 42.56 33.6C45.6488 33.6 48.16 31.0888 48.16 28C48.16 24.9113 45.6488 22.4 42.56 22.4C41.8381 22.4 41.1644 22.5706 40.53 22.82L33.145 11.48ZM9.835 34.965L6.405 44.87C6.13813 44.8306 5.87563 44.8 5.6 44.8C2.51125 44.8 0 47.3113 0 50.4C0 53.4888 2.51125 56 5.6 56C8.68875 56 11.2 53.4888 11.2 50.4C11.2 48.3831 10.1063 46.6287 8.505 45.64L11.97 35.7C11.2219 35.5556 10.4913 35.3063 9.835 34.965ZM17.045 34.965C16.3888 35.3063 15.6581 35.5556 14.91 35.7L18.41 45.605C16.7869 46.585 15.68 48.37 15.68 50.4C15.68 53.4888 18.1912 56 21.28 56C24.3688 56 26.88 53.4888 26.88 50.4C26.88 47.3113 24.3688 44.8 21.28 44.8C21.0263 44.8 20.79 44.835 20.545 44.87L17.045 34.965ZM38.955 34.965L35.455 44.87C35.21 44.835 34.9738 44.8 34.72 44.8C31.6313 44.8 29.12 47.3113 29.12 50.4C29.12 53.4888 31.6313 56 34.72 56C37.8088 56 40.32 53.4888 40.32 50.4C40.32 48.37 39.2131 46.585 37.59 45.605L41.09 35.7C40.3419 35.5556 39.6113 35.3063 38.955 34.965ZM46.165 34.965C45.5088 35.3063 44.7781 35.5556 44.03 35.7L47.495 45.64C45.8937 46.6287 44.8 48.3831 44.8 50.4C44.8 53.4888 47.3113 56 50.4 56C53.4888 56 56 53.4888 56 50.4C56 47.3113 53.4888 44.8 50.4 44.8C50.1244 44.8 49.8619 44.8306 49.595 44.87L46.165 34.965Z" fill="#1975A9"/>
</svg>
