<svg width="33" height="43" viewBox="0 0 33 43" fill="none" xmlns="http://www.w3.org/2000/svg">
<path d="M6.90468 0.777344C3.34698 0.777344 0.445312 3.67901 0.445312 7.23671V36.3039C0.445312 39.8616 3.34698 42.7633 6.90468 42.7633H26.2828C29.8405 42.7633 32.7422 39.8616 32.7422 36.3039V13.6961C32.7422 11.9803 31.1715 10.3529 28.3518 7.58996C27.9607 7.20517 27.5381 6.77623 27.1407 6.37883C26.7433 5.98143 26.3143 5.60926 25.9295 5.21816C23.1667 2.39849 21.5392 0.777344 19.8234 0.777344H6.90468ZM6.90468 4.00703H18.6628C19.8297 4.3035 19.8234 5.70388 19.8234 7.13579V12.0812C19.8234 12.9707 20.5488 13.6961 21.4383 13.6961H26.2828C27.8913 13.6961 29.5125 13.7024 29.5125 15.3109V36.3039C29.5125 38.089 28.068 39.5336 26.2828 39.5336H6.90468C5.11953 39.5336 3.675 38.089 3.675 36.3039V7.23671C3.675 5.45156 5.11953 4.00703 6.90468 4.00703ZM8.21674 16.9258C7.32732 17.0078 6.67129 17.8026 6.75329 18.692C6.8353 19.5814 7.6301 20.2375 8.51953 20.1555H24.668C25.2483 20.1618 25.7908 19.859 26.0872 19.3543C26.3774 18.8497 26.3774 18.2315 26.0872 17.7269C25.7908 17.2222 25.2483 16.9195 24.668 16.9258H8.51953C8.46906 16.9258 8.4186 16.9258 8.36813 16.9258C8.31767 16.9258 8.26721 16.9258 8.21674 16.9258ZM8.21674 23.3851C7.32732 23.4671 6.67129 24.2619 6.75329 25.1514C6.8353 26.0408 7.6301 26.6968 8.51953 26.6148H21.4383C22.0186 26.6211 22.5611 26.3184 22.8576 25.8137C23.1477 25.3091 23.1477 24.6909 22.8576 24.1863C22.5611 23.6816 22.0186 23.3788 21.4383 23.3851H8.51953C8.46906 23.3851 8.4186 23.3851 8.36813 23.3851C8.31767 23.3851 8.26721 23.3851 8.21674 23.3851ZM8.21674 29.8445C7.32732 29.9265 6.67129 30.7213 6.75329 31.6107C6.8353 32.5002 7.6301 33.1562 8.51953 33.0742H24.668C25.2483 33.0805 25.7908 32.7777 26.0872 32.2731C26.3774 31.7684 26.3774 31.1503 26.0872 30.6456C25.7908 30.141 25.2483 29.8382 24.668 29.8445H8.51953C8.46906 29.8445 8.4186 29.8445 8.36813 29.8445C8.31767 29.8445 8.26721 29.8445 8.21674 29.8445Z" fill="#1975A9"/>
</svg>
