<svg width="29" height="23" viewBox="0 0 29 23" fill="none" xmlns="http://www.w3.org/2000/svg">
<path d="M0 0V16.6917H29V0H0ZM4.05385 2.08646H24.9502C24.8895 2.25354 24.8571 2.42877 24.8571 2.60808C24.8571 3.47201 25.553 4.17293 26.4107 4.17293C26.5887 4.17293 26.7627 4.14033 26.9286 4.08327V12.6125C26.7627 12.5514 26.5887 12.5188 26.4107 12.5188C25.553 12.5188 24.8571 13.2197 24.8571 14.0836C24.8571 14.2629 24.8895 14.4382 24.9502 14.6052H4.05385C4.11049 14.4382 4.14286 14.2629 4.14286 14.0836C4.14286 13.2197 3.44699 12.5188 2.58929 12.5188C2.41127 12.5188 2.2373 12.5514 2.07143 12.6125V4.08327C2.2373 4.14033 2.41127 4.17293 2.58929 4.17293C3.44699 4.17293 4.14286 3.47201 4.14286 2.60808C4.14286 2.42877 4.11049 2.25354 4.05385 2.08646ZM14.5 4.17293C12.2101 4.17293 10.3571 6.03933 10.3571 8.34585V9.38909H10.5675C11.0328 11.174 12.5783 12.5188 14.5 12.5188C16.4217 12.5188 17.9672 11.174 18.4325 9.38909H18.6429V8.34585C18.6429 6.03933 16.7899 4.17293 14.5 4.17293ZM14.5 6.25939C15.734 6.25939 16.5714 7.10294 16.5714 8.34585C16.5714 9.58877 15.734 10.4323 14.5 10.4323C13.266 10.4323 12.4286 9.58877 12.4286 8.34585C12.4286 7.10294 13.266 6.25939 14.5 6.25939ZM7.25 6.78101C6.3923 6.78101 5.69643 7.48193 5.69643 8.34585C5.69643 9.20978 6.3923 9.9107 7.25 9.9107C8.1077 9.9107 8.80357 9.20978 8.80357 8.34585C8.80357 7.48193 8.1077 6.78101 7.25 6.78101ZM21.75 6.78101C20.8923 6.78101 20.1964 7.48193 20.1964 8.34585C20.1964 9.20978 20.8923 9.9107 21.75 9.9107C22.6077 9.9107 23.3036 9.20978 23.3036 8.34585C23.3036 7.48193 22.6077 6.78101 21.75 6.78101ZM0 17.7349V19.8214H1.03976C1.03976 19.8214 15.8877 19.7807 26.6656 22.6577L27.9643 23V17.7349H25.8929V18.8719C25.727 18.8108 25.553 18.7782 25.375 18.7782C24.6751 18.7782 24.0601 19.255 23.874 19.9355C13.2337 17.7227 1.04785 17.7349 1.03571 17.7349H0Z" fill="#1975A9"/>
</svg>
