<svg width="39" height="36" viewBox="0 0 39 36" fill="none" xmlns="http://www.w3.org/2000/svg">
<path d="M19.8564 0C14.6231 0 10.3549 4.35397 10.3549 9.69231C10.3549 12.5913 11.7599 15.0523 13.7483 16.8317L10.9063 22.1971C10.7207 22.1701 10.5457 22.1538 10.3549 22.1538C8.12264 22.1538 6.28279 24.0306 6.28279 26.3077C6.28279 28.5847 8.12264 30.4615 10.3549 30.4615C12.5871 30.4615 14.4269 28.5847 14.4269 26.3077C14.4269 25.2043 13.9816 24.1983 13.2817 23.4519L17.1416 16.1394L16.1236 15.4471C14.2944 14.2085 13.0696 12.11 13.0696 9.69231C13.0696 5.85216 16.0918 2.76923 19.8564 2.76923C23.6209 2.76923 26.6432 5.85216 26.6432 9.69231C26.6432 10.5036 26.5106 11.2662 26.2614 11.9856L28.8064 12.9375C29.1617 11.9261 29.3579 10.8227 29.3579 9.69231C29.3579 4.35397 25.0896 0 19.8564 0ZM19.8564 5.53846C17.6241 5.53846 15.7843 7.41527 15.7843 9.69231C15.7843 11.9694 17.6241 13.8462 19.8564 13.8462C20.0472 13.8462 20.2222 13.8299 20.4078 13.8029L24.1405 19.8606L24.8192 20.9856L25.9645 20.2933C26.9613 19.7037 28.1172 19.3846 29.3579 19.3846C33.1224 19.3846 36.1447 22.4675 36.1447 26.3077C36.1447 30.1478 33.1224 33.2308 29.3579 33.2308C27.3377 33.2308 25.5509 32.3546 24.3102 30.9375L22.2742 32.7548C24.0133 34.7344 26.553 36 29.3579 36C34.5911 36 38.8594 31.646 38.8594 26.3077C38.8594 20.9694 34.5911 16.6154 29.3579 16.6154C28.1066 16.6154 27.0196 17.1184 25.9221 17.5673L22.8256 12.5048C23.5043 11.7638 23.9284 10.774 23.9284 9.69231C23.9284 7.41527 22.0886 5.53846 19.8564 5.53846ZM19.8564 8.30769C20.6199 8.30769 21.2137 8.91346 21.2137 9.69231C21.2137 10.4712 20.6199 11.0769 19.8564 11.0769C19.0929 11.0769 18.499 10.4712 18.499 9.69231C18.499 8.91346 19.0929 8.30769 19.8564 8.30769ZM8.78542 16.7452C7.69847 16.9345 6.61152 17.3185 5.60411 17.9135C1.07605 20.5799 -0.488095 26.5349 2.12588 31.1538C4.73985 35.7728 10.5723 37.3684 15.1056 34.7019C17.6984 33.1713 19.0982 30.5048 19.517 27.6923H25.5403C26.1076 29.2933 27.6028 30.4615 29.3579 30.4615C31.5901 30.4615 33.4299 28.5847 33.4299 26.3077C33.4299 24.0306 31.5901 22.1538 29.3579 22.1538C27.6028 22.1538 26.1076 23.3221 25.5403 24.9231H17.1416V26.3077C17.1416 28.6983 15.9328 31.0349 13.7483 32.3221C10.4874 34.2422 6.34111 33.0956 4.45884 29.7692C2.57656 26.4429 3.70063 22.2133 6.96147 20.2933C7.68256 19.866 8.43547 19.6064 9.20959 19.4712L8.78542 16.7452ZM10.3549 24.9231C11.1184 24.9231 11.7122 25.5288 11.7122 26.3077C11.7122 27.0865 11.1184 27.6923 10.3549 27.6923C9.59135 27.6923 8.9975 27.0865 8.9975 26.3077C8.9975 25.5288 9.59135 24.9231 10.3549 24.9231ZM29.3579 24.9231C30.1214 24.9231 30.7152 25.5288 30.7152 26.3077C30.7152 27.0865 30.1214 27.6923 29.3579 27.6923C28.5944 27.6923 28.0005 27.0865 28.0005 26.3077C28.0005 25.5288 28.5944 24.9231 29.3579 24.9231Z" fill="#ffffff"/>
</svg>
