<svg width="38" height="36" viewBox="0 0 38 36" fill="none" xmlns="http://www.w3.org/2000/svg">
<path d="M4.38462 0C1.96394 0 0 1.935 0 4.32V24.48C0 26.865 1.96394 28.8 4.38462 28.8H14.6154V30.24C14.6154 31.0331 15.2719 31.68 16.0769 31.68H21.9231C22.7281 31.68 23.3846 30.9375 23.3846 30.24V28.8H33.6154C36.0361 28.8 38 26.865 38 24.48V4.32C38 1.935 36.0361 0 33.6154 0H4.38462ZM4.38462 2.88H33.6154C34.4204 2.88 35.0769 3.52688 35.0769 4.32V21.6C35.0769 22.3931 34.4204 23.04 33.6154 23.04H4.38462C3.57963 23.04 2.92308 22.3931 2.92308 21.6V4.32C2.92308 3.52688 3.57963 2.88 4.38462 2.88ZM15.8942 4.32C15.3975 4.38188 14.9694 4.68563 14.7524 5.13L10.7788 12.96H4.38462V15.84H11.6923C12.2575 15.8456 12.7713 15.5306 13.0168 15.03L15.7115 9.675L19.0457 20.565C19.2055 21.15 19.7194 21.5775 20.3359 21.6281C20.9468 21.6788 21.5291 21.3413 21.7861 20.79L24.2981 15.84H33.6154V12.96H23.3846C22.8194 12.9544 22.3056 13.2694 22.0601 13.77L20.8269 16.245L17.4928 5.355C17.293 4.66875 16.6136 4.22438 15.8942 4.32ZM34.0264 24.885C34.6145 24.885 35.0769 25.3463 35.0769 25.92C35.0769 26.4938 34.6145 26.955 34.0264 26.955C33.4441 26.955 32.976 26.4994 32.976 25.92C32.976 25.3406 33.4441 24.885 34.0264 24.885ZM8.76923 33.12C7.96424 33.12 7.30769 34.56 7.30769 34.56V36H30.6923V34.56C30.6923 33.7669 30.0358 33.12 29.2308 33.12H8.76923Z" fill="#1975A9"/>
</svg>
