<svg width="17" height="29" viewBox="0 0 17 29" fill="none" xmlns="http://www.w3.org/2000/svg">
<path d="M9.9455 28.1772H5.40259C4.64377 28.1772 4.02651 27.5641 4.02651 26.8104V16.6326H1.37608C0.617265 16.6326 0 16.0193 0 15.2658V10.9046C0 10.1509 0.617265 9.53781 1.37608 9.53781H4.02651V7.35387C4.02651 5.18843 4.71109 3.34609 6.006 2.02636C7.30676 0.700604 9.12458 0 11.2629 0L14.7276 0.00558933C15.4851 0.00687921 16.1013 0.619989 16.1013 1.3724V5.42168C16.1013 6.17538 15.4842 6.78849 14.7256 6.78849L12.3929 6.78935C11.6815 6.78935 11.5004 6.93102 11.4616 6.97444C11.3978 7.04646 11.3218 7.25004 11.3218 7.8122V9.53759H14.5503C14.7934 9.53759 15.0289 9.59714 15.2312 9.70936C15.6678 9.95163 15.9392 10.4097 15.9392 10.9048L15.9374 15.266C15.9374 16.0193 15.3202 16.6324 14.5614 16.6324H11.3218V26.8104C11.3218 27.5641 10.7043 28.1772 9.9455 28.1772ZM5.68958 26.5254H9.65851V15.8931C9.65851 15.3899 10.0708 14.9805 10.5773 14.9805H14.2744L14.2759 11.1897H10.5771C10.0706 11.1897 9.65851 10.7804 9.65851 10.2771V7.8122C9.65851 7.16684 9.72453 6.43292 10.215 5.88129C10.8076 5.21444 11.7415 5.13748 12.3925 5.13748L14.4382 5.13662V1.65703L11.2616 1.65187C7.82512 1.65187 5.68958 3.83688 5.68958 7.35387V10.2771C5.68958 10.7801 5.27749 11.1897 4.77104 11.1897H1.66307V14.9805H4.77104C5.27749 14.9805 5.68958 15.3899 5.68958 15.8931V26.5254ZM14.7243 1.65746H14.7245H14.7243Z" fill="white"/>
</svg>
