<svg width="43" height="43" viewBox="0 0 43 43" fill="none" xmlns="http://www.w3.org/2000/svg">
<path d="M21.5 0C17.9391 0 15.05 2.88906 15.05 6.45C15.05 10.0109 17.9391 12.9 21.5 12.9C25.0609 12.9 27.95 10.0109 27.95 6.45C27.95 2.88906 25.0609 0 21.5 0ZM7.525 4.3C4.55195 4.3 2.15 6.70195 2.15 9.675C2.15 12.648 4.55195 15.05 7.525 15.05C10.498 15.05 12.9 12.648 12.9 9.675C12.9 6.70195 10.498 4.3 7.525 4.3ZM21.5 4.3C22.6842 4.3 23.65 5.26582 23.65 6.45C23.65 7.63418 22.6842 8.6 21.5 8.6C20.3158 8.6 19.35 7.63418 19.35 6.45C19.35 5.26582 20.3158 4.3 21.5 4.3ZM35.475 4.3C32.502 4.3 30.1 6.70195 30.1 9.675C30.1 12.648 32.502 15.05 35.475 15.05C38.448 15.05 40.85 12.648 40.85 9.675C40.85 6.70195 38.448 4.3 35.475 4.3ZM7.525 8.6C8.12129 8.6 8.6 9.07871 8.6 9.675C8.6 10.2713 8.12129 10.75 7.525 10.75C6.92871 10.75 6.45 10.2713 6.45 9.675C6.45 9.07871 6.92871 8.6 7.525 8.6ZM35.475 8.6C36.0713 8.6 36.55 9.07871 36.55 9.675C36.55 10.2713 36.0713 10.75 35.475 10.75C34.8787 10.75 34.4 10.2713 34.4 9.675C34.4 9.07871 34.8787 8.6 35.475 8.6ZM21.5 15.05C18.3002 15.05 14.8652 16.6709 12.7656 19.2828C11.4135 17.9811 9.54902 17.2 7.525 17.2C3.37617 17.2 0 20.5762 0 24.725V43H43V24.725C43 20.5762 39.6238 17.2 35.475 17.2C33.4678 17.2 31.6537 17.9979 30.3016 19.2828C28.202 16.6541 24.725 15.05 21.5 15.05ZM21.5 19.35C24.4814 19.35 26.6482 21.5 27.95 24.725C28.4875 26.0688 30.1 30.1 30.1 30.1C30.1 30.1 31.7041 26.0688 32.25 24.725C32.9219 23.0705 33.8709 21.5 35.475 21.5C37.2555 21.5 38.7 22.9445 38.7 24.725V38.7H29.8984C29.4029 37.751 27.2445 34.4 21.5 34.4C15.7555 34.4 13.5971 37.751 13.1016 38.7H4.3V24.725C4.3 22.9445 5.74453 21.5 7.525 21.5C9.30547 21.5 10.1705 22.9781 10.75 24.725C11.2119 26.1023 12.9 30.1 12.9 30.1L15.05 24.725C16.125 22.0375 18.2414 19.35 21.5 19.35ZM21.5 23.65C19.1232 23.65 17.2 25.5732 17.2 27.95C17.2 30.3268 19.1232 32.25 21.5 32.25C23.8768 32.25 25.8 30.3268 25.8 27.95C25.8 25.5732 23.8768 23.65 21.5 23.65Z" fill="#1975A9"/>
</svg>
