<svg width="21" height="22" viewBox="0 0 21 22" fill="none" xmlns="http://www.w3.org/2000/svg">
<path d="M7 0V4.4H5.25V2.64H0V18.48H1.75V19.36C1.75 20.8072 2.93604 22 4.375 22C5.81396 22 7 20.8072 7 19.36V18.48H21V4.4H17.5V0H7ZM8.75 1.76H15.75V6.16H8.75V1.76ZM1.75 4.4H3.5V16.72H1.75V4.4ZM5.25 6.16H7V7.92H17.5V6.16H19.25V16.72H5.25V6.16ZM7.875 9.68V11.44H9.625V9.68H7.875ZM11.375 9.68V11.44H13.125V9.68H11.375ZM14.875 9.68V11.44H16.625V9.68H14.875ZM7.875 13.2V14.96H9.625V13.2H7.875ZM11.375 13.2V14.96H13.125V13.2H11.375ZM14.875 13.2V14.96H16.625V13.2H14.875ZM3.5 18.48H5.25V19.36C5.25 19.8481 4.86035 20.24 4.375 20.24C3.88965 20.24 3.5 19.8481 3.5 19.36V18.48Z" fill="#1975A9"/>
</svg>
