<svg width="57" height="57" viewBox="0 0 57 57" fill="none" xmlns="http://www.w3.org/2000/svg">
<path d="M28.5 0.84375C26.4528 0.84375 24.8107 2.50208 24.8107 4.52765C24.8107 6.55325 26.4528 8.21875 28.5 8.21875C30.5472 8.21875 32.1893 6.55325 32.1893 4.52765C32.1893 2.50208 30.5472 0.84375 28.5 0.84375ZM22.7491 6.28677C22.5943 6.27636 22.4407 6.30775 22.3008 6.375L9.95627 12.0701C8.84406 12.5589 9.59036 14.2648 10.7287 13.7446L23.075 8.0495C23.9356 7.66533 23.7121 6.35639 22.7491 6.28677ZM34.2509 6.28677C33.2877 6.35642 33.0643 7.66533 33.925 8.0495L46.2713 13.7446C47.4097 14.2648 48.1559 12.5589 47.0437 12.0701L34.6992 6.375C34.5595 6.3081 34.4056 6.2781 34.2509 6.28677ZM28.5 10.9826C27.3973 10.9824 26.681 11.0732 26.0837 11.3625C25.3952 11.6959 25.1405 12.2105 24.989 12.5742C24.8374 12.9381 24.7778 13.1437 24.5874 13.3773C24.3968 13.6107 24.0494 13.9093 23.246 14.2487C22.4397 14.5895 21.9703 14.6376 21.6598 14.6161C21.3493 14.5951 21.1633 14.5009 20.8099 14.364C20.4565 14.2267 19.9059 14.0507 19.2236 14.2758C18.6074 14.4789 18 14.9684 17.3259 15.6514C16.5946 16.3922 16.1529 17.0037 15.9773 17.5635C15.764 18.2434 15.9565 18.7909 16.0997 19.1408C16.2436 19.4908 16.3394 19.6785 16.3662 19.9853C16.3941 20.2922 16.3524 20.7636 16.0259 21.5715C15.698 22.3795 15.4017 22.7443 15.1688 22.9453C14.9361 23.1464 14.7365 23.2084 14.3928 23.3541C13.9458 23.5433 13.4984 23.8078 13.2008 24.3822C12.9305 24.9043 12.8198 25.6356 12.8281 26.6545C12.8211 27.5905 12.9041 28.354 13.2008 28.9267C13.4984 29.5011 13.9481 29.7665 14.3928 29.9548C14.7363 30.1005 14.9251 30.159 15.158 30.36C15.3908 30.561 15.6979 30.9294 16.0259 31.7374C16.3478 32.5298 16.3894 32.9978 16.3662 33.3038C16.3418 33.6101 16.2528 33.795 16.1141 34.1267C15.9469 34.5263 15.791 35.026 15.9503 35.6373C16.0673 36.0867 16.305 36.4965 16.6885 36.9625C16.061 37.9922 15.5677 39.0873 15.2246 40.2719C14.559 39.2882 13.684 38.5109 12.6463 37.942C13.3355 37.1351 13.7482 36.0937 13.7482 34.9531C13.7482 32.4184 11.7006 30.342 9.14062 30.342C6.58064 30.342 4.52585 32.4184 4.52585 34.9531C4.52585 36.095 4.941 37.1347 5.63318 37.942C3.3166 39.1906 1.76562 41.6364 1.76562 44.4546V45.5367C1.76562 47.8458 3.62795 49.7013 5.91226 49.7013H12.3636C13.2165 49.7013 14.0106 49.4463 14.6719 48.9991V52.4742C14.6719 53.581 15.0196 54.6651 15.8638 55.3784C16.7079 56.0917 17.9425 56.3142 19.3551 56.0392C19.376 56.0357 19.3961 56.0301 19.4163 56.0266L28.4946 53.5833L37.6089 56.0338C39.0521 56.3157 40.2521 56.123 41.1344 55.3802C41.9783 54.6696 42.3281 53.5897 42.3281 52.4886V49.0045C42.9893 49.4515 43.7835 49.7031 44.6364 49.7031H51.0877C53.372 49.7031 55.2344 47.8476 55.2344 45.5385V44.4564C55.2344 41.6382 53.6834 39.1924 51.3668 37.9438C52.059 37.1365 52.4742 36.095 52.4742 34.9531C52.4742 32.4184 50.4194 30.3419 47.8594 30.3419C45.2994 30.3419 43.2518 32.4184 43.2518 34.9531C43.2518 36.0937 43.6645 37.1369 44.3537 37.9438C43.3232 38.4983 42.4374 39.2936 41.7718 40.2773C41.4286 39.0928 40.9374 37.9867 40.3097 36.9571C40.6937 36.4907 40.9327 36.087 41.0497 35.6373C41.209 35.0259 41.053 34.5263 40.8859 34.1267C40.7476 33.795 40.6575 33.6099 40.6338 33.3038C40.6094 32.9979 40.6511 32.5298 40.9741 31.7374C41.302 30.9294 41.6091 30.561 41.842 30.36C42.0747 30.1589 42.2635 30.1004 42.6072 29.9548C43.0519 29.7663 43.5016 29.5011 43.7992 28.9267C44.096 28.354 44.1796 27.5905 44.1719 26.6544C44.1789 25.6356 44.0698 24.9043 43.7992 24.3822C43.5016 23.8078 43.0542 23.5434 42.6072 23.3541C42.2637 23.2084 42.0641 23.1464 41.8312 22.9453C41.5984 22.7443 41.3021 22.3795 40.9741 21.5715C40.6463 20.7636 40.6072 20.292 40.6338 19.9853C40.6617 19.6786 40.7564 19.4908 40.9003 19.1408C41.0442 18.7909 41.2363 18.2434 41.0227 17.5635C40.8471 17.0037 40.4054 16.3922 39.6741 15.6514C39 14.9684 38.3926 14.4791 37.7764 14.2758C37.0941 14.0507 36.5435 14.2267 36.1901 14.364C35.8367 14.5013 35.6508 14.5945 35.3402 14.6161C35.0298 14.637 34.5603 14.5882 33.754 14.2487C32.9506 13.9094 32.6031 13.6109 32.4126 13.3773C32.222 13.1438 32.1627 12.9381 32.011 12.5742C31.8595 12.2105 31.6048 11.6961 30.9163 11.3625C30.319 11.0729 29.6026 10.9827 28.5 10.9826ZM4.53125 11.9044C2.48401 11.9044 0.84375 13.5627 0.84375 15.5883C0.84375 17.6139 2.48401 19.2794 4.53125 19.2794C6.57849 19.2794 8.22055 17.6139 8.22055 15.5883C8.22055 13.5627 6.57849 11.9044 4.53125 11.9044ZM52.4688 11.9044C50.4215 11.9044 48.7794 13.5627 48.7794 15.5883C48.7794 17.6139 50.4215 19.2794 52.4688 19.2794C54.516 19.2794 56.1562 17.6139 56.1562 15.5883C56.1562 13.5627 54.516 11.9044 52.4688 11.9044ZM28.5 12.8263C29.479 12.8263 29.9647 12.9451 30.1133 13.0172C30.2401 13.0785 30.2528 13.1776 30.3113 13.2891C30.4134 13.534 30.5706 14.0325 30.9847 14.5404C31.3989 15.0484 32.036 15.5294 33.032 15.9503C34.025 16.3698 34.8153 16.5051 35.4681 16.4598C36.1209 16.4145 36.6038 16.186 36.8635 16.0853C37.0178 16.0254 37.0956 15.991 37.1966 16.0241C37.329 16.068 37.6653 16.2387 38.3615 16.9441C39.0256 17.6169 39.2191 17.9843 39.26 18.1145C39.2879 18.2236 39.2425 18.3184 39.1916 18.4386C39.1045 18.6501 38.854 19.1683 38.7973 19.8196C38.7405 20.471 38.8607 21.2661 39.2654 22.2629C39.67 23.2598 40.1308 23.911 40.6266 24.339C41.1224 24.767 41.6282 24.9441 41.887 25.0538C42.0333 25.1158 42.1024 25.1215 42.1589 25.2302C42.2153 25.3393 42.3437 25.7001 42.3353 26.6526C42.3423 27.5492 42.2345 27.9289 42.1589 28.0751C42.1024 28.1841 41.9999 28.2038 41.887 28.2515C41.6281 28.3613 41.1224 28.5383 40.6266 28.9663C40.1308 29.3943 39.67 30.0455 39.2654 31.0424C38.8686 32.02 38.748 32.7993 38.7973 33.4443C38.8464 34.0892 39.0572 34.5281 39.1844 34.8325C39.2384 34.9847 39.2919 35.07 39.2654 35.1728C39.2584 35.2007 39.2185 35.299 39.1826 35.3672C37.8161 33.7122 36.0595 32.3727 34.0637 31.4997C35.1975 30.2014 35.8768 28.508 35.8768 26.6544C35.8768 22.5923 32.5622 19.2794 28.5 19.2794C24.4378 19.2794 21.1232 22.5923 21.1232 26.6544C21.1232 28.5084 21.8019 30.2013 22.9363 31.4997C20.9403 32.3723 19.1836 33.7123 17.8174 35.3672C17.7819 35.299 17.7423 35.2017 17.7346 35.1728C17.7067 35.07 17.7623 34.9847 17.8156 34.8325C17.9428 34.528 18.1536 34.0892 18.2027 33.4443C18.2519 32.7993 18.1313 32.02 17.7346 31.0424C17.33 30.0455 16.8692 29.3943 16.3734 28.9663C15.8776 28.5384 15.3718 28.3611 15.113 28.2515C14.9998 28.2038 14.8976 28.1838 14.8411 28.0751C14.7655 27.9291 14.657 27.5492 14.6647 26.6526C14.6577 25.7001 14.7847 25.3392 14.8411 25.2302C14.8976 25.1212 14.9667 25.1158 15.113 25.0538C15.3719 24.944 15.8776 24.767 16.3734 24.339C16.8692 23.911 17.33 23.2598 17.7346 22.2629C18.1392 21.2661 18.2596 20.471 18.2027 19.8196C18.1459 19.1683 17.8954 18.65 17.8084 18.4386C17.7589 18.318 17.7107 18.2232 17.74 18.1145C17.7808 17.9842 17.9745 17.6169 18.6385 16.9441C19.3347 16.2388 19.6709 16.0678 19.8034 16.0241C19.9045 15.9892 19.9822 16.0253 20.1365 16.0853C20.3961 16.186 20.8792 16.4145 21.5319 16.4598C22.1847 16.5051 22.975 16.3699 23.9681 15.9503C24.964 15.5294 25.6011 15.0484 26.0153 14.5404C26.4294 14.0325 26.5867 13.5338 26.6887 13.2891C26.7475 13.1776 26.7595 13.0785 26.8867 13.0172C27.0352 12.9451 27.521 12.8263 28.5 12.8263ZM6.19135 20.7811C5.55711 20.7414 5.07363 21.3398 5.24606 21.9514L6.86655 28.0877C7.14947 29.3252 9.01088 28.8363 8.64908 27.6195L7.02859 21.4833C6.93313 21.0913 6.59399 20.8067 6.19135 20.7811ZM50.8087 20.7811C50.406 20.8055 50.0668 21.0912 49.9714 21.4833L48.3509 27.6195C47.9892 28.8363 49.8506 29.3252 50.1335 28.0877L51.7539 21.9514C51.9264 21.3398 51.4428 20.7412 50.8087 20.7811ZM24.5082 32.8591C25.6561 33.5972 27.0324 34.0312 28.5 34.0312C29.9666 34.0312 31.339 33.5981 32.4864 32.8609C37.1562 34.4935 40.4844 38.916 40.4844 44.1719V52.4868C40.4844 53.2125 40.2767 53.692 39.946 53.9704C39.6168 54.2477 39.0537 54.4315 38.0068 54.2297L32.0471 52.6254L35.8426 51.6027C37.8457 51.0634 39.054 49.0073 38.511 46.9807C38.242 45.9764 37.6057 45.1916 36.7951 44.712V44.1611C36.7672 42.9589 34.978 42.9708 34.9513 44.1935C34.6733 44.1726 34.2545 44.2168 33.9034 44.3069L22.0487 47.3534V44.1611C22.0208 42.9589 20.2316 42.9589 20.2049 44.1611V47.827L19.9745 47.8864C18.7811 48.1902 19.2366 49.98 20.43 49.6761L34.3661 46.0966C35.4292 45.8235 36.464 46.4388 36.7339 47.4507C37.0081 48.4742 36.4147 49.5381 35.3672 49.8202L19.0004 54.2297C18.9969 54.2304 18.9967 54.229 18.9932 54.2297C17.9463 54.4314 17.3833 54.247 17.054 53.9704C16.7233 53.691 16.5174 53.2085 16.5174 52.4742V44.1719C16.5174 38.9161 19.8689 34.4811 24.5082 32.8591ZM32.1893 38.6388C30.9871 38.6667 30.9871 40.4559 32.1893 40.4826H34.9513C36.1535 40.4547 36.1535 38.6655 34.9513 38.6388H32.1893ZM7.35449 39.197C7.86807 39.421 8.51524 39.5589 9.14062 39.5589C9.76601 39.5589 10.3886 39.4209 10.9304 39.197C13.1195 39.9323 14.6719 42.0245 14.6719 44.4546V45.5367C14.6719 46.8206 13.6543 47.8576 12.3636 47.8576H5.91226C4.62159 47.8575 3.60938 46.8081 3.60938 45.5367V44.4546C3.60938 42.0208 5.16387 39.9335 7.35449 39.197ZM46.0696 39.197C46.5898 39.4245 47.234 39.5607 47.8594 39.5607C48.4847 39.5607 49.1139 39.4318 49.6455 39.197C51.8361 39.9335 53.3906 42.0208 53.3906 44.4546V45.5367C53.3906 46.8081 52.3784 47.8575 51.0877 47.8576H44.6364C43.3457 47.8576 42.3281 46.8081 42.3281 45.5367V44.4546C42.3281 42.0245 43.8805 39.9323 46.0696 39.197Z" fill="#1975A9"/>
</svg>
