<svg width="49" height="49" viewBox="0 0 49 49" fill="none" xmlns="http://www.w3.org/2000/svg">
<path d="M19.6 0C14.5852 0 10.0297 0.861328 6.50781 2.37344C4.74688 3.12949 3.24434 4.00996 2.06719 5.20625C0.89004 6.40254 0 8.01035 0 9.8V39.2C0 45.5738 9.8 49 19.6 49C23.275 49 26.6725 48.5215 29.8594 47.5453L25.725 44.5594C25.4762 44.3105 24.9785 44.1287 24.7297 43.6406C23.2559 43.8895 21.5619 44.1 19.6 44.1C10.5369 44.1 4.9 40.9131 4.9 39.2V35.9844C8.575 37.9463 14.2119 39.2 19.6 39.2C20.825 39.2 22.05 39.2191 23.275 38.9703V34.0703C22.05 34.3191 20.825 34.3 19.6 34.3C10.5369 34.3 4.9 31.1131 4.9 29.4V26.1844C8.575 28.1463 14.2119 29.4 19.6 29.4C20.825 29.4 22.05 29.4191 23.275 29.1703V24.2703C22.05 24.5191 20.825 24.5 19.6 24.5C10.5369 24.5 4.9 21.3131 4.9 19.6V16.3844C5.42637 16.6715 5.92402 16.9777 6.50781 17.2266C10.0297 18.7387 14.5852 19.6 19.6 19.6C24.6148 19.6 29.1703 18.7387 32.6922 17.2266C33.276 16.9777 33.7736 16.6715 34.3 16.3844V18.375H39.2V9.8C39.2 8.01035 38.31 6.40254 37.1328 5.20625C35.9557 4.00996 34.4531 3.12949 32.6922 2.37344C29.1703 0.861328 24.6148 0 19.6 0ZM19.6 4.9C24.0502 4.9 28.0889 5.74219 30.7781 6.89062C32.118 7.46484 33.1324 8.08692 33.6875 8.65156C34.2426 9.21621 34.3 9.56074 34.3 9.8C34.3 10.0393 34.2426 10.3838 33.6875 10.9484C33.1324 11.5131 32.118 12.1352 30.7781 12.7094C28.0889 13.8578 24.0502 14.7 19.6 14.7C15.1498 14.7 11.1111 13.8578 8.42188 12.7094C7.08203 12.1352 6.06758 11.5131 5.5125 10.9484C4.95742 10.3838 4.9 10.0393 4.9 9.8C4.9 9.56074 4.95742 9.21621 5.5125 8.65156C6.06758 8.08692 7.08203 7.46484 8.42188 6.89062C11.1111 5.74219 15.1498 4.9 19.6 4.9ZM29.4 22.05C27.9262 22.05 26.95 23.0262 26.95 24.5V39.6594C26.95 40.3963 27.4572 41.1619 27.9453 41.65L37.975 49L48.0047 41.65C48.7416 41.1619 49 40.3963 49 39.6594V24.5C49 23.0262 48.0238 22.05 46.55 22.05H29.4Z" fill="#1975A9"/>
</svg>
