<svg width="60" height="59" viewBox="0 0 60 59" fill="none" xmlns="http://www.w3.org/2000/svg">
<path d="M20.6385 43.2585H18.673V47.1896H20.6385V43.2585Z" fill="#ACCADF"/>
<path d="M37.3451 24.5863H21.6209C21.0313 24.5863 20.6382 24.9794 20.6382 25.5691V37.3622C20.6382 37.9518 21.0313 38.3449 21.6209 38.3449H37.3451C37.9347 38.3449 38.3279 37.9518 38.3279 37.3622V25.5691C38.3279 24.9794 37.9347 24.5863 37.3451 24.5863ZM22.6037 26.5518H24.5692V28.5173H22.6037V26.5518ZM32.4313 37.3622H23.5865C22.9968 37.3622 22.6037 36.9691 22.6037 36.3794V30.4829H24.5692V35.3967H32.4313V37.3622ZM36.3623 37.3622H34.3968V35.3967H36.3623V37.3622ZM36.3623 33.4311H34.3968V28.5173H26.5347V26.5518H35.3796C35.9692 26.5518 36.3623 26.9449 36.3623 27.5346V33.4311Z" fill="#DDE8F2"/>
<path d="M42.2585 40.3105V22.6208C42.2585 21.5398 41.374 20.6553 40.293 20.6553H18.6723C17.5913 20.6553 16.7068 21.5398 16.7068 22.6208V40.3105C16.7068 41.3915 17.5913 42.276 18.6723 42.276H40.293C41.374 42.276 42.2585 41.3915 42.2585 40.3105ZM37.3447 40.3105H21.6206C19.9499 40.3105 18.6723 39.0329 18.6723 37.3622V25.5691C18.6723 23.8984 19.9499 22.6208 21.6206 22.6208H37.3447C39.0154 22.6208 40.293 23.8984 40.293 25.5691V37.3622C40.293 39.0329 39.0154 40.3105 37.3447 40.3105Z" fill="#1975A9"/>
<path d="M58.9656 53.0861H33.3155C32.9224 51.7103 31.8414 50.6292 30.4655 50.2361V43.2585H28.5V50.2361C27.1242 50.6292 26.0431 51.7103 25.65 53.0861H0V55.0517H25.65C26.0431 56.7224 27.6155 57.9999 29.4828 57.9999C31.35 57.9999 32.8242 56.7224 33.3155 55.0517H58.9656V53.0861ZM29.4828 56.0344C28.4017 56.0344 27.5173 55.1499 27.5173 54.0689C27.5173 52.9879 28.4017 52.1034 29.4828 52.1034C30.5638 52.1034 31.4483 52.9879 31.4483 54.0689C31.4483 55.1499 30.5638 56.0344 29.4828 56.0344Z" fill="#1975A9"/>
<path d="M24.569 43.2585H22.6035V47.1896H24.569V43.2585Z" fill="#ACCADF"/>
<path d="M36.3622 43.5085H34.3967V47.4396H36.3622V43.5085Z" fill="#ACCADF"/>
<path d="M40.2927 43.5085H38.3271V47.4396H40.2927V43.5085Z" fill="#ACCADF"/>
<path d="M6.87901 27.5345H11.7928V28.5173H15.7238V26.5517H14.7411V24.5862H15.7238V22.6207H14.7411C14.7411 20.4586 16.51 18.6897 18.6721 18.6897V15.7414H20.6376V18.6897H22.6032V15.7414H24.5687V18.6897H26.5342V15.7414H28.4997V18.6897H30.4652V15.7414H32.4308V18.6897H34.3963V15.7414H36.3618V18.6897H38.3273V15.7414H40.2928V18.6897C42.4549 18.6897 44.2239 20.4586 44.2239 22.6207H43.2411V24.5862H44.2239V26.5517H43.2411V28.5173H47.1721V27.5345C52.5773 27.5345 56.9997 23.1121 56.9997 17.7069C56.9997 12.3017 52.5773 7.87932 47.1721 7.87932H46.5825C46.1894 7.87932 45.7963 7.58449 45.698 7.19138C44.3221 3.4569 40.7842 1 36.8532 1C33.217 1 29.8756 3.16207 28.4014 6.40518C28.3032 6.70001 28.0083 6.89656 27.7135 6.99483C27.4187 7.09311 27.0256 6.99483 26.829 6.70001C25.0601 4.93104 22.7014 3.94828 20.1463 3.94828C15.0359 3.94828 10.81 8.17414 10.81 13.2845V16.7242C10.81 17.3138 10.4169 17.7069 9.82729 17.7069H6.87901C4.12728 17.7069 1.96521 19.869 1.96521 22.6207C1.96521 25.3724 4.12728 27.5345 6.87901 27.5345ZM53.0687 20.6552H51.1032V18.6897H53.0687V20.6552ZM47.1721 10.8276C50.4153 10.8276 53.0687 13.481 53.0687 16.7242H51.1032C51.1032 14.5621 49.3342 12.7931 47.1721 12.7931V10.8276Z" fill="#ACCADF"/>
<path d="M47.1727 30.4828H43.2417V32.4483H47.1727V30.4828Z" fill="#DDE8F2"/>
<path d="M47.1727 34.4138H43.2417V36.3793H47.1727V34.4138Z" fill="#DDE8F2"/>
<path d="M47.1727 38.345H43.2417V40.3105H47.1727V38.345Z" fill="#DDE8F2"/>
<path d="M15.7244 30.4828H11.7933V32.4483H15.7244V30.4828Z" fill="#DDE8F2"/>
<path d="M15.7244 34.4138H11.7933V36.3793H15.7244V34.4138Z" fill="#DDE8F2"/>
<path d="M15.7244 38.345H11.7933V40.3105H15.7244V38.345Z" fill="#DDE8F2"/>
</svg>
