<svg width="44" height="40" viewBox="0 0 44 40" fill="none" xmlns="http://www.w3.org/2000/svg">
<path d="M22 0L0 20H4.4V24.4444H8.8V17.7778L22 5.97222L35.2 17.7778V24.4444H39.6V20H44L22 0ZM4.4 26.6667V31.1111H8.8V26.6667H4.4ZM35.2 26.6667V31.1111H39.6V26.6667H35.2ZM4.4 33.3333V37.7778C4.4 39.1146 5.27656 40 6.6 40H11V35.5556H8.8V33.3333H4.4ZM35.2 33.3333V35.5556H33V40H37.4C38.7234 40 39.6 39.1146 39.6 37.7778V33.3333H35.2ZM13.2 35.5556V40H17.6V35.5556H13.2ZM19.8 35.5556V40H24.2V35.5556H19.8ZM26.4 35.5556V40H30.8V35.5556H26.4Z" fill="#E53F4D"/>
</svg>
