<svg width="33" height="41" viewBox="0 0 33 41" fill="none" xmlns="http://www.w3.org/2000/svg">
<path d="M6.42578 0.235352C3.13672 0.235352 0.425781 2.94629 0.425781 6.23535C0.425781 8.82129 2.11328 11.0244 4.42578 11.8604V28.6104C2.11328 29.4463 0.425781 31.6494 0.425781 34.2354C0.425781 37.5244 3.13672 40.2354 6.42578 40.2354C9.71484 40.2354 12.4258 37.5244 12.4258 34.2354C12.4258 31.6494 10.7383 29.4463 8.42578 28.6104V20.9854C9.20703 21.9307 10.082 22.79 10.9883 23.5479C14.0742 26.1338 17.6133 27.6963 20.8008 28.1104C21.6055 30.4775 23.8008 32.2354 26.4258 32.2354C29.7148 32.2354 32.4258 29.5244 32.4258 26.2354C32.4258 22.9463 29.7148 20.2354 26.4258 20.2354C23.9102 20.2354 21.7461 21.8291 20.8633 24.0479C18.6992 23.626 15.8711 22.4229 13.5508 20.4854C10.9805 18.3369 9.01172 15.3994 8.55078 11.7979C10.793 10.9229 12.4258 8.77441 12.4258 6.23535C12.4258 2.94629 9.71484 0.235352 6.42578 0.235352ZM6.42578 4.23535C7.55078 4.23535 8.42578 5.11035 8.42578 6.23535C8.42578 7.36035 7.55078 8.23535 6.42578 8.23535C5.30078 8.23535 4.42578 7.36035 4.42578 6.23535C4.42578 5.11035 5.30078 4.23535 6.42578 4.23535ZM26.4258 24.2354C27.5508 24.2354 28.4258 25.1104 28.4258 26.2354C28.4258 27.3604 27.5508 28.2354 26.4258 28.2354C25.3008 28.2354 24.4258 27.3604 24.4258 26.2354C24.4258 25.1104 25.3008 24.2354 26.4258 24.2354ZM6.42578 32.2354C7.55078 32.2354 8.42578 33.1104 8.42578 34.2354C8.42578 35.3604 7.55078 36.2354 6.42578 36.2354C5.30078 36.2354 4.42578 35.3604 4.42578 34.2354C4.42578 33.1104 5.30078 32.2354 6.42578 32.2354Z" fill="#1975A9"/>
</svg>
