<svg width="42" height="41" viewBox="0 0 42 41" fill="none" xmlns="http://www.w3.org/2000/svg">
<path d="M20.2222 0C13.0822 0 6.80556 3.78067 3.20833 9.46154H3.11111V9.62712C1.15111 12.7849 0 16.5025 0 20.5C0 24.4975 1.15111 28.2151 3.11111 31.3729V31.5385H3.20833C6.80944 37.2193 13.0822 41 20.2222 41H21.7778V22.0769H40.4444V20.5C40.4444 16.5025 39.2933 12.7849 37.3333 9.62712V9.46154H37.2361C33.6389 3.78067 27.3622 0 20.2222 0ZM18.6667 3.5599V9.46154H14.3228C15.4817 6.47327 17.0528 4.39173 18.6667 3.5599ZM21.7778 3.5599C23.3917 4.39173 24.9628 6.47327 26.1217 9.46154H21.7778V3.5599ZM27.2572 4.75048C29.6294 5.8425 31.7022 7.4549 33.3472 9.46154H29.435C28.84 7.68356 28.1089 6.09086 27.2572 4.75048ZM13.1872 4.75442C12.3317 6.09481 11.6006 7.68356 11.0094 9.46154H7.09722C8.74222 7.4549 10.815 5.84644 13.1872 4.75442ZM4.99333 12.6154H10.1422C9.71833 14.5747 9.46167 16.6957 9.37611 18.9231H3.17722C3.37944 16.6681 4.02111 14.5392 4.99333 12.6154ZM13.37 12.6154H18.6667V18.9231H12.5106C12.6078 16.6247 12.9072 14.5037 13.37 12.6154ZM21.7778 12.6154H27.0744C27.5372 14.5037 27.8328 16.6247 27.9339 18.9231H21.7778V12.6154ZM30.3022 12.6154H35.4511C36.4233 14.5392 37.0689 16.6681 37.2672 18.9231H31.0683C30.9828 16.6957 30.7222 14.5747 30.3022 12.6154ZM3.17722 22.0769H9.37611C9.46167 24.3043 9.72222 26.4253 10.1422 28.3846H4.99333C4.02111 26.4608 3.37944 24.3319 3.17722 22.0769ZM12.5106 22.0769H18.6667V28.3846H13.37C12.9072 26.4962 12.6078 24.3753 12.5106 22.0769ZM24.8889 25.2308L31.1111 41L34.0356 36.762L38.8889 41L42 37.4637L36.8783 33.1509L40.4444 29.9615L24.8889 25.2308ZM7.09722 31.5385H11.0094C11.6044 33.3164 12.3356 34.9052 13.1872 36.2456C10.815 35.1536 8.74222 33.5451 7.09722 31.5385ZM14.3228 31.5385H18.6667V37.4401C17.0528 36.6083 15.4817 34.5267 14.3228 31.5385Z" fill="#1975A9"/>
</svg>
