<svg width="60" height="59" viewBox="0 0 60 59" fill="none" xmlns="http://www.w3.org/2000/svg">
<path d="M45.8077 14.4259C44.2693 14.426 42.7473 14.7413 41.3355 15.3522C40.9471 11.6662 39.2002 8.25683 36.4352 5.78853C33.6702 3.32024 30.0853 1.96984 26.379 2.00051C18.119 2.00051 11.3635 8.59081 11.3635 16.6915C11.3634 17.6024 11.4503 18.5112 11.6231 19.4055C10.4501 19.1643 9.23946 19.1737 8.07043 19.4332C6.90141 19.6927 5.80044 20.1964 4.83974 20.9112C3.87904 21.6261 3.08031 22.536 2.49592 23.5812C1.91153 24.6264 1.55469 25.7833 1.44881 26.9761C1.34292 28.1689 1.49038 29.3706 1.88151 30.5024C2.27264 31.6342 2.89861 32.6705 3.71836 33.5434C4.53812 34.4163 5.53314 35.1061 6.63817 35.5674C7.7432 36.0288 8.93328 36.2514 10.1304 36.2205H10.4254C10.6601 36.2205 10.8852 36.1273 11.0512 35.9613C11.2171 35.7953 11.3104 35.5702 11.3104 35.3355C11.3104 35.1008 11.2171 34.8757 11.0512 34.7097C10.8852 34.5438 10.6601 34.4505 10.4254 34.4505H10.1304C9.23229 34.4771 8.338 34.3233 7.50048 33.998C6.66296 33.6727 5.89925 33.1826 5.25459 32.5568C4.60992 31.9309 4.09743 31.1821 3.74745 30.3546C3.39748 29.5271 3.21715 28.6377 3.21715 27.7393C3.21715 26.8408 3.39748 25.9515 3.74745 25.1239C4.09743 24.2964 4.60992 23.5476 5.25459 22.9218C5.89925 22.2959 6.66296 21.8059 7.50048 21.4806C8.338 21.1553 9.23229 21.0014 10.1304 21.028C10.9518 21.0298 11.7665 21.1756 12.5376 21.4587C12.6924 21.5155 12.8599 21.5279 13.0214 21.4945C13.1829 21.4612 13.3318 21.3834 13.4514 21.2699C13.571 21.1564 13.6566 21.0118 13.6984 20.8523C13.7402 20.6928 13.7366 20.5248 13.6881 20.3672C13.3225 19.1741 13.1356 17.9335 13.1335 16.6856C13.1335 9.55841 19.0748 3.76461 26.379 3.76461C33.6832 3.76461 39.6245 9.56431 39.6245 16.662C39.6245 16.662 39.6245 16.7446 39.6245 16.7682C39.6242 16.9249 39.6655 17.0788 39.7441 17.2142C39.8228 17.3497 39.936 17.4619 40.0722 17.5393C40.2084 17.6166 40.3627 17.6565 40.5193 17.6548C40.676 17.653 40.8293 17.6097 40.9638 17.5293C42.4313 16.6574 44.1066 16.1968 45.8136 16.1959C47.0246 16.1523 48.2321 16.3505 49.3657 16.7788C50.4993 17.2072 51.5361 17.8571 52.4157 18.6906C53.2953 19.5241 54 20.5246 54.4886 21.6335C54.9772 22.7424 55.24 23.9375 55.2615 25.1491C55.2831 26.3607 55.063 27.5645 54.6141 28.6901C54.1653 29.8157 53.4966 30.8405 52.6473 31.7048C51.7979 32.5691 50.7848 33.2555 49.6672 33.7239C48.5496 34.1923 47.3499 34.4333 46.1381 34.4328H45.9965H42.5332C42.2984 34.4328 42.0733 34.5261 41.9074 34.692C41.7414 34.858 41.6482 35.0831 41.6482 35.3178C41.6482 35.5525 41.7414 35.7776 41.9074 35.9436C42.0733 36.1096 42.2984 36.2028 42.5332 36.2028H46.1617C46.2303 36.211 46.2996 36.211 46.3682 36.2028C49.2544 36.1285 51.9929 34.9107 53.9812 32.8172C55.9695 30.7238 57.0448 27.9262 56.9705 25.04C56.8961 22.1538 55.6783 19.4153 53.5849 17.427C51.4914 15.4387 48.6939 14.3634 45.8077 14.4377V14.4259Z" fill="#1975A9"/>
<path d="M43.6248 45.9846L38.0552 51.5542V25.37C38.0552 25.1353 37.9619 24.9102 37.796 24.7442C37.63 24.5782 37.4049 24.485 37.1702 24.485C36.9355 24.485 36.7104 24.5782 36.5444 24.7442C36.3784 24.9102 36.2852 25.1353 36.2852 25.37V51.5542L30.7156 45.9846C30.6346 45.8976 30.5369 45.8279 30.4283 45.7795C30.3197 45.7312 30.2025 45.7051 30.0837 45.703C29.9649 45.7009 29.8469 45.7228 29.7367 45.7673C29.6265 45.8118 29.5264 45.8781 29.4423 45.9621C29.3583 46.0462 29.292 46.1463 29.2475 46.2565C29.203 46.3667 29.1811 46.4847 29.1832 46.6035C29.1853 46.7223 29.2113 46.8395 29.2597 46.9481C29.3081 47.0567 29.3778 47.1544 29.4648 47.2354L36.5448 54.3154C36.7107 54.4811 36.9357 54.5742 37.1702 54.5742C37.4047 54.5742 37.6296 54.4811 37.7956 54.3154L44.8756 47.2354C45.0319 47.0676 45.117 46.8457 45.113 46.6164C45.1089 46.3872 45.016 46.1684 44.8539 46.0063C44.6918 45.8441 44.473 45.7512 44.2437 45.7472C44.0144 45.7432 43.7926 45.8283 43.6248 45.9846Z" fill="#DDE8F2"/>
<path d="M29.5355 31.8247L22.4555 24.7447C22.2896 24.5789 22.0647 24.4858 21.8301 24.4858C21.5956 24.4858 21.3707 24.5789 21.2047 24.7447L14.1247 31.8247C13.9684 31.9924 13.8833 32.2143 13.8873 32.4436C13.8914 32.6729 13.9843 32.8916 14.1464 33.0538C14.3086 33.2159 14.5273 33.3088 14.7566 33.3128C14.9859 33.3169 15.2078 33.2318 15.3755 33.0755L20.9451 27.5059V53.6901C20.9451 53.9248 21.0384 54.1499 21.2043 54.3159C21.3703 54.4818 21.5954 54.5751 21.8301 54.5751C22.0648 54.5751 22.29 54.4818 22.4559 54.3159C22.6219 54.1499 22.7151 53.9248 22.7151 53.6901V27.5059L28.2847 33.0755C28.4525 33.2318 28.6744 33.3169 28.9037 33.3128C29.1329 33.3088 29.3517 33.2159 29.5138 33.0538C29.676 32.8916 29.7689 32.6729 29.7729 32.4436C29.777 32.2143 29.6919 31.9924 29.5355 31.8247V31.8247Z" fill="#ACCADF"/>
<path d="M33.9781 14.4668C34.073 14.6634 34.2371 14.818 34.439 14.9009C34.6409 14.9838 34.8663 14.9892 35.0719 14.916C35.2775 14.8428 35.4489 14.6962 35.553 14.5044C35.6571 14.3126 35.6867 14.0891 35.636 13.8768C34.9643 11.9965 33.7341 10.3662 32.1103 9.20425C30.4865 8.04229 28.5465 7.40406 26.55 7.375C26.3153 7.375 26.0902 7.46824 25.9242 7.63421C25.7583 7.80018 25.665 8.02528 25.665 8.26C25.665 8.49472 25.7583 8.71982 25.9242 8.88579C26.0902 9.05176 26.3153 9.145 26.55 9.145C28.1826 9.17096 29.7684 9.69433 31.0956 10.6452C32.4229 11.5962 33.4285 12.9293 33.9781 14.4668V14.4668Z" fill="#ACCADF"/>
</svg>
