<svg width="809" height="405" viewBox="0 0 809 405" fill="none" xmlns="http://www.w3.org/2000/svg">
<path opacity="0.5653" d="M428.886 271.174L421.716 267V258.645L421.794 258.605L428.883 254.471L436.054 258.645V267L435.981 267.04L428.886 271.174ZM422.018 266.822L428.883 270.824L435.757 266.822V258.823L428.883 254.822L422.018 258.823V266.822Z" fill="#BEC2C9"/>
<path opacity="0.7657" d="M316.575 295.711L316.5 295.665L288.349 279.264V246.381L288.425 246.335L316.578 229.934L316.653 229.98L344.807 246.381V279.267L344.731 279.313L316.575 295.711ZM288.646 279.094L316.575 295.363L344.502 279.094V246.551L316.575 230.282L288.646 246.551V279.094Z" fill="#BEC2C9"/>
<path opacity="0.5793" d="M316.575 271.174L309.405 267V258.645L309.48 258.605L316.575 254.471L323.746 258.645V267L323.67 267.04L316.575 271.174ZM309.704 266.822L316.572 270.824L323.444 266.822V258.823L316.572 254.822L309.704 258.823V266.822Z" fill="#BEC2C9"/>
<path opacity="0.901" d="M372.73 377.493L358.543 369.225V352.7L358.619 352.654L372.73 344.432L386.918 352.702V369.228L386.845 369.273L372.73 377.493ZM358.843 369.055L372.73 377.148L386.621 369.055V352.872L372.73 344.78L358.843 352.872V369.055Z" fill="#BEC2C9"/>
<path opacity="0.8562" d="M372.73 393.848L344.505 377.409V344.518L344.58 344.478L372.733 328.079L400.962 344.518V377.409L400.889 377.45L372.73 393.848ZM344.801 377.231L372.728 393.5L400.66 377.231V344.696L372.728 328.427L344.801 344.696V377.231Z" fill="#BEC2C9"/>
<path opacity="0.9361" d="M428.886 295.711L428.813 295.665L372.582 262.911V197.31L372.658 197.267L428.886 164.51L428.964 164.553L485.195 197.31V262.911L485.117 262.952L428.886 295.711ZM372.882 262.734L428.886 295.36L484.893 262.734V197.485L428.886 164.861L372.882 197.485V262.734Z" fill="#BEC2C9"/>
<path opacity="0.6204" d="M372.731 230.285L372.658 230.239L344.502 213.838V180.952L344.577 180.909L372.731 164.507L372.806 164.551L400.959 180.952V213.838L400.886 213.883L372.731 230.285ZM344.801 213.668L372.728 229.934L400.66 213.668V181.127L372.728 164.858L344.801 181.127V213.668Z" fill="#BEC2C9"/>
<path opacity="0.9207" d="M485.044 295.711L484.971 295.665L456.818 279.264V246.381L456.891 246.335L485.044 229.934L485.117 229.98L513.267 246.381V279.267L513.194 279.313L485.044 295.711ZM457.117 279.094L485.047 295.363L512.973 279.094V246.551L485.047 230.282L457.117 246.551V279.094Z" fill="#BEC2C9"/>
<path opacity="0.7779" d="M428.886 312.066L414.699 303.804V287.271L414.777 287.225L428.886 279.003L443.073 287.271V303.804L443 303.844L428.886 312.066ZM415.001 303.626L428.886 311.719L442.776 303.626V287.443L428.886 279.35L415.001 287.443V303.626Z" fill="#BEC2C9"/>
<path opacity="0.6118" d="M372.731 271.174L365.566 267V258.645L365.638 258.605L372.731 254.471L379.901 258.645V267L379.825 267.04L372.731 271.174ZM365.859 266.822L372.728 270.824L379.596 266.822V258.823L372.728 254.822L365.859 258.823V266.822Z" fill="#BEC2C9"/>
<path opacity="0.6984" d="M485.044 279.35L470.857 271.088V254.557L470.93 254.517L485.047 246.295L499.234 254.557V271.088L499.161 271.134L485.044 279.35ZM471.154 270.91L485.047 279.003L498.937 270.91V254.727L485.047 246.643L471.154 254.727V270.91Z" fill="#BEC2C9"/>
<path opacity="0.8157" d="M485.044 361.14L484.971 361.095L456.818 344.696V311.81L456.891 311.764L485.044 295.363L485.117 295.409L513.267 311.81V344.696L513.194 344.737L485.044 361.14ZM457.117 344.515L485.047 360.79L512.973 344.515V311.98L485.047 295.711L457.117 311.98V344.515Z" fill="#BEC2C9"/>
<path opacity="0.5715" d="M391.613 404.5L372.882 393.592V328.333L428.886 295.711L484.893 328.333V393.592L466.162 404.5H466.761L485.117 393.808L485.195 393.762V328.163L428.964 295.409L428.886 295.363L372.658 328.117L372.582 328.163V393.762L391.014 404.5H391.613Z" fill="#BEC2C9"/>
<path opacity="0.8677" d="M410.605 404.5L428.886 393.848L447.169 404.5H447.768L428.886 393.498L410.007 404.5H410.605Z" fill="#BEC2C9"/>
<path opacity="0.5475" d="M372.882 404.5V393.762L428.886 361.14L484.893 393.762V404.5H485.195V393.592L428.964 360.83L428.886 360.792L372.658 393.546L372.582 393.592V404.5H372.882Z" fill="#BEC2C9"/>
<path opacity="0.8834" d="M428.886 393.848L400.663 377.409V344.518L400.736 344.478L428.889 328.079L457.12 344.518V377.409L457.042 377.45L428.886 393.848ZM400.957 377.231L428.883 393.5L456.813 377.231V344.696L428.883 328.427L400.957 344.696V377.231Z" fill="#BEC2C9"/>
<path opacity="0.5245" d="M475.846 404.5L471.154 401.768V385.586L485.044 377.493L498.935 385.586V401.768L494.242 404.5H494.841L499.231 401.938V385.408L485.044 377.145L470.857 385.408V401.938L475.247 404.5H475.846Z" fill="#BEC2C9"/>
<path opacity="0.7529" d="M410.605 404.5L428.886 393.848L447.169 404.5H447.768L428.886 393.498L410.007 404.5H410.605Z" fill="#BEC2C9"/>
<path opacity="0.8927" d="M428.886 205.748L421.716 201.57V193.219L421.794 193.176L428.883 189.042L436.054 193.219V201.57L435.981 201.616L428.886 205.748ZM422.018 201.398L428.883 205.4L435.757 201.398V193.394L428.883 189.392L422.018 193.394V201.398Z" fill="#BEC2C9"/>
<path opacity="0.8384" d="M541.202 213.929L527.015 205.661V189.133L527.088 189.09L541.202 180.868L555.389 189.133V205.661L555.311 205.707L541.202 213.929ZM527.312 205.486L541.202 213.581L555.087 205.486V189.306L541.202 181.216L527.312 189.306V205.486Z" fill="#BEC2C9"/>
<path opacity="0.6654" d="M485.044 312.066L470.857 303.804V287.271L470.93 287.225L485.047 279.003L499.234 287.271V303.804L499.161 303.844L485.044 312.066ZM471.154 303.626L485.047 311.719L498.937 303.626V287.443L485.047 279.35L471.154 287.443V303.626Z" fill="#BEC2C9"/>
<path opacity="0.6262" d="M428.886 271.174L421.716 267V258.645L421.794 258.605L428.883 254.471L436.054 258.645V267L435.981 267.04L428.886 271.174ZM422.018 266.822L428.883 270.824L435.757 266.822V258.823L428.883 254.822L422.018 258.823V266.822Z" fill="#BEC2C9"/>
<path opacity="0.5193" d="M428.886 336.603L421.716 332.424V324.075L421.794 324.029L428.883 319.9L436.054 324.075V332.424L435.981 332.469L428.886 336.603ZM422.018 332.251L428.883 336.255L435.757 332.251V324.245L428.883 320.243L422.018 324.245V332.251Z" fill="#BEC2C9"/>
<path opacity="0.9905" d="M541.202 361.14L541.124 361.095L512.971 344.696V311.81L513.044 311.764L541.202 295.363L541.275 295.409L569.428 311.81V344.696L569.355 344.737L541.202 361.14ZM513.267 344.515L541.202 360.79L569.129 344.515V311.98L541.202 295.711L513.267 311.98V344.515Z" fill="#BEC2C9"/>
<path opacity="0.517" d="M541.202 402.03L534.032 397.85V389.501L541.202 385.321L548.364 389.501V397.85L541.202 402.03ZM534.328 397.68L541.202 401.682L548.068 397.68V389.674L541.202 385.672L534.328 389.674V397.68Z" fill="#BEC2C9"/>
<path opacity="0.6479" d="M513.267 404.5V377.409L541.202 361.14L569.132 377.409V404.5H569.428V377.231L541.275 360.83L541.202 360.792L513.044 377.191L512.971 377.231V404.5H513.267Z" fill="#BEC2C9"/>
<path opacity="0.9857" d="M597.355 213.929L583.168 205.661V189.133L583.246 189.09L597.355 180.868L611.542 189.133V205.661L611.469 205.707L597.355 213.929ZM583.464 205.486L597.355 213.581L611.248 205.486V189.306L597.355 181.216L583.464 189.306V205.486Z" fill="#BEC2C9"/>
<path opacity="0.7696" d="M597.355 361.14L597.282 361.095L569.129 344.696V311.81L569.202 311.764L597.352 295.363L597.43 295.409L625.581 311.81V344.696L625.503 344.737L597.355 361.14ZM569.428 344.515L597.355 360.79L625.284 344.515V311.98L597.355 295.711L569.428 311.98V344.515Z" fill="#BEC2C9"/>
<path opacity="0.8062" d="M503.926 404.5L485.195 393.592V328.333L541.202 295.711L597.209 328.333V393.592L578.478 404.5H579.071L597.433 393.808L597.506 393.762V328.163L541.275 295.409L541.202 295.363L484.971 328.117L484.893 328.163V393.762L503.327 404.5H503.926Z" fill="#BEC2C9"/>
<path opacity="0.9977" d="M597.355 402.03L590.187 397.85V389.501L597.355 385.321L604.525 389.501V397.85L597.355 402.03ZM590.489 397.68L597.355 401.682L604.229 397.68V389.674L597.355 385.672L590.489 389.674V397.68Z" fill="#BEC2C9"/>
<path opacity="0.6323" d="M457.117 404.5V377.409L485.044 361.14L512.971 377.409V404.5H513.267V377.231L485.117 360.83L485.044 360.792L456.893 377.191L456.821 377.231V404.5H457.117Z" fill="#BEC2C9"/>
<path opacity="0.5774" d="M485.044 402.03L477.874 397.85V389.501L485.044 385.321L492.212 389.501V397.85L485.044 402.03ZM478.17 397.68L485.044 401.682L491.918 397.68V389.674L485.044 385.672L478.17 389.674V397.68Z" fill="#BEC2C9"/>
<path opacity="0.6004" d="M457.117 404.5V377.409L485.044 361.14L512.971 377.409V404.5H513.267V377.231L485.117 360.83L485.044 360.792L456.893 377.191L456.821 377.231V404.5H457.117Z" fill="#BEC2C9"/>
<path opacity="0.6006" d="M522.919 404.5L541.202 393.848L559.48 404.5H560.079L541.202 393.498L522.32 404.5H522.919Z" fill="#BEC2C9"/>
<path opacity="0.6198" d="M541.202 205.748L534.032 201.57V193.219L534.104 193.176L541.202 189.042L548.364 193.219V201.57L548.292 201.616L541.202 205.748ZM534.328 201.398L541.202 205.4L548.068 201.398V193.394L541.202 189.392L534.328 193.394V201.398Z" fill="#BEC2C9"/>
<path opacity="0.9164" d="M541.202 271.174L534.032 267V258.645L534.104 258.605L541.202 254.471L548.364 258.645V267L548.292 267.04L541.202 271.174ZM534.328 266.822L541.202 270.824L548.068 266.822V258.823L541.202 254.822L534.328 258.823V266.822Z" fill="#BEC2C9"/>
<path opacity="0.5577" d="M541.202 361.14L541.124 361.095L512.971 344.696V311.81L513.044 311.764L541.202 295.363L541.275 295.409L569.428 311.81V344.696L569.355 344.737L541.202 361.14ZM513.267 344.515L541.202 360.79L569.129 344.515V311.98L541.202 295.711L513.267 311.98V344.515Z" fill="#BEC2C9"/>
<path opacity="0.6643" d="M653.513 344.78L639.326 336.517V319.986L639.398 319.941L653.513 311.718L667.7 319.989V336.52L667.627 336.56L653.513 344.78ZM639.622 336.339L653.513 344.432L667.403 336.339V320.156L653.513 312.064L639.622 320.156V336.339Z" fill="#BEC2C9"/>
<path opacity="0.9482" d="M597.355 393.848L569.131 377.409V344.518L569.204 344.478L597.355 328.079L625.586 344.518V377.409L625.508 377.45L597.355 393.848ZM569.428 377.231L597.355 393.5L625.284 377.231V344.696L597.355 328.427L569.428 344.696V377.231Z" fill="#BEC2C9"/>
<path opacity="0.8287" d="M653.513 361.14L653.44 361.094L597.209 328.335V262.734L597.282 262.693L653.513 229.931L653.586 229.977L709.817 262.731V328.33L709.744 328.376L653.513 361.14ZM597.506 328.163L653.513 360.79L709.52 328.163V262.912L653.513 230.285L597.506 262.912V328.163Z" fill="#BEC2C9"/>
<path opacity="0.9627" d="M597.355 271.174L590.187 267V258.645L590.265 258.605L597.355 254.471L604.525 258.645V267L604.452 267.04L597.355 271.174ZM590.489 266.822L597.355 270.824L604.229 266.822V258.823L597.355 254.822L590.489 258.823V266.822Z" fill="#BEC2C9"/>
<path opacity="0.6877" d="M709.671 295.711L709.593 295.665L681.44 279.264V246.381L681.512 246.335L709.671 229.934L709.744 229.98L737.897 246.381V279.267L737.824 279.313L709.671 295.711ZM681.736 279.094L709.671 295.363L737.598 279.094V246.551L709.671 230.282L681.736 246.551V279.094Z" fill="#BEC2C9"/>
<path opacity="0.5544" d="M653.513 377.493L639.326 369.225V352.7L639.398 352.654L653.513 344.432L667.7 352.702V369.228L667.627 369.273L653.513 377.493ZM639.622 369.055L653.513 377.148L667.403 369.055V352.872L653.513 344.78L639.622 352.872V369.055Z" fill="#BEC2C9"/>
<path opacity="0.8016" d="M653.513 328.427L653.44 328.381L625.281 311.983V279.097L625.36 279.051L653.513 262.65L653.586 262.696L681.736 279.094V311.98L681.663 312.026L653.513 328.427ZM625.586 311.81L653.513 328.079L681.44 311.81V279.267L653.513 262.998L625.586 279.267V311.81Z" fill="#BEC2C9"/>
<path opacity="0.5003" d="M635.23 404.5L653.513 393.848L671.796 404.5H672.395L653.513 393.498L634.631 404.5H635.23Z" fill="#BEC2C9"/>
<path opacity="0.7569" d="M569.428 404.5V377.409L597.355 361.14L625.284 377.409V404.5H625.586V377.231L597.433 360.83L597.355 360.792L569.204 377.191L569.131 377.231V404.5H569.428Z" fill="#BEC2C9"/>
<path opacity="0.9339" d="M653.513 393.848L625.281 377.409V344.518L625.36 344.478L653.513 328.079L681.736 344.518V377.409L681.663 377.45L653.513 393.848ZM625.586 377.231L653.513 393.5L681.44 377.231V344.696L653.513 328.427L625.586 344.696V377.231Z" fill="#BEC2C9"/>
<path opacity="0.6722" d="M700.467 404.5L695.781 401.768V385.586L709.671 377.493L723.556 385.586V401.768L718.869 404.5H719.463L723.861 401.938V385.408L709.671 377.145L695.479 385.408V401.938L699.877 404.5H700.467Z" fill="#BEC2C9"/>
<path opacity="0.5645" d="M635.23 404.5L653.513 393.848L671.796 404.5H672.395L653.513 393.498L634.631 404.5H635.23Z" fill="#BEC2C9"/>
<path opacity="0.7115" d="M653.513 205.748L646.342 201.57V193.219L646.415 193.176L653.513 189.042L660.683 193.219V201.57L660.605 201.616L653.513 205.748ZM646.642 201.398L653.516 205.4L660.384 201.398V193.394L653.516 189.392L646.642 193.394V201.398Z" fill="#BEC2C9"/>
<path opacity="0.6307" d="M653.513 230.285L653.44 230.239L625.281 213.838V180.952L625.36 180.909L653.513 164.507L653.586 164.551L681.736 180.952V213.838L681.663 213.883L653.513 230.285ZM625.586 213.668L653.513 229.934L681.44 213.668V181.127L653.513 164.858L625.586 181.127V213.668Z" fill="#BEC2C9"/>
<path opacity="0.9278" d="M765.824 230.285L765.751 230.239L737.598 213.838V180.952L737.67 180.909L765.824 164.507L794.055 180.949V213.835L793.977 213.881L765.824 230.285ZM737.897 213.668L765.824 229.934L793.75 213.668V181.127L765.824 164.858L737.897 181.127V213.668Z" fill="#BEC2C9"/>
<path opacity="0.6392" d="M765.824 295.711L737.6 279.264V246.381L737.673 246.335L765.826 229.934L794.058 246.381V279.267L793.98 279.313L765.824 295.711ZM737.897 279.094L765.824 295.363L793.75 279.094V246.551L765.824 230.282L737.897 246.551V279.094Z" fill="#BEC2C9"/>
<path opacity="0.8937" d="M709.671 361.14L709.593 361.094L653.362 328.335V262.734L653.44 262.693L709.671 229.931L709.744 229.977L765.975 262.731V328.33L765.902 328.376L709.671 361.14ZM653.667 328.163L709.674 360.79L765.681 328.163V262.912L709.674 230.285L653.667 262.912V328.163Z" fill="#BEC2C9"/>
<path opacity="0.6526" d="M653.513 271.174L646.342 267V258.645L646.415 258.605L653.513 254.471L660.683 258.645V267L660.605 267.04L653.513 271.174ZM646.642 266.822L653.516 270.824L660.384 266.822V258.823L653.516 254.822L646.642 258.823V266.822Z" fill="#BEC2C9"/>
<path opacity="0.6213" d="M653.513 336.603L646.342 332.424V324.075L646.415 324.029L653.513 319.9L660.683 324.075V332.424L660.605 332.469L653.513 336.603ZM646.642 332.251L653.516 336.255L660.384 332.251V324.245L653.516 320.243L646.642 324.245V332.251Z" fill="#BEC2C9"/>
<path opacity="0.9916" d="M765.824 402.03L758.653 397.85V389.501L765.824 385.321L772.994 389.501V397.85L765.824 402.03ZM758.958 397.68L765.826 401.682L772.7 397.68V389.674L765.826 385.672L758.958 389.674V397.68Z" fill="#BEC2C9"/>
<path opacity="0.5206" d="M709.671 271.174L702.501 267V258.645L702.573 258.605L709.671 254.471L716.833 258.645V267L716.761 267.04L709.671 271.174ZM702.8 266.822L709.674 270.824L716.542 266.822V258.823L709.674 254.822L702.8 258.823V266.822Z" fill="#BEC2C9"/>
<path opacity="0.5092" d="M709.671 295.711L709.593 295.665L681.44 279.264V246.381L681.512 246.335L709.671 229.934L709.744 229.98L737.897 246.381V279.267L737.824 279.313L709.671 295.711ZM681.736 279.094L709.671 295.363L737.598 279.094V246.551L709.671 230.282L681.736 246.551V279.094Z" fill="#BEC2C9"/>
<path opacity="0.6455" d="M809 353.226L794.055 344.515V311.98L809 303.27V302.927L793.831 311.762L793.753 311.81V344.693L809 353.576V353.226Z" fill="#BEC2C9"/>
<path opacity="0.5075" d="M765.824 393.848L737.6 377.409V344.518L737.673 344.478L765.826 328.079L794.058 344.518V377.409L793.98 377.45L765.824 393.848ZM737.897 377.231L765.824 393.5L793.75 377.231V344.696L765.824 328.427L737.897 344.696V377.231Z" fill="#BEC2C9"/>
<path opacity="0.6536" d="M809 336.865L808.091 336.339V320.156L809 319.631V319.28L807.867 319.941L807.794 319.986V336.517L809 337.216V336.865Z" fill="#BEC2C9"/>
<path opacity="0.716" d="M747.54 404.5L765.824 393.848L784.107 404.5H784.706L765.824 393.498L746.942 404.5H747.54Z" fill="#BEC2C9"/>
<path opacity="0.6878" d="M681.736 404.5V377.409L709.671 361.14L737.6 377.409V404.5H737.897V377.231L709.744 360.83L709.671 360.792L681.52 377.191L681.442 377.231V404.5H681.736Z" fill="#BEC2C9"/>
<path opacity="0.8538" d="M765.824 393.848L737.6 377.409V344.518L737.673 344.478L765.826 328.079L794.058 344.518V377.409L793.98 377.45L765.824 393.848ZM737.897 377.231L765.824 393.5L793.75 377.231V344.696L765.824 328.427L737.897 344.696V377.231Z" fill="#BEC2C9"/>
<path opacity="0.811" d="M809 353.226L765.975 328.163V262.912L809 237.849V237.498L765.751 262.696L765.678 262.734V328.333L809 353.576V353.226Z" fill="#BEC2C9"/>
<path opacity="0.6353" d="M784.706 404.5L765.975 393.592V328.333L809 303.27V302.927L765.751 328.117L765.678 328.163V393.762L784.107 404.5H784.706Z" fill="#BEC2C9"/>
<path opacity="0.9972" d="M809 320.512L794.055 311.81V279.264L809 270.562V270.214L793.831 279.048L793.753 279.094V311.98L809 320.86V320.512Z" fill="#BEC2C9"/>
<path opacity="0.9775" d="M803.701 404.5L809 401.412V401.064L803.1 404.5H803.701Z" fill="#BEC2C9"/>
<path opacity="0.6343" d="M803.701 404.5L809 401.412V401.064L803.1 404.5H803.701Z" fill="#BEC2C9"/>
<path opacity="0.8543" d="M809 222.378L794.055 213.668V181.127L809 172.419V172.074L793.831 180.909L793.753 180.952V213.838L809 222.718V222.378Z" fill="#BEC2C9"/>
<path opacity="0.6795" d="M794.055 404.5V377.409L809 368.699V368.349L793.831 377.191L793.753 377.231V404.5H794.055Z" fill="#BEC2C9"/>
<path opacity="0.8144" d="M423.657 266.913C423.657 267.908 422.854 268.717 421.867 268.717C420.88 268.717 420.076 267.908 420.076 266.913C420.076 265.913 420.88 265.104 421.867 265.104C422.856 265.104 423.657 265.916 423.657 266.913Z" fill="#BEC2C9"/>
<path opacity="0.728" d="M430.677 271.004C430.677 271.999 429.881 272.808 428.886 272.808C427.899 272.808 427.095 271.999 427.095 271.004C427.095 270.004 427.899 269.195 428.886 269.195C429.878 269.192 430.677 270.001 430.677 271.004Z" fill="#BEC2C9"/>
<path opacity="0.7587" d="M437.701 266.913C437.701 267.908 436.898 268.717 435.903 268.717C434.916 268.717 434.112 267.908 434.112 266.913C434.112 265.913 434.916 265.104 435.903 265.104C436.898 265.104 437.701 265.916 437.701 266.913Z" fill="#BEC2C9"/>
<path opacity="0.7652" d="M318.366 295.533C318.366 296.534 317.568 297.343 316.575 297.343C315.586 297.343 314.785 296.534 314.785 295.533C314.785 294.541 315.586 293.729 316.575 293.729C317.565 293.729 318.366 294.541 318.366 295.533Z" fill="#BEC2C9"/>
<path opacity="0.9334" d="M311.346 258.732C311.346 259.732 310.543 260.541 309.556 260.541C308.563 260.541 307.762 259.732 307.762 258.732C307.762 257.739 308.566 256.928 309.556 256.928C310.545 256.928 311.346 257.737 311.346 258.732Z" fill="#BEC2C9"/>
<path opacity="0.6915" d="M388.56 369.139C388.56 370.139 387.762 370.948 386.769 370.948C385.782 370.948 384.979 370.139 384.979 369.139C384.979 368.144 385.782 367.335 386.769 367.335C387.762 367.335 388.56 368.146 388.56 369.139Z" fill="#BEC2C9"/>
<path opacity="0.5175" d="M346.446 377.315C346.446 378.315 345.643 379.124 344.656 379.124C343.666 379.124 342.862 378.315 342.862 377.315C342.862 376.32 343.666 375.511 344.656 375.511C345.643 375.514 346.446 376.323 346.446 377.315Z" fill="#BEC2C9"/>
<path opacity="0.7801" d="M402.602 344.61C402.602 345.605 401.798 346.414 400.811 346.414C399.821 346.414 399.02 345.605 399.02 344.61C399.02 343.609 399.821 342.8 400.811 342.8C401.798 342.798 402.602 343.607 402.602 344.61Z" fill="#BEC2C9"/>
<path opacity="0.8122" d="M346.446 344.61C346.446 345.605 345.643 346.414 344.656 346.414C343.666 346.414 342.862 345.605 342.862 344.61C342.862 343.609 343.666 342.8 344.656 342.8C345.643 342.798 346.446 343.607 346.446 344.61Z" fill="#BEC2C9"/>
<path opacity="0.7332" d="M374.524 262.82C374.524 263.82 373.72 264.629 372.73 264.629C371.744 264.629 370.94 263.82 370.94 262.82C370.94 261.825 371.744 261.016 372.73 261.016C373.72 261.016 374.524 261.825 374.524 262.82Z" fill="#BEC2C9"/>
<path opacity="0.6303" d="M374.524 197.399C374.524 198.396 373.72 199.205 372.73 199.205C371.744 199.205 370.94 198.396 370.94 197.399C370.94 196.398 371.744 195.587 372.73 195.587C373.72 195.587 374.524 196.396 374.524 197.399Z" fill="#BEC2C9"/>
<path opacity="0.5225" d="M402.602 213.751C402.602 214.752 401.801 215.561 400.811 215.561C399.821 215.561 399.02 214.752 399.02 213.751C399.02 212.756 399.821 211.947 400.811 211.947C401.801 211.947 402.602 212.759 402.602 213.751Z" fill="#BEC2C9"/>
<path opacity="0.7847" d="M346.446 181.041C346.446 182.039 345.643 182.848 344.656 182.848C343.666 182.848 342.862 182.039 342.862 181.041C342.862 180.043 343.666 179.234 344.656 179.234C345.643 179.234 346.446 180.043 346.446 181.041Z" fill="#BEC2C9"/>
<path opacity="0.9423" d="M430.677 311.894C430.677 312.886 429.881 313.698 428.886 313.698C427.899 313.698 427.095 312.886 427.095 311.894C427.095 310.893 427.899 310.082 428.886 310.082C429.878 310.084 430.677 310.893 430.677 311.894Z" fill="#BEC2C9"/>
<path opacity="0.8348" d="M444.718 287.357C444.718 288.357 443.915 289.166 442.928 289.166C441.932 289.166 441.129 288.357 441.129 287.357C441.129 286.364 441.932 285.547 442.928 285.547C443.917 285.547 444.718 286.364 444.718 287.357Z" fill="#BEC2C9"/>
<path opacity="0.6404" d="M416.64 287.357C416.64 288.357 415.837 289.166 414.85 289.166C413.863 289.166 413.059 288.357 413.059 287.357C413.059 286.364 413.863 285.547 414.85 285.547C415.837 285.547 416.64 286.364 416.64 287.357Z" fill="#BEC2C9"/>
<path opacity="0.8945" d="M472.798 271.004C472.798 271.999 471.995 272.808 471.008 272.808C470.013 272.808 469.209 271.999 469.209 271.004C469.209 270.004 470.013 269.195 471.008 269.195C471.995 269.192 472.798 270.001 472.798 271.004Z" fill="#BEC2C9"/>
<path opacity="0.8456" d="M486.835 279.181C486.835 280.181 486.031 280.985 485.044 280.985C484.057 280.985 483.254 280.181 483.254 279.181C483.254 278.18 484.057 277.371 485.044 277.371C486.031 277.368 486.835 278.18 486.835 279.181Z" fill="#BEC2C9"/>
<path opacity="0.9902" d="M458.757 344.61C458.757 345.605 457.953 346.414 456.966 346.414C455.979 346.414 455.176 345.605 455.176 344.61C455.176 343.609 455.979 342.8 456.966 342.8C457.953 342.8 458.757 343.607 458.757 344.61Z" fill="#BEC2C9"/>
<path opacity="0.7274" d="M486.835 393.676C486.835 394.671 486.031 395.48 485.044 395.48C484.057 395.48 483.254 394.671 483.254 393.676C483.254 392.675 484.057 391.866 485.044 391.866C486.031 391.866 486.835 392.675 486.835 393.676Z" fill="#BEC2C9"/>
<path opacity="0.9855" d="M430.677 360.962C430.677 361.963 429.881 362.772 428.886 362.772C427.899 362.772 427.095 361.963 427.095 360.962C427.095 359.962 427.899 359.15 428.886 359.15C429.878 359.15 430.677 359.962 430.677 360.962Z" fill="#BEC2C9"/>
<path opacity="0.5371" d="M472.798 401.855C472.798 402.855 471.995 403.664 471.008 403.664C470.013 403.664 469.209 402.855 469.209 401.855C469.209 400.854 470.013 400.045 471.008 400.045C471.995 400.042 472.798 400.851 472.798 401.855Z" fill="#BEC2C9"/>
<path opacity="0.7825" d="M428.886 191.024C429.875 191.024 430.677 190.215 430.677 189.217C430.677 188.219 429.875 187.41 428.886 187.41C427.897 187.41 427.095 188.219 427.095 189.217C427.095 190.215 427.897 191.024 428.886 191.024Z" fill="#BEC2C9"/>
<path opacity="0.5344" d="M500.879 303.709C500.879 304.71 500.075 305.519 499.08 305.519C498.093 305.519 497.29 304.707 497.29 303.709C497.29 302.714 498.093 301.905 499.08 301.905C500.075 301.908 500.879 302.717 500.879 303.709Z" fill="#BEC2C9"/>
<path opacity="0.9922" d="M472.798 287.357C472.798 288.357 471.995 289.166 471.008 289.166C470.013 289.166 469.209 288.357 469.209 287.357C469.209 286.364 470.013 285.547 471.008 285.547C471.995 285.547 472.798 286.364 472.798 287.357Z" fill="#BEC2C9"/>
<path opacity="0.6301" d="M423.657 266.913C423.657 267.908 422.854 268.717 421.867 268.717C420.88 268.717 420.076 267.908 420.076 266.913C420.076 265.913 420.88 265.104 421.867 265.104C422.856 265.104 423.657 265.916 423.657 266.913Z" fill="#BEC2C9"/>
<path opacity="0.8077" d="M437.701 324.158C437.701 325.159 436.898 325.97 435.903 325.97C434.916 325.97 434.112 325.159 434.112 324.158C434.112 323.158 434.916 322.349 435.903 322.349C436.898 322.349 437.701 323.158 437.701 324.158Z" fill="#BEC2C9"/>
<path opacity="0.7663" d="M514.915 344.61C514.915 345.605 514.111 346.414 513.124 346.414C512.129 346.414 511.334 345.605 511.334 344.61C511.334 343.609 512.129 342.8 513.124 342.8C514.111 342.798 514.915 343.607 514.915 344.61Z" fill="#BEC2C9"/>
<path opacity="0.5432" d="M542.993 360.962C542.993 361.963 542.189 362.772 541.202 362.772C540.207 362.772 539.403 361.963 539.403 360.962C539.403 359.962 540.207 359.15 541.202 359.15C542.189 359.15 542.993 359.962 542.993 360.962Z" fill="#BEC2C9"/>
<path opacity="0.8535" d="M571.073 344.61C571.073 345.605 570.27 346.414 569.275 346.414C568.288 346.414 567.484 345.605 567.484 344.61C567.484 343.609 568.288 342.8 569.275 342.8C570.27 342.798 571.073 343.607 571.073 344.61Z" fill="#BEC2C9"/>
<path opacity="0.5589" d="M571.073 311.894C571.073 312.886 570.27 313.698 569.275 313.698C568.288 313.698 567.484 312.886 567.484 311.894C567.484 310.893 568.288 310.082 569.275 310.082C570.27 310.084 571.073 310.893 571.073 311.894Z" fill="#BEC2C9"/>
<path opacity="0.8499" d="M542.993 295.533C542.993 296.534 542.189 297.343 541.202 297.343C540.207 297.343 539.403 296.534 539.403 295.533C539.403 294.541 540.207 293.729 541.202 293.729C542.189 293.729 542.993 294.541 542.993 295.533Z" fill="#BEC2C9"/>
<path opacity="0.6091" d="M535.976 389.587C535.976 390.58 535.172 391.392 534.177 391.392C533.19 391.392 532.387 390.58 532.387 389.587C532.387 388.587 533.19 387.778 534.177 387.778C535.172 387.778 535.976 388.587 535.976 389.587Z" fill="#BEC2C9"/>
<path opacity="0.5784" d="M599.145 181.041C599.145 182.039 598.35 182.848 597.355 182.848C596.368 182.848 595.564 182.039 595.564 181.041C595.564 180.043 596.368 179.234 597.355 179.234C598.35 179.234 599.145 180.043 599.145 181.041Z" fill="#BEC2C9"/>
<path opacity="0.7656" d="M599.145 360.962C599.145 361.963 598.35 362.772 597.355 362.772C596.368 362.772 595.564 361.963 595.564 360.962C595.564 359.962 596.368 359.15 597.355 359.15C598.35 359.15 599.145 359.962 599.145 360.962Z" fill="#BEC2C9"/>
<path opacity="0.5656" d="M486.835 393.676C486.835 394.671 486.031 395.48 485.044 395.48C484.057 395.48 483.254 394.671 483.254 393.676C483.254 392.675 484.057 391.866 485.044 391.866C486.031 391.866 486.835 392.675 486.835 393.676Z" fill="#BEC2C9"/>
<path opacity="0.9124" d="M592.129 397.766C592.129 398.767 591.325 399.576 590.338 399.576C589.351 399.576 588.548 398.767 588.548 397.766C588.548 396.766 589.351 395.957 590.338 395.957C591.325 395.954 592.129 396.763 592.129 397.766Z" fill="#BEC2C9"/>
<path opacity="0.9768" d="M479.818 397.766C479.818 398.767 479.014 399.576 478.027 399.576C477.04 399.576 476.237 398.767 476.237 397.766C476.237 396.766 477.04 395.957 478.027 395.957C479.014 395.954 479.818 396.763 479.818 397.766Z" fill="#BEC2C9"/>
<path opacity="0.9016" d="M535.976 201.487C535.976 202.485 535.172 203.294 534.177 203.294C533.19 203.294 532.387 202.485 532.387 201.487C532.387 200.489 533.19 199.68 534.177 199.68C535.172 199.68 535.976 200.489 535.976 201.487Z" fill="#BEC2C9"/>
<path opacity="0.6844" d="M542.993 254.644C542.993 255.644 542.189 256.453 541.202 256.453C540.207 256.453 539.403 255.644 539.403 254.644C539.403 253.648 540.207 252.839 541.202 252.839C542.189 252.839 542.993 253.648 542.993 254.644Z" fill="#BEC2C9"/>
<path opacity="0.9473" d="M655.304 344.61C655.304 345.605 654.5 346.414 653.513 346.414C652.526 346.414 651.722 345.605 651.722 344.61C651.722 343.609 652.526 342.8 653.513 342.8C654.5 342.798 655.304 343.607 655.304 344.61Z" fill="#BEC2C9"/>
<path opacity="0.9003" d="M627.226 344.61C627.226 345.605 626.422 346.414 625.435 346.414C624.448 346.414 623.645 345.605 623.645 344.61C623.645 343.609 624.448 342.8 625.435 342.8C626.422 342.798 627.226 343.607 627.226 344.61Z" fill="#BEC2C9"/>
<path opacity="0.935" d="M599.145 328.249C599.145 329.249 598.35 330.058 597.355 330.058C596.368 330.058 595.564 329.249 595.564 328.249C595.564 327.254 596.368 326.437 597.355 326.437C598.35 326.437 599.145 327.254 599.145 328.249Z" fill="#BEC2C9"/>
<path opacity="0.5725" d="M599.145 262.82C599.145 263.82 598.35 264.629 597.355 264.629C596.368 264.629 595.564 263.82 595.564 262.82C595.564 261.825 596.368 261.016 597.355 261.016C598.35 261.016 599.145 261.825 599.145 262.82Z" fill="#BEC2C9"/>
<path opacity="0.7228" d="M606.17 266.913C606.17 267.908 605.367 268.717 604.371 268.717C603.385 268.717 602.581 267.908 602.581 266.913C602.581 265.913 603.385 265.104 604.371 265.104C605.367 265.104 606.17 265.916 606.17 266.913Z" fill="#BEC2C9"/>
<path opacity="0.7894" d="M711.462 230.112C711.462 231.107 710.658 231.916 709.671 231.916C708.676 231.916 707.875 231.107 707.875 230.112C707.875 229.112 708.679 228.303 709.671 228.303C710.661 228.303 711.462 229.112 711.462 230.112Z" fill="#BEC2C9"/>
<path opacity="0.8898" d="M683.384 246.467C683.384 247.468 682.58 248.277 681.593 248.277C680.598 248.277 679.803 247.468 679.803 246.467C679.803 245.467 680.598 244.655 681.593 244.655C682.58 244.655 683.384 245.467 683.384 246.467Z" fill="#BEC2C9"/>
<path opacity="0.5427" d="M641.267 352.786C641.267 353.781 640.464 354.59 639.477 354.59C638.482 354.59 637.678 353.781 637.678 352.786C637.678 351.786 638.482 350.974 639.477 350.974C640.464 350.974 641.267 351.786 641.267 352.786Z" fill="#BEC2C9"/>
<path opacity="0.8321" d="M683.384 311.894C683.384 312.886 682.58 313.698 681.593 313.698C680.598 313.698 679.803 312.886 679.803 311.894C679.803 310.893 680.598 310.082 681.593 310.082C682.58 310.084 683.384 310.893 683.384 311.894Z" fill="#BEC2C9"/>
<path opacity="0.5515" d="M655.304 393.676C655.304 394.671 654.5 395.48 653.513 395.48C652.526 395.48 651.722 394.671 651.722 393.676C651.722 392.675 652.526 391.866 653.513 391.866C654.5 391.866 655.304 392.675 655.304 393.676Z" fill="#BEC2C9"/>
<path opacity="0.7361" d="M599.145 360.962C599.145 361.963 598.35 362.772 597.355 362.772C596.368 362.772 595.564 361.963 595.564 360.962C595.564 359.962 596.368 359.15 597.355 359.15C598.35 359.15 599.145 359.962 599.145 360.962Z" fill="#BEC2C9"/>
<path opacity="0.5694" d="M683.384 377.315C683.384 378.315 682.58 379.124 681.593 379.124C680.598 379.124 679.797 378.315 679.797 377.315C679.797 376.32 680.601 375.511 681.593 375.511C682.58 375.514 683.384 376.323 683.384 377.315Z" fill="#BEC2C9"/>
<path opacity="0.7041" d="M627.226 344.61C627.226 345.605 626.422 346.414 625.435 346.414C624.448 346.414 623.645 345.605 623.645 344.61C623.645 343.609 624.448 342.8 625.435 342.8C626.422 342.798 627.226 343.607 627.226 344.61Z" fill="#BEC2C9"/>
<path opacity="0.9472" d="M725.5 401.855C725.5 402.855 724.697 403.664 723.71 403.664C722.723 403.664 721.919 402.855 721.919 401.855C721.919 400.854 722.723 400.045 723.71 400.045C724.697 400.045 725.5 400.851 725.5 401.855Z" fill="#BEC2C9"/>
<path opacity="0.988" d="M711.462 377.315C711.462 378.315 710.658 379.124 709.671 379.124C708.676 379.124 707.875 378.315 707.875 377.315C707.875 376.32 708.679 375.511 709.671 375.511C710.661 375.514 711.462 376.323 711.462 377.315Z" fill="#BEC2C9"/>
<path opacity="0.5764" d="M653.513 191.024C654.502 191.024 655.304 190.215 655.304 189.217C655.304 188.219 654.502 187.41 653.513 187.41C652.524 187.41 651.722 188.219 651.722 189.217C651.722 190.215 652.524 191.024 653.513 191.024Z" fill="#BEC2C9"/>
<path opacity="0.6501" d="M627.226 213.751C627.226 214.752 626.422 215.561 625.435 215.561C624.448 215.561 623.645 214.752 623.645 213.751C623.645 212.756 624.448 211.947 625.435 211.947C626.422 211.947 627.226 212.759 627.226 213.751Z" fill="#BEC2C9"/>
<path opacity="0.6553" d="M739.542 213.751C739.542 214.752 738.738 215.561 737.743 215.561C736.756 215.561 735.953 214.752 735.953 213.751C735.953 212.756 736.756 211.947 737.743 211.947C738.738 211.947 739.542 212.759 739.542 213.751Z" fill="#BEC2C9"/>
<path opacity="0.6531" d="M767.614 295.533C767.614 296.534 766.819 297.343 765.824 297.343C764.837 297.343 764.033 296.534 764.033 295.533C764.033 294.541 764.837 293.729 765.824 293.729C766.819 293.729 767.614 294.541 767.614 295.533Z" fill="#BEC2C9"/>
<path opacity="0.7985" d="M795.695 279.181C795.695 280.181 794.891 280.985 793.904 280.985C792.917 280.985 792.113 280.181 792.113 279.181C792.113 278.18 792.917 277.371 793.904 277.371C794.891 277.368 795.695 278.18 795.695 279.181Z" fill="#BEC2C9"/>
<path opacity="0.8668" d="M648.287 266.913C648.287 267.908 647.483 268.717 646.496 268.717C645.501 268.717 644.706 267.908 644.706 266.913C644.706 265.913 645.501 265.104 646.496 265.104C647.483 265.104 648.287 265.916 648.287 266.913Z" fill="#BEC2C9"/>
<path opacity="0.8785" d="M655.304 254.644C655.304 255.644 654.5 256.453 653.513 256.453C652.526 256.453 651.722 255.644 651.722 254.644C651.722 253.648 652.526 252.839 653.513 252.839C654.5 252.839 655.304 253.648 655.304 254.644Z" fill="#BEC2C9"/>
<path opacity="0.74" d="M648.287 332.337C648.287 333.338 647.483 334.149 646.496 334.149C645.501 334.149 644.706 333.338 644.706 332.337C644.706 331.342 645.501 330.533 646.496 330.533C647.483 330.533 648.287 331.342 648.287 332.337Z" fill="#BEC2C9"/>
<path opacity="0.9974" d="M655.304 336.425C655.304 337.426 654.5 338.235 653.513 338.235C652.526 338.235 651.722 337.426 651.722 336.425C651.722 335.433 652.526 334.621 653.513 334.621C654.5 334.621 655.304 335.43 655.304 336.425Z" fill="#BEC2C9"/>
<path opacity="0.9965" d="M662.323 324.158C662.323 325.159 661.519 325.97 660.532 325.97C659.545 325.97 658.742 325.159 658.742 324.158C658.742 323.158 659.545 322.349 660.532 322.349C661.519 322.349 662.323 323.158 662.323 324.158Z" fill="#BEC2C9"/>
<path opacity="0.5958" d="M648.287 324.158C648.287 325.159 647.483 325.97 646.496 325.97C645.501 325.97 644.706 325.159 644.706 324.158C644.706 323.158 645.501 322.349 646.496 322.349C647.483 322.349 648.287 323.158 648.287 324.158Z" fill="#BEC2C9"/>
<path opacity="0.502" d="M767.614 401.855C767.614 402.855 766.819 403.664 765.824 403.664C764.837 403.664 764.033 402.855 764.033 401.855C764.033 400.854 764.837 400.045 765.824 400.045C766.819 400.042 767.614 400.851 767.614 401.855Z" fill="#BEC2C9"/>
<path opacity="0.8656" d="M767.614 385.499C767.614 386.494 766.819 387.303 765.824 387.303C764.837 387.303 764.033 386.494 764.033 385.499C764.033 384.499 764.837 383.69 765.824 383.69C766.819 383.69 767.614 384.499 767.614 385.499Z" fill="#BEC2C9"/>
<path opacity="0.6714" d="M718.481 266.913C718.481 267.908 717.677 268.717 716.69 268.717C715.695 268.717 714.9 267.908 714.9 266.913C714.9 265.913 715.695 265.104 716.69 265.104C717.677 265.104 718.481 265.916 718.481 266.913Z" fill="#BEC2C9"/>
<path opacity="0.9386" d="M704.445 258.732C704.445 259.732 703.641 260.541 702.646 260.541C701.659 260.541 700.856 259.732 700.856 258.732C700.856 257.739 701.659 256.928 702.646 256.928C703.641 256.928 704.445 257.737 704.445 258.732Z" fill="#BEC2C9"/>
<path opacity="0.8257" d="M739.542 246.467C739.542 247.468 738.738 248.277 737.743 248.277C736.756 248.277 735.953 247.468 735.953 246.467C735.953 245.467 736.756 244.655 737.743 244.655C738.738 244.655 739.542 245.467 739.542 246.467Z" fill="#BEC2C9"/>
<path opacity="0.8822" d="M711.462 230.112C711.462 231.107 710.658 231.916 709.671 231.916C708.676 231.916 707.875 231.107 707.875 230.112C707.875 229.112 708.679 228.303 709.671 228.303C710.661 228.303 711.462 229.112 711.462 230.112Z" fill="#BEC2C9"/>
<path opacity="0.7249" d="M683.384 246.467C683.384 247.468 682.58 248.277 681.593 248.277C680.598 248.277 679.803 247.468 679.803 246.467C679.803 245.467 680.598 244.655 681.593 244.655C682.58 244.655 683.384 245.467 683.384 246.467Z" fill="#BEC2C9"/>
<path opacity="0.85" d="M795.695 344.61C795.695 345.605 794.891 346.414 793.904 346.414C792.917 346.414 792.113 345.605 792.113 344.61C792.113 343.609 792.917 342.8 793.904 342.8C794.891 342.798 795.695 343.607 795.695 344.61Z" fill="#BEC2C9"/>
<path opacity="0.7173" d="M795.695 311.894C795.695 312.886 794.891 313.698 793.904 313.698C792.917 313.698 792.113 312.886 792.113 311.894C792.113 310.893 792.917 310.082 793.904 310.082C794.891 310.084 795.695 310.893 795.695 311.894Z" fill="#BEC2C9"/>
<path opacity="0.7483" d="M809 318.617C808.703 318.401 808.342 318.261 807.94 318.261C806.953 318.261 806.15 319.07 806.15 320.073C806.15 321.073 806.953 321.882 807.94 321.882C808.342 321.882 808.703 321.745 809 321.526V318.617Z" fill="#BEC2C9"/>
<path opacity="0.9308" d="M683.384 377.315C683.384 378.315 682.58 379.124 681.593 379.124C680.598 379.124 679.803 378.315 679.803 377.315C679.803 376.32 680.598 375.511 681.593 375.511C682.58 375.514 683.384 376.323 683.384 377.315Z" fill="#BEC2C9"/>
<path opacity="0.9474" d="M795.695 377.315C795.695 378.315 794.891 379.124 793.904 379.124C792.917 379.124 792.113 378.315 792.113 377.315C792.113 376.32 792.917 375.511 793.904 375.511C794.891 375.514 795.695 376.323 795.695 377.315Z" fill="#BEC2C9"/>
<path opacity="0.5499" d="M767.614 262.82C767.614 263.82 766.819 264.629 765.824 264.629C764.837 264.629 764.033 263.82 764.033 262.82C764.033 261.825 764.837 261.016 765.824 261.016C766.819 261.016 767.614 261.825 767.614 262.82Z" fill="#BEC2C9"/>
<path opacity="0.5903" d="M767.614 328.249C767.614 329.249 766.819 330.058 765.824 330.058C764.837 330.058 764.033 329.249 764.033 328.249C764.033 327.254 764.837 326.437 765.824 326.437C766.819 326.437 767.614 327.254 767.614 328.249Z" fill="#BEC2C9"/>
<path opacity="0.8516" d="M3.29263 0H2.69127L7.56685 2.83689V68.0908L0 72.4999V72.8478L7.79067 68.3093L7.86348 68.2661V2.66431L3.29263 0Z" fill="#BEC2C9"/>
<path opacity="0.9669" d="M7.71517 76.5314L0.547424 72.3543V64.0027L7.71517 59.8256L14.8856 64.0027V72.3543L7.71517 76.5314ZM0.846754 72.179L7.71786 76.1835L14.589 72.179V64.1753L7.71786 60.1734L0.846754 64.178V72.179Z" fill="#BEC2C9"/>
<path opacity="0.716" d="M12.1404 0L7.71517 2.57801L3.29264 0H2.69128L7.71517 2.92588L12.7391 0H12.1404Z" fill="#BEC2C9"/>
<path opacity="0.8412" d="M7.71516 2.578L0 7.07335V7.41852L7.71516 2.92587L35.6445 19.1949V51.7355L7.71516 68.0018L0 63.5092V63.8571L7.63966 68.3092L7.71516 68.3524L35.8684 51.9513L35.9439 51.9081V19.0196L7.71516 2.578Z" fill="#BEC2C9"/>
<path opacity="0.994" d="M63.8705 101.066L35.6445 84.6214V51.7355L63.8732 35.2939L92.0992 51.7355V84.6214L63.8705 101.066ZM35.9439 84.4461L63.8732 100.718L91.8026 84.4461V51.9081L63.8732 35.6391L35.9439 51.9081V84.4461V84.4461Z" fill="#BEC2C9"/>
<path opacity="0.9394" d="M63.8705 101.066L35.6445 84.6214V51.7355L63.8732 35.2939L92.0992 51.7355V84.6214L63.8705 101.066ZM35.9439 84.4461L63.8732 100.718L91.8026 84.4461V51.9081L63.8732 35.6391L35.9439 51.9081V84.4461V84.4461Z" fill="#BEC2C9"/>
<path opacity="0.9775" d="M68.2985 0L63.8706 2.57801L59.448 0H58.8494L63.8706 2.92588L68.8944 0H68.2985Z" fill="#BEC2C9"/>
<path opacity="0.7716" d="M63.8706 68.3524L63.7977 68.3092L35.6418 51.9081V19.0196L63.8706 2.578L92.0966 19.0196V51.9081L92.0238 51.9513L63.8706 68.3524ZM35.9439 51.7355L63.8733 68.0045L91.8026 51.7355V19.1949L63.8706 2.92587L35.9439 19.1949V51.7355Z" fill="#BEC2C9"/>
<path opacity="0.6343" d="M68.2985 0L63.8706 2.57801L59.448 0H58.8494L63.8706 2.92588L68.8944 0H68.2985Z" fill="#BEC2C9"/>
<path opacity="0.6715" d="M133.919 0V10.8433L120.029 18.9333L106.138 10.8433V0H105.839V11.0186L120.029 19.2839L134.218 11.0186V0H133.919Z" fill="#BEC2C9"/>
<path opacity="0.9459" d="M147.958 0V19.0196L120.029 35.2913L92.0992 19.0196V0H91.8026V19.1949L120.029 35.6391L148.255 19.1949V0H147.958Z" fill="#BEC2C9"/>
<path opacity="0.5261" d="M120.029 76.5314L112.858 72.3543V64.0027L120.029 59.8256L127.194 64.0027V72.3543L120.029 76.5314ZM113.16 72.179L120.031 76.1835L126.9 72.179V64.1753L120.031 60.1734L113.16 64.1753V72.179Z" fill="#BEC2C9"/>
<path opacity="0.5223" d="M63.8706 68.3524L63.7977 68.3092L35.6418 51.9081V19.0196L63.8706 2.578L92.0966 19.0196V51.9081L92.0238 51.9513L63.8706 68.3524ZM35.9439 51.7355L63.8733 68.0045L91.8026 51.7355V19.1949L63.8706 2.92587L35.9439 19.1949V51.7355Z" fill="#BEC2C9"/>
<path opacity="0.8962" d="M183.055 0V6.75515L176.184 10.757L169.316 6.75515V0H169.016V6.92774L176.184 11.1076L183.354 6.92774V0H183.055Z" fill="#BEC2C9"/>
<path opacity="0.5211" d="M176.184 76.5314L169.014 72.3543V64.0027L176.184 59.8256L183.355 64.0027V72.3543L176.184 76.5314ZM169.316 72.179L176.187 76.1835L183.055 72.179V64.1753L176.187 60.1734L169.316 64.1753V72.179Z" fill="#BEC2C9"/>
<path opacity="0.6374" d="M120.029 166.492L119.953 166.449L63.7222 133.693V68.0908L63.7977 68.0477L120.029 35.2913L120.101 35.3344L176.332 68.0908V133.69L176.259 133.736L120.029 166.492ZM64.0215 133.517L120.029 166.142L176.033 133.517V68.2661L120.029 35.6391L64.0215 68.2661V133.517Z" fill="#BEC2C9"/>
<path opacity="0.5189" d="M120.029 68.3524L119.953 68.3092L91.7999 51.9081V19.0196L120.029 2.578L148.252 19.0196V51.9081L148.179 51.9513L120.029 68.3524ZM92.0993 51.7355L120.031 68.0045L147.961 51.7355V19.1949L120.029 2.92587L92.0993 19.1949V51.7355Z" fill="#BEC2C9"/>
<path opacity="0.5082" d="M176.184 84.7077L161.997 76.4424V59.9146L176.184 51.6493L190.371 59.9146V76.4424L176.184 84.7077ZM162.293 76.2699L176.187 84.3599L190.075 76.2699V60.0872L176.187 51.9999L162.293 60.0872V76.2699Z" fill="#BEC2C9"/>
<path opacity="0.5792" d="M260.269 0V19.0196L232.339 35.2913L204.413 19.0196V0H204.113V19.1949L232.339 35.6391L260.495 19.2407L260.568 19.1949V0H260.269Z" fill="#BEC2C9"/>
<path opacity="0.9861" d="M176.184 68.3524L176.109 68.3092L147.958 51.9081V19.0196L176.184 2.578L204.41 19.0196V51.9081L204.335 51.9513L176.184 68.3524ZM148.257 51.7355L176.187 68.0045L204.116 51.7355V19.1949L176.184 2.92587L148.257 19.1949V51.7355Z" fill="#BEC2C9"/>
<path opacity="0.9808" d="M126.9 0V6.75515L120.029 10.757L113.16 6.75515V0H112.861V6.92774L120.029 11.1076L127.196 6.92774V0H126.9Z" fill="#BEC2C9"/>
<path opacity="0.9699" d="M260.269 0V19.0196L232.339 35.2913L204.413 19.0196V0H204.113V19.1949L232.339 35.6391L260.495 19.2407L260.568 19.1949V0H260.269Z" fill="#BEC2C9"/>
<path opacity="0.9622" d="M120.029 101.066L91.8026 84.6214V51.7355L120.029 35.2939L148.252 51.7355V84.6214L120.029 101.066ZM92.0992 84.4461L120.031 100.718L147.961 84.4461V51.9081L120.029 35.6391L92.0965 51.9081V84.4461H92.0992Z" fill="#BEC2C9"/>
<path opacity="0.6304" d="M120.029 101.066L91.8026 84.6214V51.7355L120.029 35.2939L148.252 51.7355V84.6214L120.029 101.066ZM92.0992 84.4461L120.031 100.718L147.961 84.4461V51.9081L120.029 35.6391L92.0965 51.9081V84.4461H92.0992Z" fill="#BEC2C9"/>
<path opacity="0.8387" d="M176.184 182.847L161.997 174.582V158.049L176.184 149.786L190.371 158.049V174.582L176.184 182.847ZM162.293 174.407L176.187 182.5L190.075 174.407V158.224L176.187 150.131L162.293 158.224V174.407Z" fill="#BEC2C9"/>
<path opacity="0.9051" d="M176.184 199.205L147.958 182.764V149.875L176.184 133.431L204.41 149.875V182.764L176.184 199.205ZM148.257 182.589L176.187 198.858L204.116 182.589V150.048L176.184 133.782L148.255 150.048V182.589H148.257Z" fill="#BEC2C9"/>
<path opacity="0.6545" d="M204.113 0V19.0196L176.184 35.2913L148.257 19.0196V0H147.958V19.1949L176.184 35.6391L204.413 19.1949V0H204.113Z" fill="#BEC2C9"/>
<path opacity="0.9574" d="M236.767 0L232.339 2.57801L227.917 0H227.318L232.339 2.92588L237.363 0H236.767Z" fill="#BEC2C9"/>
<path opacity="0.9474" d="M232.339 166.492L232.264 166.449L176.033 133.693V68.0908L176.109 68.0477L232.339 35.2913L232.415 35.3344L288.646 68.0908V133.69L288.57 133.736L232.339 166.492ZM176.332 133.517L232.339 166.142L288.347 133.517V68.2661L232.339 35.6391L176.332 68.2661V133.517Z" fill="#BEC2C9"/>
<path opacity="0.8086" d="M288.495 84.7077L274.308 76.4424V59.9146L288.495 51.6493L302.685 59.9146V76.4424L288.495 84.7077ZM274.607 76.2699L288.495 84.3599L302.385 76.2699V60.0872L288.495 51.9999L274.607 60.0872V76.2699V76.2699Z" fill="#BEC2C9"/>
<path opacity="0.5531" d="M232.339 182.847L218.152 174.582V158.049L232.339 149.786L246.527 158.049V174.582L232.339 182.847ZM218.452 174.407L232.339 182.5L246.227 174.407V158.224L232.339 150.131L218.452 158.224V174.407Z" fill="#BEC2C9"/>
<path opacity="0.9538" d="M292.923 0L288.495 2.57801L284.072 0H283.474L288.495 2.92588L293.519 0H292.923Z" fill="#BEC2C9"/>
<path opacity="0.8754" d="M372.582 0V19.0196L344.653 35.2913L316.726 19.0196V0H316.427V19.1949L344.653 35.6391L372.882 19.1949V0H372.582Z" fill="#BEC2C9"/>
<path opacity="0.5051" d="M260.269 0V19.0196L232.339 35.2913L204.413 19.0196V0H204.113V19.1949L232.339 35.6391L260.495 19.2407L260.568 19.1949V0H260.269Z" fill="#BEC2C9"/>
<path opacity="0.8517" d="M339.632 0L344.502 2.83689V68.0908L288.495 100.718L232.488 68.0908V2.83689L237.363 0H236.767L232.264 2.62116L232.191 2.66431V68.2661L288.422 101.023L288.495 101.066L344.726 68.3093L344.801 68.2661V2.66431L340.228 0H339.632Z" fill="#BEC2C9"/>
<path opacity="0.61" d="M344.653 76.5314L337.482 72.3543V64.0027L344.653 59.8256L351.821 64.0027V72.3543L344.653 76.5314ZM337.784 72.179L344.653 76.1835L351.524 72.179V64.1753L344.653 60.1734L337.784 64.1753V72.179Z" fill="#BEC2C9"/>
<path opacity="0.6181" d="M232.339 101.066L204.113 84.6214V51.7355L232.339 35.2939L232.415 35.3371L260.565 51.7382V84.6214L260.493 84.6672L232.339 101.066ZM204.413 84.4461L232.342 100.718L260.271 84.4461V51.9081L232.342 35.6391L204.413 51.9081V84.4461Z" fill="#BEC2C9"/>
<path opacity="0.876" d="M288.495 166.492L288.422 166.449L232.191 133.693V68.0908L232.264 68.0477L288.495 35.2913L288.57 35.3344L344.801 68.0908V133.69L344.726 133.736L288.495 166.492ZM232.488 133.517L288.495 166.142L344.502 133.517V68.2661L288.495 35.6391L232.488 68.2661V133.517Z" fill="#BEC2C9"/>
<path opacity="0.5845" d="M288.495 182.847L274.308 174.582V158.049L288.495 149.786L302.685 158.049V174.582L288.495 182.847ZM274.607 174.407L288.495 182.5L302.385 174.407V158.224L288.495 150.131L274.607 158.224V174.407V174.407Z" fill="#BEC2C9"/>
<path opacity="0.5432" d="M232.339 166.492L232.264 166.449L204.113 150.048V117.159L232.339 100.718L232.415 100.761L260.565 117.162V150.051L260.493 150.094L232.339 166.492ZM204.413 149.875L232.342 166.142L260.271 149.875V117.335L232.342 101.066L204.413 117.335V149.875Z" fill="#BEC2C9"/>
<path opacity="0.8471" d="M428.74 0V19.0196L400.808 35.2913L372.882 19.0196V0H372.582V19.1949L400.808 35.6391L429.037 19.1949V0H428.74Z" fill="#BEC2C9"/>
<path opacity="0.7774" d="M344.653 51.9972L330.466 43.7265V27.1986L344.653 18.9333L358.84 27.1986V43.7265L344.653 51.9972ZM330.762 43.5539L344.653 51.6493L358.541 43.5539V27.3739L344.653 19.2839L330.762 27.3739V43.5539Z" fill="#BEC2C9"/>
<path opacity="0.6187" d="M349.078 0L344.653 2.57801L340.228 0H339.632L344.653 2.92588L349.677 0H349.078Z" fill="#BEC2C9"/>
<path opacity="0.6525" d="M414.699 0V10.8433L400.808 18.9333L386.92 10.8433V0H386.621V11.0186L400.808 19.2839L415.001 11.0186V0H414.699Z" fill="#BEC2C9"/>
<path opacity="0.6134" d="M428.74 0V19.0196L400.808 35.2913L372.882 19.0196V0H372.582V19.1949L400.808 35.6391L429.037 19.1949V0H428.74Z" fill="#BEC2C9"/>
<path opacity="0.951" d="M288.495 101.066L260.269 84.6214V51.7355L288.495 35.2939L288.57 35.3371L316.724 51.7382V84.6214L316.651 84.6672L288.495 101.066ZM260.568 84.4461L288.497 100.718L316.43 84.4461V51.9081L288.497 35.6391L260.568 51.9081V84.4461Z" fill="#BEC2C9"/>
<path opacity="0.6256" d="M400.808 166.492L400.733 166.449L372.582 150.048V117.159L400.808 100.718L429.037 117.159V150.048L428.964 150.091L400.808 166.492ZM372.882 149.875L400.808 166.142L428.74 149.875V117.335L400.808 101.066L372.882 117.335V149.875Z" fill="#BEC2C9"/>
<path opacity="0.6699" d="M288.495 166.492L288.422 166.449L260.269 150.048V117.159L288.495 100.718L288.57 100.761L316.724 117.162V150.051L316.651 150.094L288.495 166.492ZM260.568 149.875L288.497 166.142L316.43 149.875V117.335L288.497 101.066L260.568 117.335V149.875Z" fill="#BEC2C9"/>
<path opacity="0.6867" d="M9.50573 76.3561C9.50573 77.3539 8.70482 78.1629 7.71515 78.1629C6.72547 78.1629 5.92456 77.3539 5.92456 76.3561C5.92456 75.3583 6.72547 74.5466 7.71515 74.5466C8.70752 74.5466 9.50573 75.3583 9.50573 76.3561Z" fill="#BEC2C9"/>
<path opacity="0.975" d="M37.5862 51.8245C37.5862 52.8222 36.7826 53.6313 35.7956 53.6313C34.8032 53.6313 34.0023 52.8222 34.0023 51.8245C34.0023 50.824 34.8059 50.015 35.7956 50.015C36.7826 50.0123 37.5862 50.8213 37.5862 51.8245Z" fill="#BEC2C9"/>
<path opacity="0.9056" d="M65.6638 2.75061C65.6638 3.74838 64.8602 4.55738 63.8705 4.55738C62.8836 4.55738 62.08 3.74838 62.08 2.75061C62.08 1.75285 62.8836 0.943848 63.8705 0.943848C64.8629 0.943848 65.6638 1.75554 65.6638 2.75061Z" fill="#BEC2C9"/>
<path opacity="0.862" d="M65.6638 68.1771C65.6638 69.1776 64.8602 69.9839 63.8705 69.9839C62.8836 69.9839 62.08 69.1776 62.08 68.1771C62.08 67.1794 62.8836 66.3704 63.8705 66.3704C64.8629 66.3704 65.6638 67.1794 65.6638 68.1771Z" fill="#BEC2C9"/>
<path opacity="0.7249" d="M107.78 10.9323C107.78 11.93 106.977 12.739 105.99 12.739C104.997 12.739 104.197 11.93 104.197 10.9323C104.197 9.93181 105 9.12012 105.99 9.12012C106.977 9.12281 107.78 9.93181 107.78 10.9323Z" fill="#BEC2C9"/>
<path opacity="0.5437" d="M135.861 10.9323C135.861 11.93 135.057 12.739 134.067 12.739C133.08 12.739 132.277 11.93 132.277 10.9323C132.277 9.93181 133.08 9.12012 134.067 9.12012C135.057 9.12281 135.861 9.93181 135.861 10.9323Z" fill="#BEC2C9"/>
<path opacity="0.8559" d="M93.7416 19.1086C93.7416 20.1064 92.9407 20.9154 91.951 20.9154C90.9586 20.9154 90.1604 20.1064 90.1604 19.1086C90.1604 18.1082 90.9613 17.3019 91.951 17.3019C92.9407 17.3019 93.7416 18.1082 93.7416 19.1086Z" fill="#BEC2C9"/>
<path opacity="0.691" d="M121.819 76.3561C121.819 77.3539 121.016 78.1629 120.029 78.1629C119.036 78.1629 118.235 77.3539 118.235 76.3561C118.235 75.3583 119.039 74.5466 120.029 74.5466C121.018 74.5466 121.819 75.3583 121.819 76.3561Z" fill="#BEC2C9"/>
<path opacity="0.6169" d="M65.6638 68.1771C65.6638 69.1776 64.8602 69.9839 63.8705 69.9839C62.8836 69.9839 62.08 69.1776 62.08 68.1771C62.08 67.1794 62.8836 66.3704 63.8705 66.3704C64.8629 66.3704 65.6638 67.1794 65.6638 68.1771Z" fill="#BEC2C9"/>
<path opacity="0.5121" d="M93.7416 51.8245C93.7416 52.8222 92.938 53.6313 91.951 53.6313C90.9586 53.6313 90.1577 52.8222 90.1577 51.8245C90.1577 50.824 90.9613 50.015 91.951 50.015C92.938 50.0123 93.7416 50.8213 93.7416 51.8245Z" fill="#BEC2C9"/>
<path opacity="0.8706" d="M177.975 10.9323C177.975 11.93 177.171 12.739 176.184 12.739C175.194 12.739 174.391 11.93 174.391 10.9323C174.391 9.93181 175.194 9.12012 176.184 9.12012C177.174 9.12281 177.975 9.93181 177.975 10.9323Z" fill="#BEC2C9"/>
<path opacity="0.6625" d="M184.997 64.089C184.997 65.0868 184.193 65.8958 183.203 65.8958C182.216 65.8958 181.413 65.0868 181.413 64.089C181.413 63.0912 182.216 62.2822 183.203 62.2822C184.193 62.2822 184.997 63.0912 184.997 64.089Z" fill="#BEC2C9"/>
<path opacity="0.6645" d="M121.819 166.317C121.819 167.315 121.016 168.124 120.029 168.124C119.036 168.124 118.235 167.315 118.235 166.317C118.235 165.319 119.039 164.51 120.029 164.51C121.018 164.51 121.819 165.319 121.819 166.317Z" fill="#BEC2C9"/>
<path opacity="0.9538" d="M177.975 133.606C177.975 134.604 177.171 135.413 176.184 135.413C175.194 135.413 174.391 134.604 174.391 133.606C174.391 132.606 175.194 131.8 176.184 131.8C177.174 131.797 177.975 132.603 177.975 133.606Z" fill="#BEC2C9"/>
<path opacity="0.6405" d="M65.6638 68.1771C65.6638 69.1776 64.8602 69.9839 63.8705 69.9839C62.8836 69.9839 62.08 69.1776 62.08 68.1771C62.08 67.1794 62.8836 66.3704 63.8705 66.3704C64.8629 66.3704 65.6638 67.1794 65.6638 68.1771Z" fill="#BEC2C9"/>
<path opacity="0.5246" d="M121.819 68.1771C121.819 69.1776 121.016 69.9839 120.029 69.9839C119.036 69.9839 118.235 69.1776 118.235 68.1771C118.235 67.1794 119.039 66.3704 120.029 66.3704C121.018 66.3704 121.819 67.1794 121.819 68.1771Z" fill="#BEC2C9"/>
<path opacity="0.7605" d="M149.9 51.8245C149.9 52.8222 149.096 53.6313 148.106 53.6313C147.117 53.6313 146.316 52.8222 146.316 51.8245C146.316 50.824 147.117 50.015 148.106 50.015C149.096 50.0123 149.9 50.8213 149.9 51.8245Z" fill="#BEC2C9"/>
<path opacity="0.6166" d="M149.9 19.1086C149.9 20.1064 149.096 20.9154 148.106 20.9154C147.117 20.9154 146.316 20.1064 146.316 19.1086C146.316 18.1082 147.117 17.3019 148.106 17.3019C149.096 17.3019 149.9 18.1082 149.9 19.1086Z" fill="#BEC2C9"/>
<path opacity="0.5032" d="M192.016 60.0009C192.016 60.9986 191.213 61.8076 190.226 61.8076C189.236 61.8076 188.432 60.9986 188.432 60.0009C188.432 59.0004 189.236 58.1941 190.226 58.1941C191.213 58.1914 192.016 59.0004 192.016 60.0009Z" fill="#BEC2C9"/>
<path opacity="0.9074" d="M262.21 19.1086C262.21 20.1064 261.407 20.9154 260.42 20.9154C259.43 20.9154 258.629 20.1064 258.629 19.1086C258.629 18.1082 259.43 17.3019 260.42 17.3019C261.407 17.3019 262.21 18.1082 262.21 19.1086Z" fill="#BEC2C9"/>
<path opacity="0.6002" d="M111.812 0C112.127 0.29124 112.545 0.471917 113.007 0.471917C113.47 0.471917 113.886 0.29124 114.204 0H111.812Z" fill="#BEC2C9"/>
<path opacity="0.6002" d="M234.13 35.4666C234.13 36.4643 233.329 37.2733 232.339 37.2733C231.35 37.2733 230.549 36.4643 230.549 35.4666C230.549 34.4661 231.35 33.6571 232.339 33.6571C233.329 33.6571 234.13 34.4661 234.13 35.4666Z" fill="#BEC2C9"/>
<path opacity="0.6607" d="M149.9 51.8245C149.9 52.8222 149.096 53.6313 148.106 53.6313C147.117 53.6313 146.316 52.8222 146.316 51.8245C146.316 50.824 147.117 50.015 148.106 50.015C149.096 50.0123 149.9 50.8213 149.9 51.8245Z" fill="#BEC2C9"/>
<path opacity="0.5786" d="M192.016 174.496C192.016 175.494 191.213 176.303 190.226 176.303C189.236 176.303 188.432 175.494 188.432 174.496C188.432 173.495 189.236 172.689 190.226 172.689C191.213 172.689 192.016 173.495 192.016 174.496Z" fill="#BEC2C9"/>
<path opacity="0.9283" d="M177.975 149.959C177.975 150.959 177.171 151.768 176.184 151.768C175.194 151.768 174.391 150.959 174.391 149.959C174.391 148.961 175.194 148.152 176.184 148.152C177.174 148.152 177.975 148.961 177.975 149.959Z" fill="#BEC2C9"/>
<path opacity="0.6334" d="M163.936 158.138C163.936 159.136 163.135 159.945 162.145 159.945C161.156 159.945 160.355 159.136 160.355 158.138C160.355 157.14 161.156 156.328 162.145 156.328C163.135 156.328 163.936 157.143 163.936 158.138Z" fill="#BEC2C9"/>
<path opacity="0.6939" d="M149.9 182.675C149.9 183.673 149.096 184.482 148.106 184.482C147.119 184.482 146.316 183.67 146.316 182.675C146.316 181.677 147.119 180.868 148.106 180.868C149.096 180.865 149.9 181.677 149.9 182.675Z" fill="#BEC2C9"/>
<path opacity="0.7705" d="M177.975 35.4666C177.975 36.4643 177.171 37.2733 176.184 37.2733C175.194 37.2733 174.391 36.4643 174.391 35.4666C174.391 34.4661 175.194 33.6571 176.184 33.6571C177.174 33.6571 177.975 34.4661 177.975 35.4666Z" fill="#BEC2C9"/>
<path opacity="0.8428" d="M206.055 19.1086C206.055 20.1064 205.251 20.9154 204.259 20.9154C203.272 20.9154 202.468 20.1064 202.468 19.1086C202.468 18.1082 203.272 17.3019 204.259 17.3019C205.251 17.3019 206.055 18.1082 206.055 19.1086Z" fill="#BEC2C9"/>
<path opacity="0.9917" d="M304.33 76.3561C304.33 77.3539 303.526 78.1629 302.536 78.1629C301.549 78.1629 300.746 77.3539 300.746 76.3561C300.746 75.3583 301.549 74.5466 302.536 74.5466C303.526 74.5466 304.33 75.3583 304.33 76.3561Z" fill="#BEC2C9"/>
<path opacity="0.9612" d="M304.33 60.0009C304.33 60.9986 303.526 61.8076 302.536 61.8076C301.549 61.8076 300.746 60.9986 300.746 60.0009C300.746 59.0004 301.549 58.1941 302.536 58.1941C303.526 58.1914 304.33 59.0004 304.33 60.0009Z" fill="#BEC2C9"/>
<path opacity="0.6836" d="M374.524 19.1086C374.524 20.1064 373.72 20.9154 372.73 20.9154C371.744 20.9154 370.94 20.1064 370.94 19.1086C370.94 18.1082 371.744 17.3019 372.73 17.3019C373.72 17.3019 374.524 18.1082 374.524 19.1086Z" fill="#BEC2C9"/>
<path opacity="0.9087" d="M206.055 19.1086C206.055 20.1064 205.251 20.9154 204.264 20.9154C203.275 20.9154 202.471 20.1064 202.471 19.1086C202.471 18.1082 203.275 17.3019 204.264 17.3019C205.251 17.3019 206.055 18.1082 206.055 19.1086Z" fill="#BEC2C9"/>
<path opacity="0.7254" d="M262.21 19.1086C262.21 20.1064 261.407 20.9154 260.42 20.9154C259.43 20.9154 258.629 20.1064 258.629 19.1086C258.629 18.1082 259.43 17.3019 260.42 17.3019C261.407 17.3019 262.21 18.1082 262.21 19.1086Z" fill="#BEC2C9"/>
<path opacity="0.5217" d="M234.13 68.1771C234.13 69.1776 233.329 69.9839 232.339 69.9839C231.35 69.9839 230.549 69.1776 230.549 68.1771C230.549 67.1794 231.35 66.3704 232.339 66.3704C233.329 66.3704 234.13 67.1794 234.13 68.1771Z" fill="#BEC2C9"/>
<path opacity="0.758" d="M234.13 2.75061C234.13 3.74838 233.329 4.55738 232.339 4.55738C231.35 4.55738 230.549 3.74838 230.549 2.75061C230.549 1.75285 231.35 0.943848 232.339 0.943848C233.329 0.943848 234.13 1.75554 234.13 2.75061Z" fill="#BEC2C9"/>
<path opacity="0.5672" d="M339.427 72.268C339.427 73.2657 338.623 74.0747 337.631 74.0747C336.644 74.0747 335.84 73.2657 335.84 72.268C335.84 71.2675 336.644 70.4585 337.631 70.4585C338.623 70.4585 339.427 71.2675 339.427 72.268Z" fill="#BEC2C9"/>
<path opacity="0.6639" d="M353.466 64.089C353.466 65.0868 352.662 65.8958 351.672 65.8958C350.685 65.8958 349.882 65.0868 349.882 64.089C349.882 63.0912 350.685 62.2822 351.672 62.2822C352.665 62.2822 353.466 63.0912 353.466 64.089Z" fill="#BEC2C9"/>
<path opacity="0.7845" d="M346.446 60.0009C346.446 60.9986 345.643 61.8076 344.656 61.8076C343.666 61.8076 342.865 60.9986 342.865 60.0009C342.865 59.0004 343.666 58.1941 344.656 58.1941C345.643 58.1914 346.446 59.0004 346.446 60.0009Z" fill="#BEC2C9"/>
<path opacity="0.8686" d="M290.291 182.675C290.291 183.673 289.487 184.482 288.497 184.482C287.51 184.482 286.707 183.67 286.707 182.675C286.707 181.677 287.51 180.868 288.497 180.868C289.487 180.865 290.291 181.677 290.291 182.675Z" fill="#BEC2C9"/>
<path opacity="0.9438" d="M262.21 117.248C262.21 118.246 261.407 119.055 260.42 119.055C259.43 119.055 258.629 118.246 258.629 117.248C258.629 116.251 259.43 115.439 260.42 115.439C261.407 115.439 262.21 116.251 262.21 117.248Z" fill="#BEC2C9"/>
<path opacity="0.8488" d="M234.13 100.89C234.13 101.888 233.329 102.697 232.339 102.697C231.35 102.697 230.549 101.888 230.549 100.89C230.549 99.8926 231.35 99.0836 232.339 99.0836C233.329 99.0836 234.13 99.8926 234.13 100.89Z" fill="#BEC2C9"/>
<path opacity="0.5604" d="M374.524 19.1086C374.524 20.1064 373.72 20.9154 372.733 20.9154C371.741 20.9154 370.94 20.1064 370.94 19.1086C370.94 18.1082 371.744 17.3019 372.733 17.3019C373.72 17.3019 374.524 18.1082 374.524 19.1086Z" fill="#BEC2C9"/>
<path opacity="0.8646" d="M402.601 35.4666C402.601 36.4643 401.8 37.2733 400.811 37.2733C399.821 37.2733 399.02 36.4643 399.02 35.4666C399.02 34.4661 399.821 33.6571 400.811 33.6571C401.8 33.6571 402.601 34.4661 402.601 35.4666Z" fill="#BEC2C9"/>
<path opacity="0.5312" d="M346.446 51.8245C346.446 52.8222 345.643 53.6313 344.656 53.6313C343.666 53.6313 342.865 52.8222 342.865 51.8245C342.865 50.824 343.666 50.015 344.656 50.015C345.643 50.0123 346.446 50.8213 346.446 51.8245Z" fill="#BEC2C9"/>
<path opacity="0.7235" d="M388.563 10.9323C388.563 11.93 387.759 12.739 386.769 12.739C385.782 12.739 384.979 11.93 384.979 10.9323C384.979 9.93181 385.782 9.12012 386.769 9.12012C387.762 9.12281 388.563 9.93181 388.563 10.9323Z" fill="#BEC2C9"/>
<path opacity="0.5885" d="M416.64 10.9323C416.64 11.93 415.837 12.739 414.85 12.739C413.863 12.739 413.059 11.93 413.059 10.9323C413.059 9.93181 413.863 9.12012 414.85 9.12012C415.837 9.12281 416.64 9.93181 416.64 10.9323Z" fill="#BEC2C9"/>
<path opacity="0.8858" d="M262.21 84.535C262.21 85.5328 261.407 86.3418 260.42 86.3418C259.43 86.3418 258.629 85.5328 258.629 84.535C258.629 83.5373 259.43 82.7283 260.42 82.7283C261.407 82.7256 262.21 83.5373 262.21 84.535Z" fill="#BEC2C9"/>
<path opacity="0.5875" d="M318.366 84.535C318.366 85.5328 317.568 86.3418 316.575 86.3418C315.586 86.3418 314.785 85.5328 314.785 84.535C314.785 83.5373 315.586 82.7283 316.575 82.7283C317.565 82.7256 318.366 83.5373 318.366 84.535Z" fill="#BEC2C9"/>
<path opacity="0.9745" d="M402.601 100.89C402.601 101.888 401.8 102.697 400.811 102.697C399.821 102.697 399.02 101.888 399.02 100.89C399.02 99.8926 399.821 99.0836 400.811 99.0836C401.8 99.0836 402.601 99.8926 402.601 100.89Z" fill="#BEC2C9"/>
<path opacity="0.6677" d="M290.291 166.317C290.291 167.315 289.487 168.124 288.497 168.124C287.51 168.124 286.707 167.315 286.707 166.317C286.707 165.319 287.51 164.51 288.497 164.51C289.487 164.51 290.291 165.319 290.291 166.317Z" fill="#BEC2C9"/>
<path opacity="0.779" d="M290.291 100.89C290.291 101.888 289.487 102.697 288.497 102.697C287.51 102.697 286.707 101.888 286.707 100.89C286.707 99.8926 287.51 99.0836 288.497 99.0836C289.487 99.0836 290.291 99.8926 290.291 100.89Z" fill="#BEC2C9"/>
</svg>
