<svg width="120" height="140" viewBox="0 0 120 140" fill="none" xmlns="http://www.w3.org/2000/svg">
<path d="M1.59865 139.301C1.15626 139.632 0.529615 139.541 0.198989 139.099C-0.131636 138.656 -0.041036 138.03 0.40135 137.699L1.59865 139.301ZM119.5 2L112.191 10.939L108.104 0.139282L119.5 2ZM0.40135 137.699C1.45311 136.913 2.46711 136.113 3.44565 135.299L4.72452 136.837C3.71928 137.673 2.67808 138.494 1.59865 139.301L0.40135 137.699ZM9.08929 130.074C10.9114 128.196 12.5909 126.259 14.1509 124.27L15.7247 125.504C14.1233 127.546 12.3978 129.536 10.5247 131.466L9.08929 130.074ZM18.6051 117.978C19.9974 115.802 21.2865 113.575 22.4979 111.303L24.2627 112.244C23.0294 114.557 21.7139 116.83 20.2897 119.056L18.6051 117.978ZM25.9269 104.355C27.0022 102.013 28.0258 99.6348 29.0233 97.2253L30.8712 97.9904C29.8668 100.416 28.833 102.819 27.7444 105.189L25.9269 104.355ZM31.9301 89.9946C32.8757 87.5945 33.8236 85.1634 34.7907 82.7257L36.6498 83.4632C35.6833 85.8995 34.7405 88.3174 33.7908 90.7278L31.9301 89.9946ZM37.7429 75.4691C38.746 73.0829 39.7925 70.6885 40.9038 68.2927L42.7181 69.1343C41.6191 71.5036 40.5825 73.8753 39.5867 76.2441L37.7429 75.4691ZM44.3846 61.2394C45.5892 58.9516 46.8727 56.6682 48.2542 54.3949L49.9634 55.4336C48.605 57.6687 47.3416 59.9162 46.1543 62.1712L44.3846 61.2394ZM52.574 47.8051C54.0626 45.6998 55.653 43.6086 57.3608 41.5361L58.9043 42.8079C57.2289 44.8411 55.6683 46.8931 54.2071 48.9597L52.574 47.8051ZM62.5855 35.6565C64.3569 33.8062 66.2375 31.9755 68.2389 30.1676L69.5795 31.6517C67.6141 33.4271 65.7682 35.2241 64.0302 37.0396L62.5855 35.6565ZM74.2716 25.0865C76.2809 23.5072 78.3958 21.9492 80.6249 20.4146L81.759 22.0619C79.5641 23.573 77.4831 25.1061 75.5075 26.6589L74.2716 25.0865ZM87.2393 16.1396C89.4154 14.8185 91.6876 13.5178 94.0615 12.239L95.01 13.9998C92.6655 15.2627 90.4232 16.5464 88.2771 17.8492L87.2393 16.1396ZM101.049 8.6834C103.337 7.58337 105.711 6.50195 108.173 5.44028L108.965 7.27682C106.527 8.32799 104.179 9.39809 101.916 10.4859L101.049 8.6834Z" fill="#556F7D"/>
</svg>
