<svg width="146" height="109" viewBox="0 0 146 109" fill="none" xmlns="http://www.w3.org/2000/svg">
<path d="M0.810847 0.818813C0.268533 0.923279 -0.0864139 1.4476 0.0180523 1.98991C0.122518 2.53223 0.646838 2.88717 1.18915 2.78271L0.810847 0.818813ZM146 103L136.371 96.6269L135.666 108.152L146 103ZM1.18915 2.78271C2.48968 2.53219 3.75724 2.34393 4.99378 2.2149L4.78622 0.225699C3.49022 0.360931 2.16568 0.557831 0.810847 0.818813L1.18915 2.78271ZM12.5478 2.17279C15.1264 2.43077 17.5687 2.97273 19.8987 3.7659L20.5432 1.8726C18.0708 1.03095 15.4792 0.456072 12.7468 0.182726L12.5478 2.17279ZM26.7429 6.96611C28.8693 8.24154 30.9129 9.73829 32.8958 11.4272L34.1927 9.90464C32.1377 8.15438 30.005 6.5906 27.7716 5.25098L26.7429 6.96611ZM38.4212 16.7567C40.1185 18.5813 41.781 20.5358 43.4253 22.5976L44.989 21.3506C43.3195 19.2573 41.6238 17.2631 39.8856 15.3945L38.4212 16.7567ZM48.1019 28.7801C49.585 30.8305 51.0641 32.9494 52.5525 35.1196L54.2019 33.9884C52.7077 31.8098 51.2185 29.6763 49.7224 27.6079L48.1019 28.7801ZM56.9208 41.5614C58.3548 43.6885 59.8083 45.8458 61.2901 48.0146L62.9415 46.8864C61.4639 44.7237 60.014 42.5717 58.5791 40.4434L56.9208 41.5614ZM65.7434 54.4169C67.2428 56.5257 68.7796 58.6323 70.3632 60.7217L71.9571 59.5137C70.3881 57.4434 68.8634 55.3536 67.3733 53.2579L65.7434 54.4169ZM75.2157 66.8659C76.8713 68.8707 78.5816 70.8456 80.3559 72.7766L81.8286 71.4234C80.0807 69.5211 78.3935 67.573 76.7578 65.5923L75.2157 66.8659ZM85.8393 78.3856C87.7204 80.1879 89.6725 81.9343 91.7044 83.6117L92.9776 82.0694C90.9864 80.4255 89.071 78.7121 87.223 76.9415L85.8393 78.3856ZM97.9713 88.3697C100.103 89.8511 102.317 91.2549 104.623 92.569L105.613 90.8315C103.361 89.548 101.197 88.1761 99.1127 86.7274L97.9713 88.3697ZM111.626 96.1428C113.973 97.2057 116.406 98.1783 118.933 99.0504L119.586 97.1598C117.118 96.3081 114.742 95.3586 112.451 94.321L111.626 96.1428ZM126.476 101.276C128.959 101.889 131.525 102.41 134.179 102.832L134.493 100.857C131.894 100.444 129.383 99.9339 126.955 99.3341L126.476 101.276Z" fill="#556F7D"/>
</svg>
