<svg width="25" height="25" viewBox="0 0 25 25" fill="none" xmlns="http://www.w3.org/2000/svg">
<path d="M24.9985 25H18.6445V16.6142C18.6445 14.2567 18.3866 13.2045 16.8555 13.2045C15.2715 13.2045 14.6818 14.0933 14.6818 16.4828V25H8.33233V7.81342H14.4918V8.75446C14.6791 8.60266 14.8758 8.46283 15.0806 8.3358C16.0871 7.72565 17.2436 7.40831 18.4201 7.41939C19.5578 7.38355 20.6889 7.60416 21.7298 8.06491C22.5895 8.46882 23.3143 9.11281 23.817 9.91939C24.637 11.2209 25 12.9791 25 15.6321L24.9985 25ZM20.1354 23.5075H23.5077V15.6328C23.5077 11.4836 22.6564 8.91267 18.4209 8.91267C17.6323 8.87992 16.8494 9.06067 16.1548 9.43589C15.4602 9.81111 14.8795 10.3669 14.4739 11.0448L14.2644 11.4425H13.0009V9.30596H9.82317V23.5075H13.1955V16.4828C13.1372 15.4025 13.3443 14.3242 13.7985 13.3425C14.1002 12.8066 14.5487 12.3683 15.0912 12.0793C15.6337 11.7904 16.2474 11.6629 16.86 11.7119C17.4789 11.6681 18.0954 11.8263 18.617 12.1626C19.1387 12.4989 19.5375 12.9954 19.7537 13.5776C20.0628 14.5582 20.1924 15.5867 20.1361 16.6134L20.1354 23.5075ZM6.77364 25H0.414435V7.81342H6.77364V25ZM1.90528 23.5075H5.2828V9.30596H1.90528V23.5075ZM3.59143 7.16416C2.88374 7.16681 2.19115 6.95931 1.60127 6.56788C1.01138 6.17645 0.550683 5.61868 0.277445 4.96512C0.0042069 4.31156 -0.0693023 3.59155 0.0662141 2.89616C0.20173 2.20077 0.540185 1.56123 1.03878 1.05842C1.53737 0.555616 2.1737 0.212122 2.86729 0.0713845C3.56089 -0.069353 4.28059 -0.00101284 4.93539 0.267762C5.59019 0.536537 6.15066 0.993674 6.54594 1.58136C6.94122 2.16905 7.15354 2.86089 7.15605 3.56938C7.15823 4.51893 6.7842 5.43059 6.11598 6.10446C5.44776 6.77834 4.53989 7.15942 3.59143 7.16416ZM3.59143 1.49252C3.17753 1.48986 2.77218 1.61047 2.42691 1.83901C2.08164 2.06756 1.81204 2.39372 1.65238 2.77603C1.49273 3.15835 1.45022 3.57956 1.53027 3.98612C1.61031 4.39268 1.80929 4.76623 2.10192 5.0593C2.39455 5.35237 2.76761 5.55171 3.17368 5.63199C3.57975 5.71227 4.0005 5.66987 4.38244 5.51017C4.76438 5.35047 5.09027 5.08068 5.31868 4.7351C5.54709 4.38952 5.6677 3.98376 5.6652 3.56938C5.6648 3.01881 5.44622 2.4909 5.05742 2.10152C4.66862 1.71213 4.14138 1.49311 3.59143 1.49252Z" fill="white"/>
</svg>
