<svg width="48" height="46" viewBox="0 0 48 46" fill="none" xmlns="http://www.w3.org/2000/svg">
<path fill-rule="evenodd" clip-rule="evenodd" d="M3 5.39395C3 4.07956 4.07956 3 5.39395 3H42.7274C44.0417 3 45.1213 4.07956 45.1213 5.39395V11.182H3V5.39395ZM1 12.182V5.39395C1 2.97499 2.97499 1 5.39395 1H42.7274C45.1463 1 47.1213 2.97499 47.1213 5.39395V12.182V35.9395C47.1213 38.3584 45.1463 40.3334 42.7274 40.3334H34.1588C34.297 40.694 34.2168 41.1134 33.9319 41.3982C32.2702 43.0599 30.2573 44.1485 28.1107 44.8641C27.6222 45.0269 27.0898 44.7921 26.8807 44.3215C26.3498 43.1272 25.333 42.3699 23.8914 42.3699C22.4499 42.3699 21.433 43.1272 20.9022 44.3215C20.6931 44.7921 20.1607 45.0269 19.6722 44.8641C17.5255 44.1485 15.5126 43.0599 13.851 41.3982C13.5647 41.112 13.4866 40.6924 13.624 40.3334H5.39395C2.97499 40.3334 1 38.3584 1 35.9395V12.182ZM42.7274 38.3334H33.3482C33.3113 37.7531 33.4449 37.1613 33.7596 36.5949C34.3845 35.47 35.6611 34.935 36.8477 35.0668C37.3756 35.1255 37.8572 34.7612 37.9445 34.2373L37.9487 34.2125C38.1095 33.2473 38.2828 32.2078 38.2966 31.0028C38.657 29.7571 38.4411 28.403 38.2839 27.46C38.1973 26.9403 37.7223 26.577 37.198 26.6294C35.8485 26.7643 34.7305 26.2392 34.0989 25.1024C33.4359 23.909 33.6003 22.5007 34.3234 21.657C34.6635 21.2603 34.6408 20.6686 34.2713 20.2991C32.6096 18.6375 30.5967 17.5488 28.4501 16.8333C27.9615 16.6705 27.4292 16.9053 27.2201 17.3758C26.6892 18.5702 25.6724 19.3274 24.2308 19.3274C22.7893 19.3274 21.7724 18.5702 21.2416 17.3758C21.0325 16.9053 20.5001 16.6705 20.0116 16.8333C17.8649 17.5488 15.852 18.6375 14.1904 20.2991C13.8385 20.651 13.7989 21.2081 14.0975 21.6062C14.8912 22.6645 15.0099 23.9374 14.3627 25.1024C13.7377 26.2274 12.4612 26.7624 11.2746 26.6305C10.8582 26.5843 10.4571 26.8025 10.2697 27.1772C9.66784 28.381 9.48535 29.7376 9.48535 30.8487C9.48535 31.9567 9.66809 33.2157 9.83835 34.2373C9.92497 34.757 10.4 35.1204 10.9242 35.068C12.2737 34.933 13.3918 35.4582 14.0233 36.5949C14.3339 37.154 14.4629 37.7602 14.438 38.3334H5.39395C4.07956 38.3334 3 37.2538 3 35.9395V13.182H45.1213V35.9395C45.1213 37.2538 44.0417 38.3334 42.7274 38.3334ZM16.5758 39.3334C16.5758 39.7273 16.3481 40.0679 16.0172 40.231C15.9705 40.3359 15.92 40.439 15.8656 40.5402C16.9377 41.4603 18.1724 42.1575 19.5235 42.6847C20.445 41.2815 21.9567 40.3699 23.8914 40.3699C25.8262 40.3699 27.3379 41.2815 28.2594 42.6847C29.6194 42.1541 30.8614 41.4512 31.9383 40.5221C31.1446 39.0075 31.1178 37.2318 32.0112 35.6236C32.9024 34.0195 34.5162 33.1804 36.1084 33.0623C36.2171 32.3453 36.2975 31.6365 36.2975 30.8487C36.2975 30.7412 36.3148 30.6344 36.3488 30.5324C36.5288 29.9926 36.5206 29.3501 36.4361 28.6383C34.7606 28.5328 33.2472 27.6875 32.3506 26.0737C31.4842 24.5141 31.4667 22.6286 32.2566 21.1571C31.1846 20.237 29.9499 19.5398 28.5988 19.0127C27.6773 20.4159 26.1656 21.3274 24.2308 21.3274C22.2961 21.3274 20.7844 20.4159 19.8629 19.0127C18.5029 19.5433 17.2609 20.2462 16.1839 21.1753C16.9777 22.6899 17.0044 24.4656 16.111 26.0737C15.1837 27.743 13.4739 28.5838 11.8202 28.6459C11.5808 29.3486 11.4854 30.1271 11.4854 30.8487C11.4854 31.523 11.568 32.2967 11.6781 33.0585C13.3568 33.1618 14.8736 34.0072 15.7716 35.6236C16.3183 36.6077 16.527 37.7214 16.4082 38.7791C16.5141 38.9377 16.5758 39.1284 16.5758 39.3334ZM12.6898 8.27894C13.0292 8.61833 13.3685 8.78803 13.8776 8.78803C14.3867 8.78803 14.7261 8.61833 15.0655 8.27894C15.4049 7.93954 15.5746 7.60015 15.5746 7.09106C15.5746 6.92136 15.5746 6.58196 15.4049 6.41227C15.4049 6.24257 15.2352 6.07287 15.0655 5.90318C14.5564 5.39408 13.8776 5.22439 13.1988 5.56378C13.0292 5.56378 12.8595 5.73348 12.6898 5.90318C12.6049 5.98802 12.5625 6.07287 12.5201 6.15772C12.4776 6.24257 12.4352 6.32742 12.3504 6.41227C12.1807 6.58196 12.1807 6.92136 12.1807 7.09106C12.1807 7.60015 12.3504 7.93954 12.6898 8.27894ZM8.78779 8.78787C8.2787 8.78787 7.93931 8.61817 7.59991 8.27877C7.26052 7.93938 7.09082 7.59999 7.09082 7.09089C7.09082 6.5818 7.26052 6.24241 7.59991 5.90301L7.76961 5.73331C7.85446 5.73331 7.89688 5.69089 7.93931 5.64847C7.98173 5.60604 8.02416 5.56362 8.109 5.56362C8.2787 5.39392 8.2787 5.39392 8.4484 5.39392H9.12719C9.29688 5.39392 9.29689 5.39392 9.46658 5.56362C9.55143 5.56362 9.59386 5.60604 9.63628 5.64847C9.6787 5.69089 9.72113 5.73331 9.80598 5.73331L9.97567 5.90301C10.1454 6.07271 10.3151 6.24241 10.3151 6.4121C10.4848 6.5818 10.4848 6.9212 10.4848 7.09089C10.4848 7.26059 10.4848 7.59999 10.3151 7.76968C10.3151 7.93938 10.1454 8.10908 9.97567 8.27877C9.63628 8.61817 9.29689 8.78787 8.78779 8.78787ZM18.9675 8.78787C18.7978 8.78787 18.4584 8.78787 18.2887 8.61817C18.2038 8.53332 18.119 8.4909 18.0341 8.44847C17.9493 8.40605 17.8644 8.36362 17.7796 8.27877C17.6099 8.10908 17.4402 7.93938 17.4402 7.76968C17.2705 7.59998 17.2705 7.26059 17.2705 7.09089C17.2705 6.9212 17.2705 6.5818 17.4402 6.4121C17.5251 6.32726 17.5675 6.24241 17.6099 6.15756C17.6523 6.07271 17.6948 5.98786 17.7796 5.90301C18.4584 5.22422 19.4766 5.22422 20.1554 5.90301C20.3251 6.07271 20.4948 6.24241 20.4948 6.4121C20.6645 6.5818 20.6645 6.9212 20.6645 7.09089C20.6645 7.26059 20.6645 7.59998 20.4948 7.76968C20.4099 7.85453 20.3675 7.93938 20.3251 8.02423C20.2826 8.10908 20.2402 8.19393 20.1554 8.27877C19.816 8.61817 19.4766 8.78787 18.9675 8.78787ZM21.667 30.8485C21.667 29.5264 22.7388 28.4546 24.0609 28.4546C25.3831 28.4546 26.4549 29.5264 26.4549 30.8485C26.4549 32.1707 25.3831 33.2425 24.0609 33.2425C22.7388 33.2425 21.667 32.1707 21.667 30.8485ZM24.0609 26.4546C21.6342 26.4546 19.667 28.4218 19.667 30.8485C19.667 33.2752 21.6342 35.2425 24.0609 35.2425C26.4876 35.2425 28.4549 33.2752 28.4549 30.8485C28.4549 28.4218 26.4876 26.4546 24.0609 26.4546Z" fill="#1975A9"/>
<path d="M45.1213 11.182V11.682C45.3974 11.682 45.6213 11.4581 45.6213 11.182H45.1213ZM3 11.182H2.5C2.5 11.4581 2.72386 11.682 3 11.682V11.182ZM34.1588 40.3334V39.8334C33.9942 39.8334 33.8401 39.9144 33.7468 40.0501C33.6535 40.1857 33.633 40.3586 33.6919 40.5123L34.1588 40.3334ZM33.9319 41.3982L34.2854 41.7518L33.9319 41.3982ZM28.1107 44.8641L28.2688 45.3384L28.1107 44.8641ZM26.8807 44.3215L27.3376 44.1184L26.8807 44.3215ZM20.9022 44.3215L20.4453 44.1184L20.4453 44.1184L20.9022 44.3215ZM19.6722 44.8641L19.5141 45.3384L19.6722 44.8641ZM13.851 41.3982L14.2045 41.0447L13.851 41.3982ZM13.624 40.3334L14.091 40.5122C14.1498 40.3584 14.1293 40.1856 14.036 40.05C13.9427 39.9144 13.7886 39.8334 13.624 39.8334V40.3334ZM33.3482 38.3334L32.8493 38.3652C32.866 38.6284 33.0844 38.8334 33.3482 38.8334V38.3334ZM33.7596 36.5949L33.3225 36.3521L33.3225 36.3521L33.7596 36.5949ZM36.8477 35.0668L36.7925 35.5637H36.7925L36.8477 35.0668ZM37.9445 34.2373L38.4377 34.3195L38.4377 34.3195L37.9445 34.2373ZM37.9487 34.2125L37.4555 34.1303L37.4554 34.1304L37.9487 34.2125ZM38.2966 31.0028L37.8163 30.8638C37.8038 30.9071 37.7972 30.9519 37.7967 30.997L38.2966 31.0028ZM38.2839 27.46L37.7907 27.5422L38.2839 27.46ZM37.198 26.6294L37.2478 27.1269H37.2478L37.198 26.6294ZM34.0989 25.1024L33.6619 25.3452L33.6619 25.3452L34.0989 25.1024ZM34.3234 21.657L33.9438 21.3316V21.3316L34.3234 21.657ZM34.2713 20.2991L34.6248 19.9456V19.9456L34.2713 20.2991ZM28.4501 16.8333L28.6082 16.359V16.359L28.4501 16.8333ZM27.2201 17.3758L26.7632 17.1728L27.2201 17.3758ZM21.2416 17.3758L21.6985 17.1728L21.2416 17.3758ZM20.0116 16.8333L19.8535 16.359V16.359L20.0116 16.8333ZM14.0975 21.6062L14.4975 21.3062L14.4975 21.3062L14.0975 21.6062ZM14.3627 25.1024L14.7998 25.3452L14.3627 25.1024ZM11.2746 26.6305L11.3298 26.1336L11.2746 26.6305ZM10.2697 27.1772L9.8225 26.9536L9.8225 26.9536L10.2697 27.1772ZM9.83835 34.2373L10.3315 34.1551H10.3315L9.83835 34.2373ZM10.9242 35.068L10.974 35.5655L10.974 35.5655L10.9242 35.068ZM14.0233 36.5949L14.4604 36.3521L14.0233 36.5949ZM14.438 38.3334V38.8334C14.7057 38.8334 14.9259 38.6226 14.9375 38.3551L14.438 38.3334ZM3 13.182V12.682C2.72386 12.682 2.5 12.9058 2.5 13.182H3ZM45.1213 13.182H45.6213C45.6213 12.9058 45.3974 12.682 45.1213 12.682V13.182ZM16.0172 40.231L15.7962 39.7825C15.6913 39.8341 15.6079 39.9209 15.5603 40.0277L16.0172 40.231ZM15.8656 40.5402L15.4251 40.3038C15.3141 40.5106 15.3619 40.7668 15.54 40.9197L15.8656 40.5402ZM19.5235 42.6847L19.3417 43.1505C19.5617 43.2363 19.8118 43.1565 19.9414 42.9591L19.5235 42.6847ZM28.2594 42.6847L27.8415 42.9591C27.9711 43.1565 28.2212 43.2363 28.4412 43.1505L28.2594 42.6847ZM31.9383 40.5221L32.2649 40.9007C32.4409 40.7489 32.4891 40.4958 32.3812 40.29L31.9383 40.5221ZM32.0112 35.6236L32.4483 35.8665L32.0112 35.6236ZM36.1084 33.0623L36.1454 33.5609C36.378 33.5437 36.5678 33.3679 36.6028 33.1372L36.1084 33.0623ZM36.4361 28.6383L36.9326 28.5794C36.9041 28.3397 36.7084 28.1545 36.4675 28.1393L36.4361 28.6383ZM32.3506 26.0737L32.7877 25.8309L32.3506 26.0737ZM32.2566 21.1571L32.6972 21.3936C32.8082 21.1868 32.7604 20.9306 32.5823 20.7777L32.2566 21.1571ZM28.5988 19.0127L28.7806 18.5469C28.5606 18.461 28.3105 18.5408 28.1809 18.7382L28.5988 19.0127ZM19.8629 19.0127L20.2808 18.7382C20.1512 18.5408 19.9011 18.461 19.6811 18.5469L19.8629 19.0127ZM16.1839 21.1753L15.8573 20.7967C15.6814 20.9485 15.6332 21.2015 15.7411 21.4073L16.1839 21.1753ZM16.111 26.0737L15.674 25.8309V25.8309L16.111 26.0737ZM11.8202 28.6459L11.8014 28.1462C11.5944 28.154 11.4137 28.2886 11.3469 28.4846L11.8202 28.6459ZM11.6781 33.0585L11.1832 33.13C11.2171 33.3645 11.4109 33.543 11.6473 33.5576L11.6781 33.0585ZM15.7716 35.6236L16.2087 35.3808L15.7716 35.6236ZM16.4082 38.7791L15.9113 38.7233C15.8982 38.8404 15.9269 38.9585 15.9923 39.0566L16.4082 38.7791ZM15.4049 6.41227H14.9049C14.9049 6.54488 14.9576 6.67205 15.0514 6.76582L15.4049 6.41227ZM15.0655 5.90318L14.712 6.25673L14.712 6.25673L15.0655 5.90318ZM13.1988 5.56378V6.06378C13.2765 6.06378 13.353 6.04571 13.4225 6.01099L13.1988 5.56378ZM12.6898 5.90318L13.0433 6.25673V6.25673L12.6898 5.90318ZM12.3504 6.41227L11.9968 6.05871L11.9968 6.05871L12.3504 6.41227ZM7.59991 5.90301L7.95347 6.25657L7.95347 6.25657L7.59991 5.90301ZM7.76961 5.73331V5.23331C7.637 5.23331 7.50982 5.28599 7.41605 5.37976L7.76961 5.73331ZM8.109 5.56362V6.06362C8.24161 6.06362 8.36879 6.01094 8.46256 5.91717L8.109 5.56362ZM9.46658 5.56362L9.11303 5.91717C9.2068 6.01094 9.33397 6.06362 9.46658 6.06362V5.56362ZM9.80598 5.73331L10.1595 5.37976C10.0658 5.28599 9.93859 5.23331 9.80598 5.23331V5.73331ZM9.97567 5.90301L9.62212 6.25657L9.62212 6.25657L9.97567 5.90301ZM10.3151 6.4121H9.81507C9.81507 6.54471 9.86775 6.67189 9.96152 6.76566L10.3151 6.4121ZM10.3151 7.76968L9.96152 7.41613C9.86775 7.5099 9.81507 7.63707 9.81507 7.76968H10.3151ZM9.97567 8.27877L9.62212 7.92522L9.62212 7.92522L9.97567 8.27877ZM18.2887 8.61817L17.9351 8.97172V8.97172L18.2887 8.61817ZM18.0341 8.44847L17.8105 8.89568L17.8105 8.89569L18.0341 8.44847ZM17.7796 8.27877L17.426 8.63233V8.63233L17.7796 8.27877ZM17.4402 7.76968H17.9402C17.9402 7.63707 17.8875 7.5099 17.7938 7.41613L17.4402 7.76968ZM17.4402 6.4121L17.7938 6.76566L17.7938 6.76566L17.4402 6.4121ZM17.7796 5.90301L17.426 5.54946V5.54946L17.7796 5.90301ZM20.1554 5.90301L20.5089 5.54946V5.54946L20.1554 5.90301ZM20.4948 6.4121H19.9948C19.9948 6.54471 20.0474 6.67189 20.1412 6.76566L20.4948 6.4121ZM20.4948 7.76968L20.8483 8.12324L20.8483 8.12323L20.4948 7.76968ZM20.3251 8.02423L19.8778 7.80062L19.8778 7.80063L20.3251 8.02423ZM20.1554 8.27877L19.8018 7.92522V7.92522L20.1554 8.27877ZM5.39395 2.5C3.80342 2.5 2.5 3.80342 2.5 5.39395H3.5C3.5 4.3557 4.3557 3.5 5.39395 3.5V2.5ZM42.7274 2.5H5.39395V3.5H42.7274V2.5ZM45.6213 5.39395C45.6213 3.80342 44.3179 2.5 42.7274 2.5V3.5C43.7656 3.5 44.6213 4.3557 44.6213 5.39395H45.6213ZM45.6213 11.182V5.39395H44.6213V11.182H45.6213ZM3 11.682H45.1213V10.682H3V11.682ZM2.5 5.39395V11.182H3.5V5.39395H2.5ZM0.5 5.39395V12.182H1.5V5.39395H0.5ZM5.39395 0.5C2.69885 0.5 0.5 2.69885 0.5 5.39395H1.5C1.5 3.25113 3.25113 1.5 5.39395 1.5V0.5ZM42.7274 0.5H5.39395V1.5H42.7274V0.5ZM47.6213 5.39395C47.6213 2.69885 45.4224 0.5 42.7274 0.5V1.5C44.8702 1.5 46.6213 3.25113 46.6213 5.39395H47.6213ZM47.6213 12.182V5.39395H46.6213V12.182H47.6213ZM47.6213 35.9395V12.182H46.6213V35.9395H47.6213ZM42.7274 40.8334C45.4224 40.8334 47.6213 38.6346 47.6213 35.9395H46.6213C46.6213 38.0823 44.8702 39.8334 42.7274 39.8334V40.8334ZM34.1588 40.8334H42.7274V39.8334H34.1588V40.8334ZM34.2854 41.7518C34.7131 41.3242 34.8329 40.6952 34.6257 40.1545L33.6919 40.5123C33.7611 40.6929 33.7205 40.9026 33.5783 41.0447L34.2854 41.7518ZM28.2688 45.3384C30.4706 44.6045 32.5566 43.4806 34.2854 41.7518L33.5783 41.0447C31.9839 42.6391 30.0441 43.6925 27.9526 44.3897L28.2688 45.3384ZM26.4238 44.5246C26.7375 45.2305 27.536 45.5827 28.2688 45.3384L27.9526 44.3897C27.7083 44.4711 27.4421 44.3537 27.3376 44.1184L26.4238 44.5246ZM23.8914 42.8699C25.121 42.8699 25.9672 43.4973 26.4238 44.5246L27.3376 44.1184C26.7325 42.757 25.5449 41.8699 23.8914 41.8699V42.8699ZM21.3591 44.5246C21.8157 43.4973 22.6618 42.8699 23.8914 42.8699V41.8699C22.238 41.8699 21.0504 42.757 20.4453 44.1184L21.3591 44.5246ZM19.5141 45.3384C20.2469 45.5827 21.0454 45.2305 21.3591 44.5246L20.4453 44.1184C20.3407 44.3537 20.0746 44.4711 19.8303 44.3897L19.5141 45.3384ZM13.4974 41.7518C15.2263 43.4806 17.3123 44.6045 19.5141 45.3384L19.8303 44.3897C17.7388 43.6925 15.799 42.6391 14.2045 41.0447L13.4974 41.7518ZM13.1571 40.1546C12.9512 40.6925 13.0676 41.322 13.4974 41.7518L14.2045 41.0447C14.0618 40.902 14.022 40.6923 14.091 40.5122L13.1571 40.1546ZM5.39395 40.8334H13.624V39.8334H5.39395V40.8334ZM0.5 35.9395C0.5 38.6346 2.69885 40.8334 5.39395 40.8334V39.8334C3.25113 39.8334 1.5 38.0823 1.5 35.9395H0.5ZM0.5 12.182V35.9395H1.5V12.182H0.5ZM33.3482 38.8334H42.7274V37.8334H33.3482V38.8334ZM33.3225 36.3521C32.9641 36.9973 32.8059 37.6839 32.8493 38.3652L33.8472 38.3016C33.8167 37.8224 33.9258 37.3253 34.1966 36.8378L33.3225 36.3521ZM36.9029 34.5699C35.5445 34.4189 34.0586 35.0271 33.3225 36.3521L34.1966 36.8378C34.7105 35.9128 35.7776 35.451 36.7925 35.5637L36.9029 34.5699ZM37.4513 34.1551C37.4077 34.4171 37.1669 34.5992 36.9029 34.5699L36.7925 35.5637C37.5843 35.6517 38.3067 35.1054 38.4377 34.3195L37.4513 34.1551ZM37.4554 34.1304L37.4513 34.1552L38.4377 34.3195L38.4419 34.2947L37.4554 34.1304ZM37.7967 30.997C37.7833 32.1588 37.6167 33.1633 37.4555 34.1303L38.4418 34.2947C38.6024 33.3314 38.7823 32.2567 38.7966 31.0085L37.7967 30.997ZM37.7907 27.5422C37.9501 28.4984 38.1406 29.7429 37.8163 30.8638L38.7769 31.1417C39.1733 29.7714 38.9321 28.3077 38.7771 27.3778L37.7907 27.5422ZM37.2478 27.1269C37.5099 27.1007 37.7474 27.2824 37.7907 27.5422L38.7771 27.3778C38.6472 26.5983 37.9347 26.0532 37.1483 26.1319L37.2478 27.1269ZM33.6619 25.3452C34.4013 26.6763 35.7233 27.2794 37.2478 27.1269L37.1483 26.1319C35.9737 26.2493 35.0596 25.802 34.536 24.8596L33.6619 25.3452ZM33.9438 21.3316C33.0737 22.3467 32.9057 23.9841 33.6619 25.3452L34.536 24.8596C33.9662 23.834 34.1268 22.6547 34.7031 21.9824L33.9438 21.3316ZM33.9177 20.6527C34.1025 20.8374 34.1138 21.1333 33.9438 21.3316L34.7031 21.9824C35.2132 21.3873 35.1791 20.4998 34.6248 19.9456L33.9177 20.6527ZM28.292 17.3076C30.3835 18.0048 32.3233 19.0582 33.9177 20.6527L34.6248 19.9456C32.896 18.2167 30.81 17.0929 28.6082 16.359L28.292 17.3076ZM27.677 17.5789C27.7815 17.3436 28.0477 17.2262 28.292 17.3076L28.6082 16.359C27.8754 16.1147 27.0769 16.4669 26.7632 17.1728L27.677 17.5789ZM24.2308 19.8274C25.8843 19.8274 27.0719 18.9404 27.677 17.5789L26.7632 17.1728C26.3066 18.2 25.4604 18.8274 24.2308 18.8274V19.8274ZM20.7847 17.5789C21.3898 18.9404 22.5774 19.8274 24.2308 19.8274V18.8274C23.0012 18.8274 22.1551 18.2 21.6985 17.1728L20.7847 17.5789ZM20.1697 17.3076C20.414 17.2262 20.6801 17.3436 20.7847 17.5789L21.6985 17.1728C21.3848 16.4669 20.5863 16.1147 19.8535 16.359L20.1697 17.3076ZM14.5439 20.6527C16.1384 19.0582 18.0782 18.0048 20.1697 17.3076L19.8535 16.359C17.6517 17.0929 15.5657 18.2167 13.8368 19.9456L14.5439 20.6527ZM14.4975 21.3062C14.3482 21.1072 14.368 20.8286 14.5439 20.6527L13.8368 19.9456C13.309 20.4734 13.2496 21.3091 13.6975 21.9062L14.4975 21.3062ZM14.7998 25.3452C15.5474 23.9995 15.4037 22.5145 14.4975 21.3062L13.6975 21.9062C14.3787 22.8145 14.4724 23.8754 13.9256 24.8596L14.7998 25.3452ZM11.2194 27.1275C12.5777 27.2784 14.0637 26.6702 14.7998 25.3452L13.9256 24.8596C13.4118 25.7846 12.3446 26.2464 11.3298 26.1336L11.2194 27.1275ZM10.7169 27.4008C10.8106 27.2135 11.0112 27.1044 11.2194 27.1275L11.3298 26.1336C10.7052 26.0642 10.1035 26.3915 9.8225 26.9536L10.7169 27.4008ZM9.98535 30.8487C9.98535 29.784 10.1614 28.5118 10.7169 27.4008L9.8225 26.9536C9.17423 28.2501 8.98535 29.6912 8.98535 30.8487H9.98535ZM10.3315 34.1551C10.1616 33.1353 9.98535 31.9118 9.98535 30.8487H8.98535C8.98535 32.0016 9.17459 33.2961 9.34516 34.3195L10.3315 34.1551ZM10.8745 34.5704C10.6124 34.5967 10.3749 34.415 10.3315 34.1551L9.34515 34.3195C9.47508 35.0991 10.1876 35.6441 10.974 35.5655L10.8745 34.5704ZM14.4604 36.3521C13.7209 35.021 12.3989 34.418 10.8745 34.5704L10.974 35.5655C12.1486 35.448 13.0627 35.8953 13.5862 36.8378L14.4604 36.3521ZM14.9375 38.3551C14.9664 37.6924 14.8172 36.9943 14.4604 36.3521L13.5862 36.8378C13.8507 37.3137 13.9595 37.828 13.9385 38.3117L14.9375 38.3551ZM5.39395 38.8334H14.438V37.8334H5.39395V38.8334ZM2.5 35.9395C2.5 37.53 3.80342 38.8334 5.39395 38.8334V37.8334C4.3557 37.8334 3.5 36.9777 3.5 35.9395H2.5ZM2.5 13.182V35.9395H3.5V13.182H2.5ZM45.1213 12.682H3V13.682H45.1213V12.682ZM45.6213 35.9395V13.182H44.6213V35.9395H45.6213ZM42.7274 38.8334C44.3179 38.8334 45.6213 37.53 45.6213 35.9395H44.6213C44.6213 36.9777 43.7656 37.8334 42.7274 37.8334V38.8334ZM16.2381 40.6795C16.7333 40.4355 17.0758 39.9249 17.0758 39.3334H16.0758C16.0758 39.5296 15.9629 39.7003 15.7962 39.7825L16.2381 40.6795ZM16.3062 40.7767C16.3664 40.6645 16.4223 40.5503 16.474 40.4343L15.5603 40.0277C15.5186 40.1214 15.4735 40.2135 15.4251 40.3038L16.3062 40.7767ZM19.7052 42.2189C18.3971 41.7085 17.2135 41.0381 16.1913 40.1608L15.54 40.9197C16.6619 41.8825 17.9476 42.6065 19.3417 43.1505L19.7052 42.2189ZM23.8914 39.8699C21.783 39.8699 20.1165 40.8707 19.1055 42.4102L19.9414 42.9591C20.7734 41.6922 22.1304 40.8699 23.8914 40.8699V39.8699ZM28.6773 42.4102C27.6663 40.8707 25.9998 39.8699 23.8914 39.8699V40.8699C25.6525 40.8699 27.0095 41.6922 27.8415 42.9591L28.6773 42.4102ZM31.6117 40.1435C30.5849 41.0293 29.3943 41.7052 28.0777 42.2189L28.4412 43.1505C29.8444 42.603 31.1378 41.873 32.2649 40.9007L31.6117 40.1435ZM31.5742 35.3808C30.597 37.1396 30.6254 39.094 31.4955 40.7542L32.3812 40.29C31.6638 38.921 31.6387 37.3239 32.4483 35.8665L31.5742 35.3808ZM36.0714 32.5637C34.336 32.6924 32.5585 33.609 31.5742 35.3808L32.4483 35.8665C33.2464 34.43 34.6963 33.6684 36.1454 33.5609L36.0714 32.5637ZM35.7975 30.8487C35.7975 31.6014 35.7208 32.2829 35.6141 32.9874L36.6028 33.1372C36.7133 32.4077 36.7975 31.6715 36.7975 30.8487H35.7975ZM35.8745 30.3743C35.8235 30.5273 35.7975 30.6875 35.7975 30.8487H36.7975C36.7975 30.7949 36.8062 30.7415 36.8232 30.6906L35.8745 30.3743ZM35.9396 28.6973C36.022 29.3914 36.0183 29.9428 35.8745 30.3743L36.8232 30.6906C37.0393 30.0423 37.0192 29.3088 36.9326 28.5794L35.9396 28.6973ZM31.9136 26.3165C32.8988 28.0899 34.5716 29.0219 36.4046 29.1374L36.4675 28.1393C34.9495 28.0437 33.5956 27.2851 32.7877 25.8309L31.9136 26.3165ZM31.8161 20.9206C30.9424 22.5482 30.9678 24.6142 31.9136 26.3165L32.7877 25.8309C32.0005 24.4139 31.991 22.7091 32.6972 21.3936L31.8161 20.9206ZM28.4171 19.4785C29.7251 19.9888 30.9088 20.6592 31.931 21.5365L32.5823 20.7777C31.4603 19.8148 30.1746 19.0908 28.7806 18.5469L28.4171 19.4785ZM24.2308 21.8274C26.3392 21.8274 28.0057 20.8266 29.0167 19.2871L28.1809 18.7382C27.3489 20.0051 25.9919 20.8274 24.2308 20.8274V21.8274ZM19.4449 19.2871C20.4559 20.8266 22.1224 21.8274 24.2308 21.8274V20.8274C22.4698 20.8274 21.1128 20.0051 20.2808 18.7382L19.4449 19.2871ZM16.5105 21.5539C17.5374 20.668 18.7279 19.9922 20.0446 19.4785L19.6811 18.5469C18.2779 19.0944 16.9844 19.8243 15.8573 20.7967L16.5105 21.5539ZM16.5481 26.3165C17.5252 24.5577 17.4969 22.6034 16.6268 20.9432L15.7411 21.4073C16.4585 22.7763 16.4836 24.3735 15.674 25.8309L16.5481 26.3165ZM11.8389 29.1455C13.6411 29.0778 15.5238 28.1604 16.5481 26.3165L15.674 25.8309C14.8436 27.3255 13.3068 28.0897 11.8014 28.1462L11.8389 29.1455ZM11.9854 30.8487C11.9854 30.167 12.076 29.4454 12.2935 28.8071L11.3469 28.4846C11.0855 29.2518 10.9854 30.0873 10.9854 30.8487H11.9854ZM12.1729 32.987C12.0641 32.2335 11.9854 31.4874 11.9854 30.8487H10.9854C10.9854 31.5585 11.0719 32.3598 11.1832 33.13L12.1729 32.987ZM16.2087 35.3808C15.2219 33.6045 13.5452 32.6725 11.7088 32.5595L11.6473 33.5576C13.1684 33.6512 14.5254 34.4099 15.3346 35.8665L16.2087 35.3808ZM16.9051 38.8349C17.0354 37.6754 16.8066 36.4571 16.2087 35.3808L15.3346 35.8665C15.83 36.7583 16.0187 37.7675 15.9113 38.7233L16.9051 38.8349ZM17.0758 39.3334C17.0758 39.0266 16.9831 38.7398 16.8241 38.5016L15.9923 39.0566C16.045 39.1356 16.0758 39.2302 16.0758 39.3334H17.0758ZM13.8776 8.28803C13.6814 8.28803 13.5403 8.25592 13.4231 8.20385C13.3038 8.15082 13.1835 8.06556 13.0433 7.92538L12.3362 8.63249C12.5354 8.8317 12.7545 9.001 13.017 9.11766C13.2817 9.23529 13.5647 9.28803 13.8776 9.28803V8.28803ZM14.712 7.92538C14.5718 8.06556 14.4515 8.15082 14.3321 8.20385C14.215 8.25592 14.0738 8.28803 13.8776 8.28803V9.28803C14.1905 9.28803 14.4736 9.23529 14.7383 9.11766C15.0008 9.001 15.2199 8.8317 15.4191 8.63249L14.712 7.92538ZM15.0746 7.09106C15.0746 7.28726 15.0425 7.42841 14.9904 7.54556C14.9374 7.66489 14.8521 7.7852 14.712 7.92538L15.4191 8.63249C15.6183 8.43328 15.7876 8.21419 15.9042 7.9517C16.0219 7.68704 16.0746 7.40394 16.0746 7.09106H15.0746ZM15.0514 6.76582C15.0352 6.74962 15.0344 6.7411 15.0402 6.75537C15.0461 6.7696 15.0537 6.79501 15.0602 6.83386C15.0737 6.91496 15.0746 7.00332 15.0746 7.09106H16.0746C16.0746 7.00909 16.0755 6.84291 16.0466 6.66946C16.0196 6.50751 15.9542 6.2544 15.7585 6.05871L15.0514 6.76582ZM14.712 6.25673C14.7555 6.30024 14.7921 6.3369 14.8254 6.37242C14.8585 6.40775 14.8822 6.43546 14.8989 6.45772C14.916 6.48054 14.9193 6.4892 14.9177 6.4854C14.9155 6.48047 14.9049 6.45424 14.9049 6.41227H15.9049C15.9049 6.16427 15.784 5.97129 15.6989 5.85772C15.6097 5.73889 15.4974 5.62793 15.4191 5.54962L14.712 6.25673ZM13.4225 6.01099C13.8826 5.78092 14.3333 5.87806 14.712 6.25673L15.4191 5.54962C14.7796 4.9101 13.8727 4.66785 12.9752 5.11657L13.4225 6.01099ZM13.0433 6.25673C13.0868 6.21322 13.1235 6.17662 13.159 6.14332C13.1943 6.1102 13.222 6.08654 13.2443 6.06984C13.2671 6.05273 13.2758 6.04937 13.272 6.05103C13.2671 6.05318 13.2408 6.06378 13.1988 6.06378V5.06378C12.9509 5.06378 12.7579 5.18466 12.6443 5.26984C12.5255 5.35896 12.4145 5.47131 12.3362 5.54962L13.0433 6.25673ZM12.9673 6.38133C13.0096 6.29667 13.0215 6.27851 13.0433 6.25673L12.3362 5.54962C12.1883 5.69754 12.1154 5.84908 12.0728 5.93412L12.9673 6.38133ZM12.7039 6.76582C12.8518 6.6179 12.9248 6.46636 12.9673 6.38133L12.0728 5.93412C12.0305 6.01878 12.0186 6.03693 11.9968 6.05871L12.7039 6.76582ZM12.6807 7.09106C12.6807 7.00332 12.6816 6.91496 12.6951 6.83386C12.7015 6.79501 12.7092 6.7696 12.715 6.75537C12.7209 6.7411 12.7201 6.74962 12.7039 6.76582L11.9968 6.05871C11.8011 6.2544 11.7357 6.50751 11.7087 6.66946C11.6798 6.84291 11.6807 7.00909 11.6807 7.09106H12.6807ZM13.0433 7.92538C12.9031 7.7852 12.8179 7.66489 12.7648 7.54556C12.7128 7.42841 12.6807 7.28726 12.6807 7.09106H11.6807C11.6807 7.40394 11.7334 7.68704 11.851 7.9517C11.9677 8.21419 12.137 8.43328 12.3362 8.63249L13.0433 7.92538ZM7.24636 8.63233C7.44557 8.83154 7.66466 9.00084 7.92715 9.1175C8.19181 9.23513 8.4749 9.28787 8.78779 9.28787V8.28787C8.59159 8.28787 8.45044 8.25576 8.33329 8.20369C8.21396 8.15065 8.09365 8.0654 7.95347 7.92522L7.24636 8.63233ZM6.59082 7.09089C6.59082 7.40378 6.64356 7.68688 6.76119 7.95154C6.87785 8.21403 7.04714 8.43311 7.24636 8.63233L7.95347 7.92522C7.81329 7.78504 7.72803 7.66473 7.675 7.5454C7.62293 7.42825 7.59082 7.2871 7.59082 7.09089H6.59082ZM7.24636 5.54946C7.04715 5.74867 6.87785 5.96776 6.76119 6.23025C6.64356 6.49491 6.59082 6.77801 6.59082 7.09089H7.59082C7.59082 6.89469 7.62293 6.75354 7.675 6.63639C7.72803 6.51706 7.81329 6.39675 7.95347 6.25657L7.24636 5.54946ZM7.41605 5.37976L7.24636 5.54946L7.95347 6.25657L8.12316 6.08687L7.41605 5.37976ZM7.58576 5.29491C7.57332 5.30735 7.57363 5.3068 7.57602 5.3047C7.58002 5.30117 7.59285 5.29021 7.61312 5.27805C7.63443 5.26527 7.66075 5.25305 7.69114 5.24454C7.72134 5.23608 7.74835 5.23331 7.76961 5.23331V6.23331C8.0743 6.23331 8.24518 6.0497 8.29286 6.00202L7.58576 5.29491ZM8.109 5.06362C7.80431 5.06362 7.63343 5.24724 7.58576 5.29491L8.29286 6.00202C8.30529 5.98959 8.30498 5.99013 8.3026 5.99223C8.2986 5.99576 8.28576 6.00672 8.26549 6.01888C8.24419 6.03166 8.21786 6.04388 8.18747 6.05239C8.15727 6.06085 8.13026 6.06362 8.109 6.06362V5.06362ZM8.4484 4.89392C8.40149 4.89392 8.22505 4.88294 8.0551 4.96792C7.97501 5.00796 7.91493 5.05818 7.87528 5.09386C7.8367 5.12859 7.79409 5.17143 7.75545 5.21006L8.46256 5.91717C8.48429 5.89544 8.50091 5.87882 8.51531 5.86471C8.52973 5.85058 8.53859 5.84225 8.54424 5.83716C8.54991 5.83206 8.54865 5.8336 8.54242 5.83818C8.53553 5.84324 8.52188 5.85256 8.50231 5.86235C8.49256 5.86722 8.4821 5.87183 8.47104 5.876C8.45999 5.88017 8.44927 5.88354 8.43913 5.88622C8.4189 5.89158 8.40374 5.89346 8.39739 5.89409C8.39428 5.8944 8.3929 5.89445 8.39385 5.8944C8.39484 5.89435 8.39735 5.89425 8.40205 5.89415C8.40677 5.89406 8.41274 5.89399 8.4207 5.89396C8.42875 5.89392 8.43754 5.89392 8.4484 5.89392V4.89392ZM9.12719 4.89392H8.4484V5.89392H9.12719V4.89392ZM9.82014 5.21007C9.7815 5.17143 9.73889 5.12859 9.70031 5.09386C9.66066 5.05818 9.60058 5.00796 9.52049 4.96792C9.35054 4.88294 9.1741 4.89392 9.12719 4.89392V5.89392C9.13805 5.89392 9.14684 5.89392 9.15489 5.89396C9.16285 5.89399 9.16881 5.89406 9.17353 5.89415C9.17824 5.89425 9.18075 5.89435 9.18173 5.8944C9.18269 5.89445 9.1813 5.8944 9.17819 5.89409C9.17185 5.89346 9.15669 5.89158 9.13646 5.88622C9.12632 5.88354 9.1156 5.88017 9.10454 5.876C9.09348 5.87183 9.08302 5.86722 9.07328 5.86235C9.0537 5.85256 9.04005 5.84324 9.03317 5.83818C9.02694 5.8336 9.02568 5.83206 9.03134 5.83716C9.037 5.84225 9.04585 5.85058 9.06027 5.86471C9.07467 5.87882 9.0913 5.89544 9.11303 5.91717L9.82014 5.21007ZM9.98983 5.29491C9.94215 5.24723 9.77127 5.06362 9.46658 5.06362V6.06362C9.44532 6.06362 9.41831 6.06085 9.38811 6.05239C9.35773 6.04388 9.3314 6.03166 9.31009 6.01888C9.28983 6.00672 9.27699 5.99576 9.27299 5.99223C9.27061 5.99013 9.27029 5.98959 9.28273 6.00202L9.98983 5.29491ZM9.80598 5.23331C9.82724 5.23331 9.85425 5.23608 9.88445 5.24454C9.91483 5.25305 9.94116 5.26527 9.96247 5.27805C9.98274 5.29021 9.99557 5.30117 9.99957 5.3047C10.002 5.3068 10.0023 5.30735 9.98983 5.29491L9.28273 6.00202C9.3304 6.0497 9.50129 6.23331 9.80598 6.23331V5.23331ZM10.3292 5.54946L10.1595 5.37976L9.45242 6.08687L9.62212 6.25657L10.3292 5.54946ZM10.8151 6.4121C10.8151 6.16411 10.6942 5.97113 10.609 5.85756C10.5199 5.73873 10.4075 5.62777 10.3292 5.54946L9.62212 6.25657C9.66563 6.30008 9.70223 6.33674 9.73553 6.37226C9.76865 6.40758 9.79231 6.43529 9.80901 6.45756C9.82612 6.48038 9.82948 6.48904 9.82782 6.48524C9.82567 6.48031 9.81507 6.45408 9.81507 6.4121H10.8151ZM10.9848 7.09089C10.9848 7.00893 10.9857 6.84275 10.9568 6.6693C10.9298 6.50734 10.8643 6.25424 10.6686 6.05855L9.96152 6.76566C9.94531 6.74946 9.94456 6.74094 9.9504 6.75521C9.95622 6.76944 9.96388 6.79484 9.97036 6.8337C9.98387 6.9148 9.98477 7.00316 9.98477 7.09089H10.9848ZM10.6686 8.12324C10.8643 7.92754 10.9298 7.67444 10.9568 7.51249C10.9857 7.33904 10.9848 7.17286 10.9848 7.09089H9.98477C9.98477 7.17863 9.98387 7.26699 9.97036 7.34809C9.96388 7.38694 9.95622 7.41235 9.9504 7.42658C9.94456 7.44085 9.94531 7.43233 9.96152 7.41613L10.6686 8.12324ZM10.3292 8.63233C10.4075 8.55402 10.5199 8.44306 10.609 8.32423C10.6942 8.21066 10.8151 8.01768 10.8151 7.76968H9.81507C9.81507 7.72771 9.82567 7.70147 9.82782 7.69655C9.82948 7.69275 9.82612 7.70141 9.80901 7.72423C9.79231 7.74649 9.76865 7.7742 9.73553 7.80953C9.70223 7.84505 9.66563 7.88171 9.62212 7.92522L10.3292 8.63233ZM8.78779 9.28787C9.10068 9.28787 9.38378 9.23513 9.64844 9.1175C9.91093 9.00084 10.13 8.83154 10.3292 8.63233L9.62212 7.92522C9.48194 8.0654 9.36163 8.15065 9.2423 8.20369C9.12515 8.25576 8.984 8.28787 8.78779 8.28787V9.28787ZM17.9351 8.97172C18.1308 9.16741 18.3839 9.23286 18.5459 9.25985C18.7193 9.28876 18.8855 9.28787 18.9675 9.28787V8.28787C18.8797 8.28787 18.7914 8.28697 18.7103 8.27346C18.6714 8.26698 18.646 8.25932 18.6318 8.2535C18.6175 8.24766 18.626 8.24841 18.6422 8.26462L17.9351 8.97172ZM17.8105 8.89569C17.8952 8.93802 17.9134 8.94994 17.9351 8.97172L18.6422 8.26462C18.4943 8.1167 18.3428 8.04377 18.2577 8.00126L17.8105 8.89569ZM17.426 8.63233C17.574 8.78024 17.7255 8.85317 17.8105 8.89568L18.2578 8.00126C18.1731 7.95893 18.1549 7.947 18.1332 7.92522L17.426 8.63233ZM16.9402 7.76968C16.9402 8.01768 17.0611 8.21065 17.1463 8.32423C17.2354 8.44306 17.3477 8.55401 17.426 8.63233L18.1332 7.92522C18.0896 7.88171 18.053 7.84505 18.0197 7.80953C17.9866 7.7742 17.963 7.74649 17.9463 7.72423C17.9292 7.70141 17.9258 7.69275 17.9275 7.69655C17.9296 7.70147 17.9402 7.72771 17.9402 7.76968H16.9402ZM16.7705 7.09089C16.7705 7.17286 16.7696 7.33904 16.7985 7.51249C16.8255 7.67444 16.891 7.92755 17.0867 8.12324L17.7938 7.41613C17.81 7.43233 17.8107 7.44084 17.8049 7.42658C17.7991 7.41235 17.7914 7.38694 17.7849 7.34809C17.7714 7.26699 17.7705 7.17863 17.7705 7.09089H16.7705ZM17.0867 6.05855C16.891 6.25424 16.8255 6.50734 16.7985 6.6693C16.7696 6.84274 16.7705 7.00893 16.7705 7.09089H17.7705C17.7705 7.00316 17.7714 6.9148 17.7849 6.8337C17.7914 6.79485 17.7991 6.76944 17.8049 6.75521C17.8107 6.74094 17.81 6.74946 17.7938 6.76566L17.0867 6.05855ZM17.1627 5.93395C17.1204 6.01862 17.1084 6.03677 17.0867 6.05855L17.7938 6.76566C17.9417 6.61774 18.0146 6.4662 18.0571 6.38117L17.1627 5.93395ZM17.426 5.54946C17.2781 5.69738 17.2052 5.84892 17.1627 5.93395L18.0571 6.38117C18.0994 6.2965 18.1114 6.27835 18.1332 6.25657L17.426 5.54946ZM20.5089 5.54946C19.6349 4.67541 18.3001 4.67541 17.426 5.54946L18.1332 6.25657C18.6167 5.77304 19.3183 5.77304 19.8018 6.25657L20.5089 5.54946ZM20.9948 6.4121C20.9948 6.1641 20.8739 5.97113 20.7887 5.85756C20.6996 5.73873 20.5872 5.62777 20.5089 5.54946L19.8018 6.25657C19.8453 6.30007 19.8819 6.33674 19.9152 6.37226C19.9483 6.40758 19.972 6.43529 19.9887 6.45756C20.0058 6.48038 20.0092 6.48904 20.0075 6.48524C20.0054 6.48031 19.9948 6.45408 19.9948 6.4121H20.9948ZM21.1645 7.09089C21.1645 7.00893 21.1653 6.84275 21.1364 6.6693C21.1094 6.50734 21.044 6.25424 20.8483 6.05855L20.1412 6.76566C20.125 6.74946 20.1243 6.74094 20.1301 6.75521C20.1359 6.76943 20.1436 6.79484 20.15 6.8337C20.1636 6.9148 20.1645 7.00316 20.1645 7.09089H21.1645ZM20.8483 8.12323C21.044 7.92754 21.1094 7.67444 21.1364 7.51249C21.1653 7.33904 21.1645 7.17286 21.1645 7.09089H20.1645C20.1645 7.17863 20.1636 7.26699 20.15 7.34809C20.1436 7.38694 20.1359 7.41235 20.1301 7.42658C20.1243 7.44085 20.125 7.43233 20.1412 7.41613L20.8483 8.12323ZM20.7723 8.24784C20.8146 8.16318 20.8265 8.14502 20.8483 8.12324L20.1412 7.41613C19.9933 7.56404 19.9204 7.71558 19.8778 7.80062L20.7723 8.24784ZM20.5089 8.63233C20.6568 8.48441 20.7298 8.33287 20.7723 8.24783L19.8778 7.80063C19.8355 7.88529 19.8236 7.90344 19.8018 7.92522L20.5089 8.63233ZM18.9675 9.28787C19.2804 9.28787 19.5635 9.23513 19.8281 9.1175C20.0906 9.00084 20.3097 8.83154 20.5089 8.63233L19.8018 7.92522C19.6616 8.0654 19.5413 8.15065 19.422 8.20369C19.3048 8.25576 19.1637 8.28787 18.9675 8.28787V9.28787ZM24.0609 27.9546C22.4627 27.9546 21.167 29.2503 21.167 30.8485H22.167C22.167 29.8025 23.0149 28.9546 24.0609 28.9546V27.9546ZM26.9549 30.8485C26.9549 29.2503 25.6592 27.9546 24.0609 27.9546V28.9546C25.1069 28.9546 25.9549 29.8025 25.9549 30.8485H26.9549ZM24.0609 33.7425C25.6592 33.7425 26.9549 32.4468 26.9549 30.8485H25.9549C25.9549 31.8945 25.1069 32.7425 24.0609 32.7425V33.7425ZM21.167 30.8485C21.167 32.4468 22.4627 33.7425 24.0609 33.7425V32.7425C23.0149 32.7425 22.167 31.8945 22.167 30.8485H21.167ZM20.167 30.8485C20.167 28.698 21.9104 26.9546 24.0609 26.9546V25.9546C21.3581 25.9546 19.167 28.1457 19.167 30.8485H20.167ZM24.0609 34.7425C21.9104 34.7425 20.167 32.9991 20.167 30.8485H19.167C19.167 33.5514 21.3581 35.7425 24.0609 35.7425V34.7425ZM27.9549 30.8485C27.9549 32.9991 26.2115 34.7425 24.0609 34.7425V35.7425C26.7638 35.7425 28.9549 33.5514 28.9549 30.8485H27.9549ZM24.0609 26.9546C26.2115 26.9546 27.9549 28.698 27.9549 30.8485H28.9549C28.9549 28.1457 26.7638 25.9546 24.0609 25.9546V26.9546Z" fill="#1975A9"/>
</svg>
