<svg width="17" height="25" viewBox="0 0 17 25" fill="none" xmlns="http://www.w3.org/2000/svg">
<path d="M8.5 0C3.81836 0 0 3.77848 0 8.41121C0 9.72547 0.538628 11.2332 1.2691 12.8797C1.99957 14.5261 2.94032 16.2748 3.89583 17.903C5.80686 21.1631 7.73264 23.8902 7.73264 23.8902L8.5 25L9.26736 23.8902C9.26736 23.8902 11.1931 21.1631 13.1042 17.903C14.0597 16.2748 15.0004 14.5261 15.7309 12.8797C16.4614 11.2332 17 9.72547 17 8.41121C17 3.77848 13.1816 0 8.5 0ZM8.5 1.86916C12.1634 1.86916 15.1111 4.78607 15.1111 8.41121C15.1111 9.15961 14.7053 10.5761 14.0191 12.1203C13.3329 13.6646 12.3848 15.3768 11.4514 16.9685C9.96832 19.502 9.04601 20.8419 8.5 21.6414C7.95399 20.8419 7.03168 19.502 5.54861 16.9685C4.61523 15.3768 3.6671 13.6646 2.9809 12.1203C2.2947 10.5761 1.88889 9.15961 1.88889 8.41121C1.88889 4.78607 4.83659 1.86916 8.5 1.86916ZM8.5 6.54206C7.45595 6.54206 6.61111 7.37807 6.61111 8.41121C6.61111 9.44436 7.45595 10.2804 8.5 10.2804C9.54405 10.2804 10.3889 9.44436 10.3889 8.41121C10.3889 7.37807 9.54405 6.54206 8.5 6.54206Z" fill="#1975A9"/>
</svg>
