<svg width="56" height="54" viewBox="0 0 56 54" fill="none" xmlns="http://www.w3.org/2000/svg">
<path d="M46.2609 0C40.9062 0 36.5217 4.4201 36.5217 9.81818C36.5217 11.7262 37.0924 13.5 38.0435 15.0149L30.4823 24.5455H19.1264C18.0326 20.3363 14.2473 17.1818 9.73913 17.1818C4.38451 17.1818 0 21.6019 0 27C0 32.3981 4.38451 36.8182 9.73913 36.8182C14.2473 36.8182 18.0326 33.6637 19.1264 29.4545H30.4823L38.0435 38.9851C37.0924 40.5 36.5217 42.2738 36.5217 44.1818C36.5217 49.5799 40.9062 54 46.2609 54C51.6155 54 56 49.5799 56 44.1818C56 38.7837 51.6155 34.3636 46.2609 34.3636C44.5679 34.3636 42.9986 34.843 41.6101 35.6197L34.7717 27L41.6101 18.3803C42.9986 19.157 44.5679 19.6364 46.2609 19.6364C51.6155 19.6364 56 15.2163 56 9.81818C56 4.4201 51.6155 0 46.2609 0ZM46.2609 4.90909C48.981 4.90909 51.1304 7.07599 51.1304 9.81818C51.1304 12.5604 48.981 14.7273 46.2609 14.7273C43.5408 14.7273 41.3913 12.5604 41.3913 9.81818C41.3913 7.07599 43.5408 4.90909 46.2609 4.90909ZM9.73913 22.0909C12.4592 22.0909 14.6087 24.2578 14.6087 27C14.6087 29.7422 12.4592 31.9091 9.73913 31.9091C7.01902 31.9091 4.86957 29.7422 4.86957 27C4.86957 24.2578 7.01902 22.0909 9.73913 22.0909ZM46.2609 39.2727C48.981 39.2727 51.1304 41.4396 51.1304 44.1818C51.1304 46.924 48.981 49.0909 46.2609 49.0909C43.5408 49.0909 41.3913 46.924 41.3913 44.1818C41.3913 41.4396 43.5408 39.2727 46.2609 39.2727Z" fill="#1975A9"/>
</svg>
