<svg width="62" height="62" viewBox="0 0 62 62" fill="none" xmlns="http://www.w3.org/2000/svg">
<path d="M41.9295 0L37.2298 1.92756L38.7301 5.63366C37.3093 6.56763 36.0772 7.75994 35.1333 9.17083L31.3577 7.58109L29.3804 12.2708L33.1859 13.8705C33.0369 14.6455 32.9474 15.4404 32.9474 16.2551C32.9474 17.0599 33.0369 17.8449 33.1859 18.6099L29.5792 20.0705L31.5067 24.7901L35.1035 23.3196C35.9978 24.6311 37.1205 25.7638 38.4221 26.6679L36.8026 30.5032L41.4923 32.4705L43.0821 28.7048C43.9167 28.8837 44.7811 28.9731 45.6654 28.9731C46.5199 28.9731 47.3446 28.8936 48.1394 28.7346L49.6497 32.4308L54.3593 30.5032L52.8292 26.7474C54.101 25.8731 55.1939 24.7801 56.0782 23.5183L59.7346 25.0484L61.7119 20.3587L58.1151 18.8484C58.2939 18.0138 58.3833 17.1494 58.3833 16.2551C58.3833 15.4603 58.3038 14.6753 58.1647 13.9202L62 12.3603L60.0824 7.65064L56.2372 9.21058C55.3131 7.82949 54.1308 6.64712 52.7596 5.72308L54.2798 2.12628L49.5901 0.149039L48.0599 3.77564C47.2849 3.6266 46.4901 3.53718 45.6654 3.53718C44.9202 3.53718 44.175 3.61667 43.4596 3.74583L41.9295 0ZM45.6654 8.62436C49.9179 8.62436 53.2962 12.0125 53.2962 16.2551C53.2962 20.5077 49.9179 23.8859 45.6654 23.8859C41.4228 23.8859 38.0346 20.5077 38.0346 16.2551C38.0346 12.0125 41.4228 8.62436 45.6654 8.62436ZM17.8051 21.3026V26.6183C15.5 27.0058 13.3936 27.9596 11.5654 29.2612L7.75994 25.4657L4.16314 29.0625L7.96859 32.868C6.66699 34.7061 5.71314 36.8026 5.32564 39.1077H0V44.1949H5.32564C5.71314 46.5 6.66699 48.5965 7.96859 50.4346L4.16314 54.2401L7.75994 57.8369L11.5654 54.0413C13.3936 55.3429 15.5 56.2968 17.8051 56.6843V62H22.8923V56.6843C25.1974 56.2968 27.3038 55.3429 29.1321 54.0413L32.9375 57.8369L36.5343 54.2401L32.7288 50.4346C34.0304 48.5965 34.9843 46.5 35.3718 44.1949H40.6974V39.1077H35.3718C34.9843 36.8026 34.0304 34.7061 32.7288 32.868L36.5343 29.0625L32.9375 25.4657L29.1321 29.2612C27.3038 27.9596 25.1974 27.0058 22.8923 26.6183V21.3026H17.8051ZM20.3487 31.4769C26.0022 31.4769 30.5231 35.9978 30.5231 41.6513C30.5231 47.3048 26.0022 51.8256 20.3487 51.8256C14.6952 51.8256 10.1744 47.3048 10.1744 41.6513C10.1744 35.9978 14.6952 31.4769 20.3487 31.4769Z" fill="#1975A9"/>
</svg>
