<svg width="23" height="23" viewBox="0 0 23 23" fill="none" xmlns="http://www.w3.org/2000/svg">
<path d="M0.0113636 5.56914C0.0388991 5.85191 0.114621 6.14157 0.231647 6.42434L0.204112 6.42434C0.207554 6.43814 0.228205 6.46572 0.231647 6.47952C0.98543 8.62786 2.87505 12.7418 6.59233 16.466C10.3371 20.2179 14.5191 22.0283 16.5877 22.8386L16.6152 22.8386C17.6857 23.1973 18.8456 22.9421 19.6717 22.2317L19.6992 22.2041L19.7267 22.2041L22.3426 19.5558L22.4527 19.4454C23.1824 18.7144 23.1824 17.4454 22.4527 16.7143L18.8456 13.1004C18.1159 12.3694 16.8217 12.3694 16.0921 13.1004L14.3573 14.8384C13.7274 14.5349 12.1786 13.7487 10.7226 12.3556C9.27703 10.9728 8.54046 9.3865 8.27199 8.76924L10.0893 6.9485L10.1444 6.86573C10.4198 6.45193 10.5746 5.9795 10.5574 5.48638C10.5402 5.0243 10.3131 4.54497 9.92412 4.18979L9.95165 4.1622L9.86905 4.10703L6.34451 0.548296C5.61482 -0.182762 4.32066 -0.182762 3.59097 0.548296L0.864962 3.27942C0.479466 3.66563 0.190344 4.18634 0.0664344 4.74153C0.0079219 5.0105 -0.0161718 5.28638 0.0113636 5.56914ZM1.77363 5.43121C1.74954 5.09671 1.89066 4.76222 2.10406 4.54842L4.83006 1.78971C4.98151 1.63799 4.92644 1.63799 5.07788 1.78971L8.76763 5.48638C8.76419 5.48293 8.79172 5.48638 8.79516 5.56914C8.79861 5.63811 8.74009 5.74156 8.68502 5.84501L8.68502 5.90019L6.59233 7.96922L6.1793 8.38302L6.37205 8.90718C6.37205 8.90718 7.38397 11.6211 9.51109 13.6522C11.5969 15.6488 14.1646 16.7419 14.1646 16.7419L14.7153 16.9626L15.1558 16.5488L17.3587 14.3418C17.5101 14.1901 17.4551 14.1901 17.6065 14.3418L21.2136 17.9557C21.3651 18.1075 21.3651 18.0523 21.2136 18.204L18.5427 20.9076C18.5358 20.9145 18.5221 20.9007 18.5152 20.9076L18.4876 20.9351C18.1056 21.242 17.6994 21.3352 17.221 21.1834C17.2107 21.18 17.2038 21.1869 17.1935 21.1834C15.204 20.4006 11.3043 18.6764 7.83142 15.197C4.34475 11.7038 2.55151 7.74162 1.88377 5.81743L1.85624 5.78984L1.85624 5.76225C1.80805 5.65535 1.78051 5.54156 1.77363 5.43121Z" fill="#1975A9"/>
</svg>
