<svg width="59" height="59" viewBox="0 0 59 59" fill="none" xmlns="http://www.w3.org/2000/svg">
<path d="M29.5 0C24.7984 0 20.9381 2.54668 18.2531 5.99219C18.0572 5.98066 17.9189 5.9 17.7 5.9C11.2123 5.9 5.9 11.2123 5.9 17.7C5.9 24.1877 11.2123 29.5 17.7 29.5H44.25C49.1014 29.5 53.1 25.5014 53.1 20.65C53.1 15.7986 49.1014 11.8 44.25 11.8H43.6047C42.1873 5.13945 36.5639 0 29.5 0ZM29.5 5.9C34.4205 5.9 38.35 9.82949 38.35 14.75V17.7H44.25C45.9209 17.7 47.2 18.9791 47.2 20.65C47.2 22.3209 45.9209 23.6 44.25 23.6H17.7C14.4043 23.6 11.8 20.9957 11.8 17.7C11.8 14.4043 14.4043 11.8 17.7 11.8C17.9766 11.8 18.2992 11.823 18.7141 11.8922L20.8344 12.2609L21.8484 10.4172C23.3695 7.69766 26.1812 5.9 29.5 5.9ZM5.9 35.4C2.63887 35.4 0 38.0389 0 41.3V53.1C0 56.3611 2.63887 59 5.9 59H53.1C56.3611 59 59 56.3611 59 53.1V41.3C59 38.0389 56.3611 35.4 53.1 35.4H5.9ZM11.8 44.25C13.4248 44.25 14.75 45.5752 14.75 47.2C14.75 48.8248 13.4248 50.15 11.8 50.15C10.1752 50.15 8.85 48.8248 8.85 47.2C8.85 45.5752 10.1752 44.25 11.8 44.25ZM20.65 44.25H50.15V50.15H20.65V44.25Z" fill="#1975A9"/>
</svg>
