<svg width="46" height="46" viewBox="0 0 46 46" fill="none" xmlns="http://www.w3.org/2000/svg">
<path d="M5.32971 0C2.31093 0 0 2.30259 0 5.31048V37.1734C0 40.1813 2.31093 42.4839 5.32971 42.4839H26.482C24.525 41.7786 22.9081 40.5339 21.4854 38.9436H5.32971C4.26099 38.9436 3.55314 38.2383 3.55314 37.1734V7.08065H39.0846V21.4079C40.6807 22.6456 41.9298 24.4365 42.6377 26.3865V5.31048C42.6377 2.30259 40.3268 0 37.308 0H5.32971ZM8.88285 14.1613V17.7016H12.436V14.1613H8.88285ZM15.9891 14.1613V17.7016H33.7548V14.1613H15.9891ZM8.88285 21.2419V24.7823H12.436V21.2419H8.88285ZM15.9891 21.2419V24.7823H20.264C20.9719 23.3648 22.0198 22.127 23.262 21.2419H15.9891ZM31.09 21.2419C25.7603 21.2419 21.3189 25.6673 21.3189 30.9778C21.3189 36.2883 25.7603 40.7137 31.09 40.7137C33.3523 40.7137 35.4134 39.877 37.0859 38.5563L37.419 38.8882C36.961 39.5728 37.0235 40.4302 37.6411 41.0456L42.0825 45.471C42.7904 46.1763 43.873 46.1763 44.5808 45.471L45.4691 44.5859C46.177 43.8806 46.177 42.8573 45.4691 42.152L41.0277 37.7266C40.4447 37.1457 39.6397 37.0282 38.9735 37.3947L38.6404 37.0628C40.0145 35.3825 40.8611 33.2735 40.8611 30.9778C40.8611 25.6673 36.4197 21.2419 31.09 21.2419ZM31.09 23.8972C34.9971 23.8972 38.1963 27.0849 38.1963 30.9778C38.1963 34.8708 34.9971 38.0585 31.09 38.0585C27.1829 38.0585 23.9837 34.8708 23.9837 30.9778C23.9837 27.0849 27.1829 23.8972 31.09 23.8972ZM8.88285 28.3226V31.8629H12.436V28.3226H8.88285ZM15.9891 28.3226V31.8629H18.654V30.9778C18.654 30.0927 18.8067 29.2077 18.9871 28.3226H15.9891Z" fill="#1975A9"/>
</svg>
