<svg width="51" height="49" viewBox="0 0 51 49" fill="none" xmlns="http://www.w3.org/2000/svg">
<path d="M9.80769 0V8.14625L0.858173 14.0262L0 14.6388V49H51V14.6388L50.1418 14.0262L41.1923 8.14625V0H9.80769ZM17.47 3.92H33.53C33.4228 4.22625 33.3462 4.56313 33.3462 4.9C33.3462 6.52313 34.6641 7.84 36.2885 7.84C36.6256 7.84 36.9627 7.76344 37.2692 7.65625V22.05L32.9784 25.235C32.0206 21.9811 29.063 19.6 25.5 19.6C21.937 19.6 18.9794 21.9811 18.0216 25.235L13.7308 22.05V7.65625C14.0373 7.76344 14.3744 7.84 14.7115 7.84C16.3359 7.84 17.6538 6.52313 17.6538 4.9C17.6538 4.56313 17.5772 4.22625 17.47 3.92ZM25.5 10.78C23.8756 10.78 22.5577 12.0969 22.5577 13.72C22.5577 15.3431 23.8756 16.66 25.5 16.66C27.1244 16.66 28.4423 15.3431 28.4423 13.72C28.4423 12.0969 27.1244 10.78 25.5 10.78ZM9.80769 12.8625V19.11L5.39423 15.8025L9.80769 12.8625ZM41.1923 12.8625L45.6058 15.8025L41.1923 19.11V12.8625ZM3.92308 19.6L24.3353 34.9125L25.5 35.77L26.6647 34.9125L47.0769 19.6V45.08H3.92308V19.6ZM25.5 23.52C27.837 23.52 29.4231 25.1048 29.4231 27.44V27.93L25.5 30.87L21.5769 27.93V27.44C21.5769 25.1048 23.163 23.52 25.5 23.52Z" fill="#1975A9"/>
</svg>
