<svg width="57" height="57" viewBox="0 0 57 57" fill="none" xmlns="http://www.w3.org/2000/svg">
<path d="M8.21938 0.84375C7.97095 0.84375 7.69213 0.967849 7.52617 1.15704L1.07485 8.53384C0.55134 9.12976 0.974866 10.0648 1.76806 10.0643H4.53188V12.8281C4.55975 14.0303 6.34905 14.0303 6.37563 12.8281V9.13882C6.37361 8.63253 5.96365 8.22257 5.45736 8.22055H3.79726L8.21938 3.16464L12.6505 8.22055H10.9886C10.4795 8.21863 10.0652 8.62974 10.0631 9.13882V11.9081C10.0631 13.1384 11.9087 13.1384 11.9087 11.9081V10.0643H14.6707C15.4648 10.0663 15.8898 9.13042 15.3657 8.53384L8.91439 1.15704C8.72972 0.946595 8.46784 0.84375 8.21938 0.84375ZM28.5006 0.845548C27.9635 0.856001 27.5788 1.25303 27.5788 1.76382V3.60757C27.5788 4.22192 28.0398 4.53048 28.5006 4.53125C28.9614 4.53048 29.4225 4.22178 29.4225 3.60757V1.76382C29.4225 1.25303 29.0378 0.85555 28.5006 0.845551V0.845548ZM48.7819 0.845548C48.5227 0.845548 48.2528 0.969646 48.0869 1.15884L41.6355 8.53564C41.1093 9.13159 41.5334 10.0697 42.3288 10.0679H45.0926V12.8299C45.0647 14.0865 46.9641 14.0865 46.9363 12.8299V9.14062C46.9343 8.63436 46.5244 8.22437 46.0181 8.22235H44.358L48.7801 3.16644L53.2112 8.22235H51.5511C51.0413 8.21943 50.6259 8.63084 50.6238 9.14062V11.9117C50.6238 13.1419 52.4694 13.1419 52.4694 11.9117V10.0679H55.2314C56.0273 10.0713 56.443 9.12058 55.9264 8.53564L49.4751 1.15884C49.2904 0.948395 49.0411 0.845551 48.7819 0.845551V0.845548ZM23.5149 2.30579C22.6815 2.29884 22.2789 3.31061 22.8541 3.88126L24.1613 5.18124C25.0709 6.02708 26.3096 4.7526 25.4685 3.88126L24.1613 2.57407C23.9878 2.39567 23.7638 2.30577 23.5149 2.30579ZM33.4863 2.30579C33.2375 2.30577 33.0135 2.39567 32.8399 2.57407L31.5327 3.88126C30.6917 4.7526 31.9304 6.02708 32.8399 5.18124L34.1471 3.88126C34.7224 3.31061 34.3196 2.29936 33.4863 2.30579ZM28.5006 7.29868C22.8663 7.29852 18.3564 11.8359 18.3564 17.4375V18.8509C17.2586 19.4883 16.5127 20.6808 16.5127 22.0469C16.5127 24.0904 18.1764 25.7362 20.202 25.7362H21.0446C21.6901 27.0395 22.6513 28.136 23.8913 28.9627V30.3456H23.8804C23.7414 30.3461 23.6041 30.3768 23.4789 30.4392L19.7896 32.2847C19.3661 32.4983 19.1701 32.9911 19.3413 33.4335C18.5071 33.9319 17.755 34.4816 17.0834 35.0774C16.5823 34.6896 16.0492 34.3444 15.4773 34.0547C16.6955 32.8783 17.4345 31.2409 17.4345 29.4183C17.4345 25.8655 14.5578 22.9669 10.9832 22.9669C7.40861 22.9669 4.53188 25.8655 4.53188 29.4183C4.53188 31.2357 5.27924 32.8807 6.49266 34.0565C3.11667 35.769 0.84438 39.2991 0.84438 43.376V44.9551C0.84438 48.0921 3.33849 50.6232 6.42424 50.6232H12.8288V52.4742C12.8288 53.581 13.1747 54.6652 14.0189 55.3784C14.8788 56.1051 16.0941 56.3177 17.5372 56.0356C20.5243 55.2252 23.5122 54.4259 26.5092 53.6229L27.847 54.9643C28.2074 55.3266 28.7938 55.3266 29.1542 54.9643L30.4938 53.6211C33.4608 54.4311 36.4358 55.2247 39.4425 56.032C40.9253 56.325 42.1383 56.0915 42.9823 55.3784C43.8264 54.6652 44.1743 53.581 44.1743 52.4742V50.6232H50.577C53.6628 50.6232 56.1569 48.0921 56.1569 44.9551V43.376C56.1569 39.2991 53.8846 35.769 50.5086 34.0565C51.722 32.8807 52.4694 31.2357 52.4694 29.4183C52.4694 25.8655 49.5927 22.9669 46.0181 22.9669C42.4435 22.9669 39.5667 25.8655 39.5667 29.4183C39.5667 31.2409 40.3058 32.8783 41.5239 34.0547C40.9528 34.3438 40.4202 34.6885 39.9196 35.0756C39.2439 34.4769 38.4911 33.9282 37.6582 33.4335C37.8292 32.9907 37.6373 32.4976 37.2116 32.2847L33.5241 30.4392C33.3959 30.3758 33.2548 30.3434 33.1118 30.3438V28.9609C34.3296 28.1706 35.3058 27.0414 35.9513 25.7362H36.7921C38.8174 25.7362 40.4814 24.0904 40.4814 22.0469C40.4814 20.6839 39.7332 19.4912 38.6395 18.8527V17.4375C38.6394 11.8359 34.135 7.29887 28.5006 7.29868ZM10.9868 14.6719C10.5257 14.6719 10.0649 14.9771 10.0649 15.5919V16.5138C10.0649 17.7432 11.9087 17.7432 11.9087 16.5138V15.5919C11.9087 14.9773 11.4478 14.6719 10.9868 14.6719ZM51.5475 14.6737C51.0865 14.6737 50.6256 14.9807 50.6256 15.5956V16.5156C50.6256 17.745 52.4694 17.745 52.4694 16.5156V15.5956C52.4694 14.9808 52.0085 14.6737 51.5475 14.6737ZM5.45556 15.5919C4.99455 15.5919 4.53368 15.899 4.53368 16.5138V17.4357C4.53368 18.6651 6.37743 18.6651 6.37743 17.4357V16.5138C6.37743 15.8991 5.91663 15.5919 5.45556 15.5919ZM46.0163 15.5956C45.5552 15.5956 45.0944 15.9008 45.0944 16.5156V17.4375C45.0944 18.6669 46.9381 18.6669 46.9381 17.4375V16.5156C46.9381 15.9009 46.4773 15.5956 46.0163 15.5956ZM31.6948 17.7364C32.3727 18.9579 33.5693 19.8129 34.9502 20.1077V22.1045C34.9502 25.6583 32.0601 28.5 28.5006 28.5C24.9056 28.5 22.0421 25.6151 22.0421 22.1045V20.1077C23.404 19.831 24.6714 18.9224 25.3029 17.7418C26.2813 18.1126 27.2502 18.3612 28.5006 18.3612C29.5094 18.3612 30.6607 18.1629 31.6948 17.7364ZM8.22118 18.3576C7.76014 18.3576 7.29931 18.6646 7.29931 19.2794V20.2013C7.29931 21.4307 9.14305 21.4307 9.14305 20.2013V19.2794C9.14305 18.6648 8.68225 18.3576 8.22118 18.3576ZM48.7819 18.3594C48.3208 18.3594 47.86 18.6664 47.86 19.2812V20.2031C47.86 21.4325 49.7038 21.4325 49.7038 20.2031V19.2812C49.7038 18.6666 49.2429 18.3594 48.7819 18.3594ZM20.202 20.2013L20.2055 22.1045C20.2055 22.719 20.2678 23.3141 20.3964 23.8906H20.2019C19.1728 23.8906 18.3582 23.0526 18.3582 22.0451C18.3582 21.0375 19.1728 20.2013 20.2019 20.2013H20.202ZM36.7939 20.2013C37.8222 20.2023 38.6377 21.0381 38.6377 22.0451C38.6377 23.0526 37.8213 23.8888 36.7921 23.8888H36.5976C36.7252 23.3134 36.7939 22.7181 36.7939 22.1045V20.2013ZM25.735 29.8756C26.577 30.1725 27.4748 30.3343 28.5006 30.3438C29.5264 30.3333 30.4257 30.173 31.2663 29.8774V31.8058L29.039 34.0312H27.9623L25.735 31.8094V29.8756ZM23.7094 32.3856L26.2752 34.9513L24.8131 36.4152L21.7648 33.3596L23.7094 32.3856ZM33.2919 32.3856L35.2382 33.3596L32.1899 36.4152L30.7261 34.9513L33.2919 32.3856ZM20.6179 34.8271L24.1595 38.3687C24.5199 38.731 25.1063 38.731 25.4667 38.3687L25.735 38.1005L26.5993 38.9647L25.6 45.9724L24.8113 46.1741C24.757 46.0514 24.7198 45.9228 24.6637 45.7509C24.5135 45.2887 24.3567 44.6982 24.1397 44.0981C23.9227 43.4979 23.65 42.8724 23.18 42.3425C22.7101 41.8127 22.0107 41.4026 21.1238 41.4026C19.7402 41.4026 18.3618 42.5976 18.3618 44.1737V46.9357C18.3618 47.2329 18.3933 47.5291 18.4518 47.8108L18.1295 47.8864C16.9276 48.1895 17.3939 49.9934 18.5923 49.6761L25.3155 47.944L24.8203 51.4118C24.7855 51.661 24.8518 51.917 25.0076 52.114L17.1536 54.2297C16.1032 54.4314 15.531 54.2401 15.2109 53.9704C14.898 53.7059 14.6725 53.2085 14.6725 52.4742V45.0919C14.6725 40.4466 16.6929 37.0116 20.6179 34.8271ZM36.3852 34.8271C40.4181 37.0722 42.3288 40.5694 42.3288 45.0919V52.4742C42.3288 53.2085 42.1082 53.7056 41.7958 53.9632C41.4665 54.2416 40.8999 54.4313 39.853 54.2297L32.0549 52.1302L32.3466 52.051L33.9995 51.6027C34.3769 51.5016 34.6959 51.3142 34.9484 51.0571C36.0522 50.9428 37.0596 50.3812 37.75 49.5069L38.409 49.6779C39.597 49.9776 40.0562 48.2018 38.8717 47.8882L38.5494 47.809C38.6101 47.5278 38.6409 47.2341 38.6413 46.9357V44.1737C38.6413 42.5976 37.2558 41.4026 35.8774 41.4026C34.4992 41.4131 33.7812 42.1074 33.3333 42.8053C33.0256 43.2964 32.7743 43.8728 32.5608 44.2529C32.4093 44.2506 32.2434 44.2668 32.0729 44.3051L31.196 44.5356L30.4056 38.9845L31.2879 38.1203L31.5363 38.3687C31.8968 38.731 32.4831 38.731 32.8435 38.3687L36.3852 34.8271ZM8.295 35.2862C9.11136 35.6604 10.0235 35.875 10.9832 35.875C11.9427 35.875 12.8656 35.6582 13.6804 35.2862C14.4438 35.558 15.1465 35.9396 15.787 36.4098C13.8036 38.7615 12.8288 41.6894 12.8288 45.0919V48.7794H6.42424C4.34648 48.7794 2.68813 47.0739 2.68813 44.9551V43.376C2.68813 39.6082 5.02967 36.4518 8.295 35.2862ZM43.3209 35.2862C44.1356 35.6581 45.0586 35.875 46.0181 35.875C46.9777 35.875 47.8899 35.6603 48.7063 35.2862C51.9716 36.4518 54.3131 39.6082 54.3131 43.376V44.9551C54.3131 47.0739 52.6548 48.7794 50.577 48.7794H44.1743V45.0919C44.1743 41.6382 43.1713 38.7244 41.2178 36.408C41.8575 35.9388 42.5587 35.5574 43.3209 35.2862ZM27.9587 35.875H29.0426L29.9825 36.8149L28.5078 38.2661L27.0386 36.7969L27.9587 35.875ZM28.7473 40.4484L30.2904 51.221L28.5006 53.0035L26.7109 51.221L28.2522 40.4502C28.4142 40.4948 28.5856 40.4941 28.7473 40.4483V40.4484ZM32.4636 46.1093C32.5654 46.0814 32.7288 46.1007 33.0002 46.4027C33.2988 46.7362 33.5544 47.2442 33.7132 47.8126C33.8721 48.3808 33.9093 48.9796 33.8302 49.3502C33.7616 49.607 33.6966 49.7739 33.5241 49.8202L32.0081 50.2307L31.4571 46.3685L32.4636 46.1093Z" fill="#1975A9"/>
</svg>
