<svg width="44" height="49" viewBox="0 0 44 49" fill="none" xmlns="http://www.w3.org/2000/svg">
<path d="M22 0C17.5 0 14.4844 1.76563 11.7734 3.24219C9.05469 4.71875 6.5625 6 2 6H0V8C0 23.4375 5.21094 33.4766 10.4922 39.5547C15.7734 45.6328 21.25 47.8516 21.25 47.8516L22 48.1562L22.7344 47.8594C22.7344 47.8594 28.2266 45.6641 33.5078 39.5938C38.7891 33.5312 44 23.4922 44 8V6H42C37.4609 6 34.9688 4.71875 32.25 3.24219C29.5234 1.76563 26.5 0 22 0ZM22 4C25.5 4 27.5312 5.23438 30.3438 6.75781C32.7031 8.03906 35.8203 9.25 39.8672 9.67188C39.4844 23.2109 35.0078 31.7891 30.4922 36.9688C26.3906 41.6797 22.9609 43.3125 22 43.7422C21.0469 43.3047 17.6094 41.6484 13.5078 36.9297C8.99219 31.7344 4.51562 23.1562 4.14062 9.67188C8.19531 9.25 11.3203 8.03906 13.6797 6.75781C16.4844 5.23438 18.5 4 22 4ZM22 12C18.6875 12 16 14.6875 16 18C16 20.3438 17.375 22.4766 19.5078 23.4453L18 34H26L24.4922 23.4453C26.625 22.4766 28 20.3438 28 18C28 14.6875 25.3125 12 22 12Z" fill="#E53F4D"/>
</svg>
