<svg width="41" height="42" viewBox="0 0 41 42" fill="none" xmlns="http://www.w3.org/2000/svg">
<path fill-rule="evenodd" clip-rule="evenodd" d="M0 5.72727C0 2.5642 2.50314 0 5.59091 0H9.31818C10.3474 0 11.1818 0.854738 11.1818 1.90909C11.1818 2.96344 10.3474 3.81818 9.31818 3.81818H5.59091C4.56166 3.81818 3.72727 4.67292 3.72727 5.72727V9.54545C3.72727 10.5998 2.89289 11.4545 1.86364 11.4545C0.834387 11.4545 0 10.5998 0 9.54545V5.72727ZM14.9091 1.90909C14.9091 0.854738 15.7435 0 16.7727 0H24.2273C25.2566 0 26.0909 0.854738 26.0909 1.90909C26.0909 2.96344 25.2566 3.81818 24.2273 3.81818H16.7727C15.7435 3.81818 14.9091 2.96344 14.9091 1.90909ZM29.8182 1.90909C29.8182 0.854738 30.6525 0 31.6818 0H35.4091C38.497 0 41 2.5642 41 5.72727V9.54545C41 10.5998 40.1656 11.4545 39.1364 11.4545C38.1071 11.4545 37.2727 10.5998 37.2727 9.54545V5.72727C37.2727 4.67292 36.4384 3.81818 35.4091 3.81818H31.6818C30.6525 3.81818 29.8182 2.96344 29.8182 1.90909ZM1.86364 15.2727C2.89289 15.2727 3.72727 16.1275 3.72727 17.1818V24.8182C3.72727 25.8726 2.89289 26.7273 1.86364 26.7273C0.834387 26.7273 0 25.8726 0 24.8182V17.1818C0 16.1275 0.834387 15.2727 1.86364 15.2727ZM39.1364 15.2727C40.1656 15.2727 41 16.1275 41 17.1818V24.8182C41 25.8726 40.1656 26.7273 39.1364 26.7273C38.1071 26.7273 37.2727 25.8726 37.2727 24.8182V17.1818C37.2727 16.1275 38.1071 15.2727 39.1364 15.2727ZM1.86364 30.5455C2.89289 30.5455 3.72727 31.4002 3.72727 32.4545V36.2727C3.72727 37.3271 4.56166 38.1818 5.59091 38.1818H9.31818C10.3474 38.1818 11.1818 39.0365 11.1818 40.0909C11.1818 41.1453 10.3474 42 9.31818 42H5.59091C2.50314 42 0 39.4359 0 36.2727V32.4545C0 31.4002 0.834387 30.5455 1.86364 30.5455ZM39.1364 30.5455C40.1656 30.5455 41 31.4002 41 32.4545V36.2727C41 39.4359 38.497 42 35.4091 42H31.6818C30.6525 42 29.8182 41.1453 29.8182 40.0909C29.8182 39.0365 30.6525 38.1818 31.6818 38.1818H35.4091C36.4384 38.1818 37.2727 37.3271 37.2727 36.2727V32.4545C37.2727 31.4002 38.1071 30.5455 39.1364 30.5455ZM14.9091 40.0909C14.9091 39.0365 15.7435 38.1818 16.7727 38.1818H24.2273C25.2566 38.1818 26.0909 39.0365 26.0909 40.0909C26.0909 41.1453 25.2566 42 24.2273 42H16.7727C15.7435 42 14.9091 41.1453 14.9091 40.0909Z" fill="#1975A9"/>
</svg>
