<svg width="20" height="20" viewBox="0 0 20 20" fill="none" xmlns="http://www.w3.org/2000/svg">
<path fill-rule="evenodd" clip-rule="evenodd" d="M8.15625 6.68379C8.15625 3.54943 10.7073 1 13.8418 1C16.9762 1 19.5256 3.54943 19.5256 6.68379C19.5256 9.81815 16.9762 12.3693 13.8418 12.3693C10.7073 12.3693 8.15625 9.81815 8.15625 6.68379ZM14.4134 2.1656C14.2001 1.95624 14.0161 1.87892 13.8418 1.87892C13.6674 1.87892 13.4834 1.95624 13.2701 2.1656C13.0568 2.37496 12.8354 2.71194 12.647 3.14923C12.4409 3.62741 12.278 4.228 12.168 4.89677H15.5155C15.4055 4.228 15.2426 3.62741 15.0365 3.14923C14.8481 2.71194 14.6267 2.37496 14.4134 2.1656ZM11.8402 2.80075C11.9367 2.57674 12.046 2.37491 12.1612 2.18448C10.8935 2.65635 9.88302 3.64394 9.38193 4.89677H11.2805C11.3984 4.11324 11.5837 3.39583 11.8402 2.80075ZM18.3016 4.89677C17.8009 3.64389 16.7898 2.65636 15.5223 2.18448C15.6375 2.37491 15.7468 2.57674 15.8434 2.80075C16.0998 3.39583 16.2852 4.11324 16.403 4.89677H18.3016ZM9.18109 5.77569H9.12272C9.06665 6.0699 9.03517 6.37294 9.03517 6.68379C9.03517 6.99465 9.06665 7.29765 9.12272 7.5919H9.18108H11.1793C11.1578 7.29483 11.1415 6.99463 11.1415 6.68379C11.1415 6.37295 11.1578 6.07276 11.1793 5.77569H9.18109ZM15.6631 6.68379C15.6631 6.37219 15.6471 6.0711 15.6236 5.77569H12.0599C12.0364 6.0711 12.0204 6.37219 12.0204 6.68379C12.0204 6.9954 12.0364 7.29648 12.0599 7.5919H15.6236C15.6471 7.29648 15.6631 6.9954 15.6631 6.68379ZM18.5024 5.77569H16.5043C16.5257 6.07276 16.542 6.37295 16.542 6.68379C16.542 6.99463 16.5257 7.29483 16.5043 7.5919H18.5024H18.5591C18.6151 7.29765 18.6466 6.99465 18.6466 6.68379C18.6466 6.37294 18.6151 6.0699 18.5591 5.77569H18.5024ZM11.2805 8.47081H9.38193C9.88299 9.7239 10.8936 10.7109 12.1612 11.1831C12.046 10.9927 11.9367 10.7908 11.8402 10.5668C11.5837 9.97175 11.3984 9.25434 11.2805 8.47081ZM15.0365 10.2184C15.2426 9.74018 15.4055 9.13959 15.5155 8.47081H12.168C12.278 9.13959 12.4409 9.74018 12.647 10.2184C12.8354 10.6556 13.0568 10.9943 13.2701 11.2037C13.4834 11.4131 13.6674 11.4904 13.8418 11.4904C14.0161 11.4904 14.2001 11.4131 14.4134 11.2037C14.6267 10.9943 14.8481 10.6556 15.0365 10.2184ZM18.3016 8.47081H16.403C16.2852 9.25434 16.0998 9.97175 15.8434 10.5668C15.7468 10.7908 15.6375 10.9927 15.5223 11.1831C16.7896 10.7109 17.8009 9.72395 18.3016 8.47081ZM1 11.2997V10.8602L5.4255 10.8602V11.964C5.54404 11.9443 7.04626 11.6967 7.93351 11.6018L8.06741 11.588L8.18586 11.6515C10.2971 12.7737 10.7916 13.0707 11.902 13.7378C12.1524 13.8882 12.4341 14.0574 12.7727 14.2591L12.7967 14.2728L12.8191 14.29C13.1832 14.5756 13.4074 15.0175 13.4113 15.4659L17.7201 14.1493C18.359 13.9532 19.106 14.2532 19.3646 14.9338V14.9355V14.9373C19.6108 15.6025 19.2534 16.3518 18.5835 16.5835C17.1863 17.0658 15.304 17.6886 13.6568 18.2178C12.0096 18.7469 10.6336 19.1748 10.1205 19.2941L9.99519 19.3233L9.87331 19.2804C8.92147 18.94 7.96446 18.6834 7.10302 18.4524C6.48808 18.2875 5.92184 18.1356 5.44095 17.9757L5.4255 17.9705V19.064H1V11.2997ZM4.54658 11.7391H1.87892V18.1851H4.54658V11.7391ZM11.5552 14.5562C10.3936 13.8601 9.89034 13.5586 7.89231 12.4945L7.89234 12.4945C7.00367 12.5988 5.49763 12.8447 5.49763 12.8447L5.42553 12.8567V17.0436L5.71736 17.1414C6.14061 17.2822 6.66795 17.4252 7.25734 17.5851C8.09317 17.8118 9.05378 18.0724 10.0193 18.4083C10.4501 18.3024 11.7939 17.8942 13.389 17.3818C15.0306 16.8544 16.9092 16.2317 18.2969 15.7527C18.5213 15.675 18.6187 15.4624 18.5389 15.2428C18.4544 15.0282 18.1819 14.9261 17.9776 14.9888L12.8345 16.5629C12.6688 16.6791 12.4838 16.7603 12.2904 16.793C11.9448 16.8513 11.5915 16.7834 11.2587 16.635H11.2552L11.2535 16.6333C10.4396 16.2574 9.97398 16.003 9.0991 15.5123L8.71629 15.296L9.14545 14.5304L9.52826 14.745C10.4003 15.2341 10.8292 15.4694 11.6208 15.835C11.8285 15.9265 12.013 15.9499 12.1444 15.9277C12.2772 15.9053 12.3671 15.8535 12.4586 15.7217C12.6272 15.4791 12.5544 15.2093 12.2783 14.9887C12.0059 14.8263 11.7694 14.6846 11.5552 14.5562Z" fill="#1975A9"/>
<path d="M14.4134 2.1656L14.5185 2.05854V2.05854L14.4134 2.1656ZM13.2701 2.1656L13.165 2.05854L13.2701 2.1656ZM12.647 3.14923L12.7847 3.2086L12.647 3.14923ZM12.168 4.89677L12.02 4.87243L11.9914 5.04677H12.168V4.89677ZM15.5155 4.89677V5.04677H15.6922L15.6635 4.87243L15.5155 4.89677ZM15.0365 3.14923L15.1743 3.08987V3.08987L15.0365 3.14923ZM12.1612 2.18448L12.2895 2.26211L12.5123 1.89371L12.1088 2.0439L12.1612 2.18448ZM11.8402 2.80075L11.9779 2.86012V2.86012L11.8402 2.80075ZM9.38193 4.89677L9.24266 4.84107L9.16038 5.04677H9.38193V4.89677ZM11.2805 4.89677V5.04677H11.4097L11.4289 4.91908L11.2805 4.89677ZM15.5223 2.18448L15.5747 2.04391L15.1711 1.89366L15.394 2.26211L15.5223 2.18448ZM18.3016 4.89677V5.04677H18.5231L18.4409 4.8411L18.3016 4.89677ZM15.8434 2.80075L15.7056 2.86012V2.86012L15.8434 2.80075ZM16.403 4.89677L16.2547 4.91908L16.2739 5.04677H16.403V4.89677ZM9.12272 5.77569V5.62569H8.9986L8.97537 5.74761L9.12272 5.77569ZM9.12272 7.5919L8.97537 7.61997L8.9986 7.7419H9.12272V7.5919ZM11.1793 7.5919V7.7419H11.3405L11.3289 7.58108L11.1793 7.5919ZM11.1793 5.77569L11.3289 5.7865L11.3405 5.62569H11.1793V5.77569ZM15.6236 5.77569L15.7732 5.76381L15.7622 5.62569H15.6236V5.77569ZM12.0599 5.77569V5.62569H11.9213L11.9104 5.76381L12.0599 5.77569ZM12.0599 7.5919L11.9104 7.60378L11.9213 7.7419H12.0599V7.5919ZM15.6236 7.5919V7.7419H15.7622L15.7732 7.60378L15.6236 7.5919ZM16.5043 5.77569V5.62569H16.343L16.3547 5.7865L16.5043 5.77569ZM16.5043 7.5919L16.3547 7.58109L16.343 7.7419H16.5043V7.5919ZM18.5591 7.5919V7.7419H18.6832L18.7064 7.61995L18.5591 7.5919ZM18.5591 5.77569L18.7064 5.74763L18.6832 5.62569H18.5591V5.77569ZM9.38193 8.47081V8.32081H9.1604L9.24265 8.52651L9.38193 8.47081ZM11.2805 8.47081L11.4289 8.44851L11.4097 8.32081H11.2805V8.47081ZM12.1612 11.1831L12.1088 11.3237L12.5124 11.474L12.2895 11.1055L12.1612 11.1831ZM11.8402 10.5668L11.9779 10.5075L11.8402 10.5668ZM15.5155 8.47081L15.6635 8.49516L15.6922 8.32081H15.5155V8.47081ZM15.0365 10.2184L15.1743 10.2777L15.0365 10.2184ZM12.168 8.47081V8.32081H11.9914L12.02 8.49516L12.168 8.47081ZM12.647 10.2184L12.7847 10.159L12.647 10.2184ZM13.2701 11.2037L13.165 11.3108L13.2701 11.2037ZM14.4134 11.2037L14.5185 11.3108L14.5185 11.3108L14.4134 11.2037ZM16.403 8.47081V8.32081H16.2739L16.2547 8.44851L16.403 8.47081ZM18.3016 8.47081L18.4409 8.52647L18.5231 8.32081H18.3016V8.47081ZM15.8434 10.5668L15.7056 10.5075V10.5075L15.8434 10.5668ZM15.5223 11.1831L15.394 11.1055L15.171 11.4741L15.5747 11.3237L15.5223 11.1831ZM1 10.8602L0.999999 10.7102L0.85 10.7102V10.8602H1ZM5.4255 10.8602H5.5755V10.7102L5.4255 10.7102L5.4255 10.8602ZM5.4255 11.964H5.2755V12.1409L5.45 12.112L5.4255 11.964ZM7.93351 11.6018L7.9182 11.4525L7.91755 11.4526L7.93351 11.6018ZM8.06741 11.588L8.13829 11.4558L8.0978 11.4341L8.0521 11.4388L8.06741 11.588ZM8.18586 11.6515L8.11497 11.7837L8.11546 11.784L8.18586 11.6515ZM11.902 13.7378L11.9793 13.6092L11.902 13.7378ZM12.7727 14.2591L12.6959 14.388L12.6983 14.3893L12.7727 14.2591ZM12.7967 14.2728L12.8882 14.154L12.8801 14.1477L12.8712 14.1426L12.7967 14.2728ZM12.8191 14.29L12.9116 14.172L12.9105 14.1711L12.8191 14.29ZM13.4113 15.4659L13.2613 15.4672L13.263 15.6681L13.4551 15.6094L13.4113 15.4659ZM17.7201 14.1493L17.7639 14.2927L17.7641 14.2926L17.7201 14.1493ZM19.3646 14.9338H19.5146V14.9062L19.5048 14.8805L19.3646 14.9338ZM19.3646 14.9373H19.2146V14.9641L19.2239 14.9893L19.3646 14.9373ZM18.5835 16.5835L18.6325 16.7253L18.6326 16.7253L18.5835 16.5835ZM13.6568 18.2178L13.6109 18.075L13.6568 18.2178ZM10.1205 19.2941L10.0865 19.148L10.0865 19.148L10.1205 19.2941ZM9.99519 19.3233L9.94537 19.4648L9.98662 19.4793L10.0292 19.4694L9.99519 19.3233ZM9.87331 19.2804L9.8228 19.4216L9.82349 19.4218L9.87331 19.2804ZM7.10302 18.4524L7.06417 18.5973L7.10302 18.4524ZM5.44095 17.9757L5.39321 18.1179L5.39361 18.1181L5.44095 17.9757ZM5.4255 17.9705L5.47324 17.8283L5.2755 17.7619V17.9705H5.4255ZM5.4255 19.064V19.214H5.5755V19.064H5.4255ZM1 19.064H0.85V19.214H1V19.064ZM1.87892 11.7391V11.5891H1.72892V11.7391H1.87892ZM4.54658 11.7391H4.69658V11.5891H4.54658V11.7391ZM1.87892 18.1851H1.72892V18.3351H1.87892V18.1851ZM4.54658 18.1851V18.3351H4.69658V18.1851H4.54658ZM7.89231 12.4945L7.96282 12.3621L7.77293 12.5853L7.89231 12.4945ZM11.5552 14.5562L11.6323 14.4276H11.6323L11.5552 14.5562ZM7.89234 12.4945L7.90982 12.6435L8.17087 12.6128L8.01171 12.4037L7.89234 12.4945ZM5.49763 12.8447L5.47346 12.6966L5.47297 12.6967L5.49763 12.8447ZM5.42553 12.8567L5.40087 12.7087L5.27553 12.7296V12.8567H5.42553ZM5.42553 17.0436H5.27553V17.1515L5.37785 17.1858L5.42553 17.0436ZM5.71736 17.1414L5.66967 17.2837L5.67002 17.2838L5.71736 17.1414ZM7.25734 17.5851L7.21807 17.7299L7.25734 17.5851ZM10.0193 18.4083L9.96997 18.55L10.0119 18.5646L10.0551 18.554L10.0193 18.4083ZM13.389 17.3818L13.4349 17.5246L13.389 17.3818ZM18.2969 15.7527L18.3458 15.8945L18.3459 15.8944L18.2969 15.7527ZM18.5389 15.2428L18.68 15.1916L18.6785 15.1879L18.5389 15.2428ZM17.9776 14.9888L18.0215 15.1322L18.0216 15.1322L17.9776 14.9888ZM12.8345 16.5629L12.7906 16.4195L12.7679 16.4265L12.7484 16.4401L12.8345 16.5629ZM12.2904 16.793L12.2654 16.645H12.2654L12.2904 16.793ZM11.2587 16.635L11.3198 16.498L11.2906 16.485H11.2587V16.635ZM11.2552 16.635L11.1492 16.7411L11.1931 16.785H11.2552V16.635ZM11.2535 16.6333L11.3596 16.5272L11.3406 16.5083L11.3164 16.4971L11.2535 16.6333ZM9.0991 15.5123L9.02531 15.6429L9.02572 15.6431L9.0991 15.5123ZM8.71629 15.296L8.58545 15.2227L8.51235 15.3531L8.6425 15.4266L8.71629 15.296ZM9.14545 14.5304L9.2188 14.3995L9.08795 14.3262L9.01461 14.457L9.14545 14.5304ZM9.52826 14.745L9.60164 14.6141L9.60161 14.6141L9.52826 14.745ZM11.6208 15.835L11.5579 15.9712L11.5604 15.9723L11.6208 15.835ZM12.1444 15.9277L12.1195 15.7798L12.1195 15.7798L12.1444 15.9277ZM12.4586 15.7217L12.3354 15.6361L12.3354 15.6362L12.4586 15.7217ZM12.2783 14.9887L12.3719 14.8715L12.3639 14.8651L12.3551 14.8599L12.2783 14.9887ZM13.8418 0.85C10.6245 0.85 8.00625 3.46653 8.00625 6.68379H8.30625C8.30625 3.63233 10.7901 1.15 13.8418 1.15V0.85ZM19.6756 6.68379C19.6756 3.46659 17.059 0.85 13.8418 0.85V1.15C16.8934 1.15 19.3756 3.63227 19.3756 6.68379H19.6756ZM13.8418 12.5193C17.0591 12.5193 19.6756 9.90094 19.6756 6.68379H19.3756C19.3756 9.73537 16.8933 12.2193 13.8418 12.2193V12.5193ZM8.00625 6.68379C8.00625 9.901 10.6245 12.5193 13.8418 12.5193V12.2193C10.7902 12.2193 8.30625 9.73531 8.30625 6.68379H8.00625ZM13.8418 2.02892C13.9646 2.02892 14.113 2.08092 14.3083 2.27265L14.5185 2.05854C14.2872 1.83155 14.0676 1.72892 13.8418 1.72892V2.02892ZM13.3752 2.27265C13.5705 2.08092 13.7189 2.02892 13.8418 2.02892V1.72892C13.616 1.72892 13.3963 1.83155 13.165 2.05854L13.3752 2.27265ZM12.7847 3.2086C12.9683 2.78272 13.18 2.4642 13.3752 2.27265L13.165 2.05854C12.9336 2.28571 12.7026 2.64116 12.5092 3.08987L12.7847 3.2086ZM12.316 4.92111C12.4247 4.26051 12.5848 3.67245 12.7847 3.2086L12.5092 3.08987C12.297 3.58236 12.1314 4.19548 12.02 4.87243L12.316 4.92111ZM15.5155 4.74677H12.168V5.04677H15.5155V4.74677ZM14.8988 3.2086C15.0987 3.67245 15.2588 4.26051 15.3675 4.92111L15.6635 4.87243C15.5522 4.19548 15.3865 3.58236 15.1743 3.08987L14.8988 3.2086ZM14.3083 2.27265C14.5035 2.4642 14.7153 2.78272 14.8988 3.2086L15.1743 3.08987C14.9809 2.64116 14.7499 2.28571 14.5185 2.05854L14.3083 2.27265ZM12.0328 2.10685C11.9151 2.30154 11.8023 2.50956 11.7024 2.74139L11.9779 2.86012C12.0711 2.64391 12.1769 2.44828 12.2895 2.26211L12.0328 2.10685ZM9.5212 4.95248C10.0066 3.73892 10.9855 2.78216 12.2135 2.32506L12.1088 2.0439C10.8015 2.53054 9.75945 3.54897 9.24266 4.84107L9.5212 4.95248ZM11.2805 4.74677H9.38193V5.04677H11.2805V4.74677ZM11.7024 2.74139C11.4394 3.35161 11.2513 4.0823 11.1322 4.87447L11.4289 4.91908C11.5454 4.14419 11.728 3.44005 11.9779 2.86012L11.7024 2.74139ZM15.47 2.32505C16.6978 2.78218 17.6773 3.7389 18.1623 4.95244L18.4409 4.8411C17.9244 3.54888 16.8817 2.53054 15.5747 2.04391L15.47 2.32505ZM15.9811 2.74139C15.8812 2.50956 15.7685 2.30154 15.6507 2.10685L15.394 2.26211C15.5066 2.44828 15.6124 2.64391 15.7056 2.86012L15.9811 2.74139ZM16.5513 4.87447C16.4322 4.0823 16.2441 3.35161 15.9811 2.74139L15.7056 2.86012C15.9555 3.44005 16.1381 4.14419 16.2547 4.91908L16.5513 4.87447ZM18.3016 4.74677H16.403V5.04677H18.3016V4.74677ZM9.12272 5.92569H9.18109V5.62569H9.12272V5.92569ZM9.18517 6.68379C9.18517 6.38311 9.21562 6.08949 9.27007 5.80377L8.97537 5.74761C8.91769 6.05031 8.88517 6.36277 8.88517 6.68379H9.18517ZM9.27007 7.56382C9.21562 7.27805 9.18517 6.98447 9.18517 6.68379H8.88517C8.88517 7.00482 8.91769 7.31724 8.97537 7.61997L9.27007 7.56382ZM9.18108 7.4419H9.12272V7.7419H9.18108V7.4419ZM11.1793 7.4419H9.18108V7.7419H11.1793V7.4419ZM10.9915 6.68379C10.9915 6.99976 11.0081 7.30397 11.0296 7.60271L11.3289 7.58108C11.3075 7.28568 11.2915 6.9895 11.2915 6.68379H10.9915ZM11.0296 5.76488C11.0081 6.06361 10.9915 6.36782 10.9915 6.68379H11.2915C11.2915 6.37808 11.3075 6.0819 11.3289 5.7865L11.0296 5.76488ZM9.18109 5.92569H11.1793V5.62569H9.18109V5.92569ZM15.4741 5.78757C15.4974 6.08037 15.5131 6.3773 15.5131 6.68379H15.8131C15.8131 6.36708 15.7968 6.06184 15.7732 5.76381L15.4741 5.78757ZM12.0599 5.92569H15.6236V5.62569H12.0599V5.92569ZM12.1704 6.68379C12.1704 6.3773 12.1861 6.08037 12.2094 5.78757L11.9104 5.76381C11.8867 6.06184 11.8704 6.36708 11.8704 6.68379H12.1704ZM12.2094 7.58001C12.1861 7.28722 12.1704 6.99029 12.1704 6.68379H11.8704C11.8704 7.00051 11.8867 7.30575 11.9104 7.60378L12.2094 7.58001ZM15.6236 7.4419H12.0599V7.7419H15.6236V7.4419ZM15.5131 6.68379C15.5131 6.99029 15.4974 7.28722 15.4741 7.58001L15.7732 7.60378C15.7968 7.30575 15.8131 7.00051 15.8131 6.68379H15.5131ZM16.5043 5.92569H18.5024V5.62569H16.5043V5.92569ZM16.692 6.68379C16.692 6.36782 16.6755 6.06361 16.6539 5.76488L16.3547 5.7865C16.376 6.0819 16.392 6.37808 16.392 6.68379H16.692ZM16.6539 7.6027C16.6755 7.30398 16.692 6.99977 16.692 6.68379H16.392C16.392 6.9895 16.376 7.28568 16.3547 7.58109L16.6539 7.6027ZM18.5024 7.4419H16.5043V7.7419H18.5024V7.4419ZM18.5591 7.4419H18.5024V7.7419H18.5591V7.4419ZM18.4966 6.68379C18.4966 6.98446 18.4661 7.27805 18.4117 7.56384L18.7064 7.61995C18.7641 7.31725 18.7966 7.00484 18.7966 6.68379H18.4966ZM18.4117 5.80375C18.4661 6.0895 18.4966 6.38312 18.4966 6.68379H18.7966C18.7966 6.36275 18.7641 6.0503 18.7064 5.74763L18.4117 5.80375ZM18.5024 5.92569H18.5591V5.62569H18.5024V5.92569ZM9.38193 8.62081H11.2805V8.32081H9.38193V8.62081ZM12.2135 11.0425C10.9856 10.5851 10.0065 9.62889 9.52121 8.41512L9.24265 8.52651C9.75943 9.81892 10.8016 10.8367 12.1088 11.3237L12.2135 11.0425ZM11.7024 10.6262C11.8023 10.858 11.9151 11.066 12.0328 11.2607L12.2895 11.1055C12.1769 10.9193 12.0711 10.7237 11.9779 10.5075L11.7024 10.6262ZM11.1322 8.49312C11.2513 9.28528 11.4394 10.016 11.7024 10.6262L11.9779 10.5075C11.728 9.92753 11.5454 9.2234 11.4289 8.44851L11.1322 8.49312ZM15.3675 8.44647C15.2588 9.10707 15.0987 9.69514 14.8988 10.159L15.1743 10.2777C15.3865 9.78522 15.5522 9.17211 15.6635 8.49516L15.3675 8.44647ZM12.168 8.62081H15.5155V8.32081H12.168V8.62081ZM12.7847 10.159C12.5848 9.69514 12.4247 9.10707 12.316 8.44647L12.02 8.49516C12.1314 9.17211 12.297 9.78522 12.5092 10.2777L12.7847 10.159ZM13.3752 11.0967C13.1802 10.9052 12.9684 10.5851 12.7847 10.159L12.5092 10.2777C12.7025 10.7262 12.9334 11.0834 13.165 11.3108L13.3752 11.0967ZM13.8418 11.3404C13.7189 11.3404 13.5705 11.2884 13.3752 11.0967L13.165 11.3108C13.3963 11.5377 13.616 11.6404 13.8418 11.6404V11.3404ZM14.3083 11.0967C14.113 11.2884 13.9646 11.3404 13.8418 11.3404V11.6404C14.0676 11.6404 14.2872 11.5377 14.5185 11.3108L14.3083 11.0967ZM14.8988 10.159C14.7151 10.5851 14.5034 10.9052 14.3083 11.0967L14.5185 11.3108C14.7501 11.0834 14.981 10.7262 15.1743 10.2777L14.8988 10.159ZM16.403 8.62081H18.3016V8.32081H16.403V8.62081ZM15.9811 10.6262C16.2441 10.016 16.4322 9.28528 16.5513 8.49312L16.2547 8.44851C16.1381 9.2234 15.9555 9.92753 15.7056 10.5075L15.9811 10.6262ZM15.6507 11.2607C15.7685 11.066 15.8812 10.858 15.9811 10.6262L15.7056 10.5075C15.6124 10.7237 15.5066 10.9193 15.394 11.1055L15.6507 11.2607ZM18.1623 8.41516C17.6773 9.62891 16.6977 10.585 15.47 11.0425L15.5747 11.3237C16.8816 10.8367 17.9244 9.819 18.4409 8.52647L18.1623 8.41516ZM0.85 10.8602V11.2997H1.15V10.8602H0.85ZM5.4255 10.7102L0.999999 10.7102L1 11.0102L5.4255 11.0102L5.4255 10.7102ZM5.5755 11.964V10.8602H5.2755V11.964H5.5755ZM7.91755 11.4526C7.02518 11.5481 5.51846 11.7965 5.401 11.816L5.45 12.112C5.56961 12.0922 7.06734 11.8453 7.94947 11.7509L7.91755 11.4526ZM8.0521 11.4388L7.9182 11.4525L7.94882 11.751L8.08272 11.7372L8.0521 11.4388ZM8.25674 11.5193L8.13829 11.4558L7.99653 11.7202L8.11497 11.7837L8.25674 11.5193ZM11.9793 13.6092C10.8667 12.9408 10.3699 12.6425 8.25626 11.5191L8.11546 11.784C10.2243 12.9049 10.7166 13.2006 11.8248 13.8663L11.9793 13.6092ZM12.8495 14.1302C12.5111 13.9287 12.2296 13.7596 11.9793 13.6092L11.8248 13.8663C12.0752 14.0167 12.3571 14.1861 12.6959 14.388L12.8495 14.1302ZM12.8712 14.1426L12.8472 14.1289L12.6983 14.3893L12.7223 14.4031L12.8712 14.1426ZM12.9105 14.1711L12.8882 14.154L12.7053 14.3917L12.7276 14.4089L12.9105 14.1711ZM13.5613 15.4646C13.557 14.9683 13.3098 14.4843 12.9116 14.172L12.7265 14.408C13.0565 14.6669 13.2579 15.0666 13.2613 15.4672L13.5613 15.4646ZM17.6762 14.0058L13.3675 15.3225L13.4551 15.6094L17.7639 14.2927L17.6762 14.0058ZM19.5048 14.8805C19.2153 14.1187 18.3828 13.789 17.6761 14.0059L17.7641 14.2926C18.3352 14.1174 18.9966 14.3878 19.2244 14.987L19.5048 14.8805ZM19.5146 14.9355V14.9338H19.2146V14.9355H19.5146ZM19.5146 14.9373V14.9355H19.2146V14.9373H19.5146ZM18.6326 16.7253C19.3814 16.4663 19.7808 15.6298 19.5053 14.8852L19.2239 14.9893C19.4407 15.5751 19.1254 16.2374 18.5345 16.4418L18.6326 16.7253ZM13.7027 18.3606C15.3506 17.8312 17.234 17.2081 18.6325 16.7253L18.5346 16.4417C17.1387 16.9236 15.2574 17.546 13.6109 18.075L13.7027 18.3606ZM10.1545 19.4402C10.6751 19.3192 12.0585 18.8888 13.7027 18.3606L13.6109 18.075C11.9606 18.6051 10.592 19.0305 10.0865 19.148L10.1545 19.4402ZM10.0292 19.4694L10.1545 19.4402L10.0865 19.148L9.96117 19.1772L10.0292 19.4694ZM9.82349 19.4218L9.94537 19.4648L10.045 19.1818L9.92313 19.1389L9.82349 19.4218ZM7.06417 18.5973C7.92636 18.8284 8.8776 19.0836 9.8228 19.4216L9.92382 19.1391C8.96534 18.7964 8.00256 18.5383 7.14187 18.3075L7.06417 18.5973ZM5.39361 18.1181C5.87957 18.2797 6.45049 18.4327 7.06417 18.5973L7.14187 18.3075C6.52567 18.1423 5.9641 17.9916 5.48829 17.8334L5.39361 18.1181ZM5.37776 18.1127L5.39321 18.1179L5.48869 17.8335L5.47324 17.8283L5.37776 18.1127ZM5.5755 19.064V17.9705H5.2755V19.064H5.5755ZM1 19.214H5.4255V18.914H1V19.214ZM0.85 11.2997V19.064H1.15V11.2997H0.85ZM1.87892 11.8891H4.54658V11.5891H1.87892V11.8891ZM2.02892 18.1851V11.7391H1.72892V18.1851H2.02892ZM4.54658 18.0351H1.87892V18.3351H4.54658V18.0351ZM4.39658 11.7391V18.1851H4.69658V11.7391H4.39658ZM7.8218 12.6268C9.81736 13.6896 10.3184 13.9899 11.4781 14.6849L11.6323 14.4276C10.4687 13.7303 9.96332 13.4275 7.96282 12.3621L7.8218 12.6268ZM8.01171 12.4037L8.01168 12.4036L7.77293 12.5853L7.77297 12.5853L8.01171 12.4037ZM5.49763 12.8447C5.5218 12.9927 5.5218 12.9927 5.52181 12.9927C5.52182 12.9927 5.52184 12.9927 5.52186 12.9927C5.5219 12.9927 5.52197 12.9927 5.52206 12.9927C5.52224 12.9927 5.52251 12.9926 5.52286 12.9926C5.52358 12.9924 5.52466 12.9923 5.52608 12.992C5.52894 12.9916 5.5332 12.9909 5.5388 12.99C5.55001 12.9881 5.56657 12.9855 5.58798 12.982C5.6308 12.9751 5.69299 12.9651 5.77041 12.9528C5.92526 12.9281 6.14097 12.8942 6.38439 12.857C6.87181 12.7825 7.46828 12.6953 7.90982 12.6435L7.87486 12.3455C7.42774 12.398 6.82685 12.4859 6.33908 12.5604C6.0949 12.5977 5.87856 12.6318 5.72326 12.6565C5.6456 12.6689 5.58319 12.6789 5.54017 12.6858C5.51867 12.6893 5.50201 12.692 5.49071 12.6938C5.48507 12.6948 5.48076 12.6955 5.47787 12.6959C5.47642 12.6962 5.47532 12.6963 5.47458 12.6965C5.47421 12.6965 5.47393 12.6966 5.47375 12.6966C5.47365 12.6966 5.47358 12.6966 5.47353 12.6966C5.47351 12.6966 5.47349 12.6966 5.47348 12.6966C5.47346 12.6966 5.47346 12.6966 5.49763 12.8447ZM5.45019 13.0047L5.52229 12.9926L5.47297 12.6967L5.40087 12.7087L5.45019 13.0047ZM5.57553 17.0436V12.8567H5.27553V17.0436H5.57553ZM5.76504 16.9992L5.47322 16.9014L5.37785 17.1858L5.66967 17.2837L5.76504 16.9992ZM7.29661 17.4403C6.70583 17.2801 6.18307 17.1382 5.76469 16.9991L5.67002 17.2838C6.09815 17.4262 6.63007 17.5704 7.21807 17.7299L7.29661 17.4403ZM10.0685 18.2666C9.09738 17.9288 8.13187 17.6669 7.29661 17.4403L7.21807 17.7299C8.05448 17.9568 9.01018 18.2161 9.96997 18.55L10.0685 18.2666ZM13.3431 17.239C11.7466 17.7519 10.4082 18.1582 9.98345 18.2627L10.0551 18.554C10.492 18.4466 11.8412 18.0366 13.4349 17.5246L13.3431 17.239ZM18.2479 15.6109C16.8615 16.0895 14.984 16.7118 13.3431 17.239L13.4349 17.5246C15.0773 16.997 16.9569 16.3739 18.3458 15.8945L18.2479 15.6109ZM18.398 15.2941C18.4256 15.3701 18.4201 15.4365 18.3962 15.4872C18.3725 15.5376 18.3254 15.5841 18.2479 15.6109L18.3459 15.8944C18.4929 15.8436 18.6066 15.7449 18.6678 15.6148C18.7288 15.4849 18.7321 15.3351 18.6799 15.1916L18.398 15.2941ZM18.0216 15.1322C18.0858 15.1125 18.1685 15.1173 18.2443 15.1497C18.3194 15.1818 18.3747 15.235 18.3994 15.2978L18.6785 15.1879C18.6187 15.036 18.4954 14.9308 18.3621 14.8738C18.2295 14.8172 18.0737 14.8024 17.9336 14.8454L18.0216 15.1322ZM12.8784 16.7064L18.0215 15.1322L17.9337 14.8453L12.7906 16.4195L12.8784 16.7064ZM12.3153 16.9409C12.5335 16.904 12.7391 16.813 12.9206 16.6858L12.7484 16.4401C12.5985 16.5452 12.4341 16.6166 12.2654 16.645L12.3153 16.9409ZM11.1976 16.772C11.5502 16.9293 11.9338 17.0053 12.3153 16.9409L12.2654 16.645C11.9559 16.6973 11.6327 16.6376 11.3198 16.498L11.1976 16.772ZM11.2552 16.785H11.2587V16.485H11.2552V16.785ZM11.1474 16.7393L11.1492 16.7411L11.3613 16.529L11.3596 16.5272L11.1474 16.7393ZM9.02572 15.6431C9.90173 16.1345 10.3713 16.3911 11.1906 16.7694L11.3164 16.4971C10.5078 16.1237 10.0462 15.8716 9.17248 15.3815L9.02572 15.6431ZM8.6425 15.4266L9.02531 15.6429L9.17289 15.3817L8.79008 15.1654L8.6425 15.4266ZM9.01461 14.457L8.58545 15.2227L8.84714 15.3694L9.2763 14.6037L9.01461 14.457ZM9.60161 14.6141L9.2188 14.3995L9.07211 14.6612L9.45492 14.8758L9.60161 14.6141ZM11.6837 15.6989C10.8975 15.3357 10.4727 15.1027 9.60164 14.6141L9.45488 14.8758C10.3279 15.3655 10.7609 15.6031 11.5579 15.9712L11.6837 15.6989ZM12.1195 15.7798C12.0244 15.7959 11.87 15.7809 11.6813 15.6978L11.5604 15.9723C11.787 16.0721 12.0016 16.104 12.1694 16.0756L12.1195 15.7798ZM12.3354 15.6362C12.2975 15.6906 12.2657 15.7205 12.2363 15.7393C12.2073 15.7578 12.1721 15.7709 12.1195 15.7798L12.1694 16.0756C12.2495 16.0621 12.3257 16.0381 12.3976 15.9922C12.4693 15.9465 12.5281 15.8846 12.5818 15.8073L12.3354 15.6362ZM12.1847 15.1059C12.3059 15.2027 12.3685 15.2994 12.3898 15.3837C12.4099 15.4633 12.3972 15.5472 12.3354 15.6361L12.5817 15.8074C12.6886 15.6536 12.7238 15.4813 12.6807 15.3103C12.6387 15.1438 12.5269 14.9953 12.3719 14.8715L12.1847 15.1059ZM11.4781 14.6849C11.6923 14.8132 11.9289 14.9551 12.2015 15.1176L12.3551 14.8599C12.0829 14.6976 11.8465 14.5559 11.6323 14.4276L11.4781 14.6849Z" fill="#1975A9"/>
</svg>
