<svg width="49" height="62" viewBox="0 0 49 62" fill="none" xmlns="http://www.w3.org/2000/svg">
<path d="M27.0653 0C20.6917 0 15.4659 5.23731 15.4659 11.625C15.4659 18.0127 20.6917 23.25 27.0653 23.25C33.439 23.25 38.6647 18.0127 38.6647 11.625C38.6647 5.23731 33.439 0 27.0653 0ZM27.0653 5.16667C30.6499 5.16667 33.5094 8.03255 33.5094 11.625C33.5094 15.2174 30.6499 18.0833 27.0653 18.0833C23.4808 18.0833 20.6212 15.2174 20.6212 11.625C20.6212 8.03255 23.4808 5.16667 27.0653 5.16667ZM16.1103 25.8333C13.291 25.8333 10.6932 27.3773 9.34398 29.8698C7.89405 32.5439 5.61847 36.7318 3.70537 40.526C2.74882 42.4232 1.86275 44.2295 1.20827 45.6927C0.886067 46.4294 0.614206 47.1257 0.402758 47.7109C0.191311 48.2962 0 48.5687 0 49.5677C0 53.4831 1.35931 56.793 3.70537 58.9323C6.05143 61.0716 9.20301 62 12.4049 62H26.8237C29.2704 62 31.6064 61.0413 33.3483 59.4167H41.484C46.156 59.4167 49.66 55.0472 48.8948 50.4557V50.2135L44.0617 31.6458C43.1857 28.235 40.0845 25.8333 36.5704 25.8333H16.1103ZM16.1103 31H20.2184L18.0435 46.0964L17.6408 49.0833H27.0653C29.4416 49.0833 31.103 51.0007 30.9318 53.5234C30.7908 55.4004 28.9885 56.8333 26.8237 56.8333H12.4049C10.1898 56.8333 8.36729 56.238 7.16909 55.138C6.00109 54.0784 5.20564 52.4437 5.1553 49.8099C5.1553 49.8301 5.1553 49.7393 5.1553 49.7292C5.1553 49.6686 5.1553 49.6283 5.1553 49.5677C5.16537 49.4971 5.20564 49.487 5.23585 49.4062C5.37681 49.0228 5.66881 48.4577 5.96081 47.7917C6.54481 46.4697 7.3604 44.724 8.29681 42.8672C10.1696 39.1637 12.4251 35.0264 13.8549 32.3724C14.308 31.5348 15.1538 31 16.1103 31ZM25.4543 31H36.5704C37.7585 31 38.7654 31.7871 39.0675 32.9375L43.82 51.3438C44.0919 52.9482 43.0044 54.25 41.484 54.25H36.0065C36.0166 54.139 36.077 54.0482 36.0871 53.9271C36.4395 48.6999 32.422 43.9167 27.0653 43.9167H23.6016L25.4543 31Z" fill="#1975A9"/>
</svg>
