<svg width="63" height="60" viewBox="0 0 63 60" fill="none" xmlns="http://www.w3.org/2000/svg">
<path d="M10.8281 0L7.66406 3.17274L12.375 7.89659L15.5391 4.72385L10.8281 0ZM52.1719 0L47.4609 4.72385L50.625 7.89659L55.3359 3.17274L52.1719 0ZM31.5 1.41011C30.7617 1.41892 30.0059 1.46298 29.25 1.55112C29.2236 1.55112 29.2061 1.55112 29.1797 1.55112C20.0566 2.59988 12.7969 9.99412 11.5312 19.1069C10.5205 26.4395 13.5352 33.0846 18.5625 37.3678C20.7158 39.2186 22.043 41.6863 22.5 44.2068V57.7438H27.6328C28.415 59.0922 29.8389 60 31.5 60C33.1611 60 34.585 59.0922 35.3672 57.7438H40.5V48.7192H40.7109V46.04C40.7109 42.735 42.4248 39.3948 45.2109 36.8038C48.9375 33.067 51.75 27.7526 51.75 21.6451C51.75 10.4965 42.6006 1.30435 31.5 1.41011ZM31.5 5.92244C40.1924 5.79906 47.25 12.9377 47.25 21.6451C47.25 26.369 45.0703 30.5288 42.0469 33.5605L42.1172 33.631C39.0938 36.46 37.1602 40.1616 36.6328 44.2068H26.7891C26.2969 40.3378 24.6357 36.6011 21.5156 33.913C17.543 30.52 15.1699 25.426 15.9609 19.671C16.9453 12.5588 22.6934 6.84783 29.7422 6.06346C30.3311 5.99295 30.9199 5.93126 31.5 5.92244ZM0 21.6451V26.1575H6.75V21.6451H0ZM56.25 21.6451V26.1575H63V21.6451H56.25ZM12.375 39.906L7.66406 44.6298L10.8281 47.8026L15.5391 43.0787L12.375 39.906ZM50.625 39.906L47.4609 43.0787L52.1719 47.8026L55.3359 44.6298L50.625 39.906ZM27 48.7192H36V53.2315H27V48.7192Z" fill="#1975A9"/>
</svg>
