<svg width="77" height="59" viewBox="0 0 77 59" fill="none" xmlns="http://www.w3.org/2000/svg">
<path fill-rule="evenodd" clip-rule="evenodd" d="M61.5599 0.666525C64.8748 0.666525 67.563 3.36406 67.563 6.6904C67.563 10.0167 64.8748 12.7143 61.5599 12.7143C60.3756 12.7143 59.2664 12.3684 58.3328 11.7711C58.2952 11.8214 58.2513 11.8717 58.2012 11.9157L53.7458 16.223C56.7161 19.5556 58.6022 23.8817 58.8403 28.6417H65.069C65.539 25.787 68.0142 23.6113 70.9906 23.6113C74.3055 23.6113 76.9937 26.3089 76.9937 29.6352C76.9937 32.9615 74.3055 35.6591 70.9906 35.6591C68.1771 35.6591 65.8147 33.7161 65.163 31.0877C65.1317 31.0877 65.1003 31.094 65.069 31.094H58.809C58.4769 35.7911 56.5469 40.0418 53.5579 43.2989L58.2764 47.7005C58.3202 47.7445 58.3641 47.7886 58.4017 47.8389C59.3166 47.2729 60.3944 46.946 61.5536 46.946C64.8685 46.946 67.5567 49.6435 67.5567 52.9698C67.5567 56.2962 64.8685 58.9937 61.5536 58.9937C58.2388 58.9937 55.5505 56.2962 55.5505 52.9698C55.5505 51.6871 55.9516 50.4987 56.6346 49.5177L56.6158 49.4989L51.797 45.0093C48.2942 48.0023 43.7511 49.807 38.7945 49.807C33.6687 49.807 28.9941 47.8829 25.4473 44.7137L20.5847 49.4674L20.5785 49.4737C21.2427 50.4421 21.6249 51.6116 21.6249 52.8755C21.6249 56.2019 18.9367 58.8994 15.6218 58.8994C12.307 58.8994 9.61873 56.2019 9.61873 52.8755C9.61873 49.5492 12.307 46.8516 15.6218 46.8516C16.7936 46.8516 17.8902 47.1912 18.8176 47.776C18.8364 47.7508 18.8552 47.732 18.8803 47.7131L23.7241 42.9783C20.873 39.7274 19.0495 35.5522 18.7612 30.9494L11.931 31.0185H11.8934C11.342 33.779 8.91691 35.8603 6.00309 35.8603C2.68823 35.8603 0 33.1627 0 29.8364C0 26.5101 2.68823 23.8125 6.00309 23.8125C8.88558 23.8125 11.2981 25.8498 11.8746 28.5725H11.9059L18.7487 28.5034C19.0119 23.8566 20.8479 19.6373 23.7241 16.355L18.6296 11.4693C18.592 11.4315 18.5544 11.3938 18.5231 11.3498C17.6897 11.7962 16.731 12.0415 15.7221 12.0415C12.4072 12.0415 9.71899 9.34392 9.71899 6.01758C9.71899 2.69754 12.4072 0 15.7221 0C19.0369 0 21.7252 2.69754 21.7252 6.02387C21.7252 7.44495 21.2364 8.75285 20.4093 9.78408L25.4473 14.6132C28.9941 11.4441 33.6687 9.51998 38.7882 9.51998C43.8514 9.51998 48.4759 11.4001 52.0101 14.5063L56.5093 10.1551C56.5343 10.1299 56.5657 10.1048 56.597 10.0796C55.939 9.11127 55.5568 7.94799 55.5568 6.6904C55.5568 3.36406 58.245 0.666525 61.5599 0.666525ZM35.9747 31.7417L37.6478 36.6777L38.4875 33.7475L38.0739 33.2948C37.8859 33.0244 37.8483 32.7855 37.9486 32.578C38.1742 32.1315 38.6316 32.2195 39.064 32.2195C39.5151 32.2195 40.0728 32.1315 40.217 32.7037C40.2671 32.8924 40.2044 33.0936 40.0728 33.2948L39.6593 33.7475L40.4989 36.6777L42.0154 31.7417C43.1057 32.7289 46.3454 32.9238 47.5485 33.6029C47.9307 33.8167 48.2754 34.0871 48.5511 34.4518C48.971 35.0051 49.2279 35.7345 49.2968 36.6526L49.5474 39.0986C49.4848 39.7525 49.1151 40.1298 48.3945 40.1801H39.0828H29.6019C28.875 40.1235 28.5053 39.7462 28.4489 39.0986L28.6995 36.6526C28.7685 35.7282 29.0254 35.0051 29.4452 34.4518C29.7209 34.0871 30.0656 33.8167 30.4478 33.6029C31.651 32.9238 34.8844 32.7289 35.9747 31.7417ZM35.5235 24.2778C35.5423 24.3156 35.5486 24.3533 35.5486 24.3973C35.5486 24.4162 35.5486 24.435 35.5423 24.4602L35.5737 24.6928C35.4922 24.7117 35.417 24.7117 35.3418 24.7117C35.3105 24.7243 35.2729 24.7306 35.2415 24.7306C35.0348 24.7369 34.8844 24.7746 34.7841 24.8438C34.734 24.8815 34.6901 24.9255 34.6713 24.9758C34.64 25.0387 34.6274 25.1141 34.6337 25.2022C34.64 25.4788 34.7904 25.8373 35.0723 26.2586L35.0786 26.2648L36.0123 27.7551C36.3883 28.3524 36.7768 28.9561 37.2593 29.4025C37.7167 29.8238 38.2807 30.1131 39.0138 30.1131C39.8159 30.1131 40.3987 29.8175 40.8749 29.3711C41.3762 28.9058 41.771 28.2581 42.1595 27.6105L43.2122 25.875C43.4253 25.3908 43.488 25.0953 43.419 24.9569C43.3752 24.8626 43.1872 24.8438 42.8739 24.8689C42.7799 24.8752 42.6859 24.8438 42.6232 24.7809C42.5981 24.7809 42.5731 24.7809 42.548 24.7746L42.5605 24.6991C42.5417 24.6614 42.5292 24.6237 42.5229 24.5797C42.5104 24.4728 42.5606 24.3722 42.6357 24.303L42.8551 23.19C40.9313 23.1649 39.6154 22.8316 38.0551 21.8318C37.5413 21.5049 37.3909 21.1276 36.877 21.1653C36.4885 21.2408 36.1627 21.4168 35.9058 21.6935C35.6551 21.9639 35.4734 22.3286 35.3481 22.7939L35.5235 24.2778ZM43.488 24.2841C43.7135 24.3533 43.8765 24.4791 43.9767 24.6803C44.1334 25.001 44.0707 25.4788 43.7762 26.1579C43.7699 26.1705 43.7637 26.1831 43.7574 26.1957L42.6921 27.9563C42.2786 28.6354 41.8587 29.3208 41.301 29.849C40.7183 30.4023 39.9914 30.767 39.0076 30.7607C38.0864 30.7607 37.3909 30.4023 36.8206 29.8804C36.2755 29.3774 35.8556 28.736 35.4609 28.1072L34.5272 26.617C34.1763 26.0951 34.0008 25.6172 33.9883 25.2273C33.982 25.0387 34.0133 24.8626 34.0823 24.7117C34.1575 24.5545 34.2703 24.4162 34.4207 24.3156C34.4958 24.2653 34.5773 24.2213 34.6713 24.1898C34.6149 23.3912 34.5961 22.3977 34.6337 21.5677C34.6525 21.3665 34.6901 21.1653 34.7465 20.9578C34.9846 20.1026 35.5862 19.411 36.3256 18.9394C36.5888 18.7696 36.8708 18.6312 37.1778 18.5244C38.9762 17.8704 41.3512 18.2288 42.6295 19.6122C43.1496 20.1781 43.4754 20.9201 43.5444 21.9136L43.488 24.2841ZM51.2456 17.1473C51.208 17.1158 51.1767 17.0844 51.1453 17.053C51.1265 17.0341 51.114 17.0152 51.0952 16.9964C47.9182 13.8901 43.582 11.9786 38.8008 11.9786C34.0071 11.9786 29.6646 13.8964 26.4876 17.009C26.45 17.0655 26.4061 17.1158 26.3622 17.1662C26.2996 17.229 26.2369 17.2856 26.1617 17.3359C23.0787 20.5239 21.1737 24.8689 21.1737 29.6603C21.1737 34.5461 23.1476 38.9665 26.3372 42.1671C29.5267 45.3677 33.9319 47.3484 38.8008 47.3484C43.6697 47.3484 48.0749 45.3677 51.2644 42.1671C54.4539 38.9665 56.4278 34.5461 56.4278 29.6603C56.4278 24.7746 54.4539 20.3542 51.2644 17.1536L51.2456 17.1473Z" fill="#1975A9"/>
</svg>
