<svg width="49" height="59" viewBox="0 0 49 59" fill="none" xmlns="http://www.w3.org/2000/svg">
<path d="M24.5002 57.6506C21.8934 56.5164 1.07236 46.2512 0.862671 8.70764L24.5002 1.32568L48.1377 8.70764C47.928 46.1512 27.1022 56.5069 24.5002 57.6506Z" fill="#196DA9" fill-opacity="0.15"/>
<path d="M24.5 2.12151L47.3702 9.26995C46.9747 44.6214 27.936 55.1915 24.4952 56.8118C21.0497 55.201 2.02529 44.7024 1.62974 9.26995L24.5 2.12151ZM24.5 0.525024L0.0999756 8.15002C0.0999756 49.5395 24.5 58.475 24.5 58.475C24.5 58.475 48.9 49.4299 48.9 8.15002L24.5 0.525024Z" fill="#1975A9"/>
<path d="M20.8114 39.4125L22.4651 28.3372L21.9933 28.0798C20.249 27.141 19.1625 25.3491 19.1625 23.4C19.1625 20.4548 21.5548 18.0625 24.5 18.0625C27.4451 18.0625 29.8375 20.4548 29.8375 23.4C29.8375 25.3491 28.7509 27.141 27.0067 28.0798L26.5349 28.3372L28.1886 39.4125H20.8114Z" fill="#196DA9" fill-opacity="0.25"/>
<path d="M24.4998 18.825C27.0208 18.825 29.0748 20.879 29.0748 23.4C29.0748 25.068 28.1455 26.6025 26.6491 27.4079L25.7007 27.9179L25.8627 28.9806L27.3067 38.65H21.6928L23.1368 28.9758L23.2988 27.9179L22.3505 27.4079C20.8541 26.6025 19.9248 25.068 19.9248 23.4C19.9248 20.879 21.9788 18.825 24.4998 18.825ZM24.4998 17.3C21.1305 17.3 18.3998 20.0308 18.3998 23.4C18.3998 25.7257 19.7151 27.7225 21.6309 28.7518L19.9248 40.175H29.0748L27.3687 28.7518C29.2845 27.7225 30.5998 25.7257 30.5998 23.4C30.5998 20.0308 27.8691 17.3 24.4998 17.3Z" fill="#1975A9"/>
</svg>
