<svg width="54" height="54" viewBox="0 0 54 54" fill="none" xmlns="http://www.w3.org/2000/svg">
<path d="M20.25 0V4.5H11.25C7.54981 4.5 4.5 7.54981 4.5 11.25V20.25H0V33.75H13.5V20.25H9V11.25C9 9.97559 9.97559 9 11.25 9H20.25V13.5H33.75V0H20.25ZM24.75 4.5H29.25V9H24.75V4.5ZM36 4.5V9H42.75C44.0244 9 45 9.97559 45 11.25V20.25H40.5V33.75H54V20.25H49.5V11.25C49.5 7.54981 46.4502 4.5 42.75 4.5H36ZM4.5 24.75H9V29.25H4.5V24.75ZM45 24.75H49.5V29.25H45V24.75ZM4.5 36V42.75C4.5 46.4502 7.54981 49.5 11.25 49.5H20.25V54H33.75V40.5H20.25V45H11.25C9.97559 45 9 44.0244 9 42.75V36H4.5ZM45 36V42.75C45 44.0244 44.0244 45 42.75 45H36V49.5H42.75C46.4502 49.5 49.5 46.4502 49.5 42.75V36H45ZM24.75 45H29.25V49.5H24.75V45Z" fill="#1975A9"/>
</svg>
