<svg width="65" height="60" viewBox="0 0 65 60" fill="none" xmlns="http://www.w3.org/2000/svg">
<path fill-rule="evenodd" clip-rule="evenodd" d="M59.0991 24.5499L64.4291 31.3599V31.3799C64.8641 31.9368 65.0599 32.6438 64.9737 33.3451C64.8874 34.0465 64.5261 34.6849 63.9691 35.1199C63.4122 35.5548 62.7052 35.7507 62.0038 35.6644C61.3024 35.5782 60.6641 35.2168 60.2291 34.6599L59.4591 33.6599C58.7022 40.2774 55.7169 46.4407 50.9937 51.1371C46.2705 55.8336 40.0904 58.7838 33.4686 59.503C26.8469 60.2223 20.1774 58.6678 14.556 55.0951C8.93457 51.5223 4.69559 46.1437 2.5355 39.843C0.375409 33.5423 0.422685 26.6942 2.66956 20.4239C4.91644 14.1536 9.22927 8.83408 14.8995 5.33926C20.5697 1.84443 27.26 0.382206 33.8712 1.19282C40.4823 2.00344 46.6212 5.03869 51.2791 9.79987C51.7291 10.3133 51.9653 10.9795 51.9392 11.6616C51.9132 12.3438 51.6268 12.9901 51.139 13.4676C50.6512 13.9452 49.999 14.2178 49.3164 14.2293C48.6339 14.2409 47.9728 13.9906 47.4691 13.5299C43.7022 9.6772 38.7483 7.20421 33.4052 6.50903C28.062 5.81384 22.6403 6.9369 18.0129 9.69742C13.3856 12.4579 9.82175 16.6953 7.89521 21.7273C5.96867 26.7593 5.79149 32.2933 7.3922 37.4383C8.99291 42.5832 12.2784 47.0399 16.7197 50.0907C21.161 53.1416 26.4997 54.6091 31.8764 54.2572C37.2532 53.9052 42.355 51.7542 46.3607 48.1503C50.3664 44.5465 53.0428 39.6996 53.9591 34.3899L53.7691 34.6399C53.5537 34.9156 53.2862 35.1463 52.9817 35.3187C52.6771 35.491 52.3417 35.6017 51.9944 35.6445C51.6471 35.6872 51.2948 35.6611 50.9576 35.5676C50.6204 35.4742 50.3049 35.3152 50.0291 35.0999C49.7533 34.8845 49.5227 34.6169 49.3503 34.3124C49.1779 34.0079 49.0672 33.6724 49.0245 33.3251C48.9818 32.9778 49.0079 32.6255 49.1014 32.2883C49.1948 31.9511 49.3537 31.6356 49.5691 31.3599L54.8991 24.5499C55.1582 24.2461 55.4801 24.0021 55.8427 23.8348C56.2053 23.6675 56.5998 23.5808 56.9991 23.5808C57.3984 23.5808 57.7929 23.6675 58.1555 23.8348C58.5181 24.0021 58.84 24.2461 59.0991 24.5499ZM28.4502 12.4519C28.9485 11.9537 29.6235 11.6726 30.3282 11.6699C31.0346 11.6699 31.7122 11.9498 32.2126 12.4484C32.7131 12.947 32.9955 13.6235 32.9982 14.3299V28.9999L34.7882 30.3299L38.3282 32.9999L41.7482 35.5599L42.5982 36.1999C43.0439 36.5368 43.3727 37.005 43.5383 37.5386C43.7039 38.0722 43.6979 38.6442 43.5212 39.1743C43.3446 39.7043 43.0061 40.1655 42.5535 40.493C42.1008 40.8206 41.5569 40.9978 40.9982 40.9999C40.4207 41.0066 39.8575 40.82 39.3982 40.4699L32.9982 35.6699L28.8182 32.5199L28.7082 32.4399C28.5677 32.3393 28.44 32.2217 28.3282 32.0899C28.3082 32.0699 28.2482 31.9899 28.2482 31.9899C28.125 31.8475 28.0269 31.6852 27.9582 31.5099C27.8591 31.3355 27.7882 31.1465 27.7482 30.9499C27.6921 30.7481 27.6652 30.5393 27.6682 30.3299V14.3299C27.6708 13.6253 27.9519 12.9502 28.4502 12.4519Z" fill="#1975A9"/>
</svg>
