<svg width="61" height="56" viewBox="0 0 61 56" fill="none" xmlns="http://www.w3.org/2000/svg">
<path d="M14.0753 0C8.91621 0 4.69178 4.20182 4.69178 9.33333V16.3333H0V23.3333H4.69178V49C4.69178 50.2852 5.7456 51.3333 7.03767 51.3333H14.0753L14.8817 49H23.4589V44.3333H9.38356V30.3333H28.2973L31.1563 25.6667H30.4966V14H46.9178V23.3333H56.3013V16.3333H51.6096V9.33333C51.6096 4.20182 47.3851 0 42.226 0H14.0753ZM14.0753 4.66667H42.226C44.8468 4.66667 46.9178 6.72656 46.9178 9.33333H9.38356C9.38356 6.72656 11.4545 4.66667 14.0753 4.66667ZM9.38356 14H25.8048V25.6667H9.38356V14ZM34.9684 25.6667C34.2262 25.7578 33.5755 26.1862 33.209 26.8333L26.1713 38.5C25.9514 38.8464 25.8231 39.2565 25.8048 39.6667V51.3333C25.8048 51.4062 25.8048 51.4792 25.8048 51.5521V53.6667C25.8048 54.9518 26.8586 56 28.1507 56H35.1883L35.9947 53.6667H50.8032L51.6096 56H58.6472C59.9393 56 60.9931 54.9518 60.9931 53.6667V51.6979C61.0023 51.5794 61.0023 51.4518 60.9931 51.3333V39.6667C60.9748 39.2565 60.8465 38.8464 60.6266 38.5L53.5889 26.8333C53.1766 26.1315 52.4251 25.6849 51.6096 25.6667H35.1883C35.115 25.6667 35.0417 25.6667 34.9684 25.6667ZM36.4346 30.3333H50.3633L53.1491 35H33.6489L36.4346 30.3333ZM11.7294 35V39.6667H21.113V35H11.7294ZM30.8631 39.6667H55.9348L56.3013 40.25V49H30.4966V40.25L30.8631 39.6667ZM35.1883 42C33.8963 42 32.8425 43.0482 32.8425 44.3333C32.8425 45.6185 33.8963 46.6667 35.1883 46.6667C36.4804 46.6667 37.5342 45.6185 37.5342 44.3333C37.5342 43.0482 36.4804 42 35.1883 42ZM51.6096 42C50.3175 42 49.2637 43.0482 49.2637 44.3333C49.2637 45.6185 50.3175 46.6667 51.6096 46.6667C52.9016 46.6667 53.9555 45.6185 53.9555 44.3333C53.9555 43.0482 52.9016 42 51.6096 42Z" fill="#1975A9"/>
</svg>
