<svg width="28" height="23" viewBox="0 0 28 23" fill="none" xmlns="http://www.w3.org/2000/svg">
<path d="M28 3.07166C26.2387 3.15313 26.2771 3.14649 26.078 3.16321L27.1212 0.173428C27.1212 0.173428 23.8651 1.37556 23.0397 1.5906C20.8718 -0.364926 17.6495 -0.451328 15.3458 0.969703C13.4593 2.13367 12.4467 4.1325 12.7845 6.4688C9.11295 5.95746 6.01947 4.21076 3.57712 1.26622L2.80466 0.335084L2.22745 1.39893C1.49792 2.7432 1.25568 4.28023 1.54514 5.72677C1.66391 6.32022 1.86578 6.88624 2.14542 7.41623L1.48276 7.15852L1.40414 8.26975C1.32446 9.39855 1.69894 10.7162 2.40604 11.7942C2.60513 12.0978 2.86148 12.4312 3.1864 12.7601L2.84396 12.7074L3.26181 13.9807C3.81104 15.6536 4.95178 16.9479 6.43219 17.6675C4.9537 18.2971 3.75934 18.6989 1.79614 19.3471L0 19.9397L1.659 20.85C2.29153 21.1971 4.52667 22.3563 6.73511 22.7041C11.6442 23.4768 17.1712 22.8475 20.8921 19.4843C24.0262 16.6514 25.0546 12.6218 24.8409 8.4284C24.8087 7.79357 24.9819 7.18768 25.3289 6.72265C26.0238 5.79152 27.9957 3.07788 28 3.07166ZM24.017 5.73642C23.4409 6.50847 23.1523 7.49448 23.2039 8.51245C23.4195 12.7423 22.2728 16.0226 19.7954 18.2618C16.9014 20.8776 12.2336 21.9044 6.98911 21.0788C6.03934 20.9293 5.05774 20.5946 4.24533 20.2604C5.8913 19.692 7.16235 19.1854 9.21506 18.2103L12.0806 16.8491L8.91684 16.6459C7.4014 16.5485 6.13953 15.8114 5.36386 14.6146C5.77573 14.5906 6.17285 14.5237 6.56827 14.4131L9.58569 13.5697L6.54306 12.8218C5.06458 12.4584 4.22183 11.5706 3.77515 10.8897C3.48184 10.4422 3.29022 9.98386 3.17529 9.56128C3.48035 9.6434 3.83603 9.70193 4.40961 9.75896L7.2258 10.0385L4.99451 8.29162C3.38678 7.0331 2.74249 5.14232 3.21481 3.32465C8.23239 8.54782 14.1237 8.15526 14.7167 8.29333C14.5862 7.02088 14.5828 7.01788 14.5486 6.89674C13.7892 4.2024 15.4535 2.83432 16.2042 2.37122C17.7722 1.40407 20.2611 1.25828 21.985 2.85169C22.3574 3.19558 22.8609 3.33087 23.3321 3.21338C23.7551 3.1079 24.1022 2.99619 24.4421 2.87463L23.7346 4.90241L24.6378 4.90305C24.4673 5.13246 24.2629 5.4071 24.017 5.73642Z" fill="white"/>
</svg>
