<svg width="60" height="60" viewBox="0 0 60 60" fill="none" xmlns="http://www.w3.org/2000/svg">
<path d="M59.5366 12.9288C59.9751 12.3519 60.1078 11.5962 59.9116 10.9038C58.1403 4.69038 51.2685 0 43.9467 0C38.0616 0 32.8804 2.45769 30.0013 6.15C27.1222 2.45769 21.9409 0 16.0558 0C8.734 0 1.86801 4.69038 0.0909296 10.9038C-0.111012 11.5962 0.0274621 12.3519 0.465963 12.9288C0.898694 13.5058 1.57952 13.8462 2.30651 13.8462H13.0036C7.92047 17.4462 4.61441 22.8 4.61441 28.8462C4.61441 33.7327 7.45889 38.3654 9.88795 40.8519C10.3322 41.2962 10.9265 41.5385 11.5381 41.5385C11.8324 41.5385 12.1266 41.4808 12.4093 41.3654C13.2806 41.0135 13.846 40.1654 13.846 39.2308V38.0769C13.846 32.7173 17.4982 27.8885 22.8756 25.2C22.1083 33.9404 18.7099 44.8615 8.4109 53.5154C5.50295 52.3962 3.63355 51.1846 3.59893 51.1615L1.01409 54.9865C1.31988 55.1942 8.53783 60 17.8156 60C22.4775 60 26.5971 58.7827 30.584 57.6058C34.4555 56.4635 38.1135 55.3846 42.187 55.3846C50.1031 55.3846 56.3344 59.5558 56.3921 59.5962L59 55.7885C58.7 55.5808 51.5743 50.7692 42.187 50.7692C38.2232 50.7692 34.669 51.6346 31.2533 52.6096C36.1057 43.3212 36.8096 33.3173 36.9019 25.0731C42.4062 27.7385 46.1566 32.6423 46.1566 38.0769V39.2308C46.1566 40.1654 46.722 41.0135 47.5932 41.3654C47.8759 41.4808 48.176 41.5385 48.4644 41.5385C49.076 41.5385 49.6703 41.2962 50.1088 40.8519C52.5437 38.3654 55.3881 33.7327 55.3881 28.8462C55.3881 22.8 52.0821 17.4462 46.9989 13.8462H57.696C58.423 13.8462 59.1039 13.5058 59.5366 12.9288ZM16.0558 4.61538C20.6081 4.61538 24.6931 6.50192 26.6202 9.23077H6.103C8.15703 6.675 11.7689 4.61538 16.0558 4.61538ZM10.0668 32.7923C9.55331 31.5173 9.2302 30.1673 9.2302 28.8462C9.2302 20.5731 17.5098 13.8462 27.6934 13.8462V18.75C19.0907 20.2385 12.3459 25.7423 10.0668 32.7923ZM24.9701 54.3692C22.6333 54.9519 20.2966 55.3846 17.8156 55.3846C16.3962 55.3846 15.0576 55.2173 13.771 54.9923C24.2085 44.9942 27.1741 32.8269 27.6241 23.5212C28.3973 23.3481 29.182 23.1865 30.0013 23.1058C30.7917 23.1865 31.5476 23.3423 32.2976 23.5038C32.2746 33.0635 31.8591 44.5038 24.9701 54.3692ZM50.7723 28.8462C50.7723 30.1673 50.455 31.5173 49.9357 32.7923C47.6567 25.7423 40.9119 20.2385 32.3092 18.75V13.8462C42.4928 13.8462 50.7723 20.5731 50.7723 28.8462ZM33.3881 9.23077C35.3152 6.50192 39.3944 4.61538 43.9525 4.61538C48.2452 4.61538 51.8571 6.675 53.8995 9.23077H33.3881Z" fill="#1975A9"/>
</svg>
