<svg width="50" height="58" viewBox="0 0 50 58" fill="none" xmlns="http://www.w3.org/2000/svg">
<path d="M16 0V8H20V0H16ZM0 4V48H19.1875C21.5781 53.8359 27.3203 58 34 58C42.8125 58 50 50.8125 50 42C50 33.8672 43.8672 27.125 36 26.125V4H22V8H32V26.125C29.4062 26.4531 26.9922 27.4531 24.9375 28.875C24.5078 28.4531 24.0625 28.0234 23.5625 27.6875C25.0469 26.2344 26 24.2266 26 22C26 17.6016 22.3984 14 18 14C13.6016 14 10 17.6016 10 22C10 24.2266 10.9531 26.2344 12.4375 27.6875C9.77344 29.4922 8 32.5625 8 36H12C12 32.6641 14.6641 30 18 30C19.5234 30 20.8828 30.5703 21.9375 31.5C19.4922 34.3125 18 38 18 42C18 42.6797 18.0391 43.3359 18.125 44H4V8H14V4H0ZM18 18C20.2344 18 22 19.7656 22 22C22 24.2344 20.2344 26 18 26C15.7656 26 14 24.2344 14 22C14 19.7656 15.7656 18 18 18ZM34 30C40.6484 30 46 35.3516 46 42C46 48.6484 40.6484 54 34 54C27.3516 54 22 48.6484 22 42C22 35.3516 27.3516 30 34 30ZM40.5625 36.5625L34 43.125L29.4375 38.5625L26.5625 41.4375L32.5625 47.4375L34 48.8125L35.4375 47.4375L43.4375 39.4375L40.5625 36.5625Z" fill="#1975A9"/>
</svg>
