<svg width="62" height="50" viewBox="0 0 62 50" fill="none" xmlns="http://www.w3.org/2000/svg">
<path d="M0 0V42.8571H62V0H0ZM4.76923 4.7619H57.2308V38.0952H4.76923V4.7619ZM31 9.52381C27.0784 9.52381 23.8462 12.7511 23.8462 16.6667C23.8462 18.285 24.4144 19.7824 25.3365 20.9821C23.0171 22.7214 21.4615 25.4743 21.4615 28.5714H26.2308C26.2308 25.9115 28.3359 23.8095 31 23.8095C33.6641 23.8095 35.7692 25.9115 35.7692 28.5714H40.5385C40.5385 25.4743 38.9829 22.7214 36.6635 20.9821C37.5856 19.7824 38.1538 18.285 38.1538 16.6667C38.1538 12.7511 34.9216 9.52381 31 9.52381ZM31 14.2857C32.3413 14.2857 33.3846 15.3274 33.3846 16.6667C33.3846 18.006 32.3413 19.0476 31 19.0476C29.6587 19.0476 28.6154 18.006 28.6154 16.6667C28.6154 15.3274 29.6587 14.2857 31 14.2857ZM14.3077 30.9524V35.7143H23.8462V30.9524H14.3077ZM26.2308 30.9524V35.7143H35.7692V30.9524H26.2308ZM38.1538 30.9524V35.7143H47.6923V30.9524H38.1538ZM16.6923 45.2381V50H45.3077V45.2381H16.6923Z" fill="#1975A9"/>
</svg>
