<svg width="56" height="60" viewBox="0 0 56 60" fill="none" xmlns="http://www.w3.org/2000/svg">
<path d="M30.3333 0C27.125 0 24.43 2.19808 23.6075 5.12308C22.8025 4.79423 21.91 4.61538 21 4.61538C17.1558 4.61538 14 7.73654 14 11.5385V34.6154L9.07667 32.6308L8.96583 32.5962C5.2675 31.5346 1.3475 33.6404 0.291667 37.2808C0.0933333 37.9327 0 38.5846 0 39.2308C0 42.1327 1.87833 44.55 4.41 46.1712L4.22917 46.0442L14.2917 53.9942C18.1183 57.2423 22.5517 60 28 60H37.3333C47.5417 60 56 51.7615 56 41.6308V16.1538C56 12.3519 52.8442 9.23077 49 9.23077C48.1775 9.23077 47.3958 9.40962 46.6667 9.66346V9.23077C46.6667 5.42885 43.5108 2.30769 39.6667 2.30769C38.3367 2.30769 37.0942 2.70577 36.0383 3.35192C35.0525 2.07115 33.6117 1.10192 31.9375 0.646154C31.5 0.253846 30.9342 0.0173081 30.3333 0ZM30.3333 4.61538C31.6458 4.61538 32.6667 5.625 32.6667 6.92308V27.6923H37.3333V9.23077C37.3333 7.93269 38.3542 6.92308 39.6667 6.92308C40.9792 6.92308 42 7.93269 42 9.23077V27.6923H46.6667V16.1538C46.6667 14.8558 47.6875 13.8462 49 13.8462C50.3125 13.8462 51.3333 14.8558 51.3333 16.1538V41.6308C51.3333 49.2173 45.0275 55.3846 37.3333 55.3846H28C24.1383 55.3846 20.8192 53.4346 17.3542 50.4808L17.3192 50.4635L7.07 42.3692L6.965 42.3115C5.13917 41.1404 4.66667 40.3327 4.66667 39.2308C4.66667 39.0346 4.70167 38.7981 4.76 38.5846C5.12167 37.3385 6.38167 36.6692 7.63583 37.0327L18.6667 41.5385V11.5385C18.6667 10.2404 19.6875 9.23077 21 9.23077C22.3125 9.23077 23.3333 10.2404 23.3333 11.5385V27.6923H28V6.92308C28 5.625 29.0208 4.61538 30.3333 4.61538ZM30.9167 32.3077C28.8225 32.3077 28 33.9865 28 36.0577C28 40.275 35 46.1538 35 46.1538C35 46.1538 42 40.3846 42 36.0577C42 33.9865 41.1775 32.3077 39.0833 32.3077C36.295 32.3077 35 35.4635 35 36.9231C35 35.4635 33.6525 32.3077 30.9167 32.3077Z" fill="#1975A9"/>
</svg>
