<svg width="48" height="44" viewBox="0 0 48 44" fill="none" xmlns="http://www.w3.org/2000/svg">
<path d="M16.5138 0.00357708C16.3846 0.0173282 16.2415 0.0310793 16.1262 0.0769148L1.35692 4.20216C0.549231 4.41759 0 5.14638 0 5.96226V40.2797C0 42.6311 2.29385 44.405 4.58769 43.832C4.61538 43.832 4.62923 43.832 4.64308 43.832L16.6431 40.3943L30.9369 43.9466C31.2554 44.0199 31.5738 44.0199 31.8877 43.9329L46.6569 39.7664C47.4508 39.5372 48 38.8084 48 37.9925V3.67046C48 1.31907 45.7062 -0.454784 43.4123 0.118167C43.3846 0.118167 43.3708 0.118167 43.3431 0.131918L31.3569 3.61546L17.0631 0.0585803C16.8877 0.0173282 16.7031 -0.010174 16.5138 0.00357708ZM44.3077 3.67046V36.6128L31.3569 40.2797L17.0631 36.7274C16.7446 36.6449 16.4123 36.6587 16.0985 36.7458L3.69231 40.2797V7.3511L16.6431 3.72546L30.9369 7.28234C31.2554 7.36485 31.5877 7.3511 31.9015 7.26401L44.3077 3.67046ZM16.6154 11.0042L11.0769 12.0493H9.23077L7.38462 14.1578V15.1845H9.23077L10.1538 19.3831L12.9231 22.5182L12 24.6267L13.8462 26.7168L14.7692 31.9605L16.6154 33.0055L17.5385 27.7619L18.4615 26.7168L19.3846 24.6267L17.5385 22.5182L13.8462 21.4915V19.3831L16.6154 16.2479L17.5385 15.1845L15.6923 13.0944L16.6154 12.0493V11.0042ZM19.3846 11.0042L18.4615 12.8377L19.3846 14.6711L22.1538 12.8377V11.0042H19.3846ZM32.7138 11.0042L26.5385 12.1089L23.9123 14.2998V17.6092L26.5385 15.3999V16.5046L23.0354 19.8002L22.1538 24.2967L24.7938 25.3005L25.6708 30.8146L27.4338 33.0055L30.0554 26.4006V24.2096L28.3108 20.9002L26.5385 19.8002H28.3108L30.0554 22.0049L32.7138 19.8002L33.5769 22.0049L34.4585 19.8002L36.2308 22.0049L37.0938 19.8002L38.8569 17.6092L37.9754 14.2998L40.6154 12.1089L32.7138 11.0042ZM39.5031 25.6718L35.0769 27.7619V29.852H37.2831L39.5031 31.9605L40.6154 28.8253L39.5031 25.6718Z" fill="#1975A9"/>
</svg>
