<svg width="20" height="20" viewBox="0 0 20 20" fill="none" xmlns="http://www.w3.org/2000/svg">
<path d="M9.9375 0C5.93597 0 2.48114 2.38086 0.905762 5.79688H2.76904C3.66187 4.26031 5.03345 3.03754 6.67676 2.3291C6.12683 3.26398 5.67719 4.44147 5.38281 5.79688H7.1167C7.74426 3.28015 8.8797 1.65625 9.9375 1.65625C10.9953 1.65625 12.1307 3.28015 12.7583 5.79688H14.4922C14.1978 4.44147 13.7482 3.26398 13.1982 2.3291C14.8416 3.03754 16.2131 4.26031 17.106 5.79688H18.9692C17.3939 2.38086 13.939 0 9.9375 0ZM0 7.45312L1.24219 12.4219H2.4585C2.4585 12.4219 3.31897 9.41345 3.33838 9.18701H3.36426C3.37396 9.39081 4.21826 12.4219 4.21826 12.4219H5.38281L6.625 7.45312H5.56396C5.56396 7.45312 4.84906 10.426 4.83936 10.6104H4.81348C4.79083 10.3774 3.98535 7.45312 3.98535 7.45312H2.84668C2.84668 7.45312 1.89886 10.4583 1.88916 10.6362C1.87622 10.4001 1.16455 7.45312 1.16455 7.45312H0ZM6.625 7.45312L7.86719 12.4219H9.0835C9.0835 12.4219 9.94397 9.41345 9.96338 9.18701H9.98926C9.99896 9.39081 10.8433 12.4219 10.8433 12.4219H12.0078L13.25 7.45312H12.189C12.189 7.45312 11.4741 10.426 11.4644 10.6104H11.4385C11.4158 10.3774 10.6104 7.45312 10.6104 7.45312H9.47168C9.47168 7.45312 8.52386 10.4583 8.51416 10.6362C8.50122 10.4001 7.78955 7.45312 7.78955 7.45312H6.625ZM13.25 7.45312L14.4922 12.4219H15.7085C15.7085 12.4219 16.569 9.41345 16.5884 9.18701H16.6143C16.624 9.39081 17.4683 12.4219 17.4683 12.4219H18.6328L19.875 7.45312H18.814C18.814 7.45312 18.0991 10.426 18.0894 10.6104H18.0635C18.0408 10.3774 17.2354 7.45312 17.2354 7.45312H16.0967C16.0967 7.45312 15.1489 10.4583 15.1392 10.6362C15.1262 10.4001 14.4146 7.45312 14.4146 7.45312H13.25ZM0.905762 14.0781C2.48114 17.4941 5.93597 19.875 9.9375 19.875C13.939 19.875 17.3939 17.4941 18.9692 14.0781H17.106C16.2131 15.6147 14.8416 16.8375 13.1982 17.5459C13.7482 16.611 14.1978 15.4335 14.4922 14.0781H12.7583C12.1307 16.5948 10.9953 18.2188 9.9375 18.2188C8.8797 18.2188 7.74426 16.5948 7.1167 14.0781H5.38281C5.67719 15.4335 6.12683 16.611 6.67676 17.5459C5.03345 16.8375 3.66187 15.6147 2.76904 14.0781H0.905762Z" fill="#1975A9"/>
</svg>
